<?xml version="1.0" standalone="no"?>
<!DOCTYPE svg PUBLIC "-//W3C//DTD SVG 20010904//EN"
 "http://www.w3.org/TR/2001/REC-SVG-20010904/DTD/svg10.dtd">
<svg version="1.0" xmlns="http://www.w3.org/2000/svg"
 width="900.000000pt" height="900.000000pt" viewBox="0 0 900.000000 900.000000"
 preserveAspectRatio="xMidYMid meet">
<metadata>
Created by potrace 1.14, written by Peter Selinger 2001-2017
</metadata>
<g transform="translate(0.000000,900.000000) scale(0.100000,-0.100000)"
fill="#000000" stroke="none">
<path d="M0 4500 l0 -4500 375 0 375 0 0 4500 0 4500 -375 0 -375 0 0 -4500z"/>
<path d="M8250 4500 l0 -4500 375 0 375 0 0 4500 0 4500 -375 0 -375 0 0
-4500z"/>
<path d="M4020 8749 c18 -16 32 -19 55 -14 16 4 98 6 181 5 150 -2 194 3 194
21 0 5 -93 9 -227 9 l-228 -1 25 -20z"/>
<path d="M4510 8727 l-35 -11 30 -3 c17 -2 48 -12 70 -23 99 -48 217 -100 229
-100 8 0 19 -7 26 -15 7 -8 27 -17 45 -21 17 -3 44 -14 59 -23 27 -18 26 -18
-80 -24 -59 -4 -138 -7 -175 -7 -37 0 -70 -4 -73 -9 -3 -4 33 -27 80 -51 l85
-43 92 7 c51 3 142 9 202 12 61 3 120 7 133 10 42 9 20 35 -53 64 -38 14 -97
39 -130 55 -109 51 -185 84 -225 99 -8 3 -22 10 -30 16 -38 24 -173 80 -193
79 -12 0 -38 -6 -57 -12z"/>
<path d="M3640 8720 c0 -5 14 -10 30 -10 17 0 30 5 30 10 0 6 -13 10 -30 10
-16 0 -30 -4 -30 -10z"/>
<path d="M4140 8700 c0 -5 7 -10 16 -10 8 0 12 5 9 10 -3 6 -10 10 -16 10 -5
0 -9 -4 -9 -10z"/>
<path d="M4276 8702 c-3 -6 -20 -13 -36 -17 -17 -4 -30 -11 -30 -16 0 -14 30
-11 46 6 22 22 60 18 78 -6 11 -16 21 -20 40 -15 18 4 31 1 46 -14 11 -11 26
-20 34 -20 25 0 46 -12 46 -26 0 -10 13 -14 45 -14 34 0 43 -3 39 -14 -4 -11
14 -15 93 -18 54 -2 99 -3 101 -2 11 6 -71 44 -96 44 -17 0 -32 6 -35 14 -3 8
-24 20 -46 26 -23 6 -41 15 -41 20 0 6 -11 10 -24 10 -35 0 -56 10 -56 26 0
11 -18 14 -77 14 -43 0 -88 3 -99 6 -12 3 -25 1 -28 -4z"/>
<path d="M3512 8691 c-18 -11 7 -21 54 -21 23 0 34 -5 34 -14 0 -8 6 -17 13
-19 6 -3 -18 -6 -55 -6 -37 -1 -70 -5 -73 -11 -4 -6 8 -10 28 -10 19 0 40 -7
47 -15 7 -8 28 -15 46 -15 24 0 34 -5 34 -15 0 -8 6 -16 13 -16 6 -1 19 -3 27
-4 8 -1 21 -3 28 -4 6 0 12 -8 12 -16 0 -10 10 -15 30 -15 19 0 34 -7 42 -20
9 -14 24 -20 49 -20 29 0 38 -5 42 -21 5 -17 11 -19 40 -14 30 6 35 4 40 -16
5 -19 11 -21 43 -16 20 3 44 13 53 21 9 8 34 16 56 18 57 4 55 32 -2 36 -31 2
-41 7 -37 17 4 11 -5 16 -34 21 -23 3 -43 13 -46 20 -3 8 -16 14 -29 14 -13 0
-34 9 -47 20 -13 11 -36 20 -51 20 -15 0 -34 7 -43 15 -8 8 -32 15 -55 15 -34
0 -41 3 -41 20 0 18 -7 20 -54 20 -38 0 -60 6 -79 20 -26 21 -63 26 -85 11z
m198 -85 c0 -2 -9 -6 -20 -9 -11 -3 -18 -1 -14 4 5 9 34 13 34 5z m78 -44 c2
-7 -3 -12 -12 -12 -9 0 -16 7 -16 16 0 17 22 14 28 -4z m102 -22 c0 -5 -12
-10 -27 -9 l-28 1 25 8 c14 4 26 8 28 9 1 1 2 -3 2 -9z m55 -40 c3 -5 0 -10
-9 -10 -8 0 -21 -3 -30 -6 -9 -3 -16 -1 -16 4 0 9 15 16 42 21 4 0 10 -3 13
-9z m101 -43 c4 -4 -5 -7 -19 -7 -15 0 -30 0 -34 -1 -4 0 -9 4 -11 9 -3 11 53
10 64 -1z"/>
<path d="M3740 8685 c0 -8 6 -15 14 -15 22 0 28 17 10 24 -22 9 -24 8 -24 -9z"/>
<path d="M3822 8692 c-20 -13 -4 -39 31 -52 18 -6 51 -20 75 -31 23 -10 49
-19 56 -19 7 0 19 -7 26 -15 7 -8 19 -15 27 -15 8 0 52 -18 98 -40 46 -22 88
-40 95 -40 18 0 70 -30 70 -40 0 -6 -20 -10 -45 -10 -24 0 -59 -6 -77 -14 -18
-8 -69 -25 -113 -38 -44 -13 -79 -28 -79 -33 2 -11 44 -36 114 -66 43 -19 56
-20 88 -11 20 6 89 27 152 46 63 19 132 37 152 41 21 3 40 10 43 14 10 17 -7
41 -34 47 -26 6 -68 24 -191 83 -36 17 -73 31 -81 31 -9 0 -22 7 -29 15 -7 8
-27 17 -46 21 -18 3 -38 12 -45 20 -6 8 -18 14 -27 14 -8 0 -36 9 -61 21 -78
36 -104 47 -145 63 -45 19 -38 18 -54 8z"/>
<path d="M4909 8680 c27 -23 71 -27 71 -6 0 13 -42 26 -79 26 -12 -1 -11 -5 8
-20z"/>
<path d="M3383 8663 c-45 -3 -53 -7 -53 -24 0 -12 7 -19 20 -19 24 0 90 31 90
42 0 4 -1 7 -2 6 -2 -1 -27 -3 -55 -5z"/>
<path d="M5031 8647 c-25 -30 16 -36 50 -7 l24 19 -31 1 c-17 0 -37 -6 -43
-13z"/>
<path d="M4290 8630 c0 -5 4 -10 9 -10 6 0 13 5 16 10 3 6 -1 10 -9 10 -9 0
-16 -4 -16 -10z"/>
<path d="M5180 8621 c0 -12 26 -21 61 -21 39 0 37 16 -2 24 -43 8 -59 8 -59
-3z"/>
<path d="M3436 8601 c-3 -5 0 -11 8 -14 15 -6 26 1 26 15 0 11 -27 10 -34 -1z"/>
<path d="M4381 8601 c-10 -6 -9 -10 3 -14 8 -3 18 -2 21 3 8 13 -9 20 -24 11z"/>
<path d="M5115 8590 c-3 -5 1 -10 9 -10 9 0 16 5 16 10 0 6 -4 10 -9 10 -6 0
-13 -4 -16 -10z"/>
<path d="M5333 8583 c-28 -11 -11 -23 31 -23 27 0 51 -6 60 -16 9 -8 33 -18
53 -21 21 -3 50 -12 65 -19 15 -8 36 -14 48 -14 11 0 20 -5 20 -11 0 -16 -181
0 -202 18 -10 9 -25 12 -38 8 -24 -8 -22 -28 4 -33 9 -2 27 -14 40 -26 28 -29
99 -42 299 -56 144 -10 167 -9 167 11 0 13 -127 68 -205 88 -16 5 -43 15 -60
23 -63 32 -102 46 -171 62 -74 17 -90 18 -111 9z"/>
<path d="M4465 8567 c-16 -13 -16 -14 -1 -20 10 -4 19 -1 23 9 8 21 -1 26 -22
11z"/>
<path d="M3515 8560 c3 -5 15 -10 26 -10 10 0 19 5 19 10 0 6 -12 10 -26 10
-14 0 -23 -4 -19 -10z"/>
<path d="M5198 8553 c7 -3 16 -2 19 1 4 3 -2 6 -13 5 -11 0 -14 -3 -6 -6z"/>
<path d="M3030 8540 c0 -5 7 -10 15 -10 8 0 15 5 15 10 0 6 -7 10 -15 10 -8 0
-15 -4 -15 -10z"/>
<path d="M3100 8534 c0 -11 5 -14 16 -10 9 3 20 6 25 6 5 0 9 5 9 10 0 6 -11
10 -25 10 -16 0 -25 -6 -25 -16z"/>
<path d="M3597 8533 c-13 -12 -7 -23 13 -23 11 0 20 7 20 15 0 15 -21 21 -33
8z"/>
<path d="M4535 8529 c-10 -15 1 -23 20 -15 9 3 13 10 10 16 -8 13 -22 13 -30
-1z"/>
<path d="M5265 8530 c-3 -5 -4 -10 -1 -10 2 0 11 -3 20 -6 11 -4 16 -1 16 10
0 18 -25 22 -35 6z"/>
<path d="M3223 8520 c-34 -14 -28 -30 11 -30 18 0 45 -9 59 -20 14 -11 33 -20
42 -20 9 0 33 -8 53 -19 20 -10 53 -25 72 -33 19 -8 56 -25 83 -36 26 -12 55
-22 64 -22 9 0 25 -7 35 -17 10 -9 35 -19 55 -22 48 -8 58 -37 16 -47 -15 -4
-35 -12 -43 -18 -8 -6 -35 -22 -60 -36 -93 -50 -165 -97 -165 -109 0 -7 35
-29 78 -49 89 -40 71 -43 212 38 112 63 129 73 184 103 52 28 65 53 34 63 -10
3 -31 12 -48 19 -82 35 -103 43 -132 49 -17 4 -37 14 -44 22 -6 8 -18 14 -25
14 -13 0 -75 26 -134 55 -14 7 -39 16 -57 19 -17 4 -37 14 -44 22 -6 8 -20 14
-31 14 -11 0 -32 7 -46 15 -46 24 -120 55 -134 54 -7 0 -23 -4 -35 -9z"/>
<path d="M2968 8498 c9 -9 15 -9 24 0 9 9 7 12 -12 12 -19 0 -21 -3 -12 -12z"/>
<path d="M3675 8490 c-3 -5 3 -10 14 -10 12 0 21 5 21 10 0 6 -6 10 -14 10 -8
0 -18 -4 -21 -10z"/>
<path d="M3010 8469 c0 -15 -7 -19 -34 -19 -19 0 -38 -5 -41 -10 -4 -6 -21
-17 -38 -25 -31 -15 -31 -15 33 -11 45 3 58 2 43 -4 -13 -5 -23 -14 -23 -20 0
-6 -11 -16 -25 -22 -30 -14 -33 -28 -5 -28 11 0 20 7 20 15 0 16 2 16 62 19
25 1 34 -2 27 -10 -13 -16 0 -24 38 -24 26 0 33 -4 33 -20 0 -17 7 -20 53 -20
33 0 47 -3 38 -9 -11 -7 -11 -10 0 -17 8 -5 24 -7 36 -6 14 2 26 -4 33 -17 8
-15 21 -21 45 -21 24 0 35 -5 35 -15 0 -11 11 -15 36 -15 27 0 37 -5 41 -20 5
-19 43 -29 43 -12 0 5 15 16 33 25 17 9 41 22 52 29 11 7 37 23 58 36 31 19
36 26 26 38 -6 8 -26 14 -43 14 -19 0 -38 8 -49 20 -10 12 -29 20 -47 20 -18
0 -33 6 -36 15 -4 9 -19 15 -40 15 -23 0 -37 6 -44 20 -7 14 -21 20 -43 20
-20 0 -39 8 -49 20 -12 14 -27 18 -53 16 -23 -1 -35 2 -35 10 0 21 -15 25
-100 29 -74 3 -80 2 -80 -16z m33 -36 c-7 -2 -19 -2 -25 0 -7 3 -2 5 12 5 14
0 19 -2 13 -5z m204 -39 c-3 -3 -12 -4 -19 -1 -8 3 -5 6 6 6 11 1 17 -2 13 -5z
m-22 -34 c3 -5 -1 -10 -10 -10 -9 0 -13 5 -10 10 3 6 8 10 10 10 2 0 7 -4 10
-10z m140 0 c3 -5 1 -10 -4 -10 -6 0 -11 5 -11 10 0 6 2 10 4 10 3 0 8 -4 11
-10z m-215 -15 c-14 -17 -30 -20 -30 -4 0 5 5 7 10 4 6 -3 10 -1 10 4 0 6 5
11 11 11 8 0 8 -5 -1 -15z m290 -19 c0 -2 -9 -6 -20 -9 -11 -3 -20 -1 -20 4 0
5 9 9 20 9 11 0 20 -2 20 -4z m-160 -26 c0 -5 -4 -10 -9 -10 -6 0 -13 5 -16
10 -3 6 1 10 9 10 9 0 16 -4 16 -10z m248 -16 c8 -9 3 -11 -21 -8 -18 1 -33 3
-35 3 -2 1 -1 5 2 9 7 12 41 9 54 -4z m-8 -54 c0 -5 -4 -10 -9 -10 -6 0 -13 5
-16 10 -3 6 1 10 9 10 9 0 16 -4 16 -10z"/>
<path d="M2885 8470 c-3 -5 3 -10 14 -10 12 0 21 5 21 10 0 6 -6 10 -14 10 -8
0 -18 -4 -21 -10z"/>
<path d="M3750 8450 c0 -5 9 -10 20 -10 11 0 20 5 20 10 0 6 -9 10 -20 10 -11
0 -20 -4 -20 -10z"/>
<path d="M2815 8440 c-3 -5 3 -10 15 -10 12 0 18 5 15 10 -3 6 -10 10 -15 10
-5 0 -12 -4 -15 -10z"/>
<path d="M3835 8420 c-3 -5 3 -10 15 -10 12 0 18 5 15 10 -3 6 -10 10 -15 10
-5 0 -12 -4 -15 -10z"/>
<path d="M2755 8410 c-3 -5 -1 -10 4 -10 6 0 11 5 11 10 0 6 -2 10 -4 10 -3 0
-8 -4 -11 -10z"/>
<path d="M2830 8380 c-13 -8 -12 -10 3 -10 9 0 17 5 17 10 0 12 -1 12 -20 0z"/>
<path d="M3916 8381 c-3 -5 3 -11 14 -14 13 -3 20 0 20 9 0 15 -26 19 -34 5z"/>
<path d="M2975 8310 c-4 -6 5 -10 19 -10 14 0 26 5 26 10 0 6 -9 10 -19 10
-11 0 -23 -4 -26 -10z"/>
<path d="M2560 8290 c0 -5 11 -10 25 -10 14 0 25 5 25 10 0 6 -11 10 -25 10
-14 0 -25 -4 -25 -10z"/>
<path d="M2722 8266 c-33 -11 -34 -26 -2 -26 8 0 33 -9 55 -20 22 -11 45 -20
53 -20 7 0 30 -8 50 -19 38 -19 101 -48 162 -74 90 -38 137 -60 162 -73 14 -8
34 -14 43 -14 28 0 14 -16 -80 -95 -57 -47 -99 -75 -115 -75 l-25 -1 30 -25
c26 -22 147 -84 164 -84 7 0 59 42 179 143 72 61 88 92 55 103 -18 6 -178 72
-240 100 -18 8 -48 20 -65 28 -18 8 -53 23 -78 34 -104 46 -143 62 -155 62 -7
0 -18 6 -24 14 -7 8 -27 17 -45 20 -19 4 -39 13 -46 21 -15 18 -33 18 -78 1z"/>
<path d="M3050 8270 c0 -5 9 -10 20 -10 11 0 20 5 20 10 0 6 -9 10 -20 10 -11
0 -20 -4 -20 -10z"/>
<path d="M3147 8243 c-12 -11 -8 -23 8 -23 8 0 15 7 15 15 0 16 -12 20 -23 8z"/>
<path d="M2460 8220 c0 -5 5 -10 10 -10 6 0 10 5 10 10 0 6 -4 10 -10 10 -5 0
-10 -4 -10 -10z"/>
<path d="M2548 8218 c-27 -25 -58 -42 -98 -55 -13 -4 -12 -6 3 -14 9 -6 21 -8
26 -5 12 8 33 -19 23 -29 -4 -4 8 -5 26 -2 25 5 37 2 52 -13 11 -11 33 -20 51
-20 22 0 32 -5 36 -20 4 -15 14 -20 39 -20 21 0 37 -6 43 -17 6 -12 20 -16 44
-15 27 2 36 -2 40 -18 4 -15 13 -20 39 -20 22 0 37 -6 46 -20 7 -12 23 -20 38
-20 15 0 32 -6 38 -14 10 -14 34 -20 66 -17 8 1 31 16 50 34 19 19 45 39 58
46 33 17 27 31 -13 31 -22 0 -38 6 -41 15 -3 8 -24 20 -45 25 -21 6 -39 15
-39 19 0 5 -18 11 -40 15 -23 3 -43 13 -46 21 -4 8 -15 15 -26 15 -12 0 -36 9
-55 21 -18 12 -40 18 -49 15 -8 -3 -22 3 -31 14 -10 11 -26 20 -36 20 -10 0
-35 9 -57 20 -44 22 -121 27 -142 8z m47 -48 c3 -5 -3 -10 -14 -10 -12 0 -21
5 -21 10 0 6 6 10 14 10 8 0 18 -4 21 -10z m145 -30 c20 -6 21 -8 5 -8 -11 0
-29 3 -40 8 -25 11 1 11 35 0z m-103 -16 c-3 -3 -12 -4 -19 -1 -8 3 -5 6 6 6
11 1 17 -2 13 -5z m283 -53 c0 -5 -9 -7 -20 -4 -11 3 -20 7 -20 9 0 2 9 4 20
4 11 0 20 -4 20 -9z m-120 -11 c0 -5 -4 -10 -10 -10 -5 0 -10 5 -10 10 0 6 5
10 10 10 6 0 10 -4 10 -10z m165 -41 c11 -17 -1 -21 -15 -4 -8 9 -8 15 -2 15
6 0 14 -5 17 -11z m50 -69 c3 -5 1 -10 -4 -10 -6 0 -11 5 -11 10 0 6 2 10 4
10 3 0 8 -4 11 -10z"/>
<path d="M3220 8200 c0 -5 7 -10 15 -10 8 0 15 5 15 10 0 6 -7 10 -15 10 -8 0
-15 -4 -15 -10z"/>
<path d="M4950 8197 c0 -10 71 -44 107 -51 17 -4 37 -14 44 -22 6 -8 24 -14
40 -14 15 0 30 -4 33 -9 9 -14 188 -101 208 -101 9 0 23 -6 30 -13 21 -20 113
-64 149 -72 65 -12 175 -38 289 -67 63 -16 138 -33 165 -37 28 -5 95 -21 150
-36 55 -15 118 -31 140 -35 22 -5 57 -13 78 -18 75 -20 53 22 -28 52 -22 8
-83 30 -135 49 -52 20 -111 41 -130 48 -50 18 -120 47 -153 64 -16 8 -34 15
-40 15 -7 0 -29 9 -50 20 -20 11 -43 20 -50 20 -7 0 -29 9 -50 20 -20 11 -41
20 -47 20 -5 0 -43 16 -84 35 -41 19 -88 35 -104 35 -27 0 -61 9 -172 45 -25
9 -87 17 -139 20 -52 3 -99 10 -106 15 -14 12 -145 27 -145 17z"/>
<path d="M3306 8171 c-14 -5 -16 -10 -7 -15 15 -9 41 -1 41 14 0 11 -7 12 -34
1z"/>
<path d="M2346 8152 c-7 -11 6 -27 27 -35 31 -12 39 3 13 24 -27 21 -33 23
-40 11z"/>
<path d="M3375 8131 c-3 -5 -1 -12 5 -16 12 -7 30 2 30 16 0 12 -27 12 -35 0z"/>
<path d="M2450 8090 c0 -5 11 -10 25 -10 14 0 25 5 25 10 0 6 -11 10 -25 10
-14 0 -25 -4 -25 -10z"/>
<path d="M2535 8060 c-8 -13 20 -24 41 -16 20 8 9 26 -16 26 -10 0 -22 -5 -25
-10z"/>
<path d="M2626 8027 c-16 -12 -16 -15 -4 -19 21 -9 46 8 32 22 -7 7 -16 6 -28
-3z"/>
<path d="M2230 8000 c0 -5 9 -10 20 -10 11 0 20 5 20 10 0 6 -9 10 -20 10 -11
0 -20 -4 -20 -10z"/>
<path d="M2333 7988 c-36 -17 -37 -38 -1 -38 17 0 52 -10 77 -21 25 -12 66
-31 91 -42 25 -11 52 -24 60 -29 8 -4 22 -11 30 -14 8 -3 33 -14 55 -24 22
-10 61 -27 86 -39 25 -12 51 -21 56 -21 6 0 16 -7 23 -15 7 -8 23 -15 36 -15
34 0 30 -14 -18 -63 -100 -101 -139 -149 -134 -163 3 -8 12 -14 20 -14 8 0 41
-13 74 -30 34 -16 65 -30 70 -30 13 0 222 226 222 239 0 7 -20 20 -44 30 -24
11 -70 31 -102 46 -32 15 -79 36 -104 47 -25 10 -63 28 -85 38 -22 10 -66 30
-97 44 -32 15 -82 37 -110 50 -29 13 -64 27 -78 31 -14 4 -32 13 -40 20 -22
19 -62 24 -87 13z"/>
<path d="M2700 7990 c-12 -8 -12 -10 2 -15 19 -7 38 1 38 16 0 12 -21 11 -40
-1z"/>
<path d="M2147 7926 c-47 -48 -55 -60 -47 -76 12 -22 41 -33 64 -24 12 5 19 0
23 -15 4 -15 13 -21 33 -21 15 0 37 -9 50 -20 13 -11 36 -20 52 -20 18 0 28
-5 28 -15 0 -11 11 -15 40 -15 33 0 40 -3 40 -20 0 -17 7 -20 39 -20 53 0 63
-26 18 -45 -28 -12 -30 -14 -13 -21 12 -5 23 -2 30 8 23 31 86 33 86 2 0 -9
12 -14 35 -14 31 0 35 -3 35 -25 0 -18 -5 -25 -20 -25 -11 0 -20 -4 -20 -10 0
-5 7 -10 15 -10 20 0 125 107 125 126 0 8 9 14 20 14 13 0 20 7 20 19 0 15
-10 21 -39 26 -22 4 -45 13 -52 21 -6 8 -22 14 -35 14 -13 0 -33 9 -44 20 -11
11 -33 20 -50 20 -19 0 -29 5 -27 13 1 7 -11 13 -31 15 -18 2 -42 12 -53 23
-10 10 -29 19 -40 19 -12 0 -27 7 -33 15 -7 9 -29 17 -53 18 -31 1 -43 6 -46
19 -4 12 -15 18 -35 18 -19 0 -35 8 -44 21 -14 21 -15 21 -71 -35z m48 -36 c3
-5 -1 -10 -10 -10 -9 0 -13 5 -10 10 3 6 8 10 10 10 2 0 7 -4 10 -10z m92 4
c-3 -3 -12 -4 -19 -1 -8 3 -5 6 6 6 11 1 17 -2 13 -5z m40 -90 c-3 -3 -12 -4
-19 -1 -8 3 -5 6 6 6 11 1 17 -2 13 -5z m70 -40 c-3 -3 -12 -4 -19 -1 -8 3 -5
6 6 6 11 1 17 -2 13 -5z m293 -48 c0 -11 -19 -15 -25 -6 -3 5 1 10 9 10 9 0
16 -2 16 -4z m30 -66 c0 -5 -4 -10 -10 -10 -5 0 -10 5 -10 10 0 6 5 10 10 10
6 0 10 -4 10 -10z"/>
<path d="M2780 7950 c0 -5 9 -10 20 -10 11 0 20 5 20 10 0 6 -9 10 -20 10 -11
0 -20 -4 -20 -10z"/>
<path d="M2872 7923 c-18 -7 -4 -23 19 -23 12 0 19 5 17 12 -5 14 -18 18 -36
11z"/>
<path d="M2945 7881 c-3 -5 -1 -12 5 -16 12 -7 30 2 30 16 0 12 -27 12 -35 0z"/>
<path d="M1995 7850 c-7 -12 2 -30 16 -30 5 0 9 9 9 20 0 21 -15 27 -25 10z"/>
<path d="M5590 7831 c0 -4 28 -27 63 -49 34 -22 87 -63 117 -91 30 -28 61 -51
68 -51 7 0 15 -7 18 -15 8 -20 70 -55 99 -55 13 0 45 -17 72 -39 36 -28 65
-41 108 -49 33 -7 92 -21 130 -32 39 -11 90 -24 115 -29 25 -6 65 -17 89 -25
24 -9 54 -16 68 -16 13 0 45 -9 71 -19 26 -11 63 -22 82 -25 19 -3 67 -15 105
-26 110 -33 115 -34 115 -18 0 13 -198 201 -292 277 -18 14 -65 32 -126 46
-164 38 -235 56 -281 71 -25 8 -54 14 -66 14 -12 0 -41 6 -66 14 -24 7 -82 23
-129 35 -47 12 -110 29 -140 37 -30 8 -71 16 -90 18 -19 2 -48 11 -65 20 -33
17 -65 21 -65 7z"/>
<path d="M2066 7811 c-3 -5 1 -11 9 -15 15 -6 29 7 18 18 -9 9 -21 8 -27 -3z"/>
<path d="M2145 7770 c-4 -6 5 -10 20 -10 15 0 24 4 20 10 -3 6 -12 10 -20 10
-8 0 -17 -4 -20 -10z"/>
<path d="M2220 7730 c0 -5 9 -10 20 -10 11 0 20 5 20 10 0 6 -9 10 -20 10 -11
0 -20 -4 -20 -10z"/>
<path d="M2301 7700 c-10 -5 -9 -8 2 -13 7 -3 19 -2 26 3 10 5 9 8 -2 13 -7 3
-19 2 -26 -3z"/>
<path d="M1885 7681 c-7 -12 12 -24 25 -16 11 7 4 25 -10 25 -5 0 -11 -4 -15
-9z"/>
<path d="M1820 7654 c0 -8 5 -12 10 -9 6 4 8 11 5 16 -9 14 -15 11 -15 -7z"/>
<path d="M1985 7656 c-43 -13 -38 -22 16 -31 19 -3 43 -12 54 -19 11 -7 35
-17 52 -20 17 -4 37 -14 44 -22 6 -8 18 -14 27 -14 8 0 33 -8 56 -19 23 -10
64 -28 91 -40 28 -13 61 -28 75 -35 14 -7 37 -16 53 -20 15 -3 27 -11 27 -16
0 -6 13 -10 29 -10 43 0 46 -15 13 -57 -16 -21 -53 -71 -82 -111 -56 -78 -80
-98 -98 -80 -13 13 -46 2 -37 -13 4 -6 14 -8 23 -4 8 3 25 -4 38 -16 22 -21
117 -66 159 -76 15 -3 30 10 65 57 25 34 71 96 103 138 34 45 57 85 55 97 -2
13 -25 28 -78 50 -98 41 -127 53 -176 76 -23 11 -47 19 -54 19 -8 0 -21 6 -29
13 -9 7 -43 23 -76 36 -33 13 -80 32 -105 43 -25 11 -61 27 -80 35 -19 9 -52
24 -72 34 -42 22 -40 21 -93 5z"/>
<path d="M2380 7660 c0 -5 9 -10 20 -10 11 0 20 5 20 10 0 6 -9 10 -20 10 -11
0 -20 -4 -20 -10z"/>
<path d="M1822 7582 c-23 -26 -42 -55 -42 -64 0 -11 -8 -18 -19 -18 -19 0 -35
-23 -24 -34 4 -3 15 -6 25 -6 10 0 21 -7 24 -15 4 -10 20 -15 44 -15 29 0 39
-4 42 -17 2 -10 10 -18 18 -19 8 -1 25 -2 38 -2 12 -1 22 -9 22 -17 0 -10 10
-15 29 -15 39 0 61 -9 61 -26 0 -10 12 -14 40 -14 29 0 40 -4 40 -15 0 -10 11
-15 35 -15 24 0 39 -6 47 -20 9 -13 24 -20 45 -20 20 0 41 -8 53 -20 11 -11
31 -20 43 -20 23 0 57 27 57 45 0 4 15 26 33 49 45 55 51 73 27 86 -10 5 -29
10 -42 10 -13 0 -31 9 -41 20 -10 11 -29 20 -46 20 -16 0 -31 6 -35 15 -3 8
-17 15 -31 15 -14 0 -33 9 -42 20 -11 13 -30 20 -51 20 -20 0 -35 6 -38 15 -4
8 -23 18 -44 21 -22 4 -41 13 -44 20 -3 9 -21 14 -45 14 -31 0 -43 5 -51 21
-7 12 -18 18 -26 15 -8 -3 -25 -1 -38 3 -20 8 -28 3 -64 -37z m178 -62 c0 -5
-2 -10 -4 -10 -3 0 -8 5 -11 10 -3 6 -1 10 4 10 6 0 11 -4 11 -10z m123 -35
c-4 -15 -36 -12 -41 3 -3 9 3 13 19 10 13 -1 23 -7 22 -13z m-308 -5 c-3 -5
-10 -10 -16 -10 -5 0 -9 5 -9 10 0 6 7 10 16 10 8 0 12 -4 9 -10z m440 -68
c-3 -3 -11 0 -18 7 -9 10 -8 11 6 5 10 -3 15 -9 12 -12z m-262 -9 c-7 -2 -19
-2 -25 0 -7 3 -2 5 12 5 14 0 19 -2 13 -5z m87 -23 c0 -5 -5 -10 -11 -10 -5 0
-7 5 -4 10 3 6 8 10 11 10 2 0 4 -4 4 -10z m345 -30 c-3 -5 -10 -10 -16 -10
-5 0 -9 5 -9 10 0 6 7 10 16 10 8 0 12 -4 9 -10z m-65 -75 c0 -8 -7 -15 -15
-15 -16 0 -20 12 -8 23 11 12 23 8 23 -8z"/>
<path d="M1775 7609 c-4 -6 -5 -13 -2 -16 7 -7 27 6 27 18 0 12 -17 12 -25 -2z"/>
<path d="M2545 7590 c-4 -6 5 -10 19 -10 14 0 26 5 26 10 0 6 -9 10 -19 10
-11 0 -23 -4 -26 -10z"/>
<path d="M1746 7581 c-4 -7 -5 -15 -2 -18 9 -9 19 4 14 18 -4 11 -6 11 -12 0z"/>
<path d="M4425 7462 c-26 -23 -65 -78 -65 -92 0 -5 -9 -27 -20 -47 -29 -55
-26 -89 13 -151 12 -17 37 3 37 29 0 10 14 32 31 49 41 39 86 40 117 5 12 -14
26 -25 32 -25 5 0 10 -16 10 -36 0 -28 3 -35 18 -32 25 5 27 44 3 65 -12 9
-21 21 -21 26 0 4 -10 21 -22 37 -19 26 -28 30 -69 30 -51 0 -81 -21 -100 -67
-5 -13 -13 -23 -19 -23 -17 0 -11 46 10 73 11 14 20 36 20 49 1 32 50 87 86
94 36 7 76 -31 78 -74 1 -25 4 -28 21 -22 31 11 29 32 -10 83 -34 44 -39 47
-83 47 -30 -1 -54 -7 -67 -18z"/>
<path d="M1650 7450 c0 -5 9 -10 21 -10 11 0 17 5 14 10 -3 6 -13 10 -21 10
-8 0 -14 -4 -14 -10z"/>
<path d="M1725 7410 c-4 -6 5 -10 20 -10 15 0 24 4 20 10 -3 6 -12 10 -20 10
-8 0 -17 -4 -20 -10z"/>
<path d="M4461 7391 c-32 -25 -20 -41 27 -34 46 7 46 7 32 32 -13 26 -28 26
-59 2z"/>
<path d="M1801 7381 c-11 -7 -10 -11 7 -20 21 -11 52 -6 52 9 0 8 -24 20 -38
20 -4 0 -13 -4 -21 -9z"/>
<path d="M6100 7372 c0 -5 22 -33 50 -62 27 -28 73 -79 102 -113 93 -108 114
-125 163 -133 25 -3 51 -14 58 -23 20 -29 68 -48 172 -71 55 -12 129 -31 164
-41 35 -10 74 -19 87 -19 12 0 44 -7 70 -15 63 -19 335 -85 352 -85 21 0 13
27 -16 57 -15 15 -64 76 -110 134 -45 58 -92 115 -104 126 -22 20 -139 54
-237 69 -25 4 -56 13 -70 21 -14 7 -40 13 -56 13 -17 0 -56 9 -88 20 -31 11
-67 20 -79 20 -12 0 -40 6 -63 14 -22 8 -62 18 -90 24 -91 19 -149 33 -195 47
-70 21 -110 28 -110 17z"/>
<path d="M1890 7336 c0 -18 35 -27 49 -13 18 18 12 27 -19 27 -19 0 -30 -5
-30 -14z"/>
<path d="M4600 7316 c0 -43 12 -86 25 -86 20 0 26 -42 10 -67 -19 -28 -19 -86
-1 -126 8 -18 17 -61 19 -97 2 -36 12 -126 22 -200 18 -128 16 -198 -5 -185
-5 3 -12 22 -16 43 -4 20 -18 60 -30 89 -14 31 -23 70 -22 93 1 25 -5 47 -15
58 -10 10 -17 26 -17 34 0 9 -16 26 -36 37 -31 18 -42 20 -69 11 -18 -6 -41
-21 -52 -33 -26 -29 -56 -95 -48 -106 3 -5 -1 -25 -9 -43 -8 -18 -25 -78 -38
-133 l-23 -100 -7 55 c-9 84 -9 196 1 223 5 14 14 75 20 136 6 63 17 124 27
142 19 37 12 110 -12 130 -21 17 -27 6 -36 -59 -4 -31 -12 -86 -18 -122 -34
-200 -40 -270 -40 -472 1 -248 18 -443 43 -482 19 -28 23 -76 7 -76 -23 0 -60
34 -79 73 -12 23 -38 60 -58 82 -21 22 -45 52 -54 66 -27 41 -88 108 -195 214
-174 172 -171 170 -200 155 -29 -16 -45 -5 -19 14 17 12 14 36 -4 36 -5 0 -26
16 -47 35 -21 19 -43 35 -48 35 -19 -1 -58 -39 -51 -50 8 -13 45 -13 45 0 0 6
7 10 15 10 8 0 15 -4 15 -10 0 -5 -7 -10 -15 -10 -21 0 -19 -29 3 -37 23 -8
102 -70 162 -127 16 -16 22 -17 35 -6 20 17 32 5 15 -15 -9 -11 -10 -19 -3
-26 8 -8 13 -7 17 0 15 24 27 10 21 -21 -7 -32 -7 -33 12 -15 11 9 23 14 26
10 12 -11 8 -23 -8 -23 -7 0 -18 -7 -22 -15 -7 -12 -19 -6 -63 30 -30 24 -60
44 -66 45 -6 0 -19 9 -29 20 -10 11 -23 20 -28 20 -6 0 -20 9 -31 19 -24 23
-121 43 -150 31 -45 -17 -59 -45 -51 -105 10 -83 44 -68 45 20 0 24 6 33 30
43 21 10 34 10 49 3 11 -6 31 -11 46 -11 22 0 25 -3 19 -25 -5 -22 -3 -25 19
-25 15 0 41 -10 59 -22 186 -127 406 -338 472 -450 15 -27 32 -48 37 -48 5 0
9 -8 9 -17 0 -10 9 -31 20 -48 12 -18 20 -47 20 -71 0 -36 -4 -43 -35 -59 -32
-18 -36 -18 -70 -2 -20 9 -41 17 -48 17 -13 0 -130 74 -158 100 -9 8 -26 22
-37 30 -49 37 -172 161 -214 216 -25 33 -58 71 -72 85 -14 13 -26 31 -26 39 0
9 -9 23 -20 33 -11 9 -20 25 -20 36 0 10 -7 22 -16 25 -12 4 -14 19 -12 63 3
48 7 59 26 69 35 17 36 22 4 38 -30 15 -30 15 -49 -17 -11 -18 -22 -48 -25
-67 -4 -19 -9 -43 -13 -52 -4 -10 1 -24 13 -36 11 -11 23 -29 26 -40 4 -11 13
-23 21 -26 8 -3 15 -10 15 -16 0 -5 20 -39 45 -74 25 -36 45 -68 45 -71 0 -3
-11 0 -24 7 -30 16 -136 116 -136 129 0 5 -6 9 -14 9 -7 0 -16 9 -19 20 -3 11
-13 20 -22 20 -11 0 -15 6 -11 18 4 12 -6 31 -28 55 -19 21 -37 44 -40 52 -3
8 -12 15 -21 15 -9 0 -15 9 -15 25 0 26 -7 29 -34 19 -21 -8 -21 -43 0 -51 8
-3 20 -16 24 -29 7 -17 14 -22 26 -17 14 5 16 2 11 -19 -5 -18 -2 -28 8 -32 8
-3 15 -1 15 4 0 6 7 10 17 10 15 0 15 -2 -1 -19 -17 -19 -12 -25 171 -208 103
-104 211 -206 238 -228 28 -21 55 -44 60 -49 43 -45 125 -74 125 -44 0 6 3 8
6 5 4 -4 1 -13 -5 -21 -10 -11 -7 -19 11 -36 23 -21 23 -22 4 -36 -25 -18 -46
-18 -46 0 0 8 -12 17 -27 20 -125 27 -638 45 -738 27 -33 -6 -114 -16 -179
-21 -81 -7 -123 -15 -130 -25 -7 -8 -36 -15 -76 -18 -108 -6 -245 -55 -294
-105 -90 -89 -8 -175 241 -253 64 -20 78 -21 125 -10 29 6 60 16 68 21 13 9
13 11 0 20 -19 13 -95 7 -138 -11 -31 -13 -34 -12 -50 8 -11 14 -33 25 -60 29
-24 4 -46 13 -49 20 -3 8 -20 14 -39 14 -22 0 -37 6 -41 16 -3 8 -16 20 -29
25 -35 13 -32 59 6 98 19 18 37 28 46 24 8 -3 25 3 37 14 12 11 34 23 49 27
15 3 37 16 48 29 20 21 22 21 51 4 37 -21 92 -22 122 -3 12 8 63 17 112 21 50
4 108 13 130 21 43 15 188 18 220 4 18 -7 17 -9 -15 -23 -19 -8 -55 -21 -80
-28 -25 -7 -49 -16 -55 -21 -5 -4 -22 -8 -39 -8 -79 0 -158 -77 -131 -127 30
-58 99 -103 157 -103 38 0 221 -63 225 -77 5 -13 -105 -26 -144 -18 -15 3 -52
13 -81 22 -61 17 -244 15 -263 -4 -25 -25 3 -33 117 -33 80 0 131 -5 165 -16
44 -15 81 -16 267 -10 329 10 422 18 459 41 25 15 36 16 45 7 9 -9 8 -16 -5
-30 -9 -10 -17 -24 -17 -30 0 -7 -7 -12 -15 -12 -62 0 -407 -318 -602 -557
-24 -28 -43 -54 -43 -57 0 -3 -8 -15 -17 -25 -32 -35 -48 -55 -53 -65 -17 -34
-53 -86 -60 -86 -4 0 -13 -12 -19 -27 -6 -16 -16 -37 -23 -48 -34 -55 -44 -74
-60 -120 -22 -64 -24 -168 -3 -185 25 -21 168 -14 213 10 20 10 44 22 52 25
31 11 73 41 72 50 -1 6 -10 11 -22 13 -11 2 -20 8 -20 13 0 12 37 12 45 -1 11
-17 55 -12 55 6 0 37 -84 62 -96 29 -5 -11 -22 -15 -68 -15 -76 0 -106 24
-106 83 0 24 -5 40 -15 43 -8 4 -15 17 -15 30 0 15 6 24 15 24 8 0 15 -7 15
-15 0 -8 4 -15 9 -15 15 0 21 29 11 56 -9 23 -8 25 13 22 19 -3 22 2 22 27 0
21 6 32 20 35 11 3 22 15 24 25 2 11 9 24 17 28 8 4 14 13 14 20 0 7 18 30 40
51 22 22 40 44 40 49 0 22 183 227 203 227 14 0 -3 -42 -37 -90 -41 -60 -52
-78 -74 -125 -11 -22 -27 -46 -36 -54 -25 -21 -22 -125 4 -151 25 -25 125 -28
156 -5 27 21 6 32 -64 34 -31 0 -59 4 -63 8 -9 11 1 93 12 93 5 0 9 -11 9 -23
0 -31 29 -57 64 -57 15 0 41 -8 57 -17 28 -17 29 -16 71 15 67 51 156 112 162
112 13 0 5 -34 -11 -45 -15 -11 -15 -15 -4 -29 12 -14 12 -16 -3 -10 -10 4
-24 0 -34 -9 -95 -89 -134 -122 -174 -149 -27 -17 -48 -35 -48 -39 0 -4 -11
-10 -25 -13 -14 -4 -25 -11 -25 -16 0 -6 -11 -15 -25 -20 -14 -5 -25 -14 -25
-20 0 -5 -8 -10 -18 -10 -19 0 -42 -18 -42 -32 0 -4 7 -8 15 -8 7 0 18 -7 23
-16 7 -13 13 -14 31 -5 11 7 21 16 21 20 0 5 11 12 25 15 14 4 25 13 25 21 0
8 9 15 20 15 11 0 20 3 20 8 0 4 32 32 70 62 39 30 70 58 70 62 0 5 7 8 16 8
9 0 18 9 21 20 3 11 10 20 15 20 12 0 168 155 168 167 0 4 9 14 20 21 11 7 17
18 14 27 -4 10 0 15 15 15 12 0 21 6 21 13 0 6 16 27 35 46 19 19 44 46 55 60
11 14 38 49 60 78 38 50 52 93 29 93 -5 0 -7 5 -4 10 4 6 15 8 25 5 11 -3 29
-1 41 5 38 21 46 -3 20 -56 -19 -37 -26 -78 -37 -198 -16 -178 -17 -432 -3
-531 5 -38 14 -114 19 -167 5 -54 14 -106 20 -117 5 -11 10 -44 10 -75 0 -30
4 -57 9 -60 35 -22 64 54 41 108 -7 17 -16 60 -21 96 -5 36 -14 99 -20 140
-11 69 -13 259 -3 269 4 4 6 -1 29 -84 9 -33 23 -74 32 -91 9 -19 12 -41 8
-54 -9 -30 30 -102 67 -123 19 -11 39 -15 56 -11 34 8 82 52 82 75 0 9 7 22
15 29 8 7 15 29 15 50 0 20 6 57 14 81 38 115 54 153 64 157 17 5 15 -122 -4
-238 -9 -52 -19 -129 -23 -170 -4 -41 -12 -84 -17 -95 -6 -11 -14 -40 -17 -64
-3 -25 -12 -48 -20 -53 -9 -4 -18 -20 -22 -36 -12 -52 -77 -108 -112 -95 -26
10 -73 62 -73 82 0 23 -16 44 -30 39 -36 -12 -47 -151 -14 -179 8 -6 14 -22
14 -34 0 -12 19 -42 43 -68 38 -41 46 -45 80 -42 53 5 78 29 118 115 6 14 17
37 25 52 8 14 14 34 14 45 0 10 7 31 15 47 8 15 15 54 15 85 0 31 5 62 12 69
27 27 60 476 47 637 -4 61 -11 166 -15 235 -5 104 -10 129 -26 146 -28 31 -22
88 10 92 12 2 22 10 22 18 0 8 5 14 10 14 6 0 10 -4 10 -9 0 -6 -4 -13 -10
-16 -16 -10 -11 -41 10 -60 11 -10 20 -23 20 -28 0 -11 85 -118 144 -181 20
-21 36 -41 36 -43 0 -3 17 -22 38 -42 21 -21 47 -49 58 -62 11 -13 32 -35 46
-48 24 -21 28 -22 42 -8 29 29 10 61 -21 35 -15 -12 -16 -10 -9 17 11 46 19
48 67 13 51 -38 75 -53 106 -67 12 -5 26 -18 31 -27 7 -12 17 -15 38 -10 16 3
45 9 64 11 42 7 80 40 80 71 0 13 5 26 10 29 6 4 9 -15 8 -52 l-3 -58 -57 -5
c-31 -3 -60 -9 -65 -13 -14 -15 29 -37 73 -37 35 0 47 5 68 31 34 40 37 122 6
141 -12 8 -20 24 -20 39 0 15 -7 29 -15 33 -8 3 -20 17 -25 31 -5 14 -14 25
-19 25 -5 0 -14 12 -19 28 -6 15 -29 49 -51 77 -22 27 -38 51 -35 54 2 3 10
-1 16 -7 16 -16 45 -15 51 1 2 6 8 8 13 4 5 -4 2 -12 -5 -16 -7 -5 -10 -14 -7
-20 12 -18 44 -12 51 10 5 16 -5 31 -47 70 -82 78 -109 101 -163 144 -27 21
-57 46 -66 54 -56 53 -113 92 -181 123 -31 14 -35 29 -13 48 17 14 68 5 104
-19 22 -14 71 -16 396 -16 386 0 415 2 625 51 36 9 79 18 95 20 61 10 75 15
75 24 0 6 -9 10 -20 10 -11 0 -20 7 -20 15 0 8 9 15 20 15 11 0 27 11 36 25 9
13 25 27 36 31 17 5 19 12 14 45 -5 31 -3 39 9 39 8 0 17 -11 21 -25 3 -14 12
-25 20 -25 19 0 18 36 -1 44 -8 3 -15 12 -15 21 0 18 -21 20 -39 3 -10 -11
-15 -9 -29 8 -20 25 -65 50 -105 59 -15 3 -25 10 -22 15 11 17 79 11 110 -10
17 -11 42 -20 56 -20 15 0 29 -7 33 -15 3 -8 12 -15 20 -15 9 0 22 -13 31 -29
8 -16 20 -32 27 -35 10 -3 8 -8 -4 -16 -10 -6 -18 -18 -18 -26 0 -8 -12 -19
-27 -25 -14 -5 -31 -16 -37 -24 -6 -8 -27 -15 -46 -17 -24 -2 -36 -9 -38 -20
-5 -26 33 -23 89 6 84 42 106 72 101 143 -2 26 -60 83 -84 83 -10 0 -18 4 -18
10 0 5 -12 13 -27 16 -16 4 -46 15 -68 25 -48 22 -98 24 -115 5 -6 -8 -26 -16
-43 -18 -43 -4 -38 -21 9 -32 21 -5 45 -15 52 -23 7 -7 21 -13 29 -13 22 0 83
-65 83 -87 0 -10 -18 -36 -39 -59 -58 -61 -196 -100 -441 -123 -58 -6 -133
-13 -167 -16 -34 -3 -64 -2 -67 3 -6 10 171 72 208 72 28 0 45 18 26 30 -15 9
-5 30 15 30 8 0 11 -7 8 -20 -8 -30 20 -25 59 9 43 38 50 97 16 128 -44 39
-92 61 -113 53 -31 -13 -45 -11 -45 5 0 8 -12 17 -27 20 -60 13 -135 41 -137
50 0 6 66 14 166 20 161 10 209 21 176 41 -7 5 -157 10 -333 12 -257 2 -334 0
-390 -12 -38 -9 -91 -18 -116 -21 -26 -3 -55 -12 -65 -20 -39 -29 -80 -9 -50
24 9 10 16 23 16 29 0 7 9 12 20 12 20 0 63 26 100 60 9 8 43 38 75 65 134
115 210 187 290 279 78 89 88 100 125 145 19 24 43 51 53 59 9 9 17 23 17 32
0 8 9 21 20 28 11 7 20 18 20 26 0 8 7 16 15 20 8 3 15 12 15 20 0 9 9 20 20
26 25 13 25 31 2 70 -14 23 -21 27 -30 18 -7 -7 -12 -22 -12 -35 0 -14 -6 -23
-15 -23 -9 0 -18 -12 -21 -29 -4 -17 -12 -32 -20 -35 -8 -3 -14 -12 -14 -19 0
-8 -16 -32 -35 -53 -19 -21 -35 -43 -35 -49 0 -6 -17 -29 -37 -52 -71 -78
-103 -116 -103 -124 0 -4 -9 -11 -21 -14 -14 -5 -19 -13 -16 -26 6 -22 -2 -24
-27 -6 -17 12 -14 20 48 111 36 53 66 107 65 119 0 12 -9 36 -20 52 -11 17
-22 38 -25 47 -5 13 -15 16 -50 11 -26 -3 -44 -1 -44 5 0 13 60 21 101 13 29
-6 34 -11 35 -37 2 -50 4 -54 18 -54 9 0 17 16 21 41 6 36 4 44 -21 71 -27 28
-33 30 -86 26 -34 -3 -65 -11 -75 -20 -10 -9 -30 -19 -45 -23 -14 -4 -34 -15
-44 -26 -9 -10 -23 -19 -30 -19 -7 0 -17 -6 -21 -13 -10 -16 -126 -87 -143
-87 -6 0 -10 6 -8 14 4 17 177 176 192 176 7 0 19 8 28 18 26 28 69 62 79 62
5 0 9 7 9 15 0 9 9 15 21 15 12 0 23 8 26 20 3 11 14 20 24 20 24 0 33 18 19
35 -8 10 -9 15 -2 15 6 0 14 -4 17 -10 8 -13 42 -13 50 1 4 6 -1 16 -11 24
-26 18 -10 31 20 16 27 -15 68 -11 73 6 2 6 -6 13 -18 15 -12 2 -24 9 -27 16
-5 17 33 15 48 -3 9 -10 32 -15 76 -15 58 0 64 -2 83 -29 25 -34 27 -64 6 -81
-8 -7 -15 -24 -15 -39 1 -27 30 -71 48 -71 18 0 23 33 7 50 -17 18 -20 56 -6
64 5 3 14 -8 20 -25 11 -32 31 -32 31 0 0 10 9 30 20 44 11 14 20 34 20 44 0
10 6 27 14 38 24 36 27 91 5 119 -25 31 -81 48 -116 35 -13 -5 -36 -9 -49 -9
-38 0 -231 -98 -254 -128 -3 -4 -16 -13 -30 -20 -62 -32 -80 -44 -80 -53 0 -5
-11 -14 -25 -19 -14 -5 -25 -14 -25 -20 0 -5 -6 -10 -13 -10 -7 0 -42 -27 -77
-61 -258 -242 -395 -392 -485 -529 -64 -99 -95 -116 -95 -52 0 24 7 43 18 53
17 14 20 46 32 273 12 231 11 280 -4 472 -17 218 -21 244 -37 244 -5 0 -9 35
-9 78 -1 52 -5 83 -15 96 -8 11 -15 32 -15 47 0 38 -9 59 -26 59 -8 0 -14 -10
-14 -24z m1269 -436 c28 -25 31 -33 25 -65 -3 -19 -13 -39 -21 -44 -11 -6 -14
-20 -11 -50 5 -57 -16 -54 -43 7 -12 26 -28 51 -35 55 -8 4 -14 15 -14 24 0
13 -10 14 -70 8 -44 -4 -70 -3 -70 3 0 10 67 34 130 47 19 4 43 16 53 26 10
11 19 19 21 19 2 0 18 -13 35 -30z m-1347 -8 c10 -15 23 -35 30 -44 10 -13 9
-22 -1 -41 -11 -21 -11 -28 4 -50 9 -14 26 -63 38 -109 20 -75 22 -107 21
-348 0 -224 -2 -270 -16 -295 -9 -17 -19 -47 -23 -67 -4 -22 -22 -54 -45 -78
l-39 -42 -31 24 c-18 12 -36 32 -41 43 -5 11 -13 27 -18 35 -39 66 -50 119
-57 265 -10 244 17 477 67 575 21 40 74 69 92 51 6 -6 17 -11 25 -11 19 0 5
39 -22 61 -19 16 -22 16 -47 -5 -15 -11 -30 -30 -33 -41 -4 -16 -8 -17 -18 -7
-11 11 -10 16 5 26 9 7 17 17 17 22 0 11 52 62 65 63 6 0 18 -11 27 -27z
m-874 -264 c-7 -19 -38 -22 -38 -4 0 10 9 16 21 16 12 0 19 -5 17 -12z m90
-70 c-6 -18 -28 -21 -28 -4 0 9 7 16 16 16 9 0 14 -5 12 -12z m32 -38 c0 -5
-4 -10 -10 -10 -5 0 -10 5 -10 10 0 6 5 10 10 10 6 0 10 -4 10 -10z m1634 -94
c44 -18 56 -66 26 -103 -11 -14 -20 -30 -20 -36 0 -21 -169 -233 -256 -322
-97 -99 -195 -185 -211 -185 -5 0 -18 -9 -28 -20 -10 -11 -26 -20 -35 -20 -10
0 -23 -6 -29 -14 -29 -35 -124 -24 -137 16 -16 52 41 189 119 283 129 156 251
269 388 360 89 59 122 67 183 41z m-1489 -56 c3 -5 -1 -10 -9 -10 -9 0 -16 5
-16 10 0 6 4 10 9 10 6 0 13 -4 16 -10z m35 -41 c0 -6 -4 -7 -10 -4 -5 3 -10
11 -10 16 0 6 5 7 10 4 6 -3 10 -11 10 -16z m487 -679 c31 -24 61 -25 91 -4
32 22 50 11 54 -33 3 -33 7 -38 38 -47 19 -5 37 -11 39 -12 2 -2 -4 -24 -14
-50 -17 -45 -17 -46 4 -75 25 -33 20 -49 -12 -49 -37 0 -67 -28 -67 -61 0 -34
-20 -38 -74 -13 -33 16 -35 16 -61 -4 -31 -25 -55 -19 -55 14 0 36 -29 64 -68
64 -44 0 -50 22 -18 61 29 35 33 61 11 79 -24 20 -19 50 9 50 32 0 76 37 76
64 0 40 12 44 47 16z m-576 -41 c56 -5 111 -17 123 -25 11 -7 31 -14 44 -14
13 0 41 -17 64 -39 42 -38 42 -39 25 -65 -25 -38 -82 -72 -162 -98 -64 -21
-88 -23 -295 -23 -180 0 -239 4 -293 18 -38 9 -81 17 -96 17 -16 0 -34 7 -41
15 -7 8 -20 15 -29 15 -25 0 -74 67 -67 93 22 85 399 140 727 106z m1614 1
c66 -6 143 -17 172 -25 28 -8 62 -15 75 -15 13 0 29 -9 36 -20 7 -11 18 -20
26 -20 18 0 28 -53 16 -86 -25 -65 -232 -104 -555 -104 -197 1 -224 3 -260 20
-22 11 -47 19 -56 20 -24 0 -109 70 -109 90 0 24 93 100 123 100 8 0 30 7 49
15 73 30 290 41 483 25z m393 -81 c25 -23 32 -37 28 -53 -3 -11 -6 -27 -6 -33
0 -7 -9 -13 -20 -13 -18 0 -20 4 -15 33 7 34 -7 59 -37 69 -11 4 -3 28 10 28
4 0 22 -14 40 -31z m-2738 13 c0 -4 -9 -15 -20 -25 -24 -20 -26 -40 -5 -57 8
-7 15 -18 15 -26 0 -7 9 -16 20 -19 23 -7 27 -25 6 -25 -19 0 -65 43 -83 77
-13 25 -12 28 14 54 27 26 53 37 53 21z m1096 -327 c15 -24 15 -29 -1 -83 -10
-31 -24 -64 -31 -73 -8 -8 -14 -20 -14 -25 0 -13 -90 -135 -151 -205 -53 -61
-237 -220 -326 -282 -54 -38 -70 -41 -135 -31 -63 11 -78 74 -35 142 5 6 14
22 20 35 79 147 445 517 511 517 7 0 19 7 26 15 8 10 31 15 66 15 46 0 56 -3
70 -25z m596 11 c15 -8 40 -17 57 -21 16 -3 35 -13 42 -21 6 -8 16 -14 21 -14
16 0 151 -112 228 -189 73 -74 183 -204 206 -243 7 -11 17 -25 23 -31 6 -6 11
-20 11 -30 0 -11 9 -21 21 -24 19 -5 20 -11 14 -52 -9 -63 -19 -77 -56 -85
-47 -9 -89 -7 -89 4 0 6 -12 16 -27 22 -95 41 -483 399 -483 445 0 7 -9 21
-20 30 -11 10 -20 25 -20 34 0 9 -9 24 -20 34 -16 14 -20 31 -20 75 0 31 5 61
12 68 16 16 67 15 100 -2z m-315 -128 c16 -18 33 -40 37 -48 4 -8 13 -26 21
-40 8 -14 15 -36 15 -50 0 -15 5 -31 11 -37 17 -17 31 -251 24 -378 -13 -220
-54 -369 -110 -399 -17 -9 -38 -14 -47 -11 -24 9 -68 70 -68 93 0 11 -6 35
-14 53 -46 114 -55 689 -11 724 6 6 16 21 20 35 11 35 57 90 76 90 8 0 29 -15
46 -32z m135 -130 c-9 -9 -12 -7 -12 12 0 19 3 21 12 12 9 -9 9 -15 0 -24z
m748 -68 c0 -5 -4 -10 -10 -10 -5 0 -10 5 -10 10 0 6 5 10 10 10 6 0 10 -4 10
-10z m-320 -320 c0 -5 -4 -10 -10 -10 -5 0 -10 5 -10 10 0 6 5 10 10 10 6 0
10 -4 10 -10z m-1941 -338 c-3 -36 24 -91 44 -92 4 0 7 -6 7 -14 0 -21 28 -27
93 -20 49 6 59 4 55 -7 -3 -8 -13 -15 -24 -17 -10 -2 -33 -10 -51 -18 -17 -8
-49 -14 -72 -14 -30 0 -41 -4 -41 -15 0 -18 1 -18 -39 -4 -31 11 -34 18 -32
74 2 41 41 165 53 165 5 0 8 -17 7 -38z m1306 -132 c9 -16 22 -30 29 -30 23 0
76 34 76 48 0 16 22 11 28 -6 2 -7 -4 -12 -12 -12 -9 0 -21 -11 -26 -25 -5
-14 -16 -25 -23 -25 -8 0 -18 -9 -23 -21 -9 -20 -12 -19 -48 25 -22 27 -35 53
-32 61 8 22 14 19 31 -15z m209 -366 c8 -20 -1 -34 -21 -34 -10 0 -13 6 -9 16
3 9 6 20 6 25 0 15 17 10 24 -7z m-257 -71 c4 -10 12 -24 19 -30 7 -7 14 -17
16 -22 1 -5 24 -12 50 -16 45 -7 49 -5 78 26 16 18 30 39 30 46 0 7 7 13 16
13 12 0 15 -6 10 -22 -3 -13 -6 -33 -6 -44 0 -14 -8 -24 -21 -27 -17 -5 -20
-11 -15 -31 4 -18 1 -29 -12 -38 -10 -7 -21 -21 -25 -30 -10 -29 -97 -22 -97
7 0 7 -7 15 -15 19 -9 3 -15 18 -15 37 0 18 -7 37 -15 43 -19 14 -33 86 -16
86 6 0 15 -8 18 -17z"/>
<path d="M5796 6845 c-18 -14 -18 -15 5 -39 35 -37 49 -33 49 14 0 44 -18 52
-54 25z"/>
<path d="M3109 4135 c-2 -30 2 -66 10 -87 6 -17 9 -16 28 10 l22 29 -29 34
c-25 29 -29 31 -31 14z"/>
<path d="M4468 3553 c-34 -5 -38 -38 -6 -46 28 -8 60 10 56 30 -3 19 -12 21
-50 16z"/>
<path d="M1970 7301 c0 -10 24 -21 46 -21 8 0 14 7 14 15 0 10 -10 15 -30 15
-16 0 -30 -4 -30 -9z"/>
<path d="M1590 7280 c0 -5 7 -10 15 -10 8 0 15 5 15 10 0 6 -7 10 -15 10 -8 0
-15 -4 -15 -10z"/>
<path d="M1528 7263 c-6 -22 1 -43 13 -43 5 0 9 14 9 30 0 33 -15 41 -22 13z"/>
<path d="M2067 7273 c-27 -7 -10 -23 25 -23 26 0 29 2 18 15 -7 8 -15 14 -19
14 -3 -1 -14 -3 -24 -6z"/>
<path d="M1685 7256 l-30 -13 30 -8 c27 -7 57 -19 170 -70 17 -8 53 -23 80
-35 104 -45 121 -53 157 -71 20 -11 46 -19 56 -19 11 0 25 -7 32 -15 7 -8 23
-15 36 -15 12 0 26 -5 29 -10 4 -6 -11 -48 -33 -93 -21 -45 -51 -111 -66 -147
-16 -36 -32 -73 -37 -82 -16 -30 -11 -37 49 -63 31 -15 65 -30 74 -36 30 -16
58 -10 67 14 5 12 23 54 41 92 18 39 43 95 57 125 13 30 31 69 40 85 26 52 16
65 -76 102 -45 18 -93 40 -104 48 -12 8 -31 15 -43 15 -12 0 -27 7 -34 15 -7
8 -19 15 -27 15 -8 0 -27 6 -41 14 -15 8 -54 26 -87 41 -33 14 -72 32 -87 40
-14 8 -32 15 -40 15 -8 0 -31 9 -53 20 -22 11 -44 20 -51 20 -6 0 -17 7 -24
15 -15 18 -45 19 -85 1z"/>
<path d="M2137 7234 c-12 -12 4 -24 34 -24 19 0 29 5 29 15 0 15 -50 22 -63 9z"/>
<path d="M1560 7185 c0 -24 -6 -37 -20 -45 -11 -6 -20 -16 -19 -23 4 -34 -2
-57 -16 -57 -10 0 -15 -10 -15 -31 0 -46 16 -69 49 -69 16 0 31 -6 34 -14 3
-7 24 -16 46 -20 27 -4 41 -11 41 -21 0 -11 11 -15 39 -15 30 0 40 -4 44 -20
4 -16 14 -20 46 -20 30 0 41 -4 41 -15 0 -11 11 -15 39 -15 30 0 40 -4 44 -20
4 -15 14 -20 41 -20 29 0 36 -4 36 -19 0 -14 -8 -21 -27 -23 -30 -3 -35 -21
-8 -26 9 -2 26 6 37 18 17 18 27 20 60 15 45 -8 58 2 58 46 0 15 7 32 15 39 8
7 15 23 15 36 0 13 11 35 25 50 28 30 32 54 10 54 -8 0 -15 6 -15 14 0 8 -15
17 -36 21 -20 3 -43 13 -51 21 -8 8 -24 14 -35 14 -11 0 -31 9 -45 20 -14 11
-38 20 -53 20 -16 0 -30 7 -34 15 -3 9 -18 15 -34 15 -16 0 -37 9 -47 20 -10
11 -30 20 -45 20 -16 0 -30 7 -34 15 -3 9 -18 15 -36 15 -17 0 -39 9 -50 20
-13 13 -33 20 -60 20 -39 0 -40 -1 -40 -35z m167 -61 c-3 -3 -12 -4 -19 -1 -8
3 -5 6 6 6 11 1 17 -2 13 -5z m-134 -34 c7 0 6 -4 -3 -10 -24 -15 -28 -12 -22
18 4 19 7 22 10 10 2 -10 9 -18 15 -18z m210 3 c-7 -2 -21 -2 -30 0 -10 3 -4
5 12 5 17 0 24 -2 18 -5z m167 -73 c0 -5 -9 -10 -21 -10 -11 0 -17 5 -14 10 3
6 13 10 21 10 8 0 14 -4 14 -10z m-370 -30 c0 -5 -5 -10 -11 -10 -5 0 -7 5 -4
10 3 6 8 10 11 10 2 0 4 -4 4 -10z m536 -50 c0 -11 -3 -20 -7 -20 -4 0 -9 9
-12 20 -3 12 0 20 7 20 6 0 12 -9 12 -20z m-316 -24 c0 -2 -7 -6 -15 -10 -8
-3 -15 -1 -15 4 0 6 7 10 15 10 8 0 15 -2 15 -4z m90 -46 c13 -8 13 -10 -2
-10 -9 0 -20 5 -23 10 -8 13 5 13 25 0z m193 -10 c3 -13 0 -20 -9 -20 -8 0
-14 9 -14 20 0 11 4 20 9 20 5 0 11 -9 14 -20z m-133 -30 c0 -5 -7 -10 -15
-10 -8 0 -15 5 -15 10 0 6 7 10 15 10 8 0 15 -4 15 -10z m90 -36 c0 -8 -4 -12
-10 -9 -5 3 -10 10 -10 16 0 5 5 9 10 9 6 0 10 -7 10 -16z"/>
<path d="M2233 7203 c-24 -9 -13 -23 18 -23 20 0 29 4 27 13 -5 13 -26 18 -45
10z"/>
<path d="M1494 7186 c-4 -10 -2 -22 4 -28 8 -8 13 -7 18 6 4 10 2 22 -4 28 -8
8 -13 7 -18 -6z"/>
<path d="M1457 7113 c-12 -11 -8 -31 8 -37 11 -4 15 1 15 19 0 24 -10 32 -23
18z"/>
<path d="M1427 7043 c-13 -12 -7 -43 8 -43 8 0 15 6 15 13 0 18 -15 38 -23 30z"/>
<path d="M1458 6953 c-10 -3 -18 -9 -18 -14 0 -12 37 -12 45 0 7 12 -5 19 -27
14z"/>
<path d="M3084 6919 c-11 -6 -28 -24 -38 -40 -15 -25 -15 -36 -6 -81 6 -29 14
-68 17 -86 3 -18 13 -37 23 -42 11 -6 20 -24 22 -42 2 -22 9 -34 21 -36 14 -3
17 4 17 32 0 29 -4 36 -20 36 -17 0 -20 7 -20 40 0 22 -5 49 -12 60 -15 23 -4
38 15 21 11 -9 17 -8 27 4 7 8 19 15 26 15 18 0 19 47 2 53 -22 7 -46 -4 -51
-24 -7 -24 -24 -24 -32 0 -4 13 3 28 22 47 29 30 47 32 69 9 7 -7 33 -16 58
-19 25 -4 48 -11 51 -17 4 -5 15 -9 26 -9 10 0 27 -9 36 -20 10 -11 28 -20 40
-20 14 0 23 -6 23 -15 0 -8 11 -17 25 -21 30 -8 32 -20 4 -29 -11 -4 -18 -12
-16 -18 6 -19 46 -20 53 -3 3 9 12 16 19 16 8 0 16 4 19 8 6 10 -69 62 -90 62
-8 0 -14 6 -14 14 0 8 -10 18 -22 22 -13 3 -30 12 -38 19 -8 7 -26 16 -40 20
-14 4 -28 12 -31 18 -6 9 -32 15 -129 31 -19 3 -44 1 -56 -5z"/>
<path d="M1527 6913 c-13 -12 -7 -23 13 -23 11 0 20 7 20 15 0 15 -21 21 -33
8z"/>
<path d="M6470 6904 c0 -14 32 -64 40 -64 6 0 10 -9 10 -19 0 -11 5 -23 11
-27 6 -3 17 -22 25 -40 8 -19 19 -34 24 -34 6 0 10 -7 10 -16 0 -14 13 -33 61
-91 5 -7 27 -13 47 -13 30 0 47 -8 76 -35 22 -20 51 -38 65 -40 14 -3 59 -14
98 -25 40 -11 79 -20 86 -20 8 0 43 -8 78 -19 84 -24 141 -39 214 -56 33 -7
96 -23 140 -34 44 -12 96 -26 115 -31 57 -15 61 0 22 65 -10 17 -38 66 -61
110 -85 159 -89 164 -134 175 -23 5 -55 14 -72 19 -16 6 -48 13 -70 16 -22 4
-57 13 -78 21 -20 8 -50 14 -66 14 -15 0 -54 9 -86 20 -32 11 -71 20 -87 20
-16 0 -41 6 -56 14 -15 7 -49 17 -75 20 -26 4 -63 14 -82 22 -19 8 -48 14 -65
14 -17 0 -43 6 -58 14 -27 13 -132 29 -132 20z"/>
<path d="M1592 6868 c7 -20 58 -23 58 -4 0 11 -10 16 -31 16 -20 0 -29 -4 -27
-12z"/>
<path d="M1698 6843 c-29 -7 -21 -23 12 -23 22 0 28 4 24 15 -6 16 -7 16 -36
8z"/>
<path d="M3188 6810 c-26 -16 -61 -97 -54 -125 10 -39 36 -32 36 10 0 25 8 44
25 61 22 22 30 24 77 18 29 -4 60 -12 68 -19 24 -21 54 -22 58 -2 2 12 -3 17
-19 17 -13 0 -32 9 -43 19 -25 23 -122 37 -148 21z"/>
<path d="M1767 6803 c-15 -14 -6 -23 23 -23 20 0 30 5 30 15 0 15 -40 21 -53
8z"/>
<path d="M1310 6761 c0 -34 15 -49 24 -25 11 28 6 54 -9 54 -10 0 -15 -10 -15
-29z"/>
<path d="M1448 6757 c-44 -12 -50 -27 -11 -27 15 0 46 -9 70 -20 51 -24 108
-49 183 -80 30 -12 75 -31 100 -42 25 -11 59 -26 75 -33 17 -7 51 -22 76 -34
25 -12 53 -21 61 -21 8 0 23 -9 32 -19 16 -18 16 -21 -3 -57 -12 -21 -21 -46
-21 -54 0 -17 -28 -106 -42 -134 -12 -22 -8 -26 62 -55 30 -13 68 -29 84 -37
39 -20 49 -9 76 86 12 41 28 95 35 120 7 25 16 52 20 62 5 12 -4 23 -32 42
-21 14 -41 26 -46 26 -9 0 -83 32 -208 89 -25 12 -53 21 -61 21 -9 0 -21 6
-27 14 -7 8 -24 17 -39 20 -15 4 -40 13 -57 21 -16 7 -52 23 -80 35 -104 45
-121 53 -157 71 -41 21 -38 21 -90 6z"/>
<path d="M1852 6758 c7 -20 48 -23 48 -4 0 11 -9 16 -26 16 -16 0 -24 -5 -22
-12z"/>
<path d="M3513 6717 c-4 -8 -16 -17 -27 -20 -15 -6 -16 -10 -6 -22 16 -19 40
-19 40 0 0 9 9 15 21 15 15 0 19 4 15 16 -3 9 -6 18 -6 20 0 10 -30 3 -37 -9z"/>
<path d="M1345 6711 c-2 -2 -1 -16 2 -32 8 -43 -4 -79 -27 -79 -16 0 -20 7
-20 34 0 38 -14 55 -24 30 -10 -26 -7 -40 14 -64 11 -13 20 -27 20 -32 0 -4 6
-8 14 -8 7 0 19 -7 26 -15 7 -8 26 -15 42 -15 16 0 31 -6 34 -15 4 -10 20 -15
50 -15 37 0 44 -3 44 -20 0 -17 7 -20 40 -20 28 0 40 -4 40 -14 0 -17 22 -26
66 -26 24 0 34 -5 34 -15 0 -10 10 -15 30 -15 18 0 37 -8 47 -20 11 -12 30
-20 50 -20 23 0 33 -5 33 -15 0 -8 8 -16 18 -16 9 -1 30 -3 45 -5 23 -2 30 2
38 24 6 15 8 39 5 54 -4 19 0 30 17 42 19 13 20 17 7 25 -8 6 -23 8 -32 5 -10
-3 -21 3 -28 16 -6 12 -21 20 -36 20 -14 0 -37 9 -51 20 -14 11 -39 20 -54 20
-19 0 -29 5 -29 15 0 11 -11 15 -40 15 -29 0 -40 4 -40 15 0 8 -12 17 -27 21
-53 11 -63 15 -63 25 0 5 -11 9 -24 9 -13 0 -35 9 -48 20 -14 10 -45 22 -68
26 l-43 7 6 -34 c6 -33 6 -34 -8 -9 -8 15 -10 29 -4 35 19 19 9 34 -22 32 -17
-1 -32 -4 -34 -6z m232 -107 c-3 -3 -12 -4 -19 -1 -8 3 -5 6 6 6 11 1 17 -2
13 -5z m-100 -50 c-3 -3 -12 -4 -19 -1 -8 3 -5 6 6 6 11 1 17 -2 13 -5z m240
-30 c-3 -3 -12 -4 -19 -1 -8 3 -5 6 6 6 11 1 17 -2 13 -5z m98 -44 c3 -5 -1
-10 -9 -10 -9 0 -16 5 -16 10 0 6 4 10 9 10 6 0 13 -4 16 -10z m82 -36 c-3 -3
-12 -4 -19 -1 -8 3 -5 6 6 6 11 1 17 -2 13 -5z m-67 -34 c12 -8 11 -10 -7 -10
-12 0 -25 5 -28 10 -8 13 15 13 35 0z m92 -36 c-5 -25 -10 -30 -22 -18 -13 13
-2 46 14 41 6 -2 9 -13 8 -23z"/>
<path d="M2030 6698 l-25 -10 23 -11 c25 -11 35 -6 30 16 -2 11 -9 12 -28 5z"/>
<path d="M3170 6620 c0 -11 -7 -23 -15 -26 -18 -7 -20 -64 -2 -64 16 0 51 75
44 94 -9 23 -27 20 -27 -4z"/>
<path d="M1235 6560 c-4 -6 -1 -18 6 -26 14 -17 31 0 22 23 -6 16 -19 17 -28
3z"/>
<path d="M3186 6530 c-20 -21 -16 -50 8 -50 17 0 36 29 36 54 0 21 -21 19 -44
-4z"/>
<path d="M1300 6510 c0 -5 11 -10 25 -10 14 0 25 5 25 10 0 6 -11 10 -25 10
-14 0 -25 -4 -25 -10z"/>
<path d="M1385 6481 c-8 -15 3 -31 21 -31 9 0 14 7 12 17 -4 20 -24 28 -33 14z"/>
<path d="M3220 6460 c-11 -21 -6 -40 11 -40 18 0 41 30 35 45 -8 21 -33 18
-46 -5z"/>
<path d="M6700 6448 c0 -13 9 -38 20 -56 11 -18 20 -45 20 -61 0 -16 6 -34 14
-40 7 -6 16 -33 20 -60 3 -27 13 -54 21 -61 8 -7 15 -18 15 -25 0 -16 25 -26
44 -19 21 8 82 -24 101 -52 8 -13 24 -24 34 -24 9 0 47 -8 82 -19 74 -21 132
-37 209 -55 30 -8 127 -33 215 -56 88 -23 179 -46 203 -51 24 -5 47 -11 52
-14 5 -3 13 2 18 12 7 12 5 28 -9 55 -10 20 -19 45 -19 55 0 16 -14 61 -58
191 -9 27 -22 47 -36 51 -65 25 -124 41 -149 41 -15 0 -40 6 -55 14 -15 7 -49
17 -77 21 -27 4 -62 13 -77 21 -15 8 -42 14 -60 14 -18 0 -45 7 -60 14 -16 8
-49 18 -75 22 -27 3 -60 13 -75 20 -15 8 -38 14 -50 14 -13 0 -49 9 -81 20
-31 11 -74 20 -96 20 -25 0 -41 5 -45 15 -9 25 -46 19 -46 -7z"/>
<path d="M1457 6444 c-12 -12 4 -24 33 -24 22 0 28 4 24 15 -6 15 -45 21 -57
9z"/>
<path d="M1542 6398 c7 -20 58 -23 58 -4 0 11 -10 16 -31 16 -20 0 -29 -4 -27
-12z"/>
<path d="M1630 6370 c-13 -8 -13 -10 0 -14 36 -12 54 -10 58 7 4 19 -32 24
-58 7z"/>
<path d="M1200 6316 c0 -49 24 -81 41 -55 7 10 8 3 3 -21 -10 -51 -8 -135 4
-156 6 -11 23 -19 43 -20 18 -1 38 -9 44 -18 7 -9 25 -16 41 -16 17 0 37 -8
47 -20 11 -13 29 -20 53 -20 27 0 37 -5 41 -20 4 -15 14 -20 38 -20 20 0 35
-6 39 -15 3 -9 18 -15 38 -15 21 0 40 -7 51 -20 10 -12 29 -20 48 -20 18 0 37
-6 43 -14 6 -8 27 -16 46 -18 l35 -3 1 75 c2 107 0 110 -51 110 -34 0 -43 3
-41 17 0 11 -8 20 -24 23 -14 3 -42 14 -62 23 -21 9 -42 17 -48 17 -6 0 -13 7
-16 15 -4 8 -18 15 -33 15 -14 0 -39 9 -56 20 -16 11 -37 20 -46 20 -9 0 -22
7 -29 15 -7 8 -24 15 -38 15 -13 0 -30 8 -37 17 -7 10 -33 19 -61 23 -31 3
-48 10 -46 18 1 7 -7 12 -17 12 -22 0 -33 21 -20 41 15 23 10 39 -11 39 -17 0
-20 -7 -20 -44z m204 -152 c24 -9 19 -24 -9 -24 -18 0 -23 4 -19 15 7 17 7 17
28 9z m-86 -55 c-15 -10 -38 0 -38 16 0 10 5 11 24 2 15 -7 20 -14 14 -18z
m287 -19 c-3 -5 -14 -10 -23 -9 -14 0 -13 2 3 9 27 11 27 11 20 0z m72 -46
c-3 -3 -12 -4 -19 -1 -8 3 -5 6 6 6 11 1 17 -2 13 -5z m-102 -34 c-3 -5 -10
-10 -16 -10 -5 0 -9 5 -9 10 0 6 7 10 16 10 8 0 12 -4 9 -10z m228 -37 c-7 -2
-21 -2 -30 0 -10 3 -4 5 12 5 17 0 24 -2 18 -5z m-43 -23 c0 -5 -12 -10 -27
-9 l-28 1 25 8 c14 4 26 8 28 9 1 1 2 -3 2 -9z m47 -72 c-3 -8 -6 -5 -6 6 -1
11 2 17 5 13 3 -3 4 -12 1 -19z"/>
<path d="M1710 6325 c0 -10 10 -15 30 -15 20 0 30 5 30 15 0 10 -10 15 -30 15
-20 0 -30 -5 -30 -15z"/>
<path d="M1330 6323 c-35 -6 -50 -23 -21 -23 13 0 40 -9 60 -19 34 -18 74 -37
179 -81 26 -12 64 -30 84 -40 20 -11 43 -20 51 -20 8 0 20 -7 27 -15 7 -8 18
-15 26 -15 7 0 52 -18 99 -41 77 -36 86 -43 81 -62 -9 -31 -15 -90 -16 -169
-1 -38 -6 -70 -11 -74 -5 -3 -9 -9 -9 -14 0 -11 100 -60 122 -60 9 0 21 -7 28
-15 7 -8 22 -15 35 -15 21 0 23 7 35 123 8 67 14 142 14 166 1 51 13 42 -159
122 -60 27 -128 59 -151 70 -23 10 -44 19 -48 19 -3 0 -41 16 -83 36 -43 20
-94 43 -113 52 -19 8 -52 23 -72 33 -20 11 -43 19 -51 19 -8 0 -20 7 -27 15
-12 15 -31 17 -80 8z"/>
<path d="M1795 6299 c-9 -13 13 -30 35 -26 8 1 15 9 15 17 0 18 -40 26 -50 9z"/>
<path d="M1885 6261 c-8 -15 35 -35 47 -23 6 6 7 15 4 21 -9 14 -43 14 -51 2z"/>
<path d="M1170 6120 c0 -38 4 -59 10 -55 6 3 10 28 10 55 0 27 -4 52 -10 55
-6 4 -10 -17 -10 -55z"/>
<path d="M1220 6040 c-12 -8 -11 -10 8 -10 12 0 22 5 22 10 0 13 -11 13 -30 0z"/>
<path d="M1291 6011 c-11 -7 -10 -11 6 -20 22 -11 33 -6 33 16 0 15 -18 17
-39 4z"/>
<path d="M1357 5974 c-12 -12 4 -24 33 -24 22 0 28 4 24 15 -6 15 -45 21 -57
9z"/>
<path d="M6834 5948 c4 -13 11 -52 17 -88 25 -171 41 -200 116 -200 24 0 37
-8 53 -30 22 -31 26 -32 185 -70 50 -12 126 -31 170 -42 44 -11 107 -26 140
-35 116 -28 181 -45 245 -64 89 -25 97 -18 76 82 -8 41 -18 107 -22 147 -8 87
-10 89 -154 121 -52 12 -115 28 -140 36 -25 8 -65 17 -90 21 -25 4 -57 13 -72
20 -15 8 -41 14 -58 14 -17 0 -47 7 -68 16 -20 8 -57 19 -82 24 -51 10 -142
34 -214 55 -26 8 -62 15 -78 15 -27 0 -30 -3 -24 -22z"/>
<path d="M1445 5925 c21 -17 54 -17 58 0 1 6 -16 11 -38 13 -38 2 -39 1 -20
-13z"/>
<path d="M1530 5896 c0 -11 10 -16 31 -16 38 0 35 24 -4 28 -19 2 -27 -1 -27
-12z"/>
<path d="M1200 5882 c0 -14 11 -21 26 -15 8 3 11 9 8 14 -7 11 -34 12 -34 1z"/>
<path d="M1286 5864 c-9 -23 0 -31 37 -39 17 -4 48 -16 67 -25 19 -10 51 -25
70 -34 19 -8 73 -33 120 -54 47 -22 108 -49 135 -61 28 -13 62 -29 77 -37 14
-8 33 -14 42 -14 27 0 37 -37 36 -128 -1 -48 1 -95 5 -105 4 -9 2 -24 -5 -32
-16 -19 -10 -26 44 -52 25 -13 66 -33 89 -44 71 -35 72 -33 69 137 -4 134 -6
151 -25 172 -11 12 -25 22 -30 22 -5 0 -48 18 -96 41 -47 22 -104 48 -126 58
-22 10 -56 26 -75 34 -19 9 -46 21 -60 27 -14 5 -32 14 -40 19 -8 4 -31 15
-50 24 -128 57 -159 71 -196 88 -49 23 -80 24 -88 3z"/>
<path d="M1610 5855 c7 -8 25 -15 41 -15 19 0 29 5 29 15 0 11 -11 15 -41 15
-36 0 -40 -2 -29 -15z"/>
<path d="M1697 5833 c-11 -11 14 -33 38 -33 14 0 25 7 28 20 4 17 0 20 -27 20
-18 0 -36 -3 -39 -7z"/>
<path d="M1203 5743 c2 -69 4 -78 22 -81 11 -3 24 -10 28 -18 4 -8 19 -14 33
-14 13 0 32 -9 41 -20 10 -11 29 -20 44 -20 15 0 32 -7 39 -15 7 -8 26 -15 42
-15 21 0 31 -6 35 -20 4 -16 14 -20 44 -20 25 0 42 -5 45 -14 3 -7 22 -16 44
-20 21 -3 40 -13 44 -21 3 -9 18 -15 40 -15 20 0 38 -6 43 -15 5 -8 23 -16 42
-17 l33 -3 -1 68 c0 37 0 72 0 77 -1 6 -12 10 -26 10 -14 0 -25 -4 -25 -10 0
-5 -21 -10 -47 -10 -25 0 -43 3 -40 7 4 3 23 6 43 5 28 -1 35 2 32 16 -2 10
-14 18 -31 20 -16 2 -37 12 -48 23 -10 10 -30 19 -44 19 -14 0 -28 6 -31 14
-3 7 -22 16 -44 20 -21 3 -40 13 -44 21 -3 9 -19 15 -41 15 -20 0 -34 4 -30 9
7 12 -26 31 -55 31 -11 0 -23 7 -26 15 -4 9 -19 15 -38 15 -19 0 -38 8 -49 20
-10 12 -29 20 -46 20 l-29 0 1 -77z m127 -13 c0 -5 -7 -10 -15 -10 -8 0 -15 5
-15 10 0 6 7 10 15 10 8 0 15 -4 15 -10z m110 -38 c0 -9 -69 -6 -78 3 -3 3 13
5 36 5 23 0 42 -4 42 -8z m-160 -12 c0 -5 -7 -10 -16 -10 -8 0 -12 5 -9 10 3
6 10 10 16 10 5 0 9 -4 9 -10z m223 -27 c-7 -2 -19 -2 -25 0 -7 3 -2 5 12 5
14 0 19 -2 13 -5z m14 -19 c-3 -3 -12 -4 -19 -1 -8 3 -5 6 6 6 11 1 17 -2 13
-5z m23 -55 c0 -5 -4 -9 -10 -9 -5 0 -10 7 -10 16 0 8 5 12 10 9 6 -3 10 -10
10 -16z m87 -5 c-3 -3 -12 -4 -19 -1 -8 3 -5 6 6 6 11 1 17 -2 13 -5z m153
-54 c0 -5 -4 -10 -10 -10 -5 0 -10 5 -10 10 0 6 5 10 10 10 6 0 10 -4 10 -10z"/>
<path d="M1820 5803 c-46 -14 -45 -13 -30 -23 23 -15 60 -12 60 4 0 18 -10 25
-30 19z"/>
<path d="M6000 5674 c-54 -9 -101 -27 -88 -35 22 -14 137 -22 151 -11 7 6 32
14 55 18 64 10 46 29 -29 30 -35 1 -75 0 -89 -2z"/>
<path d="M1195 5610 c-3 -5 3 -10 14 -10 12 0 21 5 21 10 0 6 -6 10 -14 10 -8
0 -18 -4 -21 -10z"/>
<path d="M2694 5573 c-3 -11 -21 -27 -40 -38 -32 -17 -34 -22 -34 -67 0 -40 5
-53 27 -74 14 -13 37 -27 50 -30 13 -4 28 -15 34 -25 11 -21 35 -24 59 -9 13
9 13 11 0 20 -8 5 -22 10 -31 10 -22 0 -95 69 -103 97 -8 26 44 90 77 95 32 4
28 32 -6 36 -21 3 -30 -1 -33 -15z"/>
<path d="M1275 5570 c3 -5 15 -10 26 -10 10 0 19 5 19 10 0 6 -12 10 -26 10
-14 0 -23 -4 -19 -10z"/>
<path d="M1352 5538 c5 -15 48 -18 48 -3 0 6 -11 11 -26 13 -18 3 -25 0 -22
-10z"/>
<path d="M6889 5544 c-5 -46 -3 -283 3 -295 4 -10 26 -19 55 -23 34 -4 56 -15
79 -37 20 -19 52 -36 90 -45 32 -9 84 -22 114 -29 145 -37 178 -46 210 -57 19
-6 51 -15 70 -19 19 -4 97 -23 174 -43 76 -21 145 -35 152 -32 19 7 20 314 2
338 -13 15 -110 44 -198 58 -25 4 -67 14 -95 22 -27 9 -79 24 -115 33 -36 9
-81 21 -100 27 -68 19 -186 49 -235 59 -27 6 -58 15 -69 21 -11 6 -36 12 -56
14 -19 1 -45 6 -57 9 -13 4 -23 3 -24 -1z"/>
<path d="M1440 5495 c7 -8 19 -15 26 -15 8 0 14 7 14 15 0 10 -10 15 -26 15
-22 0 -25 -2 -14 -15z"/>
<path d="M2540 5485 c-17 -21 5 -65 32 -65 15 0 17 5 12 28 -13 58 -21 65 -44
37z"/>
<path d="M1522 5473 c-19 -8 -4 -23 24 -23 16 0 24 5 22 13 -5 13 -26 18 -46
10z"/>
<path d="M1164 5445 c-3 -8 -3 -19 1 -25 9 -14 35 6 35 26 0 19 -29 18 -36 -1z"/>
<path d="M1597 5434 c-12 -12 4 -24 34 -24 19 0 29 5 29 15 0 15 -50 22 -63 9z"/>
<path d="M1300 5420 c-13 -9 -10 -14 15 -35 17 -14 39 -28 50 -31 11 -3 40
-15 65 -26 25 -11 59 -26 75 -33 17 -7 51 -22 76 -34 25 -12 53 -21 61 -21 9
0 21 -7 28 -15 7 -8 18 -15 26 -15 7 0 46 -15 86 -34 40 -19 82 -36 93 -38 16
-3 21 -17 31 -93 7 -50 17 -112 24 -140 6 -27 11 -61 11 -75 -1 -21 8 -29 52
-49 28 -12 69 -32 91 -42 30 -16 41 -17 52 -8 8 7 12 19 9 28 -4 9 -16 81 -26
161 -19 134 -36 190 -59 190 -5 0 -42 15 -82 34 -40 19 -84 37 -98 41 -13 4
-30 14 -38 21 -7 8 -24 14 -36 14 -13 0 -29 7 -36 15 -7 8 -28 18 -48 21 -20
4 -43 13 -50 21 -7 7 -20 13 -28 13 -8 0 -32 9 -52 20 -63 33 -128 60 -144 60
-9 0 -21 7 -28 15 -7 8 -20 15 -29 15 -10 0 -26 7 -37 15 -23 17 -34 18 -54 5z"/>
<path d="M1233 5408 c2 -7 10 -13 17 -13 7 0 15 6 18 13 2 7 -5 12 -18 12 -13
0 -20 -5 -17 -12z"/>
<path d="M1676 5401 c-11 -17 41 -38 56 -23 14 14 11 18 -23 27 -16 4 -30 2
-33 -4z"/>
<path d="M1175 5370 c3 -5 8 -10 11 -10 2 0 4 5 4 10 0 6 -5 10 -11 10 -5 0
-7 -4 -4 -10z"/>
<path d="M1770 5355 c0 -9 9 -15 25 -15 16 0 25 6 25 15 0 9 -9 15 -25 15 -16
0 -25 -6 -25 -15z"/>
<path d="M1242 5347 c-13 -16 4 -61 21 -54 9 3 12 -12 12 -62 0 -63 1 -66 25
-69 14 -2 30 -10 36 -18 10 -12 37 -21 72 -23 6 -1 12 -8 12 -16 0 -11 11 -15
36 -15 27 0 37 -5 41 -20 4 -16 14 -20 44 -20 28 0 39 -4 39 -15 0 -11 12 -15
45 -15 38 0 45 -3 45 -20 0 -17 7 -20 39 -20 30 0 40 -4 44 -20 5 -18 11 -20
46 -14 37 6 41 5 41 -15 0 -16 6 -21 25 -21 28 0 34 24 10 38 -12 6 -16 26
-16 80 -1 62 -3 72 -19 72 -10 0 -23 7 -30 15 -7 8 -25 15 -41 15 -18 0 -32 7
-39 20 -6 11 -21 20 -35 20 -13 0 -27 5 -30 11 -13 20 -54 29 -82 18 -39 -15
-83 -22 -83 -12 0 4 12 9 26 10 53 3 57 43 4 43 -16 0 -35 6 -42 14 -8 7 -28
17 -45 20 -18 4 -37 14 -44 22 -6 8 -20 14 -30 14 -10 0 -33 8 -51 18 -51 28
-66 32 -76 19z m203 -126 c-3 -6 -11 -11 -16 -11 -5 0 -4 6 3 14 14 16 24 13
13 -3z m195 -72 c0 -12 -17 -11 -25 1 -3 5 -13 7 -23 4 -13 -5 -14 -4 -3 4 15
11 51 4 51 -9z m70 -39 c0 -4 -6 -13 -14 -19 -15 -13 -32 1 -22 17 6 10 36 11
36 2z m83 -35 c-12 -8 -29 -12 -38 -9 -22 9 0 24 35 24 l24 0 -21 -15z m-173
1 c0 -3 -4 -8 -10 -11 -5 -3 -10 -1 -10 4 0 6 5 11 10 11 6 0 10 -2 10 -4z
m181 -79 c-8 -8 -14 -7 -23 2 -11 11 -10 13 0 7 7 -4 15 0 19 10 5 12 8 14 11
5 2 -7 -1 -18 -7 -24z"/>
<path d="M1204 5266 c-3 -7 -4 -40 -2 -72 2 -43 7 -60 18 -62 12 -2 15 10 14
60 -1 35 -2 69 -3 76 -1 16 -20 15 -27 -2z"/>
<path d="M1293 5113 c-7 -2 -13 -9 -13 -15 0 -12 41 -6 41 7 1 12 -11 15 -28
8z"/>
<path d="M1363 5068 c2 -7 12 -13 22 -13 10 0 20 6 23 13 2 7 -6 12 -23 12
-17 0 -25 -5 -22 -12z"/>
<path d="M6886 5068 c-13 -45 -31 -183 -31 -238 l0 -65 52 -6 c43 -6 58 -13
86 -43 19 -20 44 -36 56 -36 12 0 56 -9 99 -21 147 -40 177 -47 242 -64 36
-10 90 -23 120 -30 125 -30 177 -43 222 -55 65 -19 74 -9 82 93 4 45 11 110
17 145 7 39 8 67 2 73 -5 5 -65 23 -133 39 -69 17 -138 36 -155 41 -16 6 -57
16 -90 23 -33 7 -70 18 -82 24 -12 7 -32 12 -45 12 -13 0 -50 9 -83 20 -33 10
-85 26 -115 34 -30 8 -86 24 -125 35 -38 11 -80 23 -93 26 -14 4 -23 2 -26 -7z"/>
<path d="M1440 5030 c0 -5 11 -10 25 -10 14 0 25 5 25 10 0 6 -11 10 -25 10
-14 0 -25 -4 -25 -10z"/>
<path d="M1527 5004 c-11 -12 3 -24 29 -24 16 0 24 5 22 13 -5 13 -40 22 -51
11z"/>
<path d="M1628 4972 c-16 -2 -28 -7 -28 -12 0 -14 41 -23 52 -12 16 16 5 27
-24 24z"/>
<path d="M1267 4954 c-3 -3 0 -21 6 -41 9 -29 12 -32 18 -17 12 30 10 51 -5
57 -8 3 -16 3 -19 1z"/>
<path d="M1697 4933 c-14 -13 -6 -23 18 -23 16 0 25 6 25 15 0 15 -31 21 -43
8z"/>
<path d="M1365 4916 c-33 -14 -27 -20 26 -30 21 -4 42 -13 49 -21 7 -8 20 -15
29 -15 14 0 77 -27 121 -52 8 -4 22 -11 30 -14 8 -3 33 -13 55 -23 68 -31 138
-62 175 -78 19 -9 53 -24 75 -34 22 -10 48 -20 57 -23 9 -3 22 -23 28 -45 6
-21 17 -52 25 -68 8 -15 15 -34 15 -42 0 -8 9 -34 21 -58 16 -33 18 -47 10
-57 -9 -11 -1 -19 41 -39 102 -49 158 -69 173 -63 14 5 14 9 -1 43 -9 21 -20
52 -25 70 -5 18 -16 45 -24 60 -8 15 -15 35 -15 43 0 33 -50 120 -73 129 -14
5 -60 26 -103 46 -44 20 -92 42 -109 50 -16 7 -52 23 -80 35 -27 12 -68 30
-90 40 -22 11 -60 28 -85 38 -25 11 -80 36 -123 56 -43 20 -84 36 -91 36 -8 0
-19 7 -26 15 -15 18 -45 19 -85 1z"/>
<path d="M1776 4891 c-3 -5 1 -12 10 -15 27 -10 44 -7 44 9 0 16 -45 21 -54 6z"/>
<path d="M1864 4859 c-10 -17 13 -36 27 -22 12 12 4 33 -11 33 -5 0 -12 -5
-16 -11z"/>
<path d="M1317 4844 c-11 -11 -8 -64 3 -64 14 0 24 50 13 61 -5 5 -12 6 -16 3z"/>
<path d="M1378 4823 c5 -10 7 -34 4 -53 -4 -32 -3 -34 12 -21 14 12 16 11 16
-11 0 -40 36 -78 73 -78 21 0 36 -7 45 -20 8 -13 23 -20 41 -20 16 0 36 -7 45
-15 8 -8 32 -15 55 -15 23 0 40 -3 40 -7 -4 -26 4 -33 41 -33 27 0 43 -5 46
-15 4 -8 23 -18 44 -21 22 -4 41 -13 44 -20 3 -8 20 -14 42 -14 27 0 37 -5 41
-20 6 -22 43 -28 43 -7 0 7 -9 30 -20 52 -11 22 -20 50 -20 62 0 18 -7 25 -29
29 -17 4 -32 12 -35 20 -3 8 -19 14 -37 14 -18 0 -37 7 -43 15 -6 9 -26 16
-43 18 -18 1 -33 7 -33 13 0 13 -23 24 -49 24 -10 0 -26 9 -37 21 -12 13 -27
19 -42 16 -15 -3 -27 2 -36 15 -8 10 -26 20 -41 22 -16 2 -34 10 -40 20 -7 9
-26 16 -44 16 -19 0 -34 6 -37 15 -4 8 -17 15 -30 15 -20 0 -23 -3 -16 -17z
m97 -63 c16 -7 14 -9 -12 -7 -17 0 -29 5 -27 9 6 10 13 9 39 -2z m13 -52 c-6
-18 -28 -21 -28 -4 0 9 7 16 16 16 9 0 14 -5 12 -12z m62 8 c0 -2 -7 -6 -15
-10 -8 -3 -15 -1 -15 4 0 6 7 10 15 10 8 0 15 -2 15 -4z m20 -30 c0 -2 -7 -6
-15 -10 -8 -3 -15 -1 -15 4 0 6 7 10 15 10 8 0 15 -2 15 -4z m204 -75 c11 -4
15 -10 10 -13 -14 -9 -75 3 -68 13 6 11 31 11 58 0z m116 -42 c0 -5 -11 -9
-25 -9 -24 0 -32 10 -19 22 8 8 44 -3 44 -13z m39 -22 c13 -16 5 -27 -20 -27
-12 0 -16 6 -12 20 6 23 16 25 32 7z"/>
<path d="M5457 4802 c-16 -18 -15 -21 23 -63 22 -24 40 -47 40 -51 0 -4 9 -10
20 -13 11 -4 20 -15 20 -27 0 -16 5 -19 21 -15 18 5 20 2 15 -18 -4 -17 1 -31
18 -49 29 -32 39 -32 56 -1 16 30 6 44 -20 27 -24 -15 -30 -15 -30 -2 0 6 7
10 15 10 23 0 18 24 -10 48 -14 12 -25 26 -25 32 0 5 -7 10 -15 10 -9 0 -15 9
-15 21 0 18 -4 20 -25 15 -23 -6 -24 -4 -18 25 5 29 4 31 -16 24 -17 -5 -21
-3 -19 16 4 29 -14 34 -35 11z"/>
<path d="M1351 4722 c-11 -21 -5 -56 9 -47 12 7 18 42 10 55 -6 9 -11 7 -19
-8z"/>
<path d="M1385 4641 c-3 -5 -1 -12 5 -16 13 -8 50 3 50 16 0 12 -47 12 -55 0z"/>
<path d="M6817 4623 c-4 -3 -7 -13 -7 -20 0 -8 -7 -21 -15 -29 -8 -8 -17 -31
-20 -52 -4 -20 -13 -49 -21 -64 -8 -14 -14 -36 -14 -48 0 -12 -5 -31 -12 -43
-13 -23 -38 -87 -38 -99 0 -4 25 -14 56 -23 31 -9 69 -29 86 -45 17 -17 40
-30 50 -30 11 0 28 -5 39 -11 11 -6 41 -14 67 -19 26 -4 83 -18 127 -29 44
-12 139 -37 210 -56 72 -18 166 -43 210 -55 l80 -21 22 28 c12 15 27 46 32 68
12 50 76 233 85 242 3 3 6 17 6 29 0 19 -8 25 -42 35 -24 6 -62 18 -86 25 -23
8 -55 14 -70 14 -15 0 -39 7 -54 14 -16 8 -49 18 -75 22 -27 3 -53 10 -58 15
-6 4 -37 14 -70 23 -123 31 -151 39 -181 51 -17 7 -53 17 -80 21 -27 4 -58 13
-69 20 -11 8 -38 14 -61 14 -25 0 -47 6 -54 15 -13 16 -32 19 -43 8z"/>
<path d="M1480 4600 c0 -5 9 -10 20 -10 11 0 20 5 20 10 0 6 -9 10 -20 10 -11
0 -20 -4 -20 -10z"/>
<path d="M1535 4570 c-6 -10 34 -30 61 -30 9 0 22 -7 30 -15 9 -8 29 -15 45
-15 19 0 29 5 29 15 0 11 -11 15 -38 15 -25 0 -43 7 -55 20 -18 21 -61 27 -72
10z"/>
<path d="M5678 4539 c-21 -12 -24 -49 -5 -49 24 0 51 26 44 44 -7 18 -15 20
-39 5z"/>
<path d="M1732 4502 c-19 -3 -21 -6 -11 -18 13 -16 55 -19 64 -5 8 14 -25 28
-53 23z"/>
<path d="M5704 4475 c-15 -23 -12 -45 7 -45 17 0 49 40 43 55 -9 22 -31 18
-50 -10z"/>
<path d="M5130 4475 c-16 -19 -3 -38 22 -32 15 4 18 1 13 -13 -4 -14 0 -19 17
-22 13 -2 22 -9 21 -15 -2 -7 7 -18 19 -24 12 -7 37 -28 55 -47 31 -33 35 -34
58 -22 14 7 25 19 25 26 0 19 -20 28 -33 15 -17 -17 -29 -13 -22 9 4 14 1 22
-12 27 -20 7 -30 15 -90 73 -45 44 -55 47 -73 25z"/>
<path d="M1455 4460 c-10 -16 9 -33 30 -28 16 3 15 5 -3 21 -14 13 -22 15 -27
7z"/>
<path d="M1805 4461 c-6 -11 23 -28 43 -25 6 1 16 2 22 3 5 0 7 8 4 16 -7 17
-59 21 -69 6z"/>
<path d="M5746 4425 c-18 -27 -21 -51 -8 -59 11 -7 52 48 52 69 0 23 -26 18
-44 -10z"/>
<path d="M1912 4433 c-33 -6 -21 -27 17 -31 27 -3 32 0 29 14 -3 20 -13 23
-46 17z"/>
<path d="M1567 4423 c-4 -3 -7 -15 -7 -25 0 -14 8 -18 35 -18 31 0 68 -14 147
-56 14 -8 32 -14 40 -14 7 0 33 -10 58 -21 25 -12 61 -28 80 -36 19 -8 52 -23
72 -34 20 -10 43 -19 50 -19 7 0 31 -9 53 -19 22 -11 60 -29 85 -40 40 -18 50
-30 85 -97 22 -42 55 -99 73 -127 21 -31 30 -56 27 -68 -4 -11 -2 -19 5 -19 7
0 24 -8 38 -19 37 -25 173 -82 184 -75 13 8 10 30 -7 44 -8 6 -28 40 -46 73
-17 34 -41 80 -54 102 -13 22 -33 59 -45 81 -11 23 -28 48 -38 57 -18 16 -150
75 -189 84 -12 3 -28 11 -34 19 -6 8 -20 14 -31 14 -11 0 -32 6 -46 14 -47 25
-116 55 -144 61 -15 4 -32 13 -39 21 -6 8 -20 14 -31 14 -10 0 -36 8 -56 19
-90 45 -105 51 -120 51 -9 0 -30 9 -47 20 -29 19 -85 27 -98 13z"/>
<path d="M1990 4390 c-13 -9 -13 -11 0 -20 8 -5 26 -10 39 -10 17 0 22 4 17
16 -3 9 -6 18 -6 20 0 8 -35 4 -50 -6z"/>
<path d="M5775 4354 c-13 -25 -16 -40 -9 -51 15 -24 29 -21 32 7 2 13 11 29
20 36 17 13 10 44 -10 44 -8 0 -22 -16 -33 -36z"/>
<path d="M1525 4350 c-7 -12 2 -30 16 -30 5 0 9 9 9 20 0 21 -15 27 -25 10z"/>
<path d="M1592 4323 c2 -10 13 -19 25 -21 19 -3 21 -8 16 -38 -5 -30 -3 -34
16 -34 14 0 21 -6 21 -20 0 -16 7 -20 30 -20 23 0 30 -4 30 -20 0 -11 -4 -20
-8 -20 -5 0 -17 -7 -28 -15 -18 -14 -18 -14 9 -15 17 0 27 5 27 14 0 22 79 26
85 5 6 -19 66 -30 89 -17 11 6 13 3 9 -11 -4 -16 2 -21 31 -26 19 -4 40 -13
47 -21 6 -8 22 -14 35 -14 13 0 32 -9 41 -20 11 -12 30 -20 50 -20 37 0 50 14
32 37 -12 13 -11 15 6 11 20 -4 23 -17 11 -54 -6 -19 -2 -22 33 -28 21 -3 41
-13 45 -21 6 -17 36 -21 36 -5 0 6 -5 10 -11 10 -5 0 -15 14 -20 30 -6 17 -15
30 -20 30 -5 0 -9 11 -9 25 0 17 -8 29 -25 37 -14 6 -25 17 -25 25 0 12 -30
18 -72 15 -10 -1 -22 7 -28 18 -14 27 -87 28 -106 3 -7 -10 -16 -14 -21 -10
-4 5 3 16 16 26 29 22 20 41 -19 41 -15 0 -30 7 -34 15 -3 9 -18 15 -39 15
-21 0 -41 8 -52 20 -10 11 -31 20 -47 20 -16 0 -31 6 -34 15 -3 8 -26 17 -50
21 -28 4 -44 11 -44 20 0 8 -10 14 -26 14 -19 0 -25 -5 -22 -17z m112 -72 c3
-5 0 -11 -8 -14 -15 -6 -26 1 -26 15 0 11 27 10 34 -1z m96 -41 c0 -5 -6 -10
-14 -10 -8 0 -21 -3 -30 -6 -11 -4 -16 -1 -16 10 0 11 9 16 30 16 17 0 30 -4
30 -10z m75 -40 c-3 -5 -13 -10 -21 -10 -8 0 -14 5 -14 10 0 6 9 10 21 10 11
0 17 -4 14 -10z m177 -72 c-8 -8 -17 -8 -34 0 -22 10 -21 11 12 11 26 1 31 -2
22 -11z"/>
<path d="M5830 4316 c0 -8 -7 -22 -16 -31 -9 -8 -18 -35 -21 -58 -8 -60 -36
-87 -90 -87 -24 0 -43 4 -43 10 0 5 -12 13 -26 16 -28 7 -96 -24 -91 -41 6
-17 40 -18 49 -1 11 20 57 21 72 1 17 -23 179 -55 189 -38 3 5 3 19 0 32 -5
20 -7 21 -29 6 -39 -25 -46 -17 -18 21 21 27 27 45 25 75 -1 29 2 39 14 39 9
0 15 -9 15 -22 0 -13 7 -36 15 -52 20 -38 23 -109 6 -130 -17 -21 -109 -22
-137 -1 -10 8 -29 15 -41 15 -12 0 -31 9 -42 21 -21 23 -56 22 -56 -1 0 -9 11
-16 28 -18 16 -2 31 -10 34 -18 3 -8 14 -14 24 -14 11 0 36 -9 56 -20 21 -11
57 -20 81 -20 36 0 48 5 73 32 23 26 29 41 29 78 0 25 -7 54 -15 64 -8 11 -15
32 -15 47 0 14 -6 32 -14 38 -7 6 -16 25 -20 41 -6 30 -36 43 -36 16z"/>
<path d="M5348 4296 c-15 -11 -16 -15 -4 -32 14 -18 15 -18 35 0 40 36 12 65
-31 32z"/>
<path d="M1562 4274 c4 -21 22 -23 26 -1 2 10 -3 17 -13 17 -10 0 -15 -6 -13
-16z"/>
<path d="M5407 4264 c-16 -9 -26 -21 -24 -27 6 -18 48 -14 61 5 17 27 -4 39
-37 22z"/>
<path d="M5458 4226 c-21 -15 -24 -46 -5 -46 6 1 22 9 35 20 37 31 8 55 -30
26z"/>
<path d="M1605 4217 c-4 -10 -5 -21 -1 -24 10 -10 18 4 13 24 -4 17 -4 17 -12
0z"/>
<path d="M5512 4188 c-32 -20 -34 -38 -6 -38 18 0 64 29 64 40 0 18 -29 17
-58 -2z"/>
<path d="M1636 4172 c-3 -6 -1 -14 5 -17 15 -10 25 3 12 16 -7 7 -13 7 -17 1z"/>
<path d="M6616 4089 c-14 -17 -26 -36 -26 -44 0 -7 -7 -18 -15 -25 -8 -7 -15
-20 -15 -30 0 -9 -9 -25 -20 -35 -11 -10 -20 -26 -20 -37 0 -10 -9 -27 -20
-38 -25 -25 -26 -49 -2 -56 53 -17 99 -39 113 -55 18 -20 69 -39 169 -64 64
-15 124 -31 285 -75 44 -12 96 -26 115 -30 19 -5 69 -18 110 -29 41 -11 82
-21 92 -21 10 0 33 30 63 83 25 45 50 89 55 97 5 8 16 29 24 46 8 17 19 35 25
38 6 4 11 20 11 36 0 24 -5 31 -27 35 -16 3 -51 12 -79 20 -28 8 -63 15 -78
15 -15 0 -39 6 -54 14 -15 7 -47 16 -72 20 -24 4 -49 11 -56 16 -6 6 -33 13
-60 16 -27 4 -60 12 -74 19 -14 7 -45 16 -70 20 -25 3 -63 13 -85 20 -22 7
-78 23 -125 35 -47 12 -93 26 -102 31 -27 14 -34 11 -62 -22z"/>
<path d="M1767 4104 c-10 -11 3 -24 24 -24 10 0 19 7 19 15 0 15 -31 21 -43 9z"/>
<path d="M1830 4055 c7 -8 25 -15 41 -15 19 0 29 5 29 15 0 11 -11 15 -41 15
-36 0 -40 -2 -29 -15z"/>
<path d="M1912 4028 c7 -20 68 -23 68 -4 0 12 -10 16 -36 16 -24 0 -34 -4 -32
-12z"/>
<path d="M2005 3991 c-7 -13 17 -24 40 -19 9 1 16 8 16 13 0 14 -48 19 -56 6z"/>
<path d="M2090 3951 c0 -5 7 -12 16 -15 28 -11 54 -6 54 9 0 10 -11 15 -35 15
-19 0 -35 -4 -35 -9z"/>
<path d="M2180 3915 c0 -10 10 -15 30 -15 22 0 28 4 24 15 -4 8 -17 15 -30 15
-15 0 -24 -6 -24 -15z"/>
<path d="M1821 3906 c2 -10 15 -26 28 -34 22 -15 23 -15 20 2 -2 10 -15 26
-28 34 -22 15 -23 15 -20 -2z"/>
<path d="M1903 3865 c-14 -17 -18 -27 -10 -32 6 -3 13 -1 15 5 7 21 31 13 157
-49 22 -10 46 -19 53 -19 7 0 30 -9 50 -19 20 -11 53 -26 72 -34 19 -8 55 -24
80 -36 25 -11 49 -21 54 -21 10 0 83 -32 128 -56 14 -8 34 -14 45 -14 24 -1
72 -43 117 -103 19 -26 51 -64 71 -85 20 -21 34 -44 31 -54 -2 -11 4 -18 20
-22 13 -4 24 -11 24 -16 0 -10 114 -70 132 -70 5 0 21 -9 35 -20 14 -11 32
-20 39 -20 29 0 11 36 -58 118 -40 48 -92 111 -116 142 -45 57 -106 110 -129
110 -7 0 -21 4 -31 9 -9 5 -38 19 -64 30 -27 12 -67 30 -91 41 -24 11 -49 20
-56 20 -6 0 -29 8 -49 19 -20 10 -53 25 -72 34 -19 8 -56 25 -81 36 -25 12
-52 21 -61 21 -9 0 -21 7 -28 15 -7 8 -20 15 -29 15 -9 0 -33 9 -54 20 -20 11
-45 20 -54 20 -10 0 -31 9 -48 20 -40 26 -65 25 -92 -5z"/>
<path d="M2262 3878 c3 -7 17 -14 32 -16 20 -3 27 0 24 10 -3 7 -17 14 -32 16
-20 3 -27 0 -24 -10z"/>
<path d="M1925 3790 c3 -5 10 -10 16 -10 5 0 9 5 9 10 0 6 -7 10 -16 10 -8 0
-12 -4 -9 -10z"/>
<path d="M2025 3760 c-9 -14 45 -65 78 -73 15 -4 27 -14 27 -22 0 -11 12 -15
44 -15 39 0 44 -2 39 -20 -5 -18 -2 -19 41 -14 42 6 46 5 46 -15 0 -18 6 -21
40 -21 33 0 40 -3 40 -20 0 -17 7 -20 40 -20 29 0 40 -4 40 -15 0 -11 11 -15
38 -15 25 0 43 -7 55 -20 20 -23 67 -27 67 -6 0 8 -9 18 -20 21 -11 3 -25 15
-30 26 -8 14 -21 19 -50 19 -27 0 -40 4 -40 14 0 8 -16 16 -40 20 -26 4 -40
11 -40 21 0 10 -11 15 -33 15 -21 0 -41 8 -52 20 -11 12 -31 20 -52 20 -23 0
-33 5 -33 15 0 10 -10 15 -29 15 -39 0 -61 9 -61 26 0 9 -12 14 -35 14 -24 0
-37 6 -45 20 -12 22 -25 26 -35 10z"/>
<path d="M2030 3660 c0 -5 5 -10 10 -10 6 0 10 5 10 10 0 6 -4 10 -10 10 -5 0
-10 -4 -10 -10z"/>
<path d="M6345 3651 c-3 -12 -11 -21 -16 -21 -5 0 -13 -8 -17 -18 -11 -26 -93
-132 -103 -132 -5 0 -9 -11 -9 -25 0 -21 5 -25 29 -25 42 0 72 -13 105 -46 18
-18 47 -33 80 -40 28 -7 85 -22 126 -33 41 -12 100 -28 130 -36 30 -8 89 -24
130 -36 41 -11 100 -27 131 -34 31 -7 79 -20 106 -29 59 -20 70 -16 103 30 52
72 104 140 134 172 24 25 28 36 20 49 -10 17 -159 63 -205 63 -14 0 -29 4 -35
9 -5 6 -38 14 -72 20 -35 6 -69 15 -76 20 -7 6 -36 15 -66 20 -30 6 -95 22
-145 36 -49 14 -111 29 -138 35 -26 5 -56 14 -65 19 -10 5 -46 12 -79 16 -56
6 -62 4 -68 -14z"/>
<path d="M2080 3630 c-12 -8 -12 -10 2 -15 19 -7 38 1 38 16 0 12 -21 11 -40
-1z"/>
<path d="M2178 3603 c-10 -3 -18 -9 -18 -14 0 -12 37 -12 45 0 7 12 -5 19 -27
14z"/>
<path d="M2230 3555 c0 -10 10 -15 30 -15 20 0 30 5 30 15 0 10 -10 15 -30 15
-20 0 -30 -5 -30 -15z"/>
<path d="M2322 3518 c7 -20 58 -23 58 -4 0 11 -10 16 -31 16 -20 0 -29 -4 -27
-12z"/>
<path d="M2410 3491 c-18 -12 -14 -16 23 -25 24 -6 28 -4 25 11 -4 21 -27 27
-48 14z"/>
<path d="M2470 3451 c0 -11 25 -21 56 -21 17 0 22 4 18 15 -7 16 -74 22 -74 6z"/>
<path d="M2630 3440 c0 -5 5 -10 10 -10 6 0 10 5 10 10 0 6 -4 10 -10 10 -5 0
-10 -4 -10 -10z"/>
<path d="M2560 3410 c0 -12 45 -24 59 -15 22 13 10 25 -24 25 -19 0 -35 -4
-35 -10z"/>
<path d="M2650 3376 c0 -15 48 -28 56 -15 9 15 -6 29 -32 29 -14 0 -24 -6 -24
-14z"/>
<path d="M2390 3372 c0 -20 101 -82 134 -82 7 0 16 -7 19 -14 4 -11 16 -13 41
-9 29 4 36 2 36 -11 0 -9 11 -18 28 -22 15 -3 62 -23 106 -45 43 -21 84 -39
91 -39 7 0 18 -7 25 -15 7 -8 22 -15 34 -15 11 0 35 -9 51 -20 17 -11 40 -20
51 -20 12 0 27 -7 34 -15 7 -8 23 -15 35 -15 12 0 33 -8 46 -18 13 -10 35 -23
49 -30 14 -7 45 -26 70 -42 25 -17 60 -37 78 -45 35 -17 42 -41 15 -48 -10 -2
-6 -3 9 -1 35 4 58 -4 58 -22 0 -7 12 -17 28 -20 15 -4 34 -12 42 -19 16 -13
145 -75 155 -75 3 0 34 -14 67 -30 68 -34 104 -34 73 0 -10 11 -55 41 -99 67
-45 25 -103 62 -131 81 -146 103 -237 158 -305 186 -36 15 -82 36 -102 47 -20
10 -46 19 -56 19 -11 0 -25 7 -32 15 -7 8 -19 15 -27 15 -8 0 -31 8 -51 19
-87 43 -104 51 -114 51 -6 0 -32 9 -57 21 -25 12 -66 30 -91 41 -25 11 -58 27
-73 34 -16 8 -37 14 -47 14 -9 0 -23 7 -30 15 -7 8 -22 15 -34 15 -11 0 -34 9
-51 20 -30 20 -75 27 -75 12z"/>
<path d="M5942 3208 c-57 -55 -101 -107 -98 -113 2 -7 28 -16 56 -20 38 -5 55
-13 66 -31 11 -15 36 -29 73 -40 31 -8 86 -24 122 -35 36 -10 73 -19 82 -19 8
0 28 -5 44 -12 15 -6 53 -17 83 -24 30 -7 80 -20 110 -29 106 -31 205 -57 235
-61 27 -4 41 6 145 110 63 63 116 118 118 124 5 15 -20 28 -78 40 -88 19 -208
49 -300 77 -25 7 -63 17 -85 21 -22 3 -48 11 -57 16 -10 5 -43 13 -73 19 -30
5 -67 16 -82 24 -16 8 -39 15 -53 15 -14 0 -51 9 -83 20 -101 36 -109 33 -225
-82z"/>
<path d="M2715 3150 c3 -5 8 -10 11 -10 2 0 4 5 4 10 0 6 -5 10 -11 10 -5 0
-7 -4 -4 -10z"/>
<path d="M2760 3120 c0 -5 7 -10 15 -10 8 0 15 5 15 10 0 6 -7 10 -15 10 -8 0
-15 -4 -15 -10z"/>
<path d="M2815 3090 c3 -5 13 -10 21 -10 8 0 14 5 14 10 0 6 -9 10 -21 10 -11
0 -17 -4 -14 -10z"/>
<path d="M2897 3064 c-11 -11 3 -24 24 -24 12 0 19 5 17 13 -5 14 -31 21 -41
11z"/>
<path d="M2988 3033 c-28 -7 -21 -21 16 -37 18 -8 37 -19 40 -25 4 -6 20 -11
35 -11 16 0 34 -7 41 -15 12 -15 77 -32 86 -22 10 9 -28 37 -50 37 -13 0 -31
9 -41 20 -10 11 -31 20 -47 20 -17 0 -37 8 -46 18 -10 11 -25 17 -34 15z"/>
<path d="M5690 2982 c-28 -13 -75 -47 -83 -59 -4 -7 -13 -13 -18 -13 -6 0 -41
-25 -79 -55 -38 -30 -76 -55 -84 -55 -8 0 -18 -5 -21 -10 -12 -19 15 -37 63
-44 34 -4 55 -14 70 -31 19 -22 104 -55 141 -55 8 0 33 -6 56 -14 37 -13 84
-25 235 -61 85 -19 294 -76 299 -80 4 -5 61 23 77 39 6 6 24 20 40 31 15 11
57 43 93 71 36 28 76 56 89 63 13 7 22 21 22 34 0 24 0 24 -160 57 -30 6 -68
16 -85 22 -16 6 -48 13 -70 16 -22 2 -49 10 -60 17 -11 7 -40 16 -64 20 -24 4
-59 14 -77 21 -18 8 -46 14 -61 14 -15 0 -40 7 -56 15 -15 8 -52 19 -82 24
-30 6 -63 14 -73 20 -25 13 -95 21 -112 13z"/>
<path d="M3227 2914 c-11 -12 3 -24 29 -24 16 0 24 5 22 13 -5 13 -40 22 -51
11z"/>
<path d="M5160 2672 c-63 -35 -101 -52 -113 -52 -8 0 -20 -7 -27 -15 -7 -8
-20 -15 -30 -15 -9 0 -29 -9 -43 -20 -14 -11 -36 -20 -50 -20 -13 0 -30 -6
-36 -14 -15 -18 3 -31 54 -39 22 -4 46 -15 55 -27 17 -23 57 -35 345 -110 44
-11 100 -27 125 -34 25 -8 61 -17 80 -21 19 -4 74 -18 123 -31 l87 -24 185 91
c170 83 203 107 176 124 -10 5 -116 27 -218 44 -28 5 -58 13 -65 17 -11 7 -49
17 -228 58 -30 7 -68 18 -83 24 -16 7 -39 12 -52 12 -14 0 -45 7 -71 16 -41
14 -88 24 -174 39 -14 3 -32 1 -40 -3z"/>
<path d="M4435 2428 c-16 -5 -70 -17 -120 -27 -68 -13 -91 -21 -93 -34 -3 -14
4 -17 36 -17 30 0 41 -5 49 -22 8 -17 29 -28 74 -42 35 -10 89 -26 119 -36 30
-10 91 -28 135 -40 44 -12 94 -28 112 -36 17 -8 40 -14 52 -14 11 0 38 -6 58
-14 101 -38 151 -48 185 -38 18 6 60 13 93 17 33 3 74 10 91 16 16 5 72 13
122 18 51 4 96 11 99 15 16 16 -17 42 -68 52 -30 6 -70 16 -89 22 -19 6 -57
14 -85 18 -27 3 -54 10 -60 14 -5 4 -30 12 -55 18 -25 6 -58 15 -75 21 -16 5
-64 20 -105 31 -41 12 -88 26 -105 32 -16 5 -50 14 -75 20 -25 5 -59 16 -77
24 -36 16 -172 18 -218 2z"/>
<path d="M3490 2337 c0 -19 84 -60 180 -87 75 -21 107 -31 230 -69 194 -60
186 -59 425 -67 333 -10 338 -10 342 2 4 13 -54 38 -122 52 -136 28 -284 63
-315 76 -19 7 -71 24 -115 36 -44 12 -93 26 -110 32 -74 25 -120 30 -270 28
-88 -1 -179 1 -202 5 -35 6 -43 4 -43 -8z"/>
<path d="M1570 1384 c0 -2 0 -261 -1 -575 l0 -571 142 0 141 0 0 309 c0 170 3
314 6 319 4 5 13 9 21 9 24 0 24 25 -1 34 -22 10 -22 10 -1 10 12 1 24 -5 26
-11 4 -10 8 -9 16 2 7 10 11 11 11 3 0 -7 -6 -18 -14 -25 -22 -20 8 -58 42
-54 15 2 20 1 11 -1 -19 -5 -14 -62 7 -70 7 -2 23 -23 34 -46 12 -23 30 -51
39 -62 10 -11 21 -28 24 -37 7 -20 22 -23 32 -8 8 13 25 13 25 0 0 -5 -7 -10
-15 -10 -21 0 -19 -36 4 -52 10 -7 21 -23 25 -35 4 -13 14 -23 21 -23 8 0 12
-6 9 -14 -3 -8 3 -22 14 -32 10 -11 31 -40 46 -66 16 -27 32 -48 36 -48 5 0
12 -10 16 -22 3 -12 12 -28 19 -35 7 -7 15 -17 17 -22 2 -6 69 -11 162 -12
l159 -1 0 574 1 573 -143 0 -143 0 1 -320 c1 -186 6 -324 12 -329 17 -18 11
-56 -10 -56 -11 0 -23 5 -26 10 -3 6 1 10 10 10 32 0 12 35 -23 38 -17 2 -32
7 -32 13 0 5 -6 9 -14 9 -14 0 -26 21 -26 45 0 8 -12 31 -26 52 -25 38 -48 49
-50 26 -1 -7 -2 -17 -3 -22 0 -5 -8 -11 -16 -15 -22 -8 -18 17 6 43 20 21 20
51 -1 51 -5 0 -10 9 -10 20 0 10 -8 27 -19 37 -10 10 -28 35 -39 57 -11 21
-30 47 -41 58 -12 10 -21 25 -21 33 0 24 -26 17 -38 -10 -6 -14 -16 -25 -21
-25 -14 0 -4 43 14 56 20 15 19 40 -1 48 -23 9 -24 8 -24 -19 0 -27 -14 -34
-23 -11 -3 8 1 20 9 26 16 15 19 46 3 55 -6 4 -16 -1 -23 -10 -7 -10 -18 -16
-25 -14 -9 3 -6 12 8 28 26 30 26 38 1 53 -11 7 -20 21 -20 31 0 10 -10 21
-22 26 -23 8 -298 13 -298 5z m76 -46 c4 -6 3 -13 -2 -15 -5 -2 -9 -208 -9
-511 l0 -507 60 2 c33 1 62 -3 66 -8 4 -6 13 -3 24 7 17 17 18 17 31 -1 8 -10
10 -21 5 -24 -5 -3 -56 -5 -113 -5 -95 2 -103 3 -99 20 7 41 -2 1020 -10 1030
-5 6 -6 14 -2 17 11 11 41 8 49 -5z m228 -13 c9 -11 16 -26 16 -32 0 -21 -27
-15 -33 7 -5 18 -14 20 -101 20 -53 0 -96 4 -96 9 0 12 28 16 122 16 65 0 79
-3 92 -20z m683 11 c10 -10 25 -7 18 4 -3 6 3 10 14 10 10 0 21 -5 23 -10 2
-6 0 -61 -4 -123 -5 -62 -6 -300 -3 -529 l5 -416 -148 1 c-81 1 -146 5 -144
10 1 4 2 11 2 15 0 5 57 8 128 8 l127 -1 2 508 2 507 -83 0 -82 0 3 -32 c7
-68 8 -528 1 -528 -3 0 -15 -3 -25 -7 -14 -5 -16 -4 -7 8 15 20 20 559 5 559
-6 0 -11 6 -11 13 0 11 20 13 85 12 47 -1 88 -5 92 -9z m-534 -245 c-2 -6 2
-11 8 -11 5 0 7 -5 4 -10 -5 -8 -11 -7 -21 1 -17 14 -19 42 -1 36 6 -2 11 -10
10 -16z m57 -39 c0 -10 -22 -32 -32 -32 -4 0 -8 9 -8 20 0 13 7 20 20 20 11 0
20 -4 20 -8z m20 -77 c0 -14 -4 -25 -10 -25 -5 0 -10 11 -10 25 0 14 5 25 10
25 6 0 10 -11 10 -25z m40 -42 c0 -5 -4 -15 -10 -23 -11 -18 -25 -7 -17 15 6
15 27 21 27 8z m71 -121 c-8 -31 -24 -36 -29 -9 -4 20 16 49 28 42 5 -3 5 -17
1 -33z m-397 -96 c-5 -14 -8 -15 -14 -6 -10 16 -11 100 -2 115 9 14 23 -85 16
-109z m216 70 c0 -13 -6 -26 -14 -29 -19 -8 -24 -1 -18 28 6 32 32 33 32 1z
m50 -45 c0 -5 -6 -12 -12 -15 -10 -5 -10 -7 0 -12 20 -9 14 -23 -8 -17 -23 6
-25 18 -7 38 14 16 27 19 27 6z m240 -51 c0 -5 -4 -10 -10 -10 -5 0 -10 5 -10
10 0 6 5 10 10 10 6 0 10 -4 10 -10z m-506 -128 c-2 -216 -3 -237 -15 -225
-11 11 -24 318 -13 334 3 5 11 9 17 9 9 0 12 -33 11 -118z m286 109 c0 -5 -7
-11 -15 -15 -9 -3 -15 0 -15 9 0 8 7 15 15 15 8 0 15 -4 15 -9z m70 -1 c0 -5
-5 -10 -11 -10 -5 0 -7 5 -4 10 3 6 8 10 11 10 2 0 4 -4 4 -10z m30 -70 c8 -5
11 -10 5 -10 -5 0 -17 5 -25 10 -8 5 -10 10 -5 10 6 0 17 -5 25 -10z m-27 -51
c-4 -4 -15 -4 -23 2 -13 8 -12 12 5 25 18 14 20 13 23 -2 2 -9 0 -20 -5 -25z
m67 15 c0 -8 -5 -12 -10 -9 -6 4 -8 11 -5 16 9 14 15 11 15 -7z m-30 -64 c0
-11 7 -20 15 -20 8 0 15 -9 15 -20 0 -11 -4 -20 -10 -20 -5 0 -10 6 -10 13 0
8 -9 22 -20 32 -24 22 -26 35 -5 35 8 0 15 -9 15 -20z m107 -92 c-3 -8 -6 -5
-6 6 -1 11 2 17 5 13 3 -3 4 -12 1 -19z m-37 -3 c0 -16 -27 -32 -36 -22 -7 6
17 36 29 37 4 0 7 -7 7 -15z m40 -67 c0 -4 -6 -8 -14 -8 -8 0 -13 11 -13 27 0
25 0 26 13 8 8 -10 14 -22 14 -27z"/>
<path d="M2940 1384 c0 -2 0 -261 -1 -575 l0 -571 158 0 158 0 3 207 c1 119
-2 212 -7 219 -7 8 30 10 140 8 118 -3 161 0 199 12 27 9 61 16 77 16 34 0 58
14 49 28 -3 6 -32 14 -64 18 l-57 8 55 7 c48 7 58 5 77 -13 l22 -21 37 33 c53
46 84 95 84 133 1 18 7 43 15 57 8 15 14 52 14 90 0 38 -6 75 -14 90 -8 14
-14 39 -15 56 0 17 -7 37 -15 44 -8 7 -15 19 -15 28 0 17 -33 49 -79 75 -25
15 -43 17 -87 11 -37 -4 -51 -9 -43 -15 18 -11 -223 -16 -449 -9 -96 3 -176 3
-178 1 -7 -8 -4 -1020 4 -1023 4 -2 49 -2 100 0 l92 3 -4 178 c-3 140 -1 178
9 178 10 0 12 -43 12 -195 l-1 -194 -102 4 c-62 3 -107 1 -113 -5 -17 -17 -43
11 -30 34 6 12 9 204 9 535 -1 284 1 518 4 521 3 3 11 1 18 -4 9 -7 119 -10
318 -8 350 3 340 2 340 13 0 26 -91 33 -400 31 -176 0 -320 -3 -320 -5z m846
-109 c20 -19 41 -35 45 -35 5 0 9 -7 9 -15 0 -25 -24 -17 -54 20 -18 21 -38
35 -52 35 -12 0 -30 3 -40 7 -16 6 -16 7 2 14 35 14 52 9 90 -26z m-376 -5
c11 -7 7 -10 -18 -10 -20 0 -31 4 -27 10 8 13 26 13 45 0z m-80 -10 c0 -5 -10
-11 -22 -11 -13 -1 -5 -5 17 -8 l40 -7 -42 -5 c-39 -4 -43 -3 -43 18 0 18 6
23 25 23 14 0 25 -4 25 -10z m176 -39 c-10 -11 -25 -17 -37 -14 -37 10 -18 31
30 32 23 1 23 0 7 -18z m244 -11 c0 -5 -4 -10 -10 -10 -5 0 -10 5 -10 10 0 6
5 10 10 10 6 0 10 -4 10 -10z m-305 -19 c3 -5 20 -13 38 -16 17 -4 48 -23 67
-43 33 -34 34 -39 34 -107 0 -70 -1 -74 -35 -107 -31 -30 -45 -36 -122 -47
-48 -7 -87 -17 -87 -22 0 -5 -5 -9 -11 -9 -5 0 -8 4 -5 9 7 10 -16 21 -44 21
-18 0 -19 11 -22 161 -2 88 -1 163 1 165 9 8 180 4 186 -5z m-229 -151 c2
-102 0 -120 -13 -120 -13 0 -15 10 -9 61 3 34 6 91 6 127 0 36 3 62 7 58 4 -4
8 -61 9 -126z m394 113 c0 -10 -20 -40 -20 -31 0 3 -3 13 -6 22 -4 11 -1 16
10 16 9 0 16 -3 16 -7z m37 -115 c-1 -45 -7 -73 -15 -76 -9 -3 -12 17 -12 72
0 61 3 76 15 76 13 0 15 -13 12 -72z m222 -10 c-1 -46 -3 -75 -6 -65 -2 9 -9
17 -14 17 -5 0 -9 27 -9 59 0 53 4 63 28 70 1 1 1 -36 1 -81z m-39 -120 c0 -7
3 -23 6 -35 4 -15 0 -24 -15 -32 -20 -11 -21 -9 -21 34 0 33 4 45 15 45 8 0
15 -6 15 -12z m-623 -30 c-3 -8 -6 -5 -6 6 -1 11 2 17 5 13 3 -3 4 -12 1 -19z
m353 -9 c0 -6 -9 -13 -20 -16 -11 -3 -20 -11 -20 -18 0 -8 -16 -14 -40 -17
-28 -2 -40 0 -40 9 0 7 -5 13 -11 13 -5 0 -8 -4 -5 -8 2 -4 -6 -8 -19 -8 -14
0 -27 6 -30 14 -4 12 6 13 59 7 59 -6 66 -5 78 14 13 22 48 29 48 10z m225
-67 c0 -18 -20 -15 -23 4 -3 10 1 15 10 12 7 -3 13 -10 13 -16z m-185 -73 c0
-14 -39 -18 -183 -21 -116 -3 -137 -1 -137 12 0 13 25 15 160 16 88 0 160 -3
160 -7z"/>
<path d="M4052 1261 l0 -129 187 -1 c155 -1 188 -4 198 -17 8 -11 11 -132 10
-445 l-2 -429 153 0 c128 0 152 2 152 15 0 19 8 18 -192 23 -66 2 -86 5 -83
15 4 9 39 12 133 12 l127 0 0 413 c0 228 -3 416 -7 419 -13 8 -9 33 6 33 8 0
13 -8 12 -17 -1 -17 15 -18 192 -20 l192 -1 -1 128 -1 129 -538 0 -539 0 1
-128z m1048 73 c0 -8 -5 -14 -11 -14 -8 0 -9 -13 -5 -40 5 -32 3 -40 -9 -40
-11 0 -15 11 -15 40 l0 40 -460 0 c-253 0 -463 0 -467 0 -5 0 -8 -33 -8 -73
-1 -66 -3 -72 -23 -75 -17 -3 -22 2 -22 17 0 12 4 21 8 21 13 0 14 97 2 105
-5 3 -10 12 -10 18 0 9 116 12 487 10 269 0 495 3 503 7 18 10 30 4 30 -16z
m-3 -139 c6 -19 -15 -39 -29 -28 -8 6 -65 10 -141 9 -94 -1 -127 2 -127 11 0
9 35 13 123 16 161 4 170 4 174 -8z m-697 -4 c0 -10 -118 -18 -202 -13 -109 7
-58 22 72 22 72 0 130 -4 130 -9z m70 -57 c0 -8 -4 -12 -10 -9 -5 3 -10 13
-10 21 0 8 5 12 10 9 6 -3 10 -13 10 -21z m177 -6 c-3 -7 -5 -2 -5 12 0 14 2
19 5 13 2 -7 2 -19 0 -25z m-147 -88 c0 -22 5 -40 10 -40 6 0 10 -11 10 -25 0
-18 -5 -25 -20 -25 -17 0 -19 6 -17 65 2 70 17 92 17 25z m213 23 c-3 -10 -10
-23 -15 -30 -5 -6 -10 -162 -11 -347 -1 -214 -6 -337 -12 -338 -15 -4 -19 630
-4 648 6 7 10 21 9 31 -5 40 1 53 20 53 14 0 18 -5 13 -17z m-194 -270 c1 -23
-4 -33 -14 -33 -17 0 -18 11 -8 101 l7 64 7 -50 c4 -27 8 -65 8 -82z"/>
<path d="M5350 1382 c-1 -4 -1 -263 -1 -575 l0 -568 467 0 467 0 1 106 1 105
-306 0 c-271 0 -308 2 -313 16 -8 20 -8 238 0 258 5 14 40 16 290 16 156 0
284 4 284 9 0 28 -34 32 -294 31 -236 0 -266 2 -266 16 0 14 25 15 239 10 134
-4 242 -2 245 3 3 4 17 6 31 3 18 -3 25 0 25 12 0 9 -7 16 -15 16 -24 0 -17
32 13 57 l27 23 -279 -1 c-221 0 -282 3 -293 13 -19 19 -20 217 -1 229 11 8
505 16 581 10 l27 -2 0 110 0 111 -465 -1 c-256 0 -465 -3 -465 -7z m893 -100
c-1 -34 -2 -65 -2 -69 -1 -9 -502 -6 -538 2 -13 3 -23 9 -23 14 0 5 120 8 267
7 l267 -1 7 29 c15 56 20 55 -390 55 -207 0 -381 0 -386 1 -6 2 -15 2 -21 1
-7 -1 -11 -145 -10 -486 0 -266 -3 -487 -7 -491 -4 -4 -10 -4 -14 0 -4 4 -8
231 -9 504 l-2 497 431 0 431 0 -1 -63z m-622 -136 c5 3 9 -11 9 -30 0 -25 -4
-36 -15 -36 -11 0 -15 11 -14 43 0 23 3 36 6 29 2 -6 9 -10 14 -6z m18 -121
c0 -5 -8 -21 -18 -35 l-19 -24 1 39 c0 49 17 77 28 48 4 -10 8 -22 8 -28z m71
-165 c0 -5 -7 -10 -15 -10 -8 0 -15 5 -15 10 0 6 7 10 15 10 8 0 15 -4 15 -10z
m-90 -35 c0 -8 -4 -15 -10 -15 -5 0 -10 7 -10 15 0 8 5 15 10 15 6 0 10 -7 10
-15z m9 -200 c1 -57 0 -59 -15 -36 -13 18 -15 35 -8 89 6 57 9 62 15 37 3 -16
7 -57 8 -90z m-4 -105 c7 -11 -5 -63 -13 -55 -3 3 -7 19 -8 35 -2 29 9 40 21
20z m633 -122 c-5 -13 -14 -14 -416 -18 -85 -1 -157 1 -160 5 -18 18 47 24
301 25 223 0 278 -2 275 -12z m-424 -97 c370 0 471 -7 410 -24 -11 -3 -201 -5
-422 -4 -222 1 -409 -1 -415 -5 -19 -12 -38 12 -26 33 7 14 14 17 27 10 9 -5
201 -9 426 -10z"/>
<path d="M5612 630 c0 -19 2 -27 5 -17 2 9 2 25 0 35 -3 9 -5 1 -5 -18z"/>
<path d="M6537 814 l3 -575 447 0 448 0 -1 116 c0 63 -3 117 -6 120 -3 3 -12
3 -20 0 -12 -5 -15 -25 -13 -103 2 -105 0 -116 -18 -105 -7 5 -189 8 -405 8
l-393 0 1 522 c0 354 -3 523 -10 528 -22 14 2 21 74 23 62 1 76 -1 76 -14 0
-12 -11 -15 -57 -13 l-58 3 -3 -495 c-1 -272 0 -504 3 -517 3 -13 10 -20 14
-17 10 6 706 9 731 3 12 -2 15 12 15 85 l0 87 -240 0 c-174 0 -244 3 -253 12
-9 9 -12 125 -12 458 l0 447 -162 0 -163 1 2 -574z m286 509 c-4 -2 -7 -182
-6 -400 1 -219 -1 -407 -4 -418 -16 -53 -21 47 -21 415 l-1 395 -31 3 c-38 4
-35 27 4 28 14 1 30 4 33 8 4 4 13 -1 21 -11 7 -10 9 -19 5 -20z m-83 -101 c0
-9 -5 -24 -10 -32 -7 -11 -10 -5 -10 23 0 23 4 36 10 32 6 -3 10 -14 10 -23z
m140 -767 c9 5 11 4 6 -3 -7 -11 -36 -17 -36 -8 0 2 -3 13 -6 23 -6 17 -6 17
8 -1 9 -12 20 -16 28 -11z m15 -35 c3 -5 1 -10 -4 -10 -6 0 -11 5 -11 10 0 6
2 10 4 10 3 0 8 -4 11 -10z"/>
</g>
</svg>
