<?xml version="1.0" standalone="no"?>
<!DOCTYPE svg PUBLIC "-//W3C//DTD SVG 20010904//EN"
 "http://www.w3.org/TR/2001/REC-SVG-20010904/DTD/svg10.dtd">
<svg version="1.0" xmlns="http://www.w3.org/2000/svg"
 width="204.000000pt" height="194.000000pt" viewBox="0 0 204.000000 194.000000"
 preserveAspectRatio="xMidYMid meet">
<metadata>
Created by potrace 1.14, written by Peter Selinger 2001-2017
</metadata>
<g transform="translate(0.000000,194.000000) scale(0.100000,-0.100000)"
fill="#000000" stroke="none">
<path d="M840 1855 c-314 -65 -564 -286 -668 -591 -24 -69 -52 -220 -52 -279
0 -107 46 -287 100 -396 180 -358 587 -557 970 -476 362 77 635 360 700 723
16 89 8 287 -14 368 -94 340 -356 585 -694 652 -90 17 -254 17 -342 -1z m361
-30 c37 -7 101 -28 143 -45 252 -105 439 -323 508 -593 29 -114 28 -299 -1
-412 -67 -252 -239 -459 -474 -570 -121 -58 -213 -78 -362 -78 -103 0 -147 5
-210 22 -159 43 -296 123 -406 237 -112 118 -180 237 -220 389 -30 112 -30
307 0 420 91 344 376 597 726 644 82 11 202 5 296 -14z"/>
<path d="M1000 1795 c0 -10 -11 -15 -37 -16 -33 -1 -34 -2 -13 -8 21 -6 22 -8
8 -14 -19 -7 -25 -37 -8 -37 5 0 7 7 4 15 -4 10 0 15 11 15 12 0 15 -5 10 -19
-3 -11 -1 -22 5 -26 6 -4 10 4 10 19 0 14 5 26 11 26 6 0 9 -9 6 -20 -3 -11
-1 -18 4 -14 15 9 10 32 -8 43 -15 9 -12 10 15 11 30 0 32 -2 33 -37 l2 -38 6
40 c4 28 2 45 -9 58 -18 21 -50 23 -50 2z m40 -5 c0 -5 -7 -10 -15 -10 -8 0
-15 5 -15 10 0 6 7 10 15 10 8 0 15 -4 15 -10z"/>
<path d="M808 1785 c-4 -4 -4 -13 -1 -21 6 -16 -32 -20 -42 -4 -3 6 -11 10
-18 10 -6 0 -2 -6 8 -14 18 -13 18 -14 -3 -20 -18 -6 -20 -10 -10 -31 12 -27
-5 -61 -24 -49 -6 4 -5 10 3 16 11 8 10 9 -3 4 -10 -3 -18 -1 -18 4 0 6 5 10
10 10 6 0 10 7 10 15 0 17 -6 18 -35 5 -17 -7 -17 -9 -3 -9 10 -1 15 -6 12
-15 -8 -21 25 -49 42 -35 7 6 19 7 25 3 9 -5 10 -1 6 14 -4 12 -10 31 -13 42
-10 33 16 23 32 -12 15 -32 14 -11 -1 25 -5 13 -2 17 13 17 14 0 21 -9 26 -32
3 -17 8 -29 11 -26 3 2 1 18 -4 36 -8 25 -6 32 7 35 16 4 16 5 0 6 -9 0 -18 8
-20 17 -2 9 -6 13 -10 9z"/>
<path d="M856 1784 c6 -3 10 -18 8 -34 -2 -16 1 -32 6 -35 6 -3 10 5 10 19 0
38 17 31 25 -10 8 -46 16 -39 9 8 -6 32 -35 60 -62 57 -4 0 -2 -3 4 -5z"/>
<path d="M1153 1763 c9 -2 17 -11 17 -19 0 -8 -4 -12 -10 -9 -12 7 -12 -2 -1
-30 7 -17 9 -16 15 13 4 18 14 32 22 32 15 0 19 -16 6 -22 -5 -1 -5 -14 -2
-28 6 -24 7 -24 14 8 5 19 14 32 24 33 23 1 -58 28 -83 27 -17 0 -17 -1 -2 -5z"/>
<path d="M1267 1723 c5 -13 2 -15 -11 -10 -14 6 -17 3 -12 -9 3 -8 6 -22 6
-30 0 -8 4 -14 9 -14 5 0 7 9 4 20 -6 22 -3 23 21 14 9 -3 16 -12 16 -19 0 -8
5 -17 12 -21 7 -4 8 -3 4 4 -4 7 -1 12 8 12 22 0 30 19 15 36 -12 14 -14 14
-24 1 -8 -11 -16 -13 -26 -6 -11 7 -12 11 -1 18 11 6 10 10 -3 15 -24 9 -25 8
-18 -11z m68 -34 c-10 -15 -25 -10 -19 6 4 8 10 12 15 9 5 -3 7 -10 4 -15z"/>
<path d="M619 1701 c11 -7 10 -10 -5 -13 -16 -4 -14 -6 8 -12 16 -5 31 -19 39
-39 7 -17 15 -25 17 -19 2 6 -4 22 -14 36 -9 14 -13 26 -8 26 4 0 -1 7 -12 15
-10 8 -23 14 -29 15 -5 0 -4 -4 4 -9z"/>
<path d="M1365 1689 c5 -7 -2 -20 -16 -31 -13 -11 -18 -16 -10 -12 11 5 13 3
8 -9 -11 -28 2 -19 19 14 11 22 19 28 26 21 8 -8 6 -19 -6 -37 -10 -15 -15
-29 -13 -32 3 -3 13 9 22 26 19 37 22 38 60 6 20 -16 25 -24 15 -25 -9 0 -21
5 -28 12 -8 8 -12 8 -12 1 0 -6 7 -14 15 -17 13 -5 14 -10 4 -28 -9 -19 -5
-17 18 7 l29 30 -20 18 c-29 25 -120 71 -111 56z"/>
<path d="M589 1652 l-25 -17 27 -27 c24 -23 28 -25 34 -10 5 14 7 14 15 2 17
-27 11 -1 -8 34 -18 34 -19 34 -43 18z m29 -26 c3 -12 -1 -17 -10 -14 -7 3
-15 13 -16 22 -3 12 1 17 10 14 7 -3 15 -13 16 -22z"/>
<path d="M868 1625 c-183 -45 -348 -177 -433 -346 -53 -104 -69 -178 -68 -309
0 -98 4 -127 27 -195 40 -118 80 -181 170 -270 130 -128 273 -188 451 -189
106 0 175 15 270 59 284 131 435 437 370 750 -49 234 -244 435 -481 495 -90
23 -221 25 -306 5z m277 -20 c346 -72 573 -436 486 -777 -75 -291 -320 -488
-609 -488 -184 0 -318 55 -447 185 -128 128 -188 272 -189 450 0 107 15 174
60 272 123 272 411 418 699 358z"/>
<path d="M982 1555 c-7 -14 -12 -34 -12 -44 0 -38 -29 -32 -50 9 -15 30 -26
40 -45 40 -30 0 -38 -12 -38 -62 0 -51 -17 -57 -55 -19 -34 35 -53 39 -73 15
-10 -12 -10 -24 -2 -57 15 -53 3 -66 -35 -38 -36 25 -65 27 -83 5 -11 -14 -10
-22 9 -57 28 -51 18 -62 -39 -47 -38 10 -44 10 -56 -6 -19 -26 -17 -34 18 -70
17 -18 28 -37 25 -43 -4 -6 -29 -11 -55 -11 -42 0 -49 -3 -54 -22 -7 -26 6
-44 45 -64 32 -16 38 -44 9 -44 -10 0 -32 -5 -50 -11 -54 -19 -34 -79 27 -79
11 0 25 -6 31 -14 10 -12 4 -19 -29 -37 -72 -41 -46 -102 36 -86 38 7 41 -18
5 -52 -32 -30 -35 -38 -25 -65 7 -18 55 -22 84 -6 13 7 21 6 30 -5 9 -11 8
-20 -9 -44 -25 -35 -26 -54 -5 -72 14 -11 22 -10 57 9 52 29 65 18 48 -40 -12
-37 -11 -43 5 -55 26 -19 34 -17 70 18 18 17 37 28 43 25 6 -4 11 -27 11 -51
0 -35 4 -47 22 -56 19 -10 25 -8 49 18 14 17 28 36 31 44 9 26 35 0 42 -41 6
-39 8 -41 38 -38 28 3 34 8 43 42 7 22 16 41 22 43 6 2 21 -14 34 -36 23 -42
28 -45 67 -35 19 5 22 13 22 54 0 27 5 50 11 52 6 2 26 -11 44 -29 30 -30 36
-32 59 -22 29 13 32 30 15 78 -6 18 -8 35 -5 38 4 4 27 -3 53 -16 45 -22 47
-22 64 -4 18 17 18 19 -3 61 -27 53 -18 65 40 49 40 -10 45 -10 58 8 20 26 18
32 -16 67 -44 43 -39 56 19 55 56 -2 60 0 63 33 2 19 -5 29 -34 45 -45 24 -51
55 -12 55 38 0 64 18 64 45 0 27 -10 36 -54 44 -44 9 -43 32 1 56 30 16 37 26
35 45 -3 32 -20 42 -64 36 -48 -5 -53 11 -16 51 24 25 29 37 24 57 -7 29 -34
34 -82 16 -38 -15 -47 4 -23 44 23 38 24 59 3 77 -14 11 -22 10 -56 -9 -22
-12 -44 -19 -49 -16 -5 3 -7 27 -3 53 5 36 2 50 -10 60 -13 11 -20 9 -46 -9
-16 -12 -30 -26 -30 -31 0 -5 -9 -9 -19 -9 -17 0 -20 8 -23 53 -3 50 -4 52
-32 52 -23 0 -33 -7 -48 -37 -23 -43 -44 -41 -54 5 -8 42 -22 57 -49 57 -14 0
-26 -9 -33 -25z m62 -17 c3 -13 7 -32 8 -43 2 -14 12 -21 33 -23 27 -3 32 1
44 33 10 28 17 35 34 33 19 -3 22 -10 22 -47 0 -36 4 -46 22 -54 18 -8 27 -4
53 21 18 18 37 29 45 25 19 -7 19 -15 0 -58 -13 -34 -13 -36 10 -51 23 -15 27
-14 60 6 54 33 78 0 34 -46 -21 -22 -21 -24 -5 -49 13 -19 22 -24 34 -19 9 4
32 9 50 12 26 3 32 1 32 -14 0 -11 -14 -31 -31 -45 -29 -24 -30 -27 -18 -50
12 -20 22 -24 59 -24 57 0 60 -22 7 -50 -30 -16 -37 -25 -35 -44 2 -19 12 -27
43 -35 29 -9 40 -17 40 -31 0 -15 -10 -22 -42 -29 -37 -9 -43 -13 -43 -36 0
-20 8 -30 33 -41 21 -9 32 -21 32 -34 0 -17 -7 -20 -45 -20 -39 0 -46 -3 -54
-26 -8 -23 -5 -30 24 -56 49 -44 20 -71 -45 -41 -24 11 -29 9 -45 -12 -19 -25
-18 -30 15 -76 13 -18 13 -23 2 -33 -11 -8 -22 -6 -50 13 -35 24 -37 24 -58 8
-20 -17 -20 -21 -8 -61 11 -36 10 -44 -2 -52 -10 -7 -23 0 -46 26 -30 32 -35
34 -59 23 -21 -10 -25 -17 -21 -42 10 -68 -33 -89 -60 -28 -10 20 -18 38 -19
40 -1 2 -13 0 -27 -3 -19 -5 -27 -15 -31 -40 -13 -66 -47 -66 -62 0 -8 32 -15
41 -34 43 -20 2 -29 -5 -45 -35 -28 -53 -49 -50 -53 8 -2 38 -7 48 -28 58 -22
10 -28 8 -50 -19 -45 -53 -77 -31 -50 33 14 34 14 36 -10 52 -23 15 -27 15
-53 -5 -56 -39 -83 -11 -41 43 20 25 20 28 4 52 -11 17 -22 24 -33 19 -52 -21
-72 -23 -78 -7 -4 11 5 26 26 45 30 27 32 32 22 56 -10 24 -16 27 -55 24 -58
-5 -70 20 -23 48 17 11 35 20 40 20 4 0 7 13 7 29 0 26 -4 29 -40 35 -37 6
-61 28 -46 43 3 3 22 9 43 12 29 5 38 12 44 34 7 25 4 29 -32 48 -57 28 -50
55 13 52 40 -1 47 2 57 25 11 23 9 28 -18 50 -55 42 -32 75 33 48 35 -15 37
-14 52 9 14 22 14 26 -7 54 -38 52 0 84 47 40 22 -20 25 -21 48 -6 23 15 23
18 11 54 -23 65 16 86 58 32 21 -27 27 -30 46 -20 17 9 21 21 21 57 0 41 2 45
23 42 14 -2 27 -15 36 -35 12 -26 21 -33 43 -33 21 0 28 5 28 19 0 61 53 100
64 49z"/>
<path d="M898 1381 c-156 -50 -263 -173 -291 -335 -38 -226 126 -454 349 -484
204 -27 386 86 455 283 31 91 24 217 -18 307 -91 193 -302 291 -495 229z m285
-39 c247 -115 309 -441 123 -640 -90 -96 -235 -147 -353 -123 -133 26 -239
109 -296 229 -30 62 -32 74 -31 172 0 92 3 112 26 162 31 67 104 149 166 185
70 41 120 53 212 50 71 -2 97 -8 153 -35z"/>
<path d="M1011 1326 c-1 -10 -18 -58 -38 -105 -34 -77 -38 -95 -38 -171 0 -62
5 -94 18 -118 22 -40 9 -72 -29 -72 -19 0 -28 8 -40 35 -12 30 -12 40 1 77 22
65 19 95 -14 129 -40 39 -100 41 -138 3 l-26 -26 24 -12 c17 -8 23 -19 21 -37
-1 -13 -5 -48 -8 -77 -12 -101 46 -188 148 -223 50 -16 53 -20 56 -54 l3 -36
57 3 57 3 3 36 c3 34 6 37 40 43 57 9 117 53 148 109 24 44 26 57 23 135 -4
84 -3 87 19 90 30 4 28 15 -9 46 -42 36 -89 35 -131 -2 -34 -31 -37 -48 -23
-148 9 -62 -5 -94 -40 -94 -40 0 -48 31 -23 87 31 66 30 169 -2 238 -12 28
-31 75 -41 105 -10 30 -18 46 -18 36z m36 -117 c33 -94 36 -191 8 -267 -21
-58 -16 -79 23 -93 16 -6 29 -2 53 18 33 28 33 31 14 158 -6 35 -3 43 19 65
31 28 88 33 112 8 15 -14 14 -18 -6 -38 -14 -14 -19 -27 -15 -38 15 -34 17
-111 5 -147 -16 -49 -66 -104 -115 -126 -30 -14 -64 -19 -135 -19 -111 0 -158
17 -207 73 -52 60 -61 112 -38 223 6 25 3 34 -14 46 -17 12 -19 17 -9 26 26
21 65 24 97 8 34 -18 47 -52 36 -94 -4 -15 -9 -47 -12 -72 -4 -38 -1 -48 20
-68 57 -54 118 -2 84 71 -20 41 -23 156 -6 208 18 56 52 139 56 136 2 -2 15
-37 30 -78z m3 -524 c0 -34 -1 -35 -40 -35 -39 0 -40 1 -40 35 0 34 1 35 40
35 39 0 40 -1 40 -35z"/>
<path d="M993 1130 c-13 -37 -23 -77 -23 -88 0 -27 30 -102 40 -102 12 0 40
77 40 110 0 16 -5 41 -11 57 -7 15 -15 42 -18 59 -6 29 -7 27 -28 -36z m36
-31 c6 -18 11 -33 11 -34 0 -2 -11 -2 -25 -1 -26 1 -29 7 -19 44 9 31 20 28
33 -9z m1 -99 c0 -8 -5 -22 -10 -30 -9 -13 -11 -13 -20 0 -16 25 -12 46 10 46
11 0 20 -7 20 -16z"/>
<path d="M830 1039 c0 -6 -13 -27 -30 -46 -38 -42 -38 -67 -1 -104 38 -38 56
-38 45 -1 -5 15 -8 57 -6 95 1 37 0 67 -3 67 -3 0 -5 -5 -5 -11z m-8 -64 c-7
-32 -32 -46 -32 -18 0 15 30 57 36 50 1 -1 -1 -16 -4 -32z m18 -98 c0 -8 -14
-2 -38 16 -11 8 -11 12 0 18 13 8 38 -14 38 -34z"/>
<path d="M1189 1045 c-1 -5 -2 -37 -3 -70 -1 -33 -5 -72 -10 -87 -7 -23 -5
-28 8 -28 9 0 28 11 41 25 32 31 32 75 1 112 -12 15 -26 35 -29 43 -3 8 -6 11
-8 5z m41 -86 c0 -11 -7 -19 -15 -19 -10 0 -15 10 -15 31 0 27 2 30 15 19 8
-7 15 -21 15 -31z m-19 -72 c-24 -25 -37 -17 -22 12 7 13 17 18 27 14 14 -5
13 -9 -5 -26z"/>
<path d="M462 1550 c-18 -17 -44 -30 -58 -30 -20 0 -24 -4 -22 -27 1 -18 -14
-53 -38 -93 -47 -76 -58 -101 -42 -97 6 1 13 -4 15 -10 3 -8 -4 -13 -16 -13
-13 0 -21 -6 -21 -17 0 -15 2 -16 10 -3 8 13 11 13 19 1 12 -18 32 -5 24 16
-5 13 -2 15 18 10 21 -5 22 -4 7 6 -9 7 -25 17 -35 23 -31 20 -5 29 32 11 43
-20 47 -14 5 8 -16 9 -30 19 -30 23 0 16 29 47 36 39 5 -4 2 -12 -6 -17 -11
-7 -3 -9 25 -9 22 1 31 4 20 6 -35 9 -45 34 -27 65 19 32 38 38 21 7 -14 -27
0 -42 32 -36 22 4 22 4 -3 6 -30 1 -35 10 -16 29 9 9 16 8 30 -5 10 -9 18 -13
18 -8 0 4 -12 16 -26 27 -39 31 -14 47 28 18 l33 -23 -27 29 c-22 23 -25 33
-16 42 15 15 25 15 31 0 2 -7 2 -3 0 10 -4 25 9 29 26 9 8 -10 7 -17 -1 -25
-13 -13 0 -16 19 -4 8 5 5 15 -11 34 l-22 28 -32 -30z m-47 -50 c-3 -5 -10
-10 -16 -10 -5 0 -9 5 -9 10 0 6 7 10 16 10 8 0 12 -4 9 -10z"/>
<path d="M1568 1548 c17 -17 15 -33 -3 -18 -20 17 -34 4 -32 -30 2 -26 3 -27
19 -13 9 8 22 12 29 7 9 -5 7 -11 -6 -21 -11 -7 -14 -13 -8 -13 6 0 16 7 23
15 10 12 10 18 0 30 -17 20 -1 19 24 -2 12 -10 5 -1 -13 20 -19 20 -37 37 -40
37 -3 0 0 -5 7 -12z m-6 -33 c0 -5 -5 -11 -11 -13 -6 -2 -11 4 -11 13 0 9 5
15 11 13 6 -2 11 -8 11 -13z"/>
<path d="M1605 1447 l-30 -30 32 22 31 21 21 -26 c21 -27 27 -44 15 -44 -4 0
-13 8 -20 17 -7 10 -16 15 -20 10 -4 -4 1 -13 11 -21 18 -13 18 -14 -4 -25
-13 -7 -20 -15 -17 -18 3 -3 17 4 32 16 19 15 31 18 38 11 7 -7 4 -14 -9 -24
-10 -7 -16 -20 -13 -28 4 -8 -2 -22 -13 -32 -25 -21 -27 -20 -32 7 l-4 22 -2
-23 c-1 -24 30 -44 37 -24 2 7 17 20 34 28 25 13 32 14 39 2 12 -18 11 -48 -1
-48 -5 0 -10 8 -10 17 0 14 -3 13 -16 -5 -9 -13 -13 -26 -10 -29 3 -4 6 -1 6
5 0 7 12 9 30 7 28 -3 30 -1 24 18 -10 35 -73 150 -97 178 l-22 27 -30 -31z
m110 -107 c3 -6 -1 -13 -10 -16 -19 -8 -30 0 -20 15 8 14 22 14 30 1z"/>
<path d="M194 1045 c-15 -23 -15 -27 0 -50 27 -40 96 -25 96 21 0 55 -66 75
-96 29z"/>
<path d="M1752 1058 c-7 -7 -12 -24 -12 -38 0 -33 17 -50 50 -50 33 0 50 17
50 50 0 14 -5 31 -12 38 -15 15 -61 15 -76 0z"/>
<path d="M255 850 l-30 -8 27 -1 c15 0 30 4 33 9 3 6 5 9 3 9 -2 -1 -16 -5
-33 -9z"/>
<path d="M1745 849 c-4 -6 -4 -13 -1 -16 3 -4 6 -1 6 7 0 10 3 10 14 0 11 -9
19 -9 33 0 16 10 15 10 -4 5 -14 -4 -23 -2 -23 4 0 14 -17 14 -25 0z"/>
<path d="M240 819 c-11 -8 -9 -9 10 -3 25 7 25 7 6 -15 -24 -27 -18 -33 20
-22 19 6 23 10 10 10 -16 1 -17 4 -8 13 7 7 12 16 12 20 0 11 -32 10 -50 -3z"/>
<path d="M1740 810 c8 -5 26 -9 40 -9 23 0 23 1 5 9 -11 5 -29 9 -40 9 -17 1
-17 -1 -5 -9z"/>
<path d="M1730 789 c0 -5 9 -9 19 -9 22 0 35 -15 26 -30 -4 -6 -15 -6 -30 0
-14 5 -25 6 -25 1 0 -5 11 -11 25 -13 31 -6 53 16 36 36 -14 17 -51 28 -51 15z"/>
<path d="M267 763 c-25 -7 -18 -47 9 -51 25 -4 47 20 38 42 -6 16 -14 18 -47
9z m38 -24 c0 -8 -10 -15 -22 -17 -25 -4 -33 22 -10 31 18 8 32 2 32 -14z"/>
<path d="M1700 711 c-8 -16 -5 -21 20 -30 18 -6 28 -6 25 -1 -4 6 -13 10 -21
10 -8 0 -14 7 -14 15 0 18 16 20 23 3 3 -8 6 -6 6 5 1 23 -26 22 -39 -2z"/>
<path d="M290 694 l-25 -15 25 7 c14 3 29 10 35 15 15 14 -7 10 -35 -7z"/>
<path d="M1704 665 c19 -14 19 -15 -7 -15 -34 0 -35 -13 0 -29 23 -11 25 -10
13 3 -11 14 -9 16 9 16 29 0 26 15 -6 29 -26 10 -27 10 -9 -4z"/>
<path d="M294 655 c8 -9 12 -23 9 -33 -5 -13 1 -11 20 7 36 33 34 41 -9 41
-32 0 -34 -2 -20 -15z m36 1 c0 -3 -4 -8 -10 -11 -5 -3 -10 -1 -10 4 0 6 5 11
10 11 6 0 10 -2 10 -4z"/>
<path d="M338 614 c-16 -8 -28 -17 -28 -20 0 -2 9 0 20 6 22 12 27 1 8 -18
-20 -20 -1 -25 29 -7 23 13 24 15 5 9 -22 -5 -23 -4 -12 16 15 28 11 31 -22
14z"/>
<path d="M1660 570 l21 -30 -25 0 c-13 0 -26 6 -29 13 -2 6 -2 2 0 -10 2 -17
-1 -21 -12 -17 -23 9 -18 -2 11 -21 25 -16 26 -16 20 3 -5 16 -2 21 16 24 16
2 23 10 24 27 1 13 8 27 15 32 9 6 2 9 -24 9 l-38 0 21 -30z m20 10 c0 -5 -2
-10 -4 -10 -3 0 -8 5 -11 10 -3 6 -1 10 4 10 6 0 11 -4 11 -10z"/>
<path d="M394 508 l-19 -21 28 18 c28 18 33 25 19 25 -5 0 -17 -10 -28 -22z"/>
<path d="M423 501 c-13 -11 -23 -22 -23 -26 0 -4 7 -1 17 6 15 13 16 11 9 -13
-8 -34 4 -36 30 -6 18 22 18 22 0 8 -18 -14 -18 -13 -12 18 9 37 8 37 -21 13z"/>
<path d="M474 436 c7 -28 -2 -34 -23 -13 -10 10 -11 9 -6 -5 4 -10 16 -18 27
-18 17 0 19 5 14 25 -6 24 7 35 17 15 3 -6 4 -5 3 2 -1 7 -11 15 -21 16 -15 3
-17 -1 -11 -22z"/>
<path d="M1549 435 c42 -19 46 -19 27 0 -8 8 -25 15 -38 15 -20 -1 -18 -3 11
-15z"/>
<path d="M525 420 c4 -6 -1 -21 -12 -33 -18 -22 -18 -22 2 -6 11 9 27 18 35
21 11 4 9 8 -9 17 -16 9 -21 9 -16 1z"/>
<path d="M1484 415 c-4 -8 -4 -22 0 -30 4 -12 2 -13 -14 -3 -16 10 -23 10 -36
-4 -13 -12 -14 -20 -5 -37 16 -30 49 -27 57 5 4 16 12 23 20 20 18 -7 45 21
38 39 -4 8 -11 12 -17 8 -8 -5 -7 -8 1 -11 10 -3 10 -7 1 -18 -9 -11 -15 -11
-25 -3 -19 16 -17 37 4 42 16 4 16 5 -1 6 -10 0 -20 -6 -23 -14z m-14 -50 c10
-12 10 -19 2 -27 -15 -15 -48 14 -38 31 10 15 21 14 36 -4z"/>
<path d="M546 365 c-9 -14 -13 -25 -9 -25 5 0 14 10 21 21 19 30 38 10 22 -22
l-11 -24 19 22 c11 12 21 21 24 20 2 -1 -5 6 -15 16 -25 23 -32 22 -51 -8z"/>
<path d="M619 326 c-23 -50 27 -64 51 -14 l11 23 -20 -22 c-10 -13 -24 -23
-30 -23 -15 0 -14 23 1 38 6 6 9 15 5 18 -3 4 -12 -5 -18 -20z"/>
<path d="M1385 312 c13 -28 18 -31 35 -22 24 13 26 22 4 13 -11 -4 -24 3 -36
18 l-19 24 16 -33z"/>
<path d="M692 307 c0 -7 -4 -23 -8 -37 -8 -28 -5 -26 19 12 13 20 13 27 3 31
-7 3 -13 0 -14 -6z"/>
<path d="M1321 306 c-6 -7 -9 -20 -5 -29 15 -41 73 -20 59 22 -7 24 -37 28
-54 7z m46 -12 c3 -8 0 -21 -6 -27 -10 -9 -16 -8 -26 7 -8 10 -12 23 -9 27 9
15 34 10 41 -7z"/>
<path d="M732 275 c-15 -34 -16 -33 11 -45 20 -10 20 -10 5 3 -25 20 -22 30 5
24 19 -5 20 -4 6 6 -9 7 -14 18 -12 25 8 22 -4 13 -15 -13z"/>
<path d="M1294 283 c2 -13 -1 -23 -7 -23 -8 0 -8 -3 0 -11 20 -20 30 -5 16 26
-10 21 -13 23 -9 8z"/>
<path d="M1255 259 c11 -37 24 -45 21 -13 -2 15 -9 30 -16 32 -8 3 -10 -2 -5
-19z"/>
<path d="M1227 257 c-4 -10 -2 -17 3 -17 6 0 10 -8 11 -17 0 -10 3 -13 5 -7 3
6 1 21 -4 34 -7 19 -10 21 -15 7z"/>
<path d="M837 254 c-10 -10 -9 -42 1 -48 5 -3 8 5 8 17 -1 13 6 23 17 25 20 4
24 -27 5 -47 -11 -10 -9 -11 5 -5 26 9 19 58 -8 62 -12 2 -24 0 -28 -4z"/>
<path d="M1137 253 c-4 -3 -7 -17 -7 -30 0 -26 25 -42 42 -25 7 7 4 10 -8 9
-26 -3 -32 40 -7 46 14 4 14 5 2 6 -9 0 -19 -2 -22 -6z"/>
<path d="M1191 250 c0 -8 4 -24 9 -35 l9 -20 0 20 c0 11 -4 27 -9 35 -9 13
-10 13 -9 0z"/>
<path d="M907 223 c-3 -16 -5 -28 -4 -29 1 0 13 5 27 13 19 9 20 13 8 13 -10
0 -18 4 -18 9 0 5 8 12 18 14 13 4 13 5 -4 6 -16 1 -23 -6 -27 -26z"/>
<path d="M1018 238 c5 -7 12 -24 15 -38 4 -21 4 -20 6 8 1 43 31 45 31 2 0
-22 5 -30 18 -30 10 0 13 3 7 8 -18 12 -15 50 3 55 9 3 -7 5 -37 6 -42 1 -51
-2 -43 -11z"/>
</g>
</svg>
