<?xml version="1.0" encoding="UTF-8"?>
<!-- Generator: visioncortex VTracer -->
<svg id="svg" version="1.1" xmlns="http://www.w3.org/2000/svg" style="display: block;" viewBox="0 0 1284 1504"><path d="M0,0 L42,0 L75,3 L106,8 L135,15 L155,21 L189,34 L222,50 L243,62 L258,72 L275,84 L291,97 L305,109 L313,116 L319,123 L324,128 L335,139 L344,150 L355,163 L367,180 L378,197 L390,218 L399,235 L411,263 L422,296 L430,328 L435,360 L437,381 L437,436 L435,457 L435,467 L441,485 L443,483 L451,458 L461,427 L462,426 L491,426 L483,449 L474,473 L463,503 L449,541 L442,557 L437,563 L427,568 L423,569 L404,570 L392,595 L381,615 L368,635 L358,649 L350,659 L342,669 L339,673 L331,695 L324,711 L316,728 L308,742 L294,764 L284,778 L273,792 L264,803 L262,803 L260,807 L239,828 L231,835 L219,845 L200,859 L180,872 L162,882 L146,890 L125,899 L106,906 L78,914 L47,920 L32,922 L19,923 L-36,923 L-56,921 L-82,917 L-110,910 L-143,899 L-172,886 L-189,877 L-207,866 L-220,857 L-236,845 L-247,836 L-260,824 L-268,817 L-275,809 L-283,801 L-288,795 L-288,793 L-290,793 L-303,776 L-315,759 L-327,739 L-339,717 L-345,703 L-355,692 L-366,678 L-378,662 L-388,646 L-399,627 L-414,596 L-422,575 L-431,544 L-437,516 L-440,494 L-441,482 L-441,426 L-439,406 L-434,376 L-429,355 L-418,322 L-409,301 L-400,282 L-386,258 L-378,246 L-367,231 L-356,217 L-346,206 L-342,201 L-340,201 L-338,197 L-331,189 L-321,174 L-312,162 L-303,151 L-292,138 L-278,123 L-269,114 L-261,107 L-257,105 L-257,103 L-246,94 L-232,83 L-215,71 L-191,56 L-179,49 L-160,40 L-145,33 L-119,23 L-100,17 L-73,10 L-59,7 L-33,3 Z M1,8 L-32,11 L-63,16 L-95,24 L-125,34 L-154,46 L-173,56 L-181,60 L-198,70 L-210,78 L-229,91 L-243,103 L-254,112 L-260,117 L-265,122 L-281,138 L-288,146 L-300,160 L-304,165 L-303,167 L-292,158 L-276,147 L-255,134 L-232,122 L-204,110 L-176,101 L-148,94 L-122,90 L-103,88 L-69,87 L-33,89 L-12,92 L21,99 L47,107 L73,117 L88,124 L114,138 L138,154 L154,166 L165,175 L178,187 L181,188 L182,191 L184,191 L184,193 L186,193 L187,196 L189,196 L190,199 L192,199 L194,203 L201,210 L210,221 L221,235 L230,248 L240,263 L246,274 L256,293 L266,315 L269,321 L276,329 L286,342 L297,358 L309,378 L315,388 L334,388 L334,432 L341,453 L346,471 L351,495 L353,505 L399,505 L399,531 L356,531 L356,576 L353,608 L348,637 L346,645 L346,649 L348,649 L360,632 L374,610 L384,592 L392,577 L404,548 L410,531 L417,508 L419,499 L403,455 L392,426 L421,426 L424,437 L427,445 L428,445 L429,434 L429,382 L426,353 L421,325 L413,294 L404,268 L395,247 L384,224 L375,208 L363,189 L353,175 L346,166 L335,152 L321,137 L314,129 L306,121 L298,114 L288,105 L274,94 L261,84 L235,67 L214,55 L191,44 L172,36 L155,30 L133,23 L105,16 L74,11 L41,8 Z M-88,104 L-122,107 L-150,112 L-179,120 L-207,130 L-233,142 L-253,153 L-270,164 L-288,177 L-299,186 L-310,196 L-318,203 L-328,213 L-328,215 L-331,216 L-340,227 L-349,237 L-357,255 L-364,272 L-372,297 L-378,320 L-383,345 L-386,367 L-388,399 L-388,417 L-386,449 L-382,478 L-375,509 L-373,516 L-371,512 L-366,482 L-360,458 L-349,425 L-338,400 L-330,383 L-322,351 L-315,331 L-306,311 L-298,295 L-284,272 L-272,256 L-263,245 L-252,233 L-235,216 L-221,205 L-208,195 L-186,181 L-163,169 L-144,161 L-120,153 L-95,147 L-70,143 L-57,142 L-15,142 L4,144 L28,148 L51,154 L72,161 L97,172 L114,181 L136,195 L150,206 L160,214 L173,226 L186,239 L195,250 L197,253 L199,253 L201,257 L205,262 L217,271 L226,278 L227,276 L216,258 L204,242 L194,229 L181,215 L180,213 L178,213 L177,210 L175,210 L173,206 L170,205 L170,203 L162,196 L149,184 L133,172 L119,162 L101,151 L87,143 L59,130 L31,120 L5,113 L-20,108 L-47,105 L-60,104 Z M-59,155 L-84,158 L-111,164 L-141,174 L-160,182 L-180,193 L-196,203 L-215,217 L-225,226 L-233,233 L-249,249 L-258,260 L-259,263 L-261,263 L-271,277 L-282,294 L-294,316 L-303,337 L-302,340 L-289,324 L-277,302 L-265,284 L-256,272 L-244,258 L-241,255 L-241,253 L-239,253 L-236,250 L-236,248 L-233,247 L-233,245 L-231,245 L-231,243 L-227,241 L-215,230 L-199,218 L-182,207 L-170,200 L-149,190 L-128,182 L-107,176 L-81,171 L-65,169 L-38,168 L-15,169 L8,172 L31,177 L48,182 L64,188 L88,199 L104,208 L114,214 L139,224 L158,233 L160,232 L149,222 L135,211 L122,202 L109,194 L95,186 L74,176 L46,166 L22,160 L-2,156 L-13,155 Z M-51,181 L-73,183 L-97,187 L-122,194 L-143,202 L-166,213 L-181,222 L-198,234 L-211,244 L-211,246 L-215,248 L-222,255 L-228,260 L-235,268 L-237,272 L-232,269 L-213,255 L-195,244 L-179,235 L-163,227 L-147,220 L-122,211 L-98,204 L-81,200 L-48,195 L-12,193 L16,194 L37,196 L45,196 L42,194 L17,187 L-13,182 L-29,181 Z M45,196 Z M-11,200 L-46,202 L-79,207 L-111,215 L-137,224 L-163,235 L-186,247 L-205,259 L-218,268 L-231,278 L-242,287 L-255,299 L-261,304 L-261,306 L-264,307 L-272,321 L-280,337 L-288,357 L-294,376 L-300,405 L-302,423 L-302,464 L-299,487 L-295,507 L-287,533 L-277,557 L-267,576 L-260,587 L-247,605 L-236,618 L-234,621 L-232,621 L-232,623 L-230,623 L-228,627 L-221,634 L-219,634 L-219,636 L-217,636 L-217,638 L-206,647 L-193,657 L-175,669 L-165,675 L-142,686 L-117,695 L-94,701 L-68,705 L-58,706 L-22,706 L2,703 L27,698 L57,688 L77,679 L97,668 L112,658 L125,648 L139,636 L155,620 L155,618 L157,618 L168,604 L179,589 L187,576 L193,566 L201,549 L209,528 L214,512 L219,490 L222,468 L223,441 L222,420 L219,397 L212,368 L205,348 L197,330 L186,309 L176,294 L167,282 L156,269 L147,259 L138,250 L127,241 L113,230 L98,220 L86,213 L61,207 L35,203 L15,201 Z M140,233 Z M160,233 Z M141,234 L144,238 L146,238 L146,240 L148,240 L148,242 L156,249 L163,256 L164,258 L166,258 L168,262 L178,274 L186,285 L196,300 L208,322 L217,343 L224,362 L230,386 L234,410 L235,421 L235,466 L232,491 L226,518 L217,545 L208,565 L198,584 L187,601 L175,617 L166,627 L159,635 L145,649 L134,658 L121,668 L106,678 L89,688 L65,699 L43,707 L20,713 L-4,717 L-24,719 L-56,719 L-84,716 L-112,710 L-142,700 L-160,692 L-183,680 L-202,667 L-216,656 L-230,644 L-243,631 L-250,623 L-264,605 L-277,585 L-286,569 L-295,549 L-304,524 L-310,500 L-314,474 L-315,462 L-315,425 L-312,398 L-307,374 L-302,358 L-303,355 L-310,365 L-314,372 L-319,396 L-321,411 L-322,426 L-322,455 L-320,478 L-315,505 L-308,530 L-302,546 L-294,565 L-282,587 L-268,608 L-257,622 L-247,634 L-245,634 L-243,638 L-232,649 L-230,649 L-229,652 L-218,661 L-203,673 L-188,683 L-171,693 L-148,704 L-121,714 L-97,720 L-76,724 L-54,726 L-19,726 L3,724 L30,719 L57,711 L76,704 L92,696 L113,685 L123,678 L137,668 L148,659 L158,650 L166,643 L180,628 L189,617 L200,602 L212,583 L225,558 L234,535 L239,519 L243,504 L247,483 L250,455 L250,426 L247,398 L242,372 L235,348 L227,327 L219,311 L210,294 L198,276 L186,260 L177,252 L153,239 L143,234 Z M-372,270 Z M-373,272 Z M-238,272 Z M-239,273 Z M-374,274 L-383,289 L-394,312 L-404,337 L-409,352 L-416,379 L-421,407 L-423,428 L-424,444 L-424,464 L-421,501 L-417,524 L-411,549 L-401,579 L-390,605 L-378,627 L-369,642 L-364,650 L-363,647 L-369,618 L-372,595 L-373,581 L-374,537 L-380,518 L-387,490 L-392,459 L-394,437 L-395,418 L-395,398 L-393,366 L-390,343 L-384,313 L-375,282 L-373,277 Z M227,278 Z M228,279 Z M220,284 Z M-304,340 L-303,342 Z M-305,342 Z M277,344 L281,360 L288,393 L291,415 L292,429 L292,478 L290,499 L286,526 L278,558 L270,582 L263,600 L256,615 L245,636 L230,660 L222,671 L212,684 L200,698 L191,708 L173,726 L162,735 L150,745 L136,755 L116,768 L98,778 L82,786 L57,797 L33,805 L26,807 L26,808 L48,808 L69,806 L97,802 L128,795 L157,786 L183,776 L203,767 L224,756 L247,742 L264,730 L281,717 L295,705 L307,694 L326,675 L332,668 L339,643 L344,619 L348,590 L349,574 L349,542 L348,531 L305,531 L305,386 L297,372 L283,351 L278,344 Z M-302,353 L-301,355 Z M-335,411 L-334,413 Z M221,285 L223,290 L235,313 L243,332 L252,359 L258,385 L261,405 L263,435 L263,446 L261,475 L257,501 L250,529 L244,546 L236,565 L228,581 L218,599 L210,611 L201,623 L193,633 L184,643 L184,645 L181,646 L174,654 L168,659 L168,661 L164,663 L153,673 L138,684 L123,694 L106,704 L81,716 L60,724 L35,731 L10,736 L-17,739 L-55,739 L-82,736 L-107,731 L-126,726 L-151,717 L-184,701 L-203,689 L-221,676 L-234,665 L-246,654 L-257,643 L-266,632 L-276,620 L-285,607 L-293,594 L-303,576 L-312,557 L-322,530 L-329,502 L-333,478 L-335,457 L-335,413 L-337,416 L-347,441 L-355,467 L-361,495 L-365,522 L-366,538 L-358,559 L-347,583 L-336,604 L-323,625 L-311,642 L-300,656 L-289,669 L-280,679 L-255,704 L-244,713 L-232,723 L-214,736 L-191,751 L-167,764 L-146,774 L-116,786 L-86,795 L-60,801 L-55,802 L-38,802 L-5,797 L27,789 L55,779 L74,771 L93,761 L112,750 L124,742 L143,728 L152,721 L152,719 L156,717 L168,706 L186,688 L191,682 L191,680 L193,680 L206,663 L219,645 L233,621 L243,602 L251,583 L260,558 L268,528 L273,498 L275,477 L276,452 L274,417 L270,391 L265,367 L258,343 L252,327 L242,304 L235,296 L222,285 Z M334,458 L334,505 L345,505 L341,481 L335,458 Z M423,514 L415,540 L414,544 L419,543 L423,538 L427,526 L427,520 L424,514 Z M-366,561 L-366,579 L-364,603 L-359,633 L-351,664 L-346,674 L-343,678 L-341,678 L-339,682 L-327,695 L-322,701 L-320,701 L-320,703 L-312,710 L-299,722 L-285,733 L-265,747 L-238,763 L-211,776 L-184,786 L-160,793 L-137,798 L-110,802 L-88,803 L-91,801 L-115,794 L-139,785 L-160,776 L-179,766 L-202,753 L-214,745 L-230,734 L-244,723 L-258,711 L-270,700 L-290,680 L-297,672 L-303,664 L-305,664 L-307,660 L-317,647 L-326,634 L-337,617 L-347,599 L-356,582 L-365,561 Z M345,650 Z M323,689 Z M322,690 L308,704 L300,711 L285,724 L273,733 L253,747 L235,758 L217,768 L201,776 L178,786 L150,796 L126,803 L98,809 L64,814 L49,815 L-9,815 L-29,818 L-50,820 L-98,820 L-128,817 L-155,812 L-185,804 L-205,797 L-226,788 L-249,777 L-268,766 L-284,755 L-294,748 L-296,748 L-296,746 L-309,736 L-324,723 L-326,722 L-324,727 L-314,745 L-304,760 L-293,775 L-282,789 L-269,803 L-268,805 L-266,805 L-264,809 L-258,815 L-256,815 L-255,818 L-247,825 L-237,834 L-224,844 L-204,858 L-189,867 L-173,876 L-148,888 L-127,896 L-101,904 L-80,909 L-48,914 L-19,916 L1,916 L39,913 L71,907 L98,900 L118,893 L148,880 L167,870 L185,859 L198,850 L214,838 L228,826 L236,819 L258,797 L263,791 L263,789 L265,789 L278,772 L291,754 L305,730 L315,711 L323,693 Z " transform="translate(441,4)" style="fill: #FE8C1C;"/><path d="M0,0 L42,0 L61,2 L85,6 L108,12 L129,19 L154,30 L171,39 L193,53 L207,64 L217,72 L230,84 L244,98 L253,109 L254,112 L256,112 L262,120 L274,129 L285,138 L288,139 L292,145 L308,160 L322,175 L327,180 L334,188 L344,201 L355,217 L367,237 L372,246 L391,247 L392,291 L399,312 L404,330 L409,354 L410,364 L456,364 L456,389 L362,389 L361,245 L353,231 L339,210 L335,205 L336,210 L333,207 L331,200 L328,194 L315,179 L306,169 L301,164 L299,165 L295,159 L283,148 L279,146 L288,162 L300,188 L310,218 L316,244 L319,264 L321,294 L321,305 L319,334 L315,360 L308,388 L302,405 L294,424 L286,440 L276,458 L268,470 L259,482 L251,492 L242,502 L235,510 L228,517 L220,524 L210,533 L195,544 L180,554 L163,564 L138,576 L117,584 L92,591 L67,596 L40,599 L2,599 L-25,596 L-50,591 L-69,586 L-94,577 L-127,561 L-146,549 L-164,536 L-177,525 L-189,514 L-201,502 L-210,491 L-220,479 L-229,466 L-237,453 L-247,435 L-256,416 L-266,389 L-273,361 L-277,337 L-279,316 L-279,275 L-289,300 L-297,326 L-303,354 L-307,381 L-308,396 L-310,396 L-314,386 L-316,375 L-310,341 L-304,317 L-293,284 L-282,259 L-274,242 L-266,210 L-259,190 L-250,170 L-242,154 L-228,131 L-216,115 L-207,104 L-196,92 L-178,74 L-164,63 L-151,53 L-129,39 L-106,27 L-87,19 L-63,11 L-38,5 L-13,1 Z M-2,14 L-27,17 L-54,23 L-84,33 L-103,41 L-123,52 L-139,62 L-158,76 L-168,85 L-176,92 L-192,108 L-201,119 L-202,122 L-204,122 L-214,136 L-225,153 L-237,175 L-246,196 L-245,199 L-232,183 L-220,161 L-208,143 L-199,131 L-187,117 L-184,114 L-184,112 L-182,112 L-179,109 L-179,107 L-176,106 L-176,104 L-174,104 L-174,102 L-170,100 L-158,89 L-142,77 L-125,66 L-113,59 L-92,49 L-71,41 L-50,35 L-24,30 L-8,28 L19,27 L42,28 L65,31 L88,36 L105,41 L121,47 L145,58 L161,67 L171,73 L196,83 L215,92 L217,91 L206,81 L192,70 L179,61 L166,53 L152,45 L131,35 L103,25 L79,19 L55,15 L44,14 Z M6,40 L-16,42 L-40,46 L-65,53 L-86,61 L-109,72 L-124,81 L-141,93 L-154,103 L-154,105 L-158,107 L-165,114 L-171,119 L-178,127 L-180,131 L-175,128 L-156,114 L-138,103 L-122,94 L-106,86 L-90,79 L-65,70 L-41,63 L-24,59 L9,54 L45,52 L73,53 L94,55 L102,55 L99,53 L74,46 L44,41 L28,40 Z M102,55 Z M46,59 L11,61 L-22,66 L-54,74 L-80,83 L-106,94 L-129,106 L-148,118 L-161,127 L-174,137 L-185,146 L-198,158 L-204,163 L-204,165 L-207,166 L-215,180 L-223,196 L-231,216 L-237,235 L-243,264 L-245,282 L-245,323 L-242,346 L-238,366 L-230,392 L-220,416 L-210,435 L-203,446 L-190,464 L-179,477 L-177,480 L-175,480 L-175,482 L-173,482 L-171,486 L-164,493 L-162,493 L-162,495 L-160,495 L-160,497 L-149,506 L-136,516 L-118,528 L-108,534 L-85,545 L-60,554 L-37,560 L-11,564 L-1,565 L35,565 L59,562 L84,557 L114,547 L134,538 L154,527 L169,517 L182,507 L196,495 L212,479 L212,477 L214,477 L225,463 L236,448 L244,435 L250,425 L258,408 L266,387 L271,371 L276,349 L279,327 L280,300 L279,279 L276,256 L269,227 L262,207 L254,189 L243,168 L233,153 L224,141 L213,128 L204,118 L195,109 L184,100 L170,89 L155,79 L143,72 L118,66 L92,62 L72,60 Z M197,92 Z M217,92 Z M198,93 L201,97 L203,97 L203,99 L205,99 L205,101 L213,108 L220,115 L221,117 L223,117 L225,121 L235,133 L243,144 L253,159 L265,181 L274,202 L281,221 L287,245 L291,269 L292,280 L292,325 L289,350 L283,377 L274,404 L265,424 L255,443 L244,460 L232,476 L223,486 L216,494 L202,508 L191,517 L178,527 L163,537 L146,547 L122,558 L100,566 L77,572 L53,576 L33,578 L1,578 L-27,575 L-55,569 L-85,559 L-103,551 L-126,539 L-145,526 L-159,515 L-173,503 L-186,490 L-193,482 L-207,464 L-220,444 L-229,428 L-238,408 L-247,383 L-253,359 L-257,333 L-258,321 L-258,284 L-255,257 L-250,233 L-245,217 L-246,214 L-253,224 L-257,231 L-262,255 L-264,270 L-265,285 L-265,314 L-263,337 L-258,364 L-251,389 L-245,405 L-237,424 L-225,446 L-211,467 L-200,481 L-190,493 L-188,493 L-186,497 L-175,508 L-173,508 L-172,511 L-161,520 L-146,532 L-131,542 L-114,552 L-91,563 L-64,573 L-40,579 L-19,583 L3,585 L38,585 L60,583 L87,578 L114,570 L133,563 L149,555 L170,544 L180,537 L194,527 L205,518 L215,509 L223,502 L237,487 L246,476 L257,461 L269,442 L282,417 L291,394 L296,378 L300,363 L304,342 L307,314 L307,285 L304,257 L299,231 L292,207 L284,186 L276,170 L267,153 L255,135 L243,119 L234,111 L210,98 L200,93 Z M-181,131 Z M-182,132 Z M277,143 Z M-247,199 L-246,201 Z M-248,201 Z M-245,212 L-244,214 Z M-278,270 L-277,272 Z M391,317 L391,364 L402,364 L398,340 L392,317 Z " transform="translate(384,145)" style="fill: #FD4AB8;"/><path d="M0,0 L212,0 L234,3 L255,9 L267,14 L279,20 L290,28 L300,37 L308,47 L314,60 L316,68 L316,85 L312,98 L306,108 L297,118 L288,126 L272,136 L256,144 L253,148 L252,157 L256,168 L266,184 L274,195 L287,214 L303,237 L316,255 L317,258 L220,258 L213,249 L202,233 L188,213 L177,197 L163,177 L155,164 L152,155 L152,146 L156,139 L162,135 L188,124 L203,116 L215,105 L223,96 L227,88 L229,78 L227,68 L221,58 L212,50 L196,42 L182,38 L164,36 L97,35 L97,258 L0,258 Z " transform="translate(489,1087)" style="fill: #174A7C;"/><path d="M0,0 L31,0 L52,2 L75,7 L92,12 L116,22 L137,33 L156,46 L169,57 L179,66 L190,77 L199,88 L208,100 L220,119 L232,144 L239,164 L244,183 L248,206 L249,219 L249,248 L247,269 L242,293 L235,315 L226,336 L217,353 L210,364 L202,375 L193,386 L184,396 L171,409 L157,420 L146,428 L128,439 L105,450 L89,456 L71,461 L52,465 L31,467 L0,467 L-21,465 L-45,460 L-69,452 L-87,444 L-101,437 L-118,426 L-130,417 L-144,405 L-160,389 L-171,375 L-182,360 L-192,343 L-202,321 L-211,294 L-216,270 L-218,252 L-218,215 L-215,191 L-210,169 L-200,141 L-192,125 L-185,112 L-172,93 L-163,82 L-152,70 L-141,59 L-130,50 L-118,41 L-99,29 L-83,21 L-58,11 L-36,5 L-21,2 Z M22,34 L-4,35 L-24,38 L-47,44 L-69,53 L-88,63 L-100,71 L-114,82 L-119,86 L-119,88 L-123,90 L-130,98 L-135,103 L-145,115 L-156,132 L-164,146 L-174,171 L-179,189 L-182,205 L-184,225 L-184,242 L-181,269 L-175,293 L-167,314 L-159,330 L-148,348 L-135,364 L-121,379 L-113,386 L-97,398 L-86,405 L-72,413 L-53,421 L-33,427 L-13,431 L-5,432 L36,432 L59,428 L78,423 L98,415 L117,405 L135,393 L143,387 L143,385 L147,383 L160,371 L167,363 L167,361 L169,361 L180,346 L188,333 L198,314 L204,298 L209,282 L213,262 L214,253 L214,214 L211,194 L206,174 L196,149 L186,130 L175,114 L169,106 L167,106 L165,102 L153,89 L145,82 L130,70 L110,58 L91,49 L75,43 L55,38 L35,35 Z " transform="translate(377,235)" style="fill: #FF9009;"/><path d="M0,0 L201,0 L201,33 L69,34 L60,36 L49,44 L43,54 L41,62 L42,70 L47,78 L58,86 L77,95 L127,114 L151,124 L166,132 L180,143 L188,152 L196,165 L200,177 L201,182 L201,205 L197,218 L191,229 L180,241 L172,248 L158,255 L145,258 L-57,258 L-57,225 L76,224 L86,221 L92,217 L99,209 L103,200 L103,189 L98,181 L91,175 L79,168 L52,157 L7,140 L-13,131 L-27,122 L-39,111 L-47,101 L-53,89 L-56,79 L-57,72 L-57,57 L-53,41 L-47,30 L-39,20 L-30,12 L-16,4 Z " transform="translate(1083,1087)" style="fill: #174A7C;"/><path d="M0,0 L97,0 L98,200 L104,212 L112,219 L120,223 L125,224 L258,225 L258,258 L56,258 L40,254 L28,247 L18,238 L10,229 L2,213 L0,205 Z " transform="translate(4,1087)" style="fill: #174A7C;"/><path d="M0,0 L15,0 L28,4 L33,7 L32,11 L19,33 L14,32 L5,31 L-3,34 L-9,41 L-10,44 L-10,55 L-5,63 L0,66 L4,67 L12,67 L20,63 L24,58 L27,48 L62,48 L93,49 L103,54 L110,63 L112,69 L112,81 L108,91 L105,95 L112,102 L116,110 L117,115 L117,124 L114,133 L110,139 L103,145 L96,148 L89,149 L54,149 L40,148 L39,88 L29,94 L28,160 L66,160 L66,188 L-2,188 L-2,97 L-11,95 L-13,117 L-17,128 L-21,134 L-28,142 L-38,148 L-47,151 L-52,152 L-62,152 L-74,149 L-82,145 L-92,136 L-98,127 L-102,114 L-102,53 L-73,53 L-72,111 L-68,118 L-60,122 L-54,122 L-46,117 L-43,113 L-42,108 L-41,40 L-37,27 L-30,17 L-22,9 L-8,2 Z M68,72 L68,85 L77,85 L82,82 L83,78 L80,73 L79,72 Z M68,111 L68,123 L80,123 L84,118 L82,113 L80,111 Z " transform="translate(382,372)" style="fill: #393939;"/><path d="M0,0 L97,0 L97,192 L0,192 Z " transform="translate(862,1153)" style="fill: #174A7C;"/><path d="M0,0 L97,0 L97,192 L0,192 Z " transform="translate(329,1087)" style="fill: #174A7C;"/><path d="M0,0 L9,2 L29,9 L41,14 L47,18 L50,22 L54,23 L54,25 L56,25 L56,27 L60,29 L72,41 L72,43 L74,43 L83,54 L95,70 L105,85 L117,107 L126,128 L133,147 L139,171 L143,195 L144,206 L144,251 L141,276 L135,303 L126,330 L117,350 L107,369 L96,386 L84,402 L75,412 L68,420 L53,435 L42,444 L29,454 L14,464 L-3,474 L-27,485 L-49,493 L-72,499 L-96,503 L-116,505 L-148,505 L-176,502 L-204,496 L-234,486 L-252,478 L-275,466 L-294,453 L-308,442 L-322,430 L-336,416 L-343,408 L-357,390 L-370,370 L-379,354 L-388,334 L-397,309 L-403,285 L-407,259 L-408,247 L-408,210 L-405,183 L-400,159 L-392,135 L-386,126 L-377,115 L-365,101 L-359,96 L-361,102 L-369,118 L-376,134 L-385,161 L-391,190 L-393,208 L-393,249 L-390,272 L-386,292 L-378,318 L-368,342 L-358,361 L-351,372 L-338,390 L-327,403 L-324,406 L-324,408 L-322,408 L-315,416 L-311,419 L-311,421 L-309,421 L-309,423 L-305,425 L-292,436 L-272,450 L-257,459 L-234,470 L-209,479 L-186,485 L-160,489 L-150,490 L-114,490 L-90,487 L-65,482 L-35,472 L-15,463 L5,452 L20,442 L33,432 L47,420 L62,405 L63,403 L65,403 L67,399 L79,384 L93,363 L100,351 L108,334 L116,313 L121,297 L126,275 L129,253 L130,226 L129,205 L126,182 L119,153 L112,133 L104,115 L93,94 L83,79 L74,67 L63,54 L54,44 L46,36 L35,27 L21,16 L6,6 L1,3 Z " transform="translate(533,219)" style="fill: #B83414;"/><path d="M0,0 L4,2 L15,9 L31,21 L39,28 L40,32 L44,36 L56,59 L64,78 L73,105 L79,131 L82,151 L84,181 L84,192 L82,221 L78,247 L71,275 L65,292 L57,311 L49,327 L39,345 L31,357 L22,369 L14,379 L5,389 L-2,397 L-9,404 L-17,411 L-27,420 L-42,431 L-57,441 L-74,451 L-99,463 L-120,471 L-145,478 L-170,483 L-197,486 L-235,486 L-262,483 L-287,478 L-306,473 L-331,464 L-364,448 L-383,436 L-401,423 L-414,412 L-426,401 L-438,389 L-447,378 L-457,366 L-466,353 L-474,340 L-484,322 L-493,303 L-503,276 L-510,248 L-514,224 L-516,203 L-516,170 L-514,155 L-510,145 L-499,124 L-495,119 L-495,126 L-499,149 L-501,172 L-501,201 L-499,224 L-494,251 L-487,276 L-481,292 L-473,311 L-461,333 L-447,354 L-436,368 L-427,379 L-422,384 L-412,394 L-404,401 L-391,412 L-373,425 L-354,436 L-339,444 L-320,452 L-297,460 L-272,466 L-256,469 L-234,471 L-199,471 L-177,469 L-150,464 L-123,456 L-104,449 L-88,441 L-67,430 L-57,423 L-43,413 L-32,404 L-22,395 L-14,388 L-1,374 L8,363 L19,348 L31,329 L44,304 L53,281 L58,265 L62,250 L66,229 L69,201 L69,172 L66,144 L61,118 L54,94 L46,73 L38,57 L29,40 L17,22 L5,6 Z " transform="translate(621,258)" style="fill: #658989;"/><path d="M0,0 L11,0 L32,2 L53,7 L69,13 L85,21 L98,29 L107,36 L117,44 L117,46 L119,46 L126,54 L137,67 L149,87 L157,105 L163,125 L166,143 L166,180 L163,198 L157,218 L149,236 L138,254 L128,267 L124,272 L116,279 L109,286 L95,296 L80,305 L59,314 L42,319 L24,322 L13,323 L-2,323 L-26,320 L-43,316 L-65,307 L-83,297 L-95,288 L-109,276 L-119,265 L-132,247 L-143,226 L-150,206 L-154,188 L-156,169 L-156,154 L-154,135 L-150,117 L-143,97 L-132,76 L-122,62 L-113,52 L-106,44 L-98,37 L-83,26 L-65,16 L-51,10 L-31,4 L-13,1 Z M1,14 L-20,16 L-43,22 L-60,29 L-77,39 L-90,49 L-109,68 L-121,85 L-129,101 L-135,116 L-139,131 L-142,151 L-142,172 L-139,192 L-135,207 L-130,220 L-122,236 L-114,248 L-106,258 L-99,266 L-91,273 L-88,274 L-88,276 L-71,288 L-55,296 L-40,302 L-25,306 L-13,308 L-2,309 L12,309 L31,307 L51,302 L70,294 L83,287 L96,278 L108,267 L113,262 L123,251 L134,234 L143,215 L148,200 L152,180 L153,157 L151,137 L146,116 L140,101 L131,84 L121,70 L110,58 L101,49 L85,37 L71,29 L51,21 L31,16 L10,14 Z " transform="translate(387,307)" style="fill: #434343;"/><path d="M0,0 L22,1 L45,5 L65,11 L84,19 L100,28 L114,38 L127,49 L133,54 L140,62 L151,75 L162,92 L170,108 L178,128 L183,147 L186,167 L187,187 L185,213 L181,232 L176,249 L169,266 L159,284 L149,298 L138,311 L133,317 L125,324 L113,334 L103,341 L88,350 L65,360 L45,366 L29,369 L4,371 L-17,370 L-37,367 L-56,362 L-72,356 L-88,348 L-100,341 L-111,333 L-122,324 L-130,317 L-137,309 L-148,296 L-158,281 L-167,264 L-175,243 L-180,225 L-183,206 L-184,183 L-183,165 L-179,142 L-172,119 L-164,101 L-156,87 L-146,73 L-137,62 L-130,54 L-122,47 L-114,40 L-100,30 L-83,20 L-59,10 L-42,5 L-19,1 Z M1,8 L-18,9 L-40,13 L-60,19 L-76,26 L-94,36 L-109,47 L-120,56 L-120,58 L-122,58 L-122,60 L-125,61 L-132,69 L-141,80 L-151,95 L-162,116 L-170,140 L-174,159 L-175,166 L-176,186 L-175,205 L-171,227 L-165,247 L-157,265 L-148,281 L-140,292 L-132,302 L-124,311 L-116,318 L-107,326 L-94,335 L-76,345 L-57,353 L-40,358 L-25,361 L3,363 L28,361 L50,356 L68,350 L87,341 L107,328 L120,317 L127,311 L134,303 L145,290 L156,272 L164,256 L169,244 L174,227 L177,211 L179,185 L177,160 L173,140 L166,119 L158,102 L147,84 L136,70 L128,62 L123,57 L116,50 L100,38 L81,27 L60,18 L43,13 L21,9 Z " transform="translate(391,283)" style="fill: #FE4F27;"/><path d="M0,0 L42,0 L61,2 L85,6 L108,12 L129,19 L154,30 L171,39 L193,53 L207,64 L217,72 L230,84 L244,98 L253,109 L254,112 L256,112 L261,120 L257,118 L235,104 L221,96 L216,91 L206,82 L192,71 L179,62 L166,54 L152,46 L131,36 L103,26 L79,20 L55,16 L44,15 L-2,15 L-27,18 L-54,24 L-84,34 L-103,42 L-123,53 L-139,63 L-158,77 L-168,86 L-176,93 L-191,108 L-200,119 L-202,122 L-204,122 L-206,126 L-219,145 L-228,160 L-237,177 L-244,193 L-247,198 L-251,209 L-261,224 L-272,243 L-273,243 L-272,233 L-264,204 L-258,188 L-250,170 L-242,154 L-228,131 L-216,115 L-207,104 L-196,92 L-178,74 L-164,63 L-151,53 L-129,39 L-106,27 L-87,19 L-63,11 L-38,5 L-13,1 Z " transform="translate(384,145)" style="fill: #668989;"/><path d="M0,0 L0,3 L-13,25 L-26,51 L-34,71 L-41,91 L-43,92 L-41,83 L-49,97 L-60,120 L-70,145 L-75,160 L-82,187 L-87,215 L-89,236 L-90,252 L-90,272 L-87,309 L-83,332 L-77,357 L-67,387 L-56,413 L-44,435 L-35,450 L-31,456 L-29,461 L-26,468 L-21,484 L-16,496 L-12,507 L-11,511 L-16,507 L-25,496 L-37,481 L-48,465 L-58,449 L-67,433 L-81,404 L-89,383 L-98,352 L-104,324 L-107,302 L-108,290 L-108,234 L-106,214 L-101,184 L-96,163 L-85,130 L-76,109 L-67,90 L-53,66 L-45,54 L-34,39 L-23,25 L-13,14 L-9,9 L-7,9 L-5,5 Z M-39,78 Z M-40,80 Z " transform="translate(108,196)" style="fill: #FFAA11;"/><path d="M0,0 L2,2 L8,20 L11,27 L11,48 L13,72 L18,102 L26,133 L28,138 L31,150 L36,161 L41,173 L48,187 L50,188 L52,195 L65,217 L73,229 L84,244 L95,258 L108,272 L108,274 L110,274 L117,282 L127,291 L139,302 L152,312 L172,326 L187,335 L203,344 L228,356 L249,364 L275,372 L296,377 L328,382 L357,384 L377,384 L415,381 L447,375 L474,368 L494,361 L524,348 L543,338 L561,327 L574,318 L590,306 L604,294 L612,287 L633,266 L639,258 L641,258 L643,254 L656,237 L667,221 L676,206 L686,188 L696,167 L701,154 L710,145 L713,141 L715,142 L707,164 L700,180 L692,197 L684,211 L670,233 L660,247 L649,261 L640,272 L638,272 L636,276 L615,297 L607,304 L595,314 L576,328 L556,341 L538,351 L522,359 L501,368 L482,375 L454,383 L423,389 L408,391 L395,392 L340,392 L320,390 L294,386 L266,379 L233,368 L204,355 L187,346 L169,335 L156,326 L140,314 L129,305 L116,293 L108,286 L101,278 L93,270 L88,264 L88,262 L86,262 L73,245 L61,228 L49,208 L37,186 L32,175 L29,165 L25,155 L18,136 L14,123 L12,119 L10,107 L5,80 L3,64 L2,50 L1,6 Z " transform="translate(65,535)" style="fill: #FE4EBB;"/><path d="M0,0 L18,0 L28,4 L37,12 L43,24 L44,28 L44,106 L17,106 L16,38 L13,31 L9,27 L0,25 L-8,27 L-13,32 L-15,37 L-16,106 L-43,106 L-43,1 L-17,1 L-16,8 L-11,4 Z " transform="translate(1095,429)" style="fill: #373737;"/><path d="M0,0 L21,0 L35,5 L45,14 L49,19 L53,28 L55,37 L55,70 L52,82 L46,92 L39,99 L30,104 L20,107 L2,107 L-6,105 L-18,99 L-26,91 L-31,81 L-33,74 L-34,66 L-34,41 L-32,29 L-28,19 L-19,9 L-14,5 Z M10,24 L2,26 L-4,32 L-7,45 L-7,62 L-4,74 L1,80 L4,82 L11,83 L19,81 L24,76 L27,69 L28,63 L28,41 L25,32 L20,27 L17,25 Z " transform="translate(973,429)" style="fill: #3B3B3B;"/><path d="M0,0 L29,0 L30,44 L37,65 L42,83 L47,107 L48,117 L94,117 L94,142 L0,142 Z M29,70 L29,117 L40,117 L36,93 L30,70 Z " transform="translate(746,392)" style="fill: #463740;"/><path d="M0,0 L29,0 L34,14 L34,21 L36,21 L40,34 L41,41 L43,41 L49,59 L51,57 L59,32 L69,1 L70,0 L99,0 L91,23 L82,47 L71,77 L57,115 L50,131 L45,137 L35,142 L31,143 L13,143 L13,119 L25,119 L25,117 L30,112 L34,100 L34,94 L29,78 L24,63 L22,62 L10,29 L0,2 Z " transform="translate(833,430)" style="fill: #3B3B3B;"/><path d="M0,0 L26,1 L49,4 L72,9 L89,14 L105,20 L129,31 L145,40 L152,45 L149,46 L138,42 L111,35 L99,33 L92,30 L80,27 L58,21 L28,16 L12,15 L-10,15 L-32,17 L-56,21 L-81,28 L-102,36 L-125,47 L-140,56 L-157,68 L-168,77 L-170,77 L-170,79 L-178,86 L-186,93 L-193,101 L-197,106 L-200,106 L-200,108 L-202,108 L-204,112 L-210,119 L-218,126 L-239,147 L-245,155 L-246,152 L-236,133 L-225,117 L-216,105 L-204,91 L-200,86 L-198,86 L-197,83 L-195,83 L-195,81 L-192,78 L-190,78 L-190,76 L-182,69 L-169,58 L-151,45 L-132,34 L-117,26 L-92,16 L-77,11 L-52,5 L-24,1 Z " transform="translate(400,171)" style="fill: #B83415;"/><path d="M0,0 L28,0 L28,143 L1,143 L1,31 L-10,40 L-21,50 L-26,54 L-28,54 L-28,25 L-21,18 L-10,9 Z " transform="translate(1246,392)" style="fill: #393939;"/><path d="M0,0 L77,0 L83,3 L88,9 L90,19 L87,28 L80,34 L77,35 L0,35 L-6,32 L-11,26 L-13,21 L-13,14 L-9,6 L-3,1 Z " transform="translate(339,1363)" style="fill: #999EB9;"/><path d="M0,0 L75,0 L83,4 L87,9 L89,19 L86,28 L79,34 L77,35 L-2,35 L-9,31 L-13,25 L-14,15 L-11,7 L-5,2 Z " transform="translate(340,1469)" style="fill: #EE3423;"/><path d="M0,0 L77,0 L85,5 L89,11 L90,19 L87,28 L80,34 L77,35 L-1,35 L-7,31 L-11,26 L-13,21 L-12,11 L-8,5 L-3,1 Z " transform="translate(339,1416)" style="fill: #717CA1;"/><path d="M0,0 L77,0 L83,3 L88,9 L90,19 L87,28 L80,34 L77,35 L0,35 L-6,32 L-11,26 L-13,20 L-12,11 L-8,5 L-3,1 Z " transform="translate(339,1310)" style="fill: #D1D0DE;"/><path d="M0,0 L77,0 L83,3 L88,9 L90,15 L89,24 L85,30 L80,34 L77,35 L0,35 L-6,32 L-11,26 L-13,16 L-10,7 L-3,1 Z " transform="translate(872,1087)" style="fill: #D1D0DE;"/><path d="M0,0 L77,0 L83,3 L88,9 L90,15 L89,24 L85,30 L80,34 L77,35 L0,35 L-6,32 L-11,26 L-13,16 L-10,7 L-3,1 Z " transform="translate(872,1034)" style="fill: #999EB9;"/><path d="M0,0 L79,0 L86,4 L90,10 L91,20 L88,28 L82,33 L77,35 L2,35 L-6,31 L-10,26 L-12,16 L-9,7 L-2,1 Z " transform="translate(871,928)" style="fill: #EE3423;"/><path d="M0,0 L78,0 L84,4 L88,9 L90,14 L89,24 L85,30 L80,34 L77,35 L0,35 L-8,30 L-12,24 L-13,16 L-10,7 L-3,1 Z " transform="translate(872,981)" style="fill: #707BA1;"/></svg>