<?xml version="1.0" encoding="UTF-8"?>
<!-- Generator: visioncortex VTracer -->
<svg id="svg" version="1.1" xmlns="http://www.w3.org/2000/svg" style="display: block;" viewBox="0 0 3138 3455"><path d="M0,0 L92,0 L126,2 L161,6 L196,11 L241,19 L268,26 L291,31 L303,35 L309,37 L330,43 L362,54 L379,60 L392,66 L407,71 L421,78 L447,89 L463,98 L475,103 L485,109 L497,116 L505,120 L516,127 L526,132 L532,136 L532,138 L538,140 L549,147 L566,158 L584,171 L590,175 L602,184 L611,191 L614,193 L614,195 L619,197 L627,203 L632,208 L641,215 L651,223 L656,228 L664,235 L671,242 L677,247 L680,250 L680,252 L684,253 L684,255 L688,257 L697,267 L704,273 L710,280 L715,285 L719,289 L719,291 L723,293 L732,303 L738,310 L738,312 L740,312 L740,314 L743,315 L751,325 L751,327 L753,327 L757,332 L757,334 L759,334 L765,342 L766,346 L768,346 L776,356 L784,367 L788,372 L795,382 L797,387 L799,387 L806,398 L812,407 L819,418 L827,430 L838,449 L846,461 L851,472 L858,484 L866,500 L874,516 L880,531 L886,542 L892,558 L900,576 L910,605 L914,616 L918,629 L923,647 L926,654 L935,691 L941,716 L947,749 L950,778 L952,784 L955,809 L957,834 L958,855 L958,931 L957,952 L954,987 L952,1002 L950,1010 L950,1017 L954,1026 L959,1042 L965,1060 L967,1063 L973,1048 L979,1027 L991,991 L997,970 L1002,958 L1008,937 L1010,931 L1012,930 L1072,930 L1074,931 L1072,940 L1065,960 L1058,977 L1053,993 L1047,1008 L1035,1041 L1030,1053 L1025,1069 L1020,1080 L1014,1098 L1007,1117 L1001,1133 L998,1142 L993,1155 L988,1168 L980,1190 L972,1210 L966,1220 L957,1230 L949,1236 L939,1241 L924,1244 L918,1245 L885,1246 L877,1262 L868,1283 L866,1283 L865,1287 L855,1308 L851,1313 L843,1329 L831,1349 L825,1359 L818,1370 L812,1379 L806,1388 L797,1401 L790,1410 L784,1419 L777,1428 L770,1437 L764,1444 L763,1447 L758,1452 L752,1460 L750,1460 L748,1464 L742,1472 L738,1483 L734,1496 L726,1516 L715,1543 L709,1555 L702,1571 L694,1586 L686,1602 L677,1618 L676,1621 L674,1621 L673,1625 L663,1642 L651,1660 L645,1670 L640,1676 L632,1688 L629,1692 L627,1692 L626,1696 L620,1704 L609,1718 L602,1727 L594,1736 L590,1742 L585,1747 L578,1755 L573,1760 L562,1772 L557,1777 L546,1789 L539,1795 L535,1800 L529,1804 L522,1812 L516,1817 L514,1817 L514,1819 L512,1819 L512,1821 L507,1825 L505,1825 L505,1827 L503,1827 L503,1829 L498,1832 L490,1840 L479,1848 L468,1857 L460,1862 L455,1867 L444,1874 L441,1875 L441,1877 L418,1892 L404,1901 L393,1908 L379,1916 L372,1920 L360,1927 L344,1935 L325,1944 L321,1946 L318,1946 L318,1948 L298,1956 L283,1963 L253,1974 L243,1978 L224,1984 L198,1992 L162,2001 L141,2006 L117,2010 L70,2016 L69,2017 L49,2019 L-86,2019 L-106,2017 L-107,2016 L-140,2012 L-178,2006 L-202,2000 L-223,1995 L-245,1989 L-269,1981 L-283,1977 L-297,1971 L-317,1964 L-333,1957 L-347,1951 L-354,1948 L-368,1941 L-384,1933 L-400,1925 L-411,1919 L-418,1914 L-432,1907 L-440,1901 L-452,1894 L-464,1886 L-475,1879 L-485,1871 L-492,1867 L-492,1865 L-496,1864 L-499,1861 L-505,1857 L-505,1855 L-510,1853 L-519,1846 L-519,1844 L-523,1842 L-531,1836 L-542,1826 L-549,1821 L-554,1816 L-555,1813 L-560,1811 L-568,1802 L-576,1795 L-586,1786 L-593,1778 L-605,1766 L-612,1758 L-619,1750 L-619,1748 L-623,1746 L-630,1738 L-638,1728 L-646,1718 L-653,1709 L-653,1707 L-655,1707 L-665,1693 L-673,1682 L-682,1669 L-687,1661 L-695,1649 L-703,1637 L-709,1626 L-716,1614 L-719,1608 L-719,1606 L-721,1606 L-729,1590 L-737,1574 L-745,1558 L-749,1548 L-756,1535 L-766,1524 L-773,1516 L-778,1509 L-783,1504 L-791,1494 L-791,1492 L-793,1492 L-802,1480 L-802,1478 L-804,1478 L-816,1461 L-822,1452 L-827,1446 L-827,1443 L-829,1443 L-839,1427 L-846,1416 L-849,1411 L-855,1402 L-862,1388 L-868,1379 L-879,1357 L-883,1350 L-893,1329 L-898,1317 L-908,1294 L-915,1276 L-919,1264 L-924,1252 L-932,1225 L-937,1209 L-946,1173 L-951,1152 L-955,1128 L-961,1081 L-962,1080 L-964,1060 L-964,924 L-962,905 L-961,903 L-954,850 L-949,824 L-943,799 L-935,768 L-932,760 L-926,741 L-922,727 L-917,715 L-914,705 L-909,693 L-900,672 L-894,658 L-886,642 L-878,625 L-876,625 L-875,619 L-864,599 L-858,590 L-852,578 L-843,564 L-834,550 L-832,546 L-830,546 L-828,541 L-824,535 L-819,528 L-817,528 L-815,522 L-802,505 L-792,492 L-786,485 L-782,479 L-777,474 L-775,471 L-773,471 L-771,467 L-764,459 L-755,449 L-750,444 L-748,441 L-746,441 L-744,437 L-739,432 L-731,424 L-730,422 L-728,422 L-726,417 L-721,409 L-719,409 L-718,405 L-711,394 L-705,386 L-697,374 L-695,374 L-693,370 L-689,363 L-687,363 L-685,358 L-675,346 L-668,337 L-666,337 L-664,332 L-660,328 L-657,323 L-648,314 L-642,306 L-637,301 L-625,288 L-619,281 L-617,281 L-617,279 L-615,279 L-615,277 L-610,273 L-609,271 L-607,271 L-607,269 L-602,264 L-596,258 L-594,258 L-594,256 L-592,256 L-590,252 L-588,252 L-588,250 L-580,243 L-574,238 L-569,233 L-567,233 L-565,229 L-555,221 L-550,217 L-545,212 L-535,204 L-529,199 L-525,196 L-523,196 L-523,194 L-512,186 L-501,178 L-499,178 L-499,176 L-497,176 L-497,174 L-484,166 L-472,157 L-458,148 L-444,139 L-433,132 L-412,120 L-396,111 L-383,104 L-371,98 L-355,90 L-345,85 L-330,79 L-314,71 L-295,64 L-287,60 L-269,54 L-247,46 L-220,38 L-211,35 L-194,30 L-162,23 L-148,19 L-92,9 L-78,8 L-77,7 L-33,2 Z M26,18 L-31,21 L-65,24 L-89,27 L-113,32 L-132,35 L-169,43 L-197,51 L-212,54 L-234,62 L-251,67 L-285,80 L-299,85 L-311,91 L-325,96 L-339,103 L-362,114 L-378,122 L-388,128 L-408,139 L-428,151 L-443,161 L-453,167 L-463,174 L-473,181 L-481,186 L-481,188 L-486,190 L-499,200 L-512,210 L-521,217 L-528,222 L-528,224 L-532,226 L-542,235 L-550,241 L-550,243 L-554,245 L-556,246 L-556,248 L-560,250 L-572,262 L-580,269 L-592,280 L-599,288 L-613,302 L-617,306 L-617,308 L-620,309 L-627,318 L-637,329 L-642,335 L-642,337 L-644,337 L-647,341 L-647,343 L-650,344 L-656,352 L-660,357 L-660,359 L-662,359 L-664,364 L-658,360 L-648,352 L-637,344 L-627,337 L-612,326 L-608,324 L-608,322 L-602,320 L-587,310 L-578,305 L-578,303 L-574,302 L-558,293 L-549,288 L-541,283 L-525,276 L-516,270 L-499,263 L-483,255 L-469,250 L-454,243 L-428,234 L-414,229 L-385,220 L-360,213 L-336,208 L-311,202 L-270,196 L-247,193 L-194,189 L-129,189 L-98,191 L-76,193 L-47,197 L-12,202 L-2,204 L5,206 L23,210 L45,215 L80,225 L103,233 L122,240 L136,245 L144,249 L155,253 L175,262 L190,269 L202,275 L208,279 L222,285 L232,291 L240,296 L251,302 L260,308 L271,314 L279,320 L289,326 L307,339 L316,345 L319,348 L328,354 L330,354 L332,358 L344,367 L351,372 L356,377 L361,381 L363,381 L363,383 L368,387 L373,392 L381,398 L382,400 L384,400 L384,402 L386,402 L388,406 L393,410 L398,415 L405,422 L410,427 L425,442 L431,449 L433,449 L435,453 L445,464 L454,475 L463,485 L470,495 L479,506 L486,516 L493,525 L494,527 L496,527 L498,532 L500,536 L502,536 L504,541 L510,550 L520,565 L529,581 L535,590 L540,600 L548,613 L557,632 L564,644 L570,659 L576,671 L587,698 L591,703 L593,703 L595,708 L602,716 L604,716 L606,721 L615,732 L622,741 L630,752 L641,768 L648,778 L657,792 L665,805 L671,815 L676,823 L682,835 L687,842 L690,848 L732,849 L733,946 L740,967 L745,980 L754,1014 L758,1027 L766,1063 L769,1081 L773,1103 L773,1104 L873,1104 L872,1161 L779,1161 L779,1171 L780,1182 L780,1259 L776,1315 L772,1345 L767,1371 L763,1392 L757,1419 L758,1422 L766,1412 L772,1403 L772,1401 L774,1401 L787,1382 L793,1374 L800,1362 L805,1356 L805,1353 L807,1353 L812,1344 L821,1329 L830,1313 L834,1307 L842,1291 L854,1268 L858,1258 L861,1253 L867,1239 L874,1224 L879,1211 L884,1198 L885,1190 L887,1190 L892,1177 L900,1151 L904,1140 L911,1114 L916,1094 L915,1087 L907,1066 L902,1050 L898,1042 L889,1015 L884,1003 L875,978 L869,962 L860,936 L859,932 L860,931 L920,931 L925,942 L932,965 L935,973 L936,973 L938,950 L939,930 L939,856 L938,836 L935,797 L932,771 L930,759 L927,748 L922,716 L910,668 L903,641 L896,623 L892,609 L881,580 L872,558 L865,542 L860,531 L855,521 L851,512 L841,493 L835,481 L830,472 L826,466 L820,455 L808,435 L796,417 L790,407 L782,396 L781,394 L779,394 L777,389 L775,386 L773,386 L771,381 L763,370 L757,363 L756,361 L754,361 L752,356 L744,346 L742,346 L740,342 L733,332 L729,328 L727,328 L725,323 L722,320 L720,320 L718,316 L712,309 L710,309 L708,305 L701,298 L694,290 L690,286 L688,286 L686,282 L676,272 L671,267 L660,257 L655,252 L645,243 L637,236 L634,233 L629,230 L622,223 L610,214 L597,204 L588,197 L579,190 L572,186 L568,182 L557,175 L546,167 L528,156 L523,152 L512,146 L494,135 L480,128 L473,123 L457,116 L434,104 L419,97 L404,91 L384,82 L367,76 L344,67 L317,59 L304,54 L279,48 L265,44 L264,43 L248,40 L220,34 L195,30 L181,27 L148,23 L108,20 L66,18 Z M-169,228 L-213,230 L-252,233 L-283,237 L-294,240 L-319,244 L-353,252 L-360,254 L-384,261 L-401,266 L-413,271 L-429,276 L-441,281 L-462,289 L-471,293 L-487,301 L-496,305 L-512,313 L-533,324 L-542,330 L-553,335 L-553,337 L-558,339 L-567,345 L-570,346 L-570,348 L-574,349 L-598,365 L-606,371 L-610,373 L-610,375 L-615,377 L-622,382 L-622,384 L-627,386 L-630,388 L-630,390 L-635,392 L-644,400 L-653,407 L-661,414 L-669,421 L-673,424 L-673,426 L-675,426 L-675,428 L-679,430 L-689,440 L-697,447 L-697,449 L-701,451 L-713,463 L-719,470 L-721,471 L-721,473 L-723,473 L-728,480 L-733,485 L-742,495 L-752,507 L-761,518 L-765,527 L-777,552 L-785,572 L-791,586 L-799,610 L-802,617 L-810,643 L-818,670 L-822,685 L-826,705 L-830,718 L-837,761 L-842,796 L-846,841 L-847,873 L-847,913 L-846,944 L-841,997 L-835,1036 L-830,1068 L-824,1089 L-820,1110 L-814,1130 L-813,1130 L-809,1097 L-805,1077 L-799,1046 L-793,1020 L-785,993 L-781,978 L-775,963 L-770,946 L-759,919 L-753,903 L-745,887 L-740,874 L-732,860 L-723,841 L-719,826 L-713,796 L-709,783 L-706,775 L-702,760 L-693,734 L-688,723 L-683,708 L-676,694 L-671,681 L-665,670 L-657,655 L-652,645 L-646,636 L-640,624 L-634,615 L-624,599 L-617,589 L-617,587 L-615,587 L-609,578 L-599,564 L-590,553 L-581,542 L-574,534 L-570,529 L-568,528 L-568,526 L-566,526 L-563,521 L-559,517 L-559,515 L-555,513 L-554,510 L-551,509 L-551,507 L-549,507 L-549,505 L-546,504 L-541,499 L-532,489 L-524,482 L-513,472 L-509,469 L-509,467 L-505,465 L-502,463 L-502,461 L-497,459 L-490,452 L-477,443 L-477,441 L-473,439 L-460,430 L-454,426 L-454,424 L-450,423 L-450,421 L-444,419 L-434,412 L-424,406 L-415,400 L-399,391 L-388,385 L-372,377 L-357,369 L-344,364 L-334,359 L-321,354 L-311,350 L-296,345 L-287,341 L-249,330 L-234,326 L-207,320 L-187,317 L-173,314 L-151,311 L-116,309 L-41,309 L-6,311 L23,315 L36,318 L56,321 L93,330 L123,339 L136,343 L143,346 L163,353 L191,365 L202,370 L213,376 L221,380 L228,383 L242,391 L263,403 L271,408 L286,418 L297,425 L307,433 L316,439 L323,445 L328,447 L328,449 L336,455 L347,464 L359,475 L366,480 L371,485 L400,514 L407,522 L416,532 L423,540 L431,550 L434,554 L436,554 L438,559 L440,562 L442,562 L444,567 L451,573 L464,582 L468,586 L470,586 L470,588 L480,595 L490,603 L498,610 L500,611 L498,606 L488,589 L481,578 L478,575 L472,564 L467,557 L465,557 L463,552 L451,535 L440,521 L431,510 L426,503 L424,503 L422,499 L410,485 L396,470 L384,457 L369,442 L361,435 L352,426 L344,419 L342,419 L342,417 L338,414 L336,414 L336,412 L328,405 L320,399 L318,399 L318,397 L305,387 L287,373 L277,367 L272,362 L260,355 L245,345 L235,339 L222,331 L211,325 L195,316 L182,310 L180,310 L180,308 L167,302 L158,298 L150,294 L138,289 L109,277 L98,273 L82,268 L72,264 L40,255 L36,253 L12,248 L-10,243 L-28,240 L-41,237 L-71,233 L-109,230 L-130,229 Z M-113,339 L-167,344 L-186,347 L-211,352 L-259,364 L-275,370 L-295,376 L-303,380 L-324,388 L-343,397 L-354,402 L-366,408 L-385,418 L-398,426 L-413,435 L-422,441 L-434,449 L-448,459 L-457,466 L-469,475 L-477,482 L-488,491 L-498,500 L-504,505 L-509,510 L-534,535 L-539,540 L-548,551 L-557,561 L-566,572 L-575,584 L-583,594 L-589,603 L-597,614 L-604,625 L-609,632 L-615,643 L-622,654 L-630,669 L-639,686 L-650,709 L-659,732 L-664,744 L-663,747 L-653,734 L-653,732 L-651,732 L-640,717 L-630,705 L-618,682 L-612,671 L-607,664 L-601,652 L-592,639 L-585,628 L-574,613 L-565,601 L-554,587 L-542,573 L-534,564 L-529,559 L-528,556 L-525,555 L-518,547 L-513,542 L-508,538 L-501,530 L-493,523 L-493,521 L-489,519 L-479,511 L-479,509 L-475,507 L-468,502 L-468,500 L-463,498 L-459,494 L-447,485 L-436,477 L-432,475 L-432,473 L-427,471 L-417,464 L-404,456 L-397,451 L-383,444 L-378,440 L-355,429 L-339,421 L-323,414 L-314,410 L-302,406 L-292,402 L-275,396 L-255,390 L-243,387 L-234,384 L-217,380 L-167,371 L-152,369 L-89,366 L-40,368 L-21,369 L11,374 L53,382 L69,386 L78,389 L96,394 L117,401 L138,409 L149,412 L149,414 L168,422 L177,426 L179,426 L179,428 L189,432 L206,441 L215,447 L229,454 L234,458 L247,466 L263,472 L276,477 L285,480 L304,489 L317,494 L334,503 L349,510 L351,509 L345,502 L336,496 L334,493 L332,493 L331,490 L327,489 L325,485 L316,478 L311,474 L309,474 L309,472 L304,469 L302,469 L302,467 L291,459 L289,459 L289,457 L277,449 L269,443 L256,435 L244,427 L236,423 L219,413 L209,408 L193,400 L172,390 L152,382 L136,375 L113,368 L99,363 L54,352 L29,347 L10,344 L-20,341 L-44,339 Z M-665,364 Z M-666,365 Z M-667,366 Z M-111,397 L-138,399 L-177,403 L-198,407 L-214,411 L-236,416 L-259,423 L-294,435 L-305,440 L-321,446 L-335,453 L-351,461 L-357,464 L-373,473 L-382,478 L-382,480 L-388,482 L-399,489 L-415,500 L-425,507 L-435,514 L-435,516 L-440,518 L-447,524 L-450,526 L-450,528 L-454,530 L-462,537 L-472,545 L-472,547 L-476,549 L-486,559 L-494,566 L-506,579 L-514,587 L-519,593 L-519,595 L-521,595 L-523,599 L-519,597 L-509,589 L-499,581 L-489,574 L-478,566 L-463,556 L-453,549 L-441,542 L-441,540 L-436,538 L-420,529 L-413,525 L-403,519 L-393,514 L-378,506 L-361,498 L-351,493 L-338,488 L-322,480 L-304,474 L-293,469 L-265,460 L-255,457 L-244,453 L-224,448 L-189,439 L-140,430 L-108,426 L-103,425 L-64,422 L-12,421 L27,422 L66,425 L94,429 L101,429 L98,427 L80,421 L52,413 L31,409 L15,405 L-4,402 L-44,398 L-62,397 Z M102,429 Z M-23,439 L-62,440 L-72,441 L-105,443 L-141,448 L-160,452 L-178,455 L-204,461 L-216,464 L-241,471 L-253,474 L-268,480 L-285,485 L-300,491 L-312,496 L-331,503 L-342,509 L-358,516 L-375,525 L-391,533 L-407,542 L-417,548 L-430,556 L-435,559 L-439,561 L-439,563 L-444,565 L-456,572 L-456,574 L-461,576 L-471,583 L-486,594 L-499,604 L-505,609 L-514,616 L-520,621 L-522,622 L-522,624 L-526,626 L-527,629 L-531,630 L-531,632 L-535,634 L-549,646 L-554,651 L-574,671 L-579,676 L-583,682 L-588,692 L-593,700 L-601,716 L-611,737 L-617,752 L-622,762 L-631,789 L-637,807 L-642,825 L-646,842 L-650,859 L-652,869 L-658,918 L-659,932 L-660,934 L-661,977 L-660,1007 L-659,1008 L-657,1031 L-652,1071 L-648,1091 L-643,1110 L-639,1126 L-631,1152 L-626,1166 L-618,1188 L-613,1198 L-607,1213 L-597,1232 L-589,1248 L-583,1258 L-578,1268 L-576,1268 L-575,1272 L-573,1272 L-571,1278 L-561,1293 L-554,1303 L-548,1312 L-546,1312 L-544,1316 L-535,1328 L-521,1345 L-513,1354 L-509,1359 L-504,1363 L-497,1371 L-479,1389 L-473,1394 L-468,1399 L-458,1408 L-448,1416 L-444,1419 L-442,1419 L-442,1421 L-437,1423 L-436,1426 L-425,1433 L-420,1438 L-412,1443 L-402,1450 L-399,1450 L-399,1452 L-382,1462 L-373,1468 L-359,1475 L-352,1479 L-337,1487 L-328,1491 L-310,1499 L-300,1503 L-289,1508 L-239,1524 L-222,1528 L-203,1532 L-199,1534 L-175,1538 L-148,1541 L-125,1543 L-101,1544 L-72,1544 L-47,1543 L-19,1540 L9,1537 L26,1534 L35,1531 L59,1526 L85,1518 L121,1506 L137,1499 L149,1494 L172,1483 L187,1475 L197,1469 L207,1464 L216,1458 L226,1452 L226,1450 L231,1449 L231,1447 L236,1445 L249,1436 L258,1429 L266,1423 L275,1416 L278,1414 L278,1412 L282,1410 L287,1406 L287,1404 L291,1402 L301,1394 L306,1388 L313,1383 L320,1375 L327,1368 L332,1363 L341,1353 L347,1346 L354,1338 L360,1331 L360,1329 L362,1329 L369,1319 L376,1310 L380,1304 L380,1302 L383,1301 L390,1290 L399,1276 L399,1274 L401,1274 L409,1259 L412,1256 L418,1244 L426,1229 L434,1213 L438,1203 L444,1191 L449,1176 L454,1165 L463,1137 L467,1121 L470,1113 L474,1096 L481,1055 L483,1046 L485,1029 L486,1008 L487,1000 L487,941 L486,932 L484,901 L482,888 L480,879 L473,840 L468,821 L464,809 L458,788 L451,769 L441,742 L436,734 L431,721 L422,705 L414,689 L410,682 L408,682 L407,678 L401,667 L394,657 L385,643 L376,631 L374,627 L372,627 L370,622 L368,622 L366,618 L364,614 L362,614 L360,610 L359,608 L357,608 L355,604 L343,590 L338,585 L330,575 L325,571 L323,568 L321,568 L321,566 L319,566 L317,562 L305,551 L296,542 L289,537 L284,532 L273,523 L268,520 L263,515 L252,507 L250,507 L250,505 L235,495 L225,488 L216,483 L205,476 L196,471 L186,466 L179,465 L178,463 L141,455 L131,453 L112,450 L92,446 L57,442 L35,441 L25,440 Z M307,511 L312,516 L322,524 L326,529 L334,536 L342,543 L349,551 L358,561 L360,561 L360,563 L365,568 L371,576 L376,581 L380,586 L382,586 L384,591 L391,600 L397,607 L402,615 L404,615 L406,619 L417,636 L424,646 L432,660 L437,668 L445,682 L453,697 L459,711 L467,727 L473,742 L479,756 L491,791 L496,808 L502,834 L506,848 L511,879 L514,902 L517,938 L518,963 L518,977 L516,1018 L511,1062 L505,1097 L497,1127 L493,1143 L481,1179 L474,1197 L469,1208 L465,1219 L457,1235 L449,1251 L439,1269 L433,1280 L431,1282 L431,1285 L429,1285 L423,1296 L416,1306 L409,1317 L406,1321 L406,1323 L404,1323 L398,1331 L394,1338 L389,1343 L381,1354 L373,1363 L364,1374 L354,1384 L347,1392 L333,1406 L326,1412 L321,1418 L312,1425 L303,1433 L301,1434 L301,1436 L297,1438 L291,1442 L291,1444 L287,1446 L276,1454 L266,1462 L255,1469 L244,1477 L230,1485 L230,1487 L225,1489 L214,1495 L198,1504 L181,1512 L175,1516 L153,1525 L143,1530 L113,1541 L89,1549 L73,1553 L66,1556 L47,1560 L-2,1569 L-28,1572 L-70,1574 L-103,1574 L-145,1572 L-171,1569 L-225,1559 L-244,1554 L-253,1551 L-272,1546 L-297,1537 L-316,1530 L-335,1521 L-350,1515 L-356,1511 L-377,1501 L-395,1490 L-404,1485 L-414,1478 L-423,1473 L-441,1460 L-448,1455 L-450,1455 L-450,1453 L-462,1444 L-466,1440 L-471,1437 L-479,1430 L-481,1430 L-483,1426 L-486,1425 L-486,1423 L-492,1419 L-502,1409 L-504,1409 L-505,1406 L-510,1401 L-520,1392 L-522,1389 L-524,1389 L-526,1385 L-531,1380 L-533,1380 L-535,1376 L-538,1371 L-545,1365 L-554,1353 L-556,1353 L-558,1349 L-568,1335 L-573,1330 L-581,1317 L-583,1317 L-585,1312 L-591,1303 L-601,1288 L-611,1270 L-613,1270 L-615,1264 L-623,1249 L-631,1233 L-638,1217 L-644,1205 L-649,1191 L-655,1177 L-665,1146 L-670,1129 L-675,1107 L-681,1079 L-684,1065 L-688,1026 L-690,1002 L-690,938 L-687,903 L-684,875 L-678,848 L-672,819 L-667,802 L-661,783 L-659,777 L-660,773 L-667,784 L-678,801 L-679,805 L-681,805 L-685,813 L-689,826 L-693,847 L-697,875 L-700,898 L-701,907 L-702,909 L-703,931 L-703,995 L-701,1020 L-696,1060 L-693,1079 L-689,1100 L-684,1116 L-681,1130 L-674,1154 L-667,1173 L-661,1191 L-657,1199 L-651,1215 L-643,1231 L-635,1247 L-628,1261 L-620,1275 L-616,1282 L-605,1300 L-593,1318 L-590,1323 L-588,1323 L-586,1327 L-578,1339 L-571,1347 L-563,1358 L-555,1367 L-553,1370 L-551,1370 L-549,1374 L-538,1386 L-527,1398 L-519,1407 L-511,1414 L-495,1429 L-487,1436 L-485,1436 L-484,1439 L-474,1447 L-470,1450 L-468,1450 L-467,1453 L-456,1461 L-447,1468 L-436,1475 L-427,1482 L-417,1488 L-404,1497 L-391,1504 L-383,1509 L-360,1521 L-344,1529 L-325,1538 L-306,1545 L-294,1550 L-253,1564 L-232,1569 L-210,1574 L-201,1577 L-166,1582 L-133,1586 L-108,1588 L-48,1588 L-6,1584 L24,1580 L48,1576 L66,1571 L92,1565 L135,1551 L147,1547 L155,1543 L175,1535 L189,1528 L198,1524 L219,1513 L234,1505 L243,1499 L252,1494 L267,1484 L277,1478 L277,1476 L281,1474 L294,1466 L294,1464 L298,1462 L308,1455 L308,1453 L312,1451 L319,1446 L324,1441 L334,1433 L334,1431 L338,1429 L346,1422 L348,1418 L352,1416 L360,1409 L368,1400 L375,1394 L378,1390 L378,1388 L382,1386 L387,1380 L390,1377 L397,1369 L397,1367 L401,1365 L410,1353 L412,1349 L414,1349 L418,1343 L418,1341 L420,1341 L432,1324 L440,1313 L444,1308 L449,1298 L456,1288 L466,1270 L470,1264 L470,1261 L472,1261 L479,1245 L484,1238 L491,1221 L502,1197 L508,1179 L512,1170 L521,1141 L525,1128 L532,1100 L537,1073 L540,1059 L544,1027 L546,995 L546,931 L544,899 L541,875 L538,857 L533,832 L527,805 L524,793 L521,786 L512,755 L507,745 L502,730 L495,714 L482,685 L477,676 L468,659 L458,642 L451,631 L440,613 L435,607 L431,600 L428,596 L426,596 L424,591 L414,578 L405,567 L398,559 L385,551 L371,542 L357,535 L349,530 L330,521 L319,515 L309,511 Z M-815,596 L-823,610 L-832,624 L-840,640 L-848,656 L-858,677 L-863,688 L-869,703 L-874,715 L-884,742 L-892,766 L-897,785 L-900,793 L-905,814 L-909,833 L-912,844 L-918,880 L-922,914 L-924,943 L-925,968 L-926,971 L-926,1015 L-925,1017 L-924,1042 L-923,1051 L-921,1081 L-917,1110 L-912,1140 L-910,1149 L-904,1173 L-901,1189 L-894,1210 L-890,1225 L-876,1265 L-870,1281 L-866,1289 L-860,1304 L-846,1333 L-841,1343 L-831,1362 L-822,1377 L-814,1391 L-804,1406 L-799,1414 L-795,1418 L-796,1409 L-802,1382 L-808,1348 L-810,1336 L-814,1306 L-816,1270 L-817,1236 L-817,1177 L-824,1160 L-830,1137 L-836,1118 L-844,1084 L-848,1062 L-851,1051 L-855,1026 L-858,999 L-860,985 L-863,954 L-865,914 L-865,871 L-863,831 L-861,815 L-859,795 L-856,772 L-854,751 L-850,731 L-846,714 L-841,689 L-836,668 L-829,645 L-823,623 L-818,611 L-814,598 Z M-524,599 Z M-525,600 Z M-526,601 Z M481,620 Z M-665,747 Z M-666,749 Z M607,752 L609,763 L615,783 L617,788 L624,821 L629,846 L633,866 L636,889 L640,938 L642,986 L642,999 L639,1063 L635,1105 L630,1135 L625,1161 L619,1186 L615,1203 L612,1211 L604,1241 L598,1255 L593,1272 L583,1297 L578,1309 L574,1319 L571,1324 L560,1348 L550,1367 L544,1379 L536,1393 L529,1404 L525,1412 L525,1414 L523,1414 L518,1423 L516,1428 L514,1428 L504,1445 L497,1453 L493,1460 L493,1462 L491,1462 L484,1472 L478,1480 L469,1491 L460,1503 L452,1512 L445,1520 L434,1533 L427,1540 L420,1548 L411,1557 L406,1562 L388,1580 L380,1587 L367,1599 L360,1604 L360,1606 L356,1608 L348,1615 L336,1624 L331,1628 L331,1630 L326,1632 L320,1636 L320,1638 L316,1640 L304,1648 L289,1659 L276,1667 L267,1673 L256,1680 L239,1690 L231,1694 L221,1700 L207,1707 L188,1717 L173,1724 L145,1736 L133,1741 L117,1747 L82,1759 L66,1763 L59,1766 L59,1767 L96,1767 L138,1764 L192,1757 L206,1754 L229,1750 L249,1746 L261,1743 L279,1738 L306,1731 L342,1719 L355,1715 L363,1711 L384,1704 L397,1698 L425,1686 L437,1680 L446,1676 L461,1668 L477,1660 L483,1657 L483,1655 L487,1654 L504,1645 L515,1638 L527,1631 L536,1625 L547,1618 L560,1609 L571,1601 L586,1591 L586,1589 L590,1587 L606,1575 L610,1572 L610,1570 L615,1568 L624,1561 L624,1559 L628,1557 L642,1545 L652,1536 L657,1531 L662,1527 L664,1526 L664,1524 L666,1524 L670,1519 L678,1512 L686,1504 L691,1499 L703,1486 L714,1475 L718,1470 L718,1468 L722,1466 L726,1461 L737,1424 L743,1399 L747,1381 L750,1368 L755,1338 L759,1304 L761,1283 L762,1282 L763,1267 L764,1233 L764,1208 L763,1175 L762,1162 L668,1161 L669,847 L665,840 L656,825 L650,814 L646,809 L640,799 L629,782 L619,768 L614,760 L612,760 L610,755 Z M-659,772 Z M483,622 L485,627 L497,648 L503,660 L511,675 L521,697 L526,708 L531,721 L536,732 L542,752 L548,767 L554,790 L558,805 L558,808 L560,808 L561,816 L566,841 L572,882 L574,892 L577,929 L577,997 L574,1034 L571,1049 L568,1071 L564,1097 L559,1118 L558,1119 L555,1133 L549,1155 L545,1167 L532,1204 L527,1214 L521,1230 L513,1246 L507,1259 L503,1267 L498,1276 L490,1291 L484,1300 L476,1314 L468,1325 L463,1334 L455,1344 L449,1353 L449,1355 L447,1355 L445,1359 L441,1363 L433,1374 L422,1387 L422,1389 L419,1390 L415,1395 L415,1397 L412,1398 L405,1407 L397,1414 L394,1419 L386,1426 L376,1436 L368,1443 L364,1448 L356,1454 L356,1456 L352,1458 L341,1468 L328,1478 L318,1485 L314,1489 L303,1496 L303,1498 L298,1500 L284,1510 L266,1521 L250,1531 L238,1537 L230,1542 L214,1550 L204,1555 L193,1560 L166,1572 L133,1584 L119,1589 L95,1595 L88,1598 L35,1609 L17,1612 L-7,1615 L-46,1618 L-111,1618 L-150,1615 L-186,1610 L-216,1604 L-244,1598 L-262,1592 L-281,1587 L-295,1582 L-325,1571 L-340,1564 L-360,1556 L-370,1550 L-387,1542 L-401,1534 L-415,1526 L-433,1515 L-436,1514 L-436,1512 L-448,1505 L-453,1503 L-453,1501 L-473,1487 L-475,1487 L-476,1484 L-491,1473 L-500,1465 L-508,1458 L-516,1452 L-521,1447 L-530,1438 L-538,1431 L-552,1417 L-559,1409 L-572,1395 L-581,1384 L-588,1376 L-591,1371 L-593,1371 L-595,1366 L-600,1360 L-602,1360 L-604,1355 L-615,1340 L-616,1338 L-618,1338 L-620,1333 L-625,1326 L-626,1323 L-628,1323 L-630,1318 L-638,1305 L-646,1291 L-652,1280 L-654,1280 L-656,1274 L-666,1253 L-672,1243 L-678,1227 L-685,1213 L-692,1193 L-697,1181 L-704,1160 L-708,1144 L-711,1137 L-715,1120 L-718,1105 L-724,1080 L-730,1035 L-733,998 L-733,928 L-731,899 L-733,903 L-741,922 L-751,946 L-757,964 L-761,974 L-771,1009 L-777,1029 L-788,1079 L-792,1104 L-797,1150 L-798,1174 L-800,1174 L-798,1179 L-790,1202 L-782,1221 L-772,1245 L-765,1259 L-760,1272 L-758,1272 L-757,1276 L-753,1285 L-751,1285 L-750,1290 L-737,1314 L-730,1327 L-724,1336 L-718,1347 L-710,1358 L-704,1368 L-695,1381 L-692,1386 L-689,1391 L-687,1391 L-685,1395 L-676,1409 L-674,1409 L-672,1413 L-660,1429 L-654,1435 L-651,1440 L-643,1450 L-641,1450 L-639,1454 L-630,1465 L-625,1470 L-618,1479 L-610,1486 L-603,1495 L-595,1502 L-593,1505 L-591,1505 L-590,1508 L-582,1515 L-575,1521 L-570,1526 L-565,1530 L-558,1538 L-551,1543 L-546,1548 L-540,1553 L-538,1553 L-537,1556 L-528,1563 L-520,1570 L-511,1577 L-509,1577 L-509,1579 L-506,1579 L-506,1581 L-500,1585 L-498,1585 L-497,1588 L-486,1596 L-476,1603 L-460,1614 L-452,1620 L-443,1625 L-439,1626 L-439,1628 L-426,1636 L-412,1644 L-404,1649 L-382,1661 L-366,1669 L-350,1678 L-332,1686 L-323,1690 L-297,1701 L-286,1706 L-268,1712 L-254,1718 L-237,1723 L-206,1733 L-181,1739 L-166,1744 L-130,1751 L-113,1754 L-96,1754 L-82,1753 L-53,1749 L-34,1747 L-15,1743 L6,1738 L27,1734 L71,1721 L90,1715 L102,1710 L119,1704 L132,1698 L148,1692 L164,1684 L184,1675 L194,1669 L208,1662 L218,1656 L228,1650 L236,1646 L244,1640 L256,1633 L261,1630 L261,1628 L266,1626 L273,1622 L273,1620 L278,1618 L286,1612 L299,1603 L307,1596 L319,1587 L319,1585 L324,1583 L334,1575 L338,1570 L344,1566 L352,1558 L363,1549 L369,1542 L377,1535 L388,1524 L395,1516 L406,1505 L413,1497 L422,1486 L422,1484 L426,1482 L436,1469 L436,1467 L438,1467 L447,1455 L457,1442 L458,1438 L460,1438 L467,1427 L473,1419 L480,1408 L487,1397 L501,1374 L508,1361 L513,1353 L521,1336 L531,1317 L536,1304 L544,1288 L550,1271 L554,1263 L568,1222 L574,1202 L578,1186 L582,1173 L589,1138 L594,1111 L599,1073 L602,1035 L603,988 L602,949 L599,912 L593,868 L589,848 L584,821 L580,804 L575,788 L571,772 L567,760 L553,719 L548,709 L542,692 L533,673 L527,661 L522,655 L515,650 L508,642 L499,635 L494,630 L488,625 L486,625 L485,622 Z M733,1006 L733,1104 L755,1104 L749,1067 L745,1052 L739,1024 L734,1006 Z M927,1124 L923,1138 L920,1146 L912,1174 L907,1187 L907,1190 L916,1188 L923,1180 L929,1164 L935,1148 L935,1141 L929,1125 Z M-801,1224 L-800,1258 L-798,1275 L-796,1300 L-791,1344 L-785,1376 L-779,1403 L-775,1420 L-770,1436 L-761,1467 L-753,1476 L-745,1486 L-737,1495 L-728,1506 L-718,1516 L-713,1521 L-703,1532 L-698,1537 L-690,1544 L-685,1549 L-675,1559 L-664,1568 L-652,1579 L-642,1587 L-640,1587 L-640,1589 L-634,1593 L-623,1602 L-620,1603 L-620,1605 L-606,1614 L-588,1627 L-583,1630 L-581,1630 L-581,1632 L-564,1642 L-555,1648 L-542,1655 L-527,1664 L-506,1675 L-492,1682 L-479,1688 L-456,1698 L-431,1708 L-414,1714 L-404,1718 L-373,1727 L-349,1734 L-316,1741 L-305,1744 L-282,1748 L-246,1752 L-226,1754 L-202,1755 L-201,1757 L-193,1756 L-196,1754 L-224,1746 L-244,1740 L-257,1735 L-283,1726 L-295,1721 L-316,1713 L-330,1706 L-345,1700 L-353,1696 L-356,1696 L-356,1694 L-382,1682 L-401,1671 L-410,1666 L-420,1660 L-430,1655 L-439,1649 L-448,1643 L-455,1639 L-465,1632 L-476,1625 L-480,1622 L-482,1622 L-482,1620 L-496,1611 L-505,1604 L-517,1595 L-530,1585 L-532,1585 L-532,1583 L-546,1572 L-552,1566 L-554,1566 L-555,1563 L-561,1559 L-565,1557 L-567,1553 L-575,1547 L-576,1545 L-578,1545 L-579,1542 L-587,1535 L-594,1529 L-599,1524 L-607,1516 L-611,1511 L-619,1504 L-626,1496 L-634,1488 L-638,1482 L-641,1481 L-643,1477 L-654,1465 L-662,1455 L-671,1444 L-678,1435 L-685,1426 L-693,1415 L-698,1408 L-700,1408 L-702,1403 L-709,1393 L-716,1382 L-724,1370 L-730,1361 L-736,1351 L-745,1336 L-752,1324 L-762,1305 L-773,1285 L-779,1271 L-781,1271 L-782,1266 L-789,1249 L-796,1235 L-800,1224 Z M-795,1418 L-794,1420 Z M708,1507 L702,1514 L694,1521 L686,1530 L678,1537 L666,1548 L654,1559 L640,1570 L639,1573 L635,1575 L625,1583 L616,1590 L614,1591 L614,1593 L609,1595 L601,1602 L585,1613 L585,1615 L580,1617 L569,1624 L569,1626 L565,1628 L555,1634 L541,1643 L525,1653 L515,1659 L504,1665 L494,1671 L474,1682 L453,1692 L443,1698 L427,1704 L408,1713 L383,1723 L368,1729 L350,1735 L337,1740 L322,1744 L304,1750 L277,1757 L264,1760 L249,1763 L241,1766 L219,1770 L198,1773 L163,1779 L132,1782 L87,1785 L6,1785 L-8,1784 L-22,1784 L-45,1788 L-86,1793 L-109,1795 L-138,1796 L-186,1796 L-213,1795 L-245,1792 L-278,1788 L-314,1782 L-334,1778 L-353,1773 L-379,1767 L-389,1764 L-396,1761 L-411,1757 L-440,1747 L-455,1741 L-464,1738 L-467,1738 L-467,1736 L-492,1726 L-506,1719 L-527,1709 L-539,1702 L-549,1698 L-557,1692 L-576,1682 L-587,1675 L-589,1675 L-589,1673 L-600,1667 L-609,1660 L-615,1657 L-627,1648 L-637,1641 L-642,1639 L-642,1637 L-653,1629 L-664,1620 L-675,1612 L-680,1607 L-687,1601 L-689,1601 L-689,1599 L-691,1599 L-692,1596 L-697,1592 L-705,1585 L-712,1579 L-709,1588 L-700,1604 L-694,1614 L-691,1620 L-684,1631 L-672,1650 L-662,1665 L-655,1674 L-648,1685 L-645,1689 L-643,1689 L-641,1694 L-639,1694 L-637,1699 L-631,1707 L-629,1707 L-627,1711 L-621,1720 L-616,1725 L-606,1736 L-599,1744 L-590,1754 L-583,1761 L-582,1763 L-580,1763 L-580,1765 L-574,1770 L-569,1776 L-567,1776 L-567,1778 L-559,1785 L-554,1790 L-544,1800 L-540,1803 L-538,1803 L-536,1807 L-528,1813 L-523,1818 L-513,1826 L-512,1828 L-509,1828 L-509,1830 L-498,1838 L-495,1839 L-495,1841 L-489,1846 L-482,1850 L-480,1850 L-480,1852 L-467,1861 L-455,1870 L-452,1870 L-452,1872 L-435,1882 L-425,1889 L-414,1895 L-404,1901 L-382,1913 L-366,1921 L-355,1927 L-325,1940 L-317,1944 L-297,1951 L-287,1956 L-267,1962 L-255,1967 L-236,1972 L-209,1979 L-190,1984 L-171,1988 L-141,1993 L-127,1996 L-84,2000 L-60,2002 L23,2002 L47,2000 L81,1997 L100,1994 L120,1990 L146,1986 L166,1981 L181,1977 L209,1969 L218,1967 L227,1963 L250,1956 L268,1948 L285,1942 L302,1934 L316,1928 L326,1923 L342,1915 L356,1907 L359,1906 L359,1904 L364,1903 L371,1899 L384,1891 L398,1883 L403,1879 L416,1871 L427,1863 L439,1855 L442,1853 L442,1851 L447,1849 L456,1843 L456,1841 L458,1841 L458,1839 L462,1837 L467,1834 L467,1832 L472,1830 L483,1820 L493,1812 L502,1804 L510,1797 L518,1789 L526,1782 L548,1760 L555,1752 L561,1746 L561,1744 L563,1744 L572,1733 L581,1722 L586,1717 L592,1709 L597,1703 L604,1694 L604,1692 L606,1692 L613,1682 L620,1672 L630,1658 L637,1647 L651,1625 L656,1617 L662,1606 L662,1604 L664,1604 L670,1592 L680,1573 L685,1564 L689,1554 L695,1542 L700,1530 L708,1510 Z M-191,1756 Z " transform="translate(964,1436)" style="fill: #FE8E20;"/><path d="M0,0 L75,0 L110,2 L139,6 L152,9 L172,12 L209,21 L239,30 L252,34 L259,37 L279,44 L307,56 L318,61 L329,67 L337,71 L344,74 L358,82 L379,94 L387,99 L402,109 L413,116 L423,124 L432,130 L436,133 L436,135 L441,137 L444,139 L444,141 L449,143 L458,151 L469,160 L480,170 L488,177 L517,206 L524,214 L533,224 L540,232 L548,242 L550,246 L552,246 L556,253 L560,257 L564,262 L581,274 L581,276 L586,278 L586,280 L591,282 L606,294 L614,301 L613,298 L603,281 L596,270 L593,267 L593,265 L599,266 L602,272 L602,276 L606,278 L610,285 L610,288 L613,289 L617,297 L617,300 L619,300 L621,304 L621,309 L623,309 L626,314 L641,328 L658,344 L673,359 L679,366 L687,373 L697,384 L694,372 L692,369 L692,366 L694,366 L704,390 L707,393 L707,395 L709,395 L715,403 L722,411 L730,422 L739,433 L747,444 L758,460 L765,470 L774,484 L782,497 L788,507 L793,515 L799,527 L804,534 L806,539 L848,540 L849,541 L850,638 L857,659 L862,672 L871,706 L875,719 L883,755 L886,773 L890,795 L989,796 L989,852 L784,852 L784,539 L780,532 L771,517 L765,506 L761,501 L755,491 L744,474 L734,460 L730,454 L730,452 L728,452 L724,445 L728,462 L733,478 L736,491 L739,504 L739,507 L737,507 L731,482 L729,476 L729,473 L727,473 L724,463 L723,454 L720,446 L717,437 L714,429 L705,418 L696,407 L686,396 L679,388 L670,378 L648,356 L645,353 L642,353 L638,348 L630,342 L624,335 L614,327 L614,325 L610,323 L602,317 L599,314 L613,338 L620,352 L628,367 L638,389 L643,400 L648,413 L653,424 L659,444 L665,459 L671,482 L675,497 L679,513 L683,533 L689,574 L691,584 L694,621 L694,689 L691,726 L688,741 L685,763 L681,789 L676,810 L675,811 L672,825 L666,847 L662,859 L649,896 L644,906 L638,922 L630,938 L624,951 L620,959 L615,968 L607,983 L601,992 L593,1006 L585,1017 L580,1026 L572,1036 L565,1047 L563,1047 L561,1052 L559,1052 L557,1057 L546,1071 L538,1081 L534,1085 L532,1085 L531,1089 L526,1094 L521,1100 L514,1106 L510,1112 L502,1119 L492,1129 L485,1135 L480,1141 L473,1146 L468,1151 L457,1161 L444,1171 L435,1177 L430,1182 L421,1188 L419,1188 L419,1190 L407,1198 L398,1204 L384,1213 L366,1224 L354,1230 L346,1235 L330,1243 L320,1248 L309,1253 L282,1265 L249,1277 L235,1282 L211,1288 L204,1291 L151,1302 L133,1305 L109,1308 L70,1311 L5,1311 L-34,1308 L-70,1303 L-100,1297 L-128,1291 L-146,1285 L-165,1280 L-179,1275 L-209,1264 L-224,1257 L-244,1249 L-254,1243 L-271,1235 L-285,1227 L-299,1219 L-317,1208 L-320,1206 L-320,1204 L-326,1202 L-335,1196 L-337,1195 L-337,1193 L-341,1191 L-359,1179 L-364,1174 L-375,1166 L-384,1158 L-392,1151 L-401,1144 L-401,1142 L-405,1140 L-414,1131 L-422,1124 L-437,1109 L-444,1101 L-457,1087 L-466,1076 L-473,1068 L-475,1063 L-477,1063 L-483,1055 L-484,1052 L-486,1052 L-492,1043 L-500,1032 L-500,1030 L-502,1030 L-509,1019 L-510,1015 L-512,1015 L-522,998 L-528,989 L-535,976 L-536,972 L-538,972 L-549,950 L-553,942 L-558,932 L-563,919 L-570,905 L-577,885 L-582,873 L-589,852 L-593,836 L-596,829 L-600,812 L-603,797 L-609,772 L-615,727 L-618,690 L-618,620 L-616,595 L-624,614 L-634,638 L-640,656 L-644,666 L-654,701 L-660,721 L-671,771 L-675,796 L-680,842 L-682,866 L-684,866 L-685,868 L-690,857 L-694,845 L-697,831 L-702,814 L-702,809 L-704,809 L-708,791 L-708,788 L-710,788 L-710,781 L-712,781 L-716,765 L-717,753 L-721,733 L-722,721 L-720,721 L-717,734 L-713,760 L-707,781 L-703,802 L-698,819 L-695,798 L-692,779 L-686,747 L-680,720 L-674,699 L-670,685 L-666,670 L-660,655 L-655,638 L-644,611 L-638,595 L-630,579 L-625,566 L-617,552 L-608,533 L-604,518 L-598,488 L-594,475 L-591,467 L-587,452 L-578,426 L-573,415 L-568,400 L-561,386 L-556,373 L-550,362 L-542,347 L-537,337 L-531,328 L-525,316 L-519,307 L-509,291 L-502,281 L-501,279 L-499,279 L-497,274 L-484,256 L-475,245 L-466,234 L-459,226 L-454,220 L-452,220 L-452,218 L-450,218 L-449,214 L-443,207 L-436,201 L-435,199 L-433,199 L-433,197 L-428,192 L-421,186 L-416,180 L-408,173 L-397,163 L-389,156 L-386,155 L-386,153 L-380,149 L-371,141 L-363,135 L-361,135 L-361,133 L-344,121 L-340,118 L-338,118 L-338,116 L-334,115 L-334,113 L-323,107 L-315,101 L-305,95 L-297,90 L-283,82 L-272,76 L-256,68 L-241,60 L-228,55 L-218,50 L-205,45 L-195,41 L-180,36 L-171,32 L-133,21 L-118,17 L-91,11 L-71,8 L-57,5 L-35,2 Z M3,31 L-51,36 L-70,39 L-95,44 L-143,56 L-159,62 L-179,68 L-187,72 L-208,80 L-227,89 L-238,94 L-250,100 L-269,110 L-282,118 L-297,127 L-306,133 L-318,141 L-332,151 L-341,158 L-353,167 L-361,174 L-372,183 L-382,192 L-388,197 L-393,202 L-418,227 L-423,232 L-432,243 L-441,253 L-450,264 L-459,276 L-467,286 L-473,295 L-481,306 L-488,317 L-493,324 L-499,335 L-506,346 L-514,361 L-523,378 L-534,401 L-543,424 L-548,436 L-547,439 L-537,426 L-537,424 L-535,424 L-524,409 L-514,397 L-502,374 L-496,363 L-491,356 L-485,344 L-476,331 L-469,320 L-458,305 L-449,293 L-438,279 L-426,265 L-418,256 L-413,251 L-412,248 L-409,247 L-402,239 L-397,234 L-392,230 L-385,222 L-377,215 L-377,213 L-373,211 L-363,203 L-363,201 L-359,199 L-352,194 L-352,192 L-347,190 L-343,186 L-331,177 L-320,169 L-316,167 L-316,165 L-311,163 L-301,156 L-288,148 L-281,143 L-267,136 L-262,132 L-239,121 L-223,113 L-207,106 L-198,102 L-186,98 L-176,94 L-159,88 L-139,82 L-127,79 L-118,76 L-101,72 L-51,63 L-36,61 L27,58 L76,60 L95,61 L127,66 L169,74 L185,78 L194,81 L212,86 L233,93 L254,101 L265,104 L265,106 L284,114 L293,118 L295,118 L295,120 L305,124 L322,133 L331,139 L345,146 L350,150 L363,158 L379,164 L392,169 L401,172 L420,181 L433,186 L450,195 L465,202 L467,201 L461,194 L452,188 L450,185 L448,185 L447,182 L443,181 L441,177 L432,170 L427,166 L425,166 L425,164 L420,161 L418,161 L418,159 L407,151 L405,151 L405,149 L393,141 L385,135 L372,127 L360,119 L352,115 L335,105 L325,100 L309,92 L288,82 L268,74 L252,67 L229,60 L215,55 L170,44 L145,39 L126,36 L96,33 L72,31 Z M5,89 L-22,91 L-61,95 L-82,99 L-98,103 L-120,108 L-143,115 L-178,127 L-189,132 L-205,138 L-219,145 L-235,153 L-241,156 L-257,165 L-266,170 L-266,172 L-272,174 L-283,181 L-299,192 L-309,199 L-319,206 L-319,208 L-324,210 L-331,216 L-334,218 L-334,220 L-338,222 L-346,229 L-356,237 L-356,239 L-360,241 L-370,251 L-378,258 L-390,271 L-398,279 L-403,285 L-403,287 L-405,287 L-407,291 L-403,289 L-393,281 L-383,273 L-373,266 L-362,258 L-347,248 L-337,241 L-325,234 L-325,232 L-320,230 L-304,221 L-297,217 L-287,211 L-277,206 L-262,198 L-245,190 L-235,185 L-222,180 L-206,172 L-188,166 L-177,161 L-149,152 L-139,149 L-128,145 L-108,140 L-73,131 L-24,122 L8,118 L13,117 L52,114 L104,113 L143,114 L182,117 L210,121 L217,121 L214,119 L196,113 L168,105 L147,101 L131,97 L112,94 L72,90 L54,89 Z M218,121 Z M93,131 L54,132 L44,133 L11,135 L-25,140 L-44,144 L-62,147 L-88,153 L-100,156 L-125,163 L-137,166 L-152,172 L-169,177 L-184,183 L-196,188 L-215,195 L-226,201 L-242,208 L-259,217 L-275,225 L-291,234 L-301,240 L-314,248 L-319,251 L-323,253 L-323,255 L-328,257 L-340,264 L-340,266 L-345,268 L-355,275 L-370,286 L-383,296 L-389,301 L-398,308 L-404,313 L-406,314 L-406,316 L-410,318 L-411,321 L-415,322 L-415,324 L-419,326 L-433,338 L-438,343 L-458,363 L-463,368 L-467,374 L-472,384 L-477,392 L-485,408 L-495,429 L-501,444 L-506,454 L-515,481 L-521,499 L-526,517 L-530,534 L-534,551 L-536,561 L-542,610 L-543,624 L-544,626 L-545,669 L-544,699 L-543,700 L-541,723 L-536,763 L-532,783 L-527,802 L-523,818 L-515,844 L-510,858 L-502,880 L-497,890 L-491,905 L-481,924 L-473,940 L-467,950 L-462,960 L-460,960 L-459,964 L-457,964 L-455,970 L-445,985 L-438,995 L-432,1004 L-430,1004 L-428,1008 L-419,1020 L-405,1037 L-397,1046 L-393,1051 L-388,1055 L-381,1063 L-363,1081 L-357,1086 L-352,1091 L-342,1100 L-332,1108 L-328,1111 L-326,1111 L-326,1113 L-321,1115 L-320,1118 L-309,1125 L-304,1130 L-296,1135 L-286,1142 L-283,1142 L-283,1144 L-266,1154 L-257,1160 L-243,1167 L-236,1171 L-221,1179 L-212,1183 L-194,1191 L-184,1195 L-173,1200 L-123,1216 L-106,1220 L-87,1224 L-83,1226 L-59,1230 L-32,1233 L-9,1235 L15,1236 L44,1236 L69,1235 L97,1232 L125,1229 L142,1226 L151,1223 L175,1218 L201,1210 L237,1198 L253,1191 L265,1186 L288,1175 L303,1167 L313,1161 L323,1156 L332,1150 L342,1144 L342,1142 L347,1141 L347,1139 L352,1137 L365,1128 L374,1121 L382,1115 L391,1108 L394,1106 L394,1104 L398,1102 L403,1098 L403,1096 L407,1094 L417,1086 L422,1080 L429,1075 L436,1067 L443,1060 L448,1055 L457,1045 L463,1038 L470,1030 L476,1023 L476,1021 L478,1021 L485,1011 L492,1002 L496,996 L496,994 L499,993 L506,982 L515,968 L515,966 L517,966 L525,951 L528,948 L534,936 L542,921 L550,905 L554,895 L560,883 L565,868 L570,857 L579,829 L583,813 L586,805 L590,788 L597,747 L599,738 L601,721 L602,700 L603,692 L603,633 L602,624 L600,593 L598,580 L596,571 L589,532 L584,513 L580,501 L574,480 L567,461 L557,434 L552,426 L547,413 L538,397 L530,381 L526,374 L524,374 L523,370 L517,359 L510,349 L501,335 L492,323 L490,319 L488,319 L486,314 L484,314 L482,310 L480,306 L478,306 L476,302 L475,300 L473,300 L471,296 L459,282 L454,277 L446,267 L441,263 L439,260 L437,260 L437,258 L435,258 L433,254 L421,243 L412,234 L405,229 L400,224 L389,215 L384,212 L379,207 L368,199 L366,199 L366,197 L351,187 L341,180 L332,175 L321,168 L312,163 L302,158 L295,157 L294,155 L257,147 L247,145 L228,142 L208,138 L173,134 L151,133 L141,132 Z M423,203 L428,208 L438,216 L442,221 L450,228 L458,235 L465,243 L474,253 L476,253 L476,255 L481,260 L487,268 L492,273 L496,278 L498,278 L500,283 L507,292 L513,299 L518,307 L520,307 L522,311 L533,328 L540,338 L548,352 L553,360 L561,374 L569,389 L575,403 L583,419 L589,434 L595,448 L607,483 L612,500 L618,526 L622,540 L627,571 L630,594 L633,630 L634,655 L634,669 L632,710 L627,754 L621,789 L613,819 L609,835 L597,871 L590,889 L585,900 L581,911 L573,927 L565,943 L555,961 L549,972 L547,974 L547,977 L545,977 L539,988 L532,998 L525,1009 L522,1013 L522,1015 L520,1015 L514,1023 L510,1030 L505,1035 L497,1046 L489,1055 L480,1066 L470,1076 L463,1084 L449,1098 L442,1104 L437,1110 L428,1117 L419,1125 L417,1126 L417,1128 L413,1130 L407,1134 L407,1136 L403,1138 L392,1146 L382,1154 L371,1161 L360,1169 L346,1177 L346,1179 L341,1181 L330,1187 L314,1196 L297,1204 L291,1208 L269,1217 L259,1222 L229,1233 L205,1241 L189,1245 L182,1248 L163,1252 L114,1261 L88,1264 L46,1266 L13,1266 L-29,1264 L-55,1261 L-109,1251 L-128,1246 L-137,1243 L-156,1238 L-181,1229 L-200,1222 L-219,1213 L-234,1207 L-240,1203 L-261,1193 L-279,1182 L-288,1177 L-298,1170 L-307,1165 L-325,1152 L-332,1147 L-334,1147 L-334,1145 L-346,1136 L-350,1132 L-355,1129 L-363,1122 L-365,1122 L-367,1118 L-370,1117 L-370,1115 L-376,1111 L-386,1101 L-388,1101 L-389,1098 L-394,1093 L-404,1084 L-406,1081 L-408,1081 L-410,1077 L-415,1072 L-417,1072 L-419,1068 L-422,1063 L-429,1057 L-438,1045 L-440,1045 L-442,1041 L-452,1027 L-457,1022 L-465,1009 L-467,1009 L-469,1004 L-475,995 L-485,980 L-495,962 L-497,962 L-499,956 L-507,941 L-515,925 L-522,909 L-528,897 L-533,883 L-539,869 L-549,838 L-554,821 L-559,799 L-565,771 L-568,757 L-572,718 L-574,694 L-574,630 L-571,595 L-568,567 L-562,540 L-556,511 L-551,494 L-545,475 L-543,469 L-544,465 L-551,476 L-562,493 L-563,497 L-565,497 L-569,505 L-573,518 L-577,539 L-581,567 L-584,590 L-585,599 L-586,601 L-587,623 L-587,687 L-585,712 L-580,752 L-577,771 L-573,792 L-568,808 L-565,822 L-558,846 L-551,865 L-545,883 L-541,891 L-535,907 L-527,923 L-519,939 L-512,953 L-504,967 L-500,974 L-489,992 L-477,1010 L-474,1015 L-472,1015 L-470,1019 L-462,1031 L-455,1039 L-447,1050 L-439,1059 L-437,1062 L-435,1062 L-433,1066 L-422,1078 L-411,1090 L-403,1099 L-395,1106 L-379,1121 L-371,1128 L-369,1128 L-368,1131 L-358,1139 L-354,1142 L-352,1142 L-351,1145 L-340,1153 L-331,1160 L-320,1167 L-311,1174 L-301,1180 L-288,1189 L-275,1196 L-267,1201 L-244,1213 L-228,1221 L-209,1230 L-190,1237 L-178,1242 L-137,1256 L-116,1261 L-94,1266 L-85,1269 L-50,1274 L-17,1278 L8,1280 L68,1280 L110,1276 L140,1272 L164,1268 L182,1263 L208,1257 L251,1243 L263,1239 L271,1235 L291,1227 L305,1220 L314,1216 L335,1205 L350,1197 L359,1191 L368,1186 L383,1176 L393,1170 L393,1168 L397,1166 L410,1158 L410,1156 L414,1154 L424,1147 L424,1145 L428,1143 L435,1138 L440,1133 L450,1125 L450,1123 L454,1121 L462,1114 L464,1110 L468,1108 L476,1101 L484,1092 L491,1086 L494,1082 L494,1080 L498,1078 L503,1072 L506,1069 L513,1061 L513,1059 L517,1057 L526,1045 L528,1041 L530,1041 L534,1035 L534,1033 L536,1033 L548,1016 L556,1005 L560,1000 L565,990 L572,980 L582,962 L586,956 L586,953 L588,953 L595,937 L600,930 L607,913 L618,889 L624,871 L628,862 L637,833 L641,820 L648,792 L653,765 L656,751 L660,719 L662,687 L662,623 L660,591 L657,567 L654,549 L649,524 L643,497 L640,485 L637,478 L628,447 L623,437 L618,422 L611,406 L598,377 L593,368 L584,351 L574,334 L567,323 L556,305 L551,299 L547,292 L544,288 L542,288 L540,283 L530,270 L521,259 L514,251 L501,243 L487,234 L473,227 L465,222 L446,213 L435,207 L425,203 Z M-408,291 Z M-409,292 Z M-410,293 Z M597,312 Z M-549,439 Z M-550,441 Z M-543,464 Z M849,698 L849,796 L871,796 L865,759 L861,744 L855,716 L850,698 Z " transform="translate(848,1744)" style="fill: #987899;"/><path d="M0,0 L65,0 L100,3 L114,5 L152,13 L170,17 L183,22 L197,26 L212,31 L234,40 L246,45 L262,53 L281,63 L295,71 L304,77 L315,84 L322,88 L331,95 L342,103 L345,105 L345,107 L350,109 L360,117 L360,119 L362,119 L362,121 L366,123 L374,129 L374,131 L378,133 L388,143 L396,150 L408,163 L413,168 L413,170 L415,170 L421,177 L421,179 L423,179 L432,191 L438,198 L444,206 L444,208 L446,208 L453,219 L453,221 L455,221 L459,228 L466,238 L471,247 L471,249 L473,249 L478,258 L478,261 L480,261 L488,278 L494,288 L499,301 L505,312 L511,329 L518,347 L525,370 L529,387 L534,405 L540,447 L542,463 L543,478 L544,480 L544,542 L543,544 L541,567 L538,590 L535,612 L530,633 L527,642 L523,659 L512,691 L504,712 L496,728 L491,740 L486,748 L479,762 L470,777 L462,790 L455,800 L447,812 L439,823 L437,823 L435,828 L431,833 L429,833 L429,835 L427,835 L425,839 L420,846 L415,851 L404,863 L392,876 L384,883 L376,891 L372,895 L369,896 L364,901 L358,906 L356,906 L356,908 L342,919 L324,932 L322,932 L322,934 L312,940 L304,945 L293,952 L285,957 L273,963 L254,973 L238,980 L228,985 L210,991 L198,996 L168,1005 L140,1012 L118,1016 L56,1023 L9,1023 L7,1022 L-9,1021 L-60,1015 L-84,1010 L-94,1007 L-113,1002 L-136,995 L-156,987 L-168,983 L-179,977 L-191,972 L-216,959 L-228,952 L-241,944 L-252,937 L-257,934 L-257,932 L-262,930 L-274,921 L-285,913 L-291,908 L-291,906 L-295,905 L-305,896 L-313,889 L-321,881 L-329,874 L-338,865 L-345,857 L-348,854 L-348,852 L-350,852 L-350,850 L-352,850 L-355,846 L-355,844 L-357,844 L-361,838 L-366,833 L-372,824 L-377,819 L-389,802 L-396,792 L-403,780 L-403,778 L-406,777 L-413,763 L-422,748 L-430,731 L-430,727 L-432,727 L-437,717 L-443,701 L-449,686 L-458,659 L-462,646 L-467,624 L-473,591 L-475,584 L-478,559 L-479,533 L-479,489 L-478,463 L-474,433 L-473,432 L-466,392 L-460,370 L-455,353 L-447,330 L-439,311 L-432,295 L-427,285 L-419,269 L-409,252 L-405,244 L-398,234 L-392,224 L-385,215 L-378,204 L-370,195 L-363,185 L-360,182 L-358,182 L-356,178 L-348,168 L-339,159 L-332,151 L-323,142 L-315,135 L-308,128 L-299,121 L-297,121 L-295,117 L-286,110 L-283,109 L-283,107 L-272,99 L-259,90 L-257,90 L-256,87 L-245,81 L-235,74 L-225,68 L-214,62 L-197,53 L-176,43 L-149,32 L-133,26 L-115,21 L-105,17 L-87,13 L-49,5 L-36,3 Z M16,76 L-16,78 L-45,82 L-70,88 L-86,92 L-106,98 L-124,105 L-140,111 L-150,116 L-167,124 L-187,135 L-197,141 L-206,147 L-217,154 L-217,156 L-222,158 L-233,166 L-241,173 L-247,177 L-247,179 L-251,181 L-255,184 L-255,186 L-259,188 L-276,204 L-284,212 L-291,220 L-299,229 L-299,231 L-301,231 L-301,233 L-303,233 L-311,244 L-316,250 L-326,264 L-335,278 L-339,284 L-339,286 L-341,286 L-349,302 L-355,312 L-363,329 L-368,340 L-373,352 L-381,375 L-384,382 L-389,402 L-395,427 L-400,457 L-403,492 L-403,529 L-400,565 L-395,594 L-388,624 L-383,642 L-376,661 L-373,671 L-366,686 L-357,706 L-347,724 L-341,735 L-334,746 L-323,762 L-310,780 L-308,780 L-306,784 L-300,792 L-295,798 L-290,803 L-281,813 L-276,818 L-269,825 L-263,830 L-258,835 L-249,843 L-242,849 L-230,858 L-218,867 L-206,875 L-195,882 L-185,888 L-175,894 L-163,900 L-160,900 L-160,902 L-144,909 L-115,921 L-89,929 L-77,933 L-35,941 L-5,945 L11,946 L54,946 L77,944 L106,940 L131,935 L149,931 L160,927 L183,920 L196,914 L209,909 L228,900 L245,891 L256,884 L265,879 L275,872 L285,865 L290,862 L299,855 L310,846 L321,836 L327,832 L334,824 L343,816 L348,810 L353,805 L364,793 L369,787 L369,785 L371,785 L380,773 L390,759 L394,753 L394,751 L396,751 L406,734 L409,729 L409,727 L411,727 L419,710 L428,694 L437,671 L442,660 L451,630 L453,624 L460,595 L465,559 L466,554 L468,526 L468,496 L466,468 L462,442 L459,423 L452,393 L449,385 L441,359 L433,341 L427,326 L417,307 L410,294 L403,283 L398,275 L387,259 L383,252 L381,252 L379,248 L371,237 L366,232 L357,221 L348,212 L341,204 L333,196 L325,189 L313,178 L304,171 L302,171 L302,169 L300,169 L300,167 L294,163 L277,151 L268,145 L263,142 L261,142 L261,140 L246,132 L236,126 L220,118 L210,114 L198,108 L173,99 L158,94 L141,89 L121,85 L109,82 L81,78 L49,76 Z " transform="translate(826,1941)" style="fill: #FF910A;"/><path d="M0,0 L13,0 L21,4 L37,12 L47,19 L55,19 L63,35 L67,49 L78,58 L84,62 L88,74 L102,89 L111,96 L115,101 L120,105 L121,110 L117,118 L115,121 L113,121 L112,126 L109,132 L105,135 L103,135 L103,143 L96,153 L89,157 L84,156 L80,152 L70,150 L63,150 L57,153 L48,170 L45,172 L42,168 L32,187 L27,193 L20,202 L17,201 L16,199 L9,205 L3,209 L-1,213 L-4,213 L-6,218 L-15,229 L-18,232 L-19,241 L-14,252 L0,270 L11,284 L24,300 L36,316 L47,330 L53,334 L74,342 L83,347 L90,355 L96,359 L99,363 L98,425 L-562,425 L-563,376 L-569,367 L-574,355 L-582,344 L-585,341 L-584,336 L-575,316 L-568,293 L-564,275 L-562,273 L-527,269 L-509,265 L-501,261 L-492,252 L-481,238 L-472,226 L-458,201 L-446,176 L-442,164 L-469,170 L-488,177 L-507,187 L-524,197 L-543,207 L-559,213 L-575,215 L-593,214 L-628,205 L-638,199 L-644,191 L-647,182 L-647,164 L-630,170 L-617,177 L-610,184 L-605,193 L-605,195 L-596,197 L-590,198 L-573,198 L-561,195 L-545,187 L-522,171 L-505,159 L-484,145 L-469,136 L-453,128 L-438,123 L-420,118 L-393,110 L-375,106 L-368,105 L-334,105 L-298,110 L-272,112 L-233,112 L-209,110 L-196,107 L-194,106 L-196,100 L-188,92 L-177,84 L-167,75 L-166,73 L-175,71 L-174,68 L-150,55 L-132,47 L-134,44 L-133,40 L-122,35 L-108,29 L-106,25 L-108,21 L-88,15 L-77,13 L-62,11 L-49,7 L-16,2 Z M-393,263 L-401,267 L-413,278 L-427,289 L-443,297 L-479,309 L-501,314 L-519,314 L-535,313 L-540,316 L-543,322 L-544,328 L-542,341 L-539,347 L-535,351 L-523,356 L-512,363 L-510,365 L-508,374 L-300,374 L-305,365 L-314,357 L-329,350 L-334,348 L-337,348 L-337,327 L-339,316 L-346,306 L-366,286 L-374,279 L-387,267 L-391,263 Z M-280,264 L-301,267 L-300,301 L-297,321 L-294,331 L-288,338 L-274,348 L-261,352 L-249,356 L-241,363 L-240,365 L-238,365 L-235,374 L-192,374 L-196,366 L-206,356 L-216,334 L-214,329 L-206,316 L-201,305 L-199,296 L-200,284 L-202,281 L-226,271 L-240,266 L-250,264 Z M-87,279 L-95,283 L-112,287 L-135,290 L-144,301 L-151,310 L-175,334 L-174,342 L-170,348 L-161,352 L-149,357 L-138,365 L-136,374 L55,374 L50,369 L42,362 L26,356 L14,351 L11,350 L9,346 L-4,338 L-13,334 L-16,334 L-18,329 L-27,316 L-36,306 L-46,299 L-82,281 Z " transform="translate(1052,148)" style="fill: #000000;"/><path d="M0,0 L24,0 L45,4 L60,10 L69,15 L70,18 L69,20 L67,20 L65,25 L55,42 L51,48 L45,59 L36,73 L30,71 L21,68 L4,68 L-6,71 L-16,78 L-23,87 L-27,98 L-27,116 L-23,127 L-17,135 L-12,139 L-12,141 L-7,143 L6,147 L18,147 L27,145 L37,140 L43,133 L47,129 L51,119 L54,105 L189,105 L205,109 L218,116 L218,118 L222,120 L229,127 L237,140 L240,147 L242,163 L241,177 L238,187 L229,201 L225,206 L226,209 L234,216 L241,224 L249,240 L252,252 L252,270 L249,282 L239,301 L230,310 L228,310 L228,312 L215,320 L200,325 L190,326 L114,326 L83,325 L82,324 L81,191 L76,195 L60,205 L57,205 L57,349 L140,349 L142,351 L142,409 L141,411 L-8,411 L-8,213 L-19,211 L-30,207 L-30,239 L-31,241 L-33,255 L-38,272 L-43,282 L-50,293 L-57,301 L-64,308 L-66,308 L-66,310 L-76,317 L-86,323 L-97,327 L-115,332 L-144,332 L-149,330 L-165,326 L-182,318 L-185,316 L-185,314 L-189,313 L-194,308 L-199,305 L-207,295 L-212,289 L-218,278 L-223,267 L-227,252 L-228,245 L-228,116 L-164,116 L-163,237 L-161,246 L-156,254 L-152,259 L-146,263 L-135,267 L-123,267 L-107,259 L-101,251 L-97,241 L-96,237 L-95,97 L-91,75 L-84,57 L-77,46 L-69,36 L-62,29 L-57,24 L-46,16 L-34,9 L-20,4 Z M145,156 L145,185 L163,185 L170,182 L175,177 L176,175 L176,167 L172,161 L169,158 L162,156 Z M145,242 L145,270 L166,270 L174,266 L178,260 L178,252 L174,246 L169,243 L163,242 Z " transform="translate(840,2241)" style="fill: #3A3A3A;"/><path d="M0,0 L7,0 L23,5 L32,8 L48,14 L63,19 L76,25 L88,29 L99,36 L102,38 L102,40 L107,41 L108,44 L118,52 L126,59 L133,62 L143,72 L148,77 L159,88 L164,93 L164,95 L167,96 L175,106 L175,108 L179,110 L184,117 L188,121 L195,131 L202,139 L206,145 L206,147 L208,147 L222,168 L229,178 L237,192 L242,200 L250,214 L258,229 L264,243 L272,259 L278,274 L284,288 L296,323 L301,340 L307,366 L311,380 L316,411 L319,434 L322,470 L323,495 L323,509 L321,550 L316,594 L310,629 L302,659 L298,675 L286,711 L279,729 L274,740 L270,751 L262,767 L254,783 L244,801 L238,812 L235,817 L233,817 L232,821 L226,831 L220,840 L210,855 L208,855 L206,859 L199,870 L195,872 L193,876 L189,882 L178,895 L169,906 L159,916 L152,924 L137,939 L131,944 L125,951 L116,958 L107,966 L105,966 L105,968 L97,974 L95,974 L95,976 L87,982 L76,990 L68,996 L52,1007 L39,1015 L34,1017 L34,1019 L14,1030 L4,1036 L-15,1045 L-21,1049 L-43,1058 L-53,1063 L-83,1074 L-107,1082 L-123,1086 L-130,1089 L-149,1093 L-198,1102 L-224,1105 L-266,1107 L-299,1107 L-341,1105 L-367,1102 L-421,1092 L-440,1087 L-449,1084 L-468,1079 L-493,1070 L-512,1063 L-531,1054 L-546,1048 L-552,1044 L-573,1034 L-591,1023 L-600,1018 L-610,1011 L-619,1006 L-637,993 L-646,987 L-646,985 L-650,983 L-659,976 L-662,973 L-667,970 L-677,962 L-682,957 L-682,955 L-687,953 L-698,942 L-706,935 L-711,930 L-718,923 L-718,921 L-720,921 L-727,913 L-732,908 L-734,903 L-738,901 L-746,892 L-750,887 L-750,885 L-752,885 L-758,877 L-764,869 L-764,867 L-767,866 L-775,854 L-777,849 L-779,849 L-788,835 L-798,820 L-807,804 L-807,802 L-809,802 L-819,782 L-823,776 L-832,756 L-841,737 L-846,723 L-852,709 L-862,678 L-867,661 L-872,639 L-878,611 L-881,597 L-885,558 L-887,534 L-887,470 L-884,435 L-881,407 L-875,380 L-869,351 L-864,334 L-861,326 L-859,326 L-859,323 L-857,323 L-857,316 L-852,303 L-850,296 L-848,296 L-847,291 L-844,285 L-836,275 L-825,261 L-816,250 L-803,235 L-791,222 L-782,212 L-778,210 L-778,212 L-780,212 L-779,217 L-787,230 L-795,246 L-806,269 L-812,284 L-817,294 L-826,321 L-832,339 L-837,357 L-841,374 L-845,391 L-847,401 L-853,450 L-854,464 L-855,466 L-856,509 L-855,539 L-854,540 L-852,563 L-847,603 L-843,623 L-838,642 L-834,658 L-826,684 L-821,698 L-813,720 L-808,730 L-802,745 L-792,764 L-784,780 L-778,790 L-774,797 L-774,800 L-772,800 L-771,804 L-769,804 L-762,816 L-753,829 L-745,841 L-744,844 L-742,844 L-730,860 L-716,877 L-708,886 L-703,891 L-689,906 L-675,920 L-668,926 L-668,928 L-664,930 L-654,939 L-644,947 L-638,951 L-638,953 L-633,955 L-629,959 L-620,965 L-616,969 L-608,974 L-598,981 L-595,982 L-595,984 L-590,986 L-577,994 L-565,1001 L-554,1007 L-537,1016 L-526,1021 L-509,1029 L-497,1033 L-485,1039 L-435,1055 L-418,1059 L-399,1063 L-395,1065 L-371,1069 L-344,1072 L-321,1074 L-297,1075 L-268,1075 L-243,1074 L-215,1071 L-187,1068 L-170,1065 L-161,1062 L-137,1057 L-111,1049 L-75,1037 L-59,1030 L-47,1025 L-24,1014 L-9,1006 L1,1000 L11,995 L20,989 L28,984 L30,984 L30,982 L35,981 L35,979 L50,969 L55,967 L56,964 L68,956 L76,949 L81,946 L86,941 L96,932 L105,925 L110,919 L115,915 L117,915 L119,911 L131,899 L136,894 L143,886 L150,878 L157,870 L164,861 L166,861 L168,856 L179,842 L184,834 L188,830 L195,819 L203,806 L205,806 L207,801 L212,791 L215,788 L221,776 L229,761 L237,745 L241,735 L247,723 L252,708 L257,697 L266,669 L270,653 L273,645 L277,628 L284,587 L286,578 L288,561 L289,540 L290,532 L290,473 L289,464 L287,433 L285,420 L283,411 L276,372 L271,353 L267,341 L261,320 L254,301 L244,274 L239,266 L234,253 L225,237 L217,221 L214,216 L214,214 L212,214 L206,202 L197,189 L188,175 L179,163 L178,159 L176,159 L174,154 L172,154 L168,148 L168,146 L166,146 L163,142 L163,140 L161,140 L153,130 L144,119 L139,114 L134,109 L134,107 L130,105 L125,100 L125,98 L123,98 L119,93 L111,86 L100,75 L92,69 L92,67 L88,65 L77,56 L71,52 L71,50 L67,48 L54,39 L54,37 L49,35 L36,26 L29,21 L20,16 L9,9 L3,5 L2,2 Z " transform="translate(1160,1904)" style="fill: #B93718;"/><path d="M0,0 L53,0 L54,228 L57,257 L63,285 L73,315 L81,333 L92,354 L106,375 L116,388 L128,402 L145,419 L156,428 L169,438 L184,448 L200,457 L216,465 L241,475 L265,482 L291,487 L309,489 L354,489 L378,486 L402,481 L428,473 L449,464 L469,454 L488,442 L507,428 L517,419 L525,412 L537,400 L546,389 L558,374 L572,352 L585,327 L595,301 L602,276 L606,256 L608,240 L609,226 L610,0 L662,0 L662,230 L659,261 L654,288 L647,313 L637,341 L622,372 L608,395 L595,413 L586,424 L574,438 L555,457 L544,466 L532,476 L515,488 L497,499 L477,510 L449,522 L421,531 L395,537 L369,541 L357,542 L305,542 L278,539 L249,533 L225,526 L201,517 L176,505 L158,495 L137,481 L124,471 L111,460 L98,448 L87,437 L80,429 L67,413 L55,396 L42,375 L31,354 L21,330 L12,303 L5,273 L1,243 L0,227 Z " transform="translate(489,827)" style="fill: #000000;"/><path d="M0,0 L49,0 L57,1 L58,2 L68,3 L98,7 L129,15 L162,27 L178,35 L194,43 L210,52 L224,61 L224,63 L229,65 L237,70 L242,75 L251,81 L251,83 L253,83 L253,85 L257,87 L269,98 L288,117 L293,124 L298,129 L307,141 L313,149 L320,159 L331,177 L342,198 L347,208 L352,221 L358,235 L367,266 L371,282 L376,314 L377,328 L377,377 L375,397 L371,424 L366,444 L359,467 L354,481 L349,492 L342,509 L338,515 L330,531 L326,538 L324,538 L322,543 L317,551 L316,554 L314,554 L312,558 L309,563 L307,563 L305,568 L296,579 L287,590 L282,595 L266,611 L261,616 L250,625 L239,634 L228,642 L223,646 L212,652 L202,659 L188,666 L171,675 L155,681 L152,681 L152,683 L134,689 L106,697 L86,701 L64,704 L42,706 L7,706 L-24,703 L-54,698 L-81,690 L-98,685 L-111,679 L-124,674 L-143,664 L-158,656 L-168,649 L-178,643 L-187,636 L-193,632 L-193,630 L-198,628 L-199,625 L-203,623 L-211,617 L-211,615 L-213,615 L-213,613 L-217,611 L-236,592 L-243,584 L-253,572 L-263,559 L-270,548 L-277,538 L-287,520 L-295,504 L-299,495 L-303,487 L-313,458 L-317,445 L-322,424 L-326,398 L-328,379 L-328,327 L-325,299 L-320,273 L-315,253 L-308,234 L-302,216 L-295,202 L-287,185 L-279,172 L-273,162 L-267,154 L-261,144 L-249,129 L-242,121 L-235,113 L-231,108 L-223,101 L-219,96 L-215,93 L-213,93 L-211,89 L-203,82 L-190,72 L-185,68 L-179,64 L-177,64 L-177,62 L-159,51 L-142,41 L-132,36 L-121,31 L-108,25 L-82,16 L-62,10 L-43,6 L-19,3 Z M14,31 L-15,33 L-38,37 L-63,43 L-86,50 L-99,56 L-115,62 L-124,68 L-140,76 L-160,89 L-169,96 L-182,106 L-188,111 L-188,113 L-193,115 L-201,123 L-205,128 L-213,135 L-219,143 L-224,148 L-234,161 L-236,166 L-238,166 L-241,171 L-241,173 L-243,173 L-249,183 L-249,185 L-251,185 L-258,199 L-268,218 L-274,233 L-281,249 L-291,288 L-294,303 L-297,329 L-297,376 L-293,407 L-290,422 L-282,453 L-278,465 L-276,465 L-275,470 L-269,486 L-259,506 L-252,518 L-251,521 L-249,521 L-247,526 L-242,534 L-232,547 L-221,561 L-210,573 L-202,582 L-194,589 L-189,594 L-178,603 L-168,611 L-158,618 L-148,625 L-136,632 L-129,636 L-105,648 L-91,654 L-74,659 L-64,663 L-42,668 L-12,673 L0,674 L2,675 L49,674 L66,672 L91,668 L113,663 L129,657 L147,651 L178,636 L185,632 L203,621 L211,615 L213,614 L213,612 L218,610 L226,604 L235,596 L243,589 L250,582 L255,577 L263,569 L263,567 L267,565 L274,556 L282,546 L288,537 L292,533 L296,525 L296,523 L298,523 L305,512 L313,496 L322,477 L331,451 L334,443 L341,412 L344,393 L346,365 L346,340 L344,313 L341,293 L332,256 L327,244 L322,229 L310,204 L302,190 L291,172 L284,163 L278,154 L274,150 L272,147 L269,147 L268,143 L260,133 L252,126 L247,120 L245,120 L245,118 L243,118 L243,116 L239,115 L237,111 L231,106 L229,106 L229,104 L221,98 L207,88 L197,81 L184,73 L170,66 L161,61 L139,52 L129,48 L108,42 L77,35 L54,32 L35,31 Z " transform="translate(834,2099)" style="fill: #464646;"/><path d="M0,0 L53,0 L54,226 L57,248 L62,267 L70,287 L79,304 L91,321 L101,332 L107,339 L115,346 L128,356 L141,364 L157,372 L172,378 L190,383 L208,386 L220,387 L238,387 L258,385 L277,381 L297,374 L316,365 L330,356 L343,346 L356,334 L365,324 L376,309 L387,290 L395,270 L401,249 L404,228 L405,0 L457,0 L457,219 L455,244 L450,270 L440,300 L430,321 L419,339 L407,355 L395,369 L382,382 L371,391 L356,402 L343,410 L324,420 L301,429 L279,435 L254,439 L241,440 L216,440 L195,438 L170,433 L147,426 L129,418 L108,407 L91,395 L81,387 L69,376 L56,363 L45,349 L35,335 L25,317 L16,298 L7,271 L2,246 L0,226 Z " transform="translate(591,827)" style="fill: #003D57;"/><path d="M0,0 L48,0 L70,2 L105,7 L123,11 L142,17 L154,20 L168,25 L168,27 L174,28 L187,33 L203,40 L213,46 L227,53 L240,61 L253,69 L253,71 L257,73 L268,80 L279,89 L287,95 L290,98 L290,100 L294,101 L299,106 L313,120 L318,125 L328,135 L336,145 L346,157 L354,169 L357,172 L362,180 L362,182 L364,182 L373,197 L382,213 L390,229 L399,248 L407,269 L414,290 L418,307 L423,330 L426,342 L428,360 L430,401 L428,450 L426,468 L424,478 L422,485 L416,513 L411,529 L405,546 L397,567 L389,582 L385,592 L378,603 L371,617 L363,628 L357,638 L347,651 L344,656 L342,656 L340,660 L329,674 L324,679 L314,689 L310,694 L302,701 L289,713 L279,721 L269,729 L263,733 L261,733 L261,735 L238,750 L223,759 L212,765 L197,772 L181,780 L155,789 L137,795 L121,799 L99,803 L94,805 L64,809 L49,810 L0,810 L-26,808 L-45,805 L-57,802 L-81,797 L-110,788 L-126,782 L-138,777 L-150,771 L-167,763 L-172,760 L-188,751 L-198,744 L-210,737 L-210,735 L-212,735 L-212,733 L-217,731 L-226,724 L-236,716 L-246,708 L-251,703 L-259,695 L-264,691 L-271,683 L-284,669 L-289,662 L-293,658 L-301,647 L-307,639 L-316,626 L-324,613 L-332,599 L-340,583 L-346,571 L-353,553 L-357,545 L-365,520 L-369,502 L-372,494 L-375,478 L-379,445 L-381,409 L-380,381 L-378,355 L-374,326 L-370,308 L-368,308 L-367,300 L-363,283 L-357,265 L-352,253 L-347,241 L-339,225 L-331,209 L-321,192 L-314,181 L-306,170 L-300,161 L-295,156 L-292,151 L-288,145 L-283,140 L-280,139 L-278,134 L-273,129 L-264,120 L-259,115 L-247,103 L-237,95 L-232,90 L-227,87 L-225,87 L-225,85 L-215,77 L-209,73 L-199,66 L-184,57 L-169,48 L-153,40 L-143,35 L-120,26 L-108,21 L-76,12 L-67,9 L-30,3 L-14,1 Z M4,18 L-32,22 L-59,27 L-85,33 L-95,37 L-114,43 L-125,48 L-145,57 L-159,64 L-169,70 L-177,74 L-180,76 L-180,78 L-185,80 L-195,86 L-198,88 L-198,90 L-203,92 L-217,102 L-217,104 L-221,106 L-225,109 L-225,111 L-229,113 L-238,120 L-238,122 L-240,122 L-246,129 L-250,131 L-257,140 L-260,142 L-260,144 L-262,144 L-270,154 L-279,165 L-289,178 L-297,189 L-305,202 L-313,215 L-319,227 L-322,232 L-332,254 L-342,279 L-346,294 L-350,305 L-353,318 L-359,353 L-361,367 L-363,407 L-361,442 L-358,465 L-352,498 L-348,511 L-343,526 L-337,544 L-321,580 L-313,594 L-309,602 L-300,616 L-290,630 L-278,647 L-276,647 L-276,649 L-274,649 L-272,653 L-270,657 L-265,662 L-262,663 L-260,667 L-248,680 L-243,685 L-234,693 L-226,700 L-216,708 L-206,716 L-187,729 L-176,736 L-161,745 L-145,753 L-137,757 L-110,768 L-87,776 L-62,782 L-53,785 L-24,789 L21,792 L47,791 L72,789 L102,785 L126,778 L142,774 L164,766 L189,756 L193,754 L193,752 L197,751 L213,743 L233,731 L242,725 L255,716 L257,715 L257,713 L261,711 L269,705 L269,703 L274,701 L281,695 L286,690 L294,683 L300,676 L305,672 L314,661 L319,657 L321,653 L325,649 L329,643 L336,635 L340,629 L349,616 L360,598 L368,583 L373,574 L379,561 L387,540 L393,525 L401,494 L404,485 L410,442 L411,426 L411,384 L410,368 L404,325 L398,304 L393,285 L387,269 L377,245 L369,229 L361,213 L354,202 L345,188 L339,180 L332,169 L329,166 L327,166 L325,161 L316,151 L311,144 L309,144 L308,141 L300,134 L294,127 L292,127 L292,125 L284,118 L275,110 L268,104 L266,104 L266,102 L260,98 L258,98 L258,96 L249,90 L247,90 L247,88 L236,81 L221,71 L209,65 L200,60 L181,51 L160,42 L135,34 L126,31 L99,25 L66,20 L45,18 Z " transform="translate(834,2047)" style="fill: #FE532C;"/><path d="M0,0 L75,0 L110,2 L139,6 L152,9 L172,12 L209,21 L239,30 L252,34 L259,37 L279,44 L307,56 L318,61 L329,67 L337,71 L344,74 L358,82 L379,94 L387,99 L402,109 L413,116 L423,124 L432,130 L436,133 L436,135 L441,137 L444,139 L444,141 L449,143 L458,151 L469,160 L480,170 L488,177 L517,206 L524,214 L533,224 L540,232 L548,242 L550,246 L552,246 L556,253 L558,260 L553,258 L545,252 L544,250 L540,249 L539,247 L532,244 L528,240 L523,237 L518,235 L507,228 L496,222 L493,219 L484,215 L479,210 L477,208 L473,207 L470,202 L465,197 L465,195 L459,194 L451,188 L447,183 L443,181 L438,176 L427,167 L425,166 L425,164 L420,162 L418,161 L418,159 L414,157 L405,151 L405,149 L401,147 L392,141 L383,135 L372,128 L360,120 L352,116 L335,106 L325,101 L309,93 L288,83 L268,75 L252,68 L229,61 L215,56 L170,45 L145,40 L126,37 L96,34 L72,32 L3,32 L-51,37 L-70,40 L-95,45 L-143,57 L-159,63 L-179,69 L-187,73 L-208,81 L-227,90 L-238,95 L-250,101 L-269,111 L-282,119 L-297,128 L-306,134 L-318,142 L-332,152 L-341,159 L-353,168 L-355,168 L-357,172 L-366,179 L-377,189 L-387,197 L-391,202 L-399,209 L-417,227 L-422,232 L-431,243 L-440,253 L-449,264 L-458,276 L-466,286 L-472,295 L-480,306 L-487,317 L-492,324 L-498,335 L-505,346 L-513,361 L-522,378 L-533,401 L-542,424 L-545,425 L-545,427 L-547,427 L-547,431 L-549,431 L-552,441 L-554,450 L-560,460 L-570,475 L-585,498 L-593,512 L-596,519 L-598,519 L-600,525 L-604,529 L-603,513 L-598,488 L-594,475 L-591,467 L-587,452 L-578,426 L-573,415 L-568,400 L-561,386 L-556,373 L-550,362 L-542,347 L-537,337 L-531,328 L-525,316 L-519,307 L-509,291 L-502,281 L-501,279 L-499,279 L-497,274 L-484,256 L-475,245 L-466,234 L-459,226 L-454,220 L-452,220 L-452,218 L-450,218 L-449,214 L-443,207 L-436,201 L-435,199 L-433,199 L-433,197 L-428,192 L-421,186 L-416,180 L-408,173 L-397,163 L-389,156 L-386,155 L-386,153 L-380,149 L-371,141 L-363,135 L-361,135 L-361,133 L-344,121 L-340,118 L-338,118 L-338,116 L-334,115 L-334,113 L-323,107 L-315,101 L-305,95 L-297,90 L-283,82 L-272,76 L-256,68 L-241,60 L-228,55 L-218,50 L-205,45 L-195,41 L-180,36 L-171,32 L-133,21 L-118,17 L-91,11 L-71,8 L-57,5 L-35,2 Z " transform="translate(848,1744)" style="fill: #688B8B;"/><path d="M0,0 L2,0 L0,7 L-8,17 L-10,19 L-13,26 L-23,43 L-29,53 L-33,60 L-36,68 L-38,71 L-40,71 L-42,77 L-48,88 L-51,96 L-53,96 L-56,106 L-59,111 L-62,118 L-66,126 L-69,134 L-73,142 L-76,149 L-78,157 L-82,165 L-85,174 L-88,183 L-94,201 L-95,202 L-96,209 L-101,219 L-106,236 L-107,238 L-109,250 L-113,264 L-120,292 L-124,311 L-126,311 L-127,314 L-126,305 L-121,280 L-116,259 L-109,236 L-103,214 L-98,202 L-94,188 L-105,208 L-110,215 L-118,231 L-126,247 L-136,268 L-141,279 L-147,294 L-152,306 L-162,333 L-170,357 L-175,376 L-178,384 L-183,405 L-187,424 L-190,435 L-196,471 L-200,505 L-202,534 L-203,559 L-204,562 L-204,606 L-203,608 L-202,633 L-201,642 L-199,672 L-195,701 L-190,731 L-188,740 L-182,764 L-179,780 L-172,801 L-168,816 L-154,856 L-148,872 L-144,880 L-138,895 L-124,924 L-119,934 L-109,953 L-108,962 L-105,962 L-97,980 L-93,986 L-89,990 L-86,996 L-79,1007 L-76,1010 L-76,1012 L-74,1012 L-70,1017 L-70,1019 L-68,1019 L-62,1038 L-60,1049 L-57,1057 L-56,1064 L-54,1064 L-51,1072 L-50,1080 L-45,1091 L-42,1098 L-39,1108 L-34,1116 L-32,1125 L-39,1122 L-47,1112 L-52,1107 L-57,1100 L-62,1095 L-70,1085 L-70,1083 L-72,1083 L-81,1071 L-81,1069 L-83,1069 L-95,1052 L-101,1043 L-106,1037 L-106,1034 L-108,1034 L-118,1018 L-125,1007 L-128,1002 L-134,993 L-141,979 L-147,970 L-158,948 L-162,941 L-172,920 L-177,908 L-187,885 L-194,867 L-198,855 L-203,843 L-211,816 L-216,800 L-225,764 L-230,743 L-234,719 L-240,672 L-241,671 L-243,651 L-243,515 L-241,496 L-240,494 L-233,441 L-228,415 L-222,390 L-214,359 L-211,351 L-205,332 L-201,318 L-196,306 L-193,296 L-188,284 L-179,263 L-173,249 L-165,233 L-157,216 L-155,216 L-154,210 L-143,190 L-137,181 L-131,169 L-122,155 L-113,141 L-111,137 L-109,137 L-107,132 L-103,126 L-98,119 L-96,119 L-94,113 L-81,96 L-71,83 L-65,76 L-61,70 L-56,65 L-54,62 L-52,62 L-50,58 L-43,50 L-34,40 L-29,35 L-27,32 L-25,32 L-23,28 L-18,23 L-10,15 L-9,13 L-7,13 L-5,8 Z " transform="translate(243,1845)" style="fill: #FEAB14;"/><path d="M0,0 L2,0 L2,6 L4,6 L5,10 L7,10 L10,22 L9,24 L11,24 L17,43 L20,47 L23,56 L23,60 L25,60 L31,78 L36,86 L37,95 L34,92 L28,79 L25,71 L26,102 L28,119 L30,144 L35,188 L41,220 L47,247 L51,264 L56,280 L65,311 L66,314 L67,322 L74,342 L77,352 L79,353 L84,365 L88,375 L91,384 L94,391 L97,394 L101,404 L102,408 L106,412 L111,417 L114,420 L115,428 L124,445 L130,454 L135,464 L142,475 L154,494 L164,509 L171,518 L178,529 L180,533 L182,533 L184,538 L186,538 L194,550 L199,555 L204,562 L204,564 L208,566 L215,574 L220,580 L220,582 L223,583 L232,594 L243,605 L243,607 L245,607 L245,609 L249,611 L256,619 L258,620 L258,622 L262,624 L268,630 L268,632 L272,634 L281,643 L287,647 L292,652 L298,657 L303,662 L313,670 L313,672 L316,672 L316,674 L320,676 L330,683 L330,685 L334,687 L343,693 L345,694 L345,696 L350,698 L358,704 L370,713 L373,714 L373,716 L378,718 L391,726 L400,732 L411,738 L421,744 L443,756 L459,764 L470,770 L500,783 L508,787 L528,794 L538,799 L558,805 L570,810 L589,815 L616,822 L635,827 L654,831 L684,836 L698,839 L741,843 L765,845 L848,845 L872,843 L906,840 L925,837 L945,833 L971,829 L991,824 L1006,820 L1034,812 L1043,810 L1052,806 L1075,799 L1093,791 L1110,785 L1127,777 L1141,771 L1151,766 L1167,758 L1181,750 L1184,750 L1184,748 L1192,744 L1201,739 L1211,733 L1224,725 L1233,719 L1242,713 L1264,698 L1267,697 L1267,695 L1278,688 L1281,687 L1281,685 L1283,685 L1283,683 L1290,678 L1292,678 L1292,676 L1303,668 L1313,659 L1321,652 L1327,647 L1329,647 L1330,644 L1338,637 L1354,622 L1372,604 L1379,596 L1386,588 L1388,588 L1390,584 L1399,574 L1406,565 L1410,561 L1416,553 L1421,547 L1429,536 L1431,536 L1433,532 L1443,517 L1453,504 L1459,494 L1468,480 L1479,463 L1485,451 L1487,448 L1489,448 L1490,443 L1497,431 L1505,415 L1509,408 L1513,398 L1519,386 L1524,374 L1532,354 L1539,341 L1551,328 L1558,320 L1563,314 L1567,314 L1564,323 L1559,340 L1551,360 L1540,387 L1534,399 L1527,415 L1519,430 L1511,446 L1502,462 L1501,465 L1499,465 L1498,469 L1488,486 L1476,504 L1470,514 L1465,520 L1457,532 L1454,536 L1452,536 L1451,540 L1445,548 L1434,562 L1427,571 L1419,580 L1415,586 L1410,591 L1403,599 L1398,604 L1387,616 L1382,621 L1371,633 L1364,639 L1360,644 L1354,648 L1347,656 L1341,661 L1339,661 L1339,663 L1337,663 L1337,665 L1332,669 L1330,669 L1330,671 L1328,671 L1328,673 L1323,676 L1315,684 L1304,692 L1293,701 L1285,706 L1280,711 L1269,718 L1266,719 L1266,721 L1243,736 L1229,745 L1218,752 L1204,760 L1197,764 L1185,771 L1169,779 L1150,788 L1146,790 L1143,790 L1143,792 L1123,800 L1108,807 L1078,818 L1068,822 L1049,828 L1023,836 L987,845 L966,850 L942,854 L895,860 L894,861 L874,863 L739,863 L719,861 L718,860 L685,856 L647,850 L623,844 L602,839 L580,833 L556,825 L542,821 L528,815 L508,808 L492,801 L478,795 L471,792 L457,785 L441,777 L425,769 L414,763 L407,758 L393,751 L385,745 L373,738 L361,730 L350,723 L340,715 L333,711 L333,709 L329,708 L326,705 L320,701 L320,699 L315,697 L306,690 L306,688 L302,686 L294,680 L283,670 L276,665 L271,660 L270,657 L265,655 L257,646 L249,639 L239,630 L232,622 L220,610 L213,602 L206,594 L206,592 L202,590 L195,582 L187,572 L179,562 L172,553 L172,551 L170,551 L160,537 L152,526 L143,513 L138,505 L130,493 L122,481 L116,470 L109,458 L106,452 L106,450 L104,450 L96,434 L88,418 L80,402 L76,392 L69,379 L67,376 L71,377 L68,367 L64,361 L60,349 L55,338 L53,333 L51,323 L50,317 L48,317 L44,303 L42,299 L40,288 L36,275 L36,272 L34,272 L33,268 L30,267 L30,265 L28,265 L20,254 L15,245 L13,240 L10,239 L3,227 L-1,217 L-1,215 L-4,215 L-5,208 L-2,211 L6,224 L12,235 L22,250 L27,258 L29,261 L27,247 L22,226 L16,192 L14,180 L10,150 L8,114 L7,80 L7,21 L0,4 Z M30,262 L31,264 Z " transform="translate(139,2592)" style="fill: #FE52BD;"/><path d="M0,0 L53,0 L54,220 L58,236 L66,252 L74,262 L83,270 L97,278 L109,282 L121,284 L131,284 L147,281 L160,276 L172,268 L183,257 L191,244 L196,231 L198,221 L199,0 L252,0 L252,218 L250,235 L245,254 L237,272 L227,287 L216,300 L204,311 L189,321 L170,330 L152,335 L139,337 L113,337 L96,334 L75,327 L60,319 L46,309 L33,297 L22,283 L14,269 L7,253 L2,234 L0,213 Z " transform="translate(694,827)" style="fill: #000000;"/><path d="M0,0 L661,0 L661,52 L0,52 Z " transform="translate(490,624)" style="fill: #003D57;"/><path d="M0,0 L661,0 L661,51 L0,51 Z " transform="translate(490,726)" style="fill: #000000;"/><path d="M0,0 L49,0 L68,41 L84,77 L102,116 L118,152 L122,160 L123,0 L171,0 L171,256 L123,256 L115,240 L99,205 L83,169 L64,128 L50,97 L49,256 L0,256 Z " transform="translate(1502,522)" style="fill: #003D57;"/><path d="M0,0 L48,0 L56,16 L72,51 L88,87 L107,128 L121,159 L122,0 L170,0 L170,256 L122,256 L103,215 L87,179 L68,138 L55,109 L49,96 L48,256 L0,256 Z " transform="translate(2280,827)" style="fill: #000000;"/><path d="M0,0 L25,0 L36,3 L52,9 L61,15 L68,21 L75,29 L81,39 L88,56 L90,64 L91,74 L91,232 L89,234 L31,234 L30,233 L29,90 L27,78 L23,70 L17,63 L7,58 L-7,56 L-18,58 L-30,64 L-37,75 L-39,79 L-41,93 L-42,233 L-43,234 L-101,234 L-102,233 L-102,3 L-100,2 L-45,2 L-43,3 L-42,20 L-34,13 L-22,7 L-9,2 Z " transform="translate(2402,2364)" style="fill: #3A3A3A;"/><path d="M0,0 L42,0 L43,1 L44,98 L51,119 L56,132 L65,166 L69,179 L77,215 L80,233 L84,255 L183,256 L183,312 L-22,312 L-22,1 L-1,1 Z M43,158 L43,256 L65,256 L59,219 L55,204 L49,176 L44,158 Z " transform="translate(1654,2284)" style="fill: #483942;"/><path d="M0,0 L29,0 L45,4 L55,7 L71,15 L81,23 L93,35 L101,48 L105,56 L110,75 L112,89 L112,148 L109,166 L105,181 L101,189 L92,203 L80,215 L78,215 L78,217 L73,219 L73,221 L58,229 L42,234 L33,236 L23,237 L7,237 L-6,235 L-20,232 L-35,226 L-46,219 L-46,217 L-50,215 L-58,208 L-65,200 L-71,190 L-79,171 L-83,145 L-83,92 L-79,66 L-73,51 L-66,38 L-61,33 L-52,23 L-40,14 L-30,9 L-10,2 Z M13,55 L2,57 L-6,61 L-10,64 L-10,66 L-13,67 L-19,79 L-22,93 L-22,144 L-18,161 L-14,169 L-8,174 L-5,177 L1,180 L7,181 L22,181 L30,179 L40,173 L47,161 L51,149 L52,140 L52,97 L50,85 L46,73 L39,63 L33,59 L24,56 Z " transform="translate(2137,2364)" style="fill: #3C3C3C;"/><path d="M0,0 L60,0 L63,5 L68,18 L73,35 L76,49 L81,64 L87,83 L89,89 L95,107 L99,118 L101,127 L101,131 L103,131 L106,139 L106,142 L108,142 L109,136 L112,125 L114,125 L115,116 L118,110 L120,104 L122,95 L128,76 L132,58 L137,40 L142,28 L148,7 L150,1 L152,0 L212,0 L214,1 L212,10 L205,30 L198,47 L193,63 L187,78 L175,111 L170,123 L165,139 L160,150 L154,168 L147,187 L141,203 L138,212 L133,225 L128,238 L120,260 L112,280 L106,290 L97,300 L89,306 L79,311 L64,314 L27,314 L27,264 L28,262 L51,261 L60,257 L66,247 L69,238 L71,238 L71,233 L73,233 L74,224 L77,216 L76,209 L74,208 L72,196 L70,196 L68,192 L64,175 L60,165 L58,156 L56,156 L55,148 L53,148 L49,135 L44,122 L43,117 L41,117 L37,103 L36,99 L33,99 L28,85 L23,73 L14,48 L8,32 L-1,6 L-2,2 Z " transform="translate(1824,2366)" style="fill: #3B3B3B;"/><path d="M0,0 L94,0 L108,3 L121,8 L134,17 L141,24 L148,35 L153,47 L156,60 L157,76 L155,94 L150,108 L143,118 L134,127 L126,132 L139,140 L147,148 L155,164 L158,177 L159,186 L160,224 L163,240 L167,248 L169,250 L169,255 L118,255 L114,249 L111,236 L110,224 L109,183 L106,171 L100,161 L92,156 L89,155 L48,154 L48,255 L0,255 Z M48,41 L48,114 L81,114 L93,111 L100,106 L106,96 L108,88 L108,68 L104,55 L98,47 L90,42 L87,41 Z " transform="translate(2190,522)" style="fill: #003D57;"/><path d="M0,0 L86,0 L102,4 L116,11 L126,19 L136,29 L146,44 L153,60 L158,79 L160,97 L160,159 L158,177 L153,196 L144,215 L135,227 L123,239 L109,248 L96,253 L87,255 L76,256 L0,256 Z M48,41 L48,215 L77,215 L87,211 L95,205 L102,195 L107,183 L110,171 L111,164 L111,91 L108,75 L103,62 L96,52 L88,45 L79,41 Z " transform="translate(1303,827)" style="fill: #000000;"/><path d="M0,0 L49,2 L68,3 L100,8 L142,16 L158,20 L167,23 L185,28 L206,35 L227,43 L238,47 L238,49 L243,50 L257,56 L268,61 L268,63 L273,64 L290,72 L304,81 L304,85 L308,86 L315,89 L315,92 L320,94 L324,96 L324,97 L316,97 L314,96 L314,94 L302,92 L277,85 L259,80 L253,78 L239,76 L216,71 L214,70 L214,68 L205,66 L193,62 L175,59 L149,51 L120,45 L104,41 L85,38 L45,34 L27,33 L-22,33 L-49,35 L-88,39 L-109,43 L-125,47 L-147,52 L-170,59 L-205,71 L-216,76 L-232,82 L-246,89 L-262,97 L-268,100 L-284,109 L-291,113 L-293,113 L-293,115 L-306,122 L-320,132 L-335,142 L-344,149 L-346,149 L-346,151 L-354,157 L-360,161 L-365,166 L-373,173 L-382,180 L-387,185 L-397,195 L-405,202 L-407,204 L-413,205 L-415,209 L-417,209 L-418,212 L-420,212 L-422,216 L-434,229 L-438,235 L-440,235 L-441,240 L-443,240 L-444,243 L-446,243 L-446,245 L-448,245 L-450,249 L-456,256 L-467,265 L-478,276 L-480,276 L-480,278 L-488,285 L-506,303 L-513,311 L-522,320 L-531,331 L-533,331 L-531,326 L-526,314 L-521,307 L-518,300 L-514,295 L-513,292 L-511,292 L-509,287 L-507,283 L-505,283 L-503,277 L-502,275 L-499,275 L-498,269 L-495,269 L-493,263 L-490,258 L-488,258 L-485,249 L-482,248 L-481,243 L-478,243 L-476,238 L-473,235 L-470,229 L-467,229 L-467,226 L-465,226 L-465,224 L-462,221 L-460,221 L-460,215 L-451,205 L-444,196 L-437,190 L-430,182 L-426,177 L-420,173 L-413,165 L-405,158 L-400,153 L-391,146 L-386,141 L-381,137 L-379,137 L-379,135 L-374,133 L-373,130 L-359,120 L-351,114 L-345,110 L-343,110 L-343,108 L-328,98 L-315,90 L-308,85 L-294,78 L-289,74 L-266,63 L-250,55 L-234,48 L-225,44 L-213,40 L-203,36 L-186,30 L-166,24 L-154,21 L-145,18 L-128,14 L-78,5 L-63,3 Z " transform="translate(875,1801)" style="fill: #B83415;"/><path d="M0,0 L20,1 L39,6 L52,13 L62,21 L69,28 L76,38 L82,50 L87,66 L89,78 L90,94 L90,170 L88,193 L83,212 L75,228 L66,239 L59,246 L45,255 L32,260 L17,263 L-8,263 L-23,260 L-36,255 L-46,249 L-56,240 L-64,231 L-72,217 L-77,202 L-80,185 L-80,79 L-77,62 L-71,45 L-63,32 L-54,22 L-45,14 L-33,7 L-17,2 Z M0,41 L-13,45 L-22,53 L-29,67 L-32,82 L-32,182 L-29,197 L-22,211 L-14,218 L-5,222 L8,223 L20,220 L28,214 L34,207 L39,195 L42,176 L42,88 L39,69 L34,57 L25,47 L17,43 L9,41 Z " transform="translate(2150,823)" style="fill: #000000;"/><path d="M0,0 L48,0 L49,186 L52,198 L57,207 L66,215 L72,217 L87,217 L95,214 L102,208 L108,196 L110,186 L111,0 L160,0 L160,182 L158,198 L153,214 L146,227 L135,239 L125,247 L109,255 L97,258 L89,259 L71,259 L57,257 L43,252 L31,245 L19,234 L10,221 L5,210 L1,196 L0,189 Z " transform="translate(1303,522)" style="fill: #003D57;"/><path d="M0,0 L27,0 L44,4 L58,11 L68,19 L75,26 L84,40 L89,53 L91,63 L91,79 L44,79 L41,62 L36,52 L34,48 L30,46 L22,42 L17,41 L8,41 L-2,44 L-11,52 L-15,61 L-16,65 L-16,77 L-12,87 L-5,94 L8,102 L27,111 L45,119 L60,128 L73,139 L81,149 L88,164 L91,178 L91,206 L87,221 L81,233 L70,245 L59,253 L46,259 L34,262 L27,263 L1,263 L-17,259 L-31,253 L-43,245 L-55,234 L-64,220 L-69,205 L-71,192 L-71,179 L-24,179 L-23,180 L-21,198 L-16,210 L-11,215 L-3,220 L6,222 L21,222 L30,219 L37,213 L41,205 L43,196 L42,182 L38,172 L32,165 L21,158 L9,152 L-15,142 L-34,131 L-45,122 L-52,115 L-58,105 L-63,92 L-65,79 L-65,64 L-62,48 L-57,36 L-48,24 L-41,17 L-27,8 L-11,2 Z " transform="translate(2452,518)" style="fill: #003D57;"/><path d="M0,0 L144,0 L144,41 L49,41 L49,103 L130,103 L130,144 L49,144 L49,215 L144,215 L144,256 L0,256 Z " transform="translate(2847,522)" style="fill: #003D57;"/><path d="M0,0 L143,0 L143,41 L48,41 L48,103 L129,103 L129,144 L48,144 L48,215 L144,215 L144,256 L0,256 Z " transform="translate(1503,827)" style="fill: #000000;"/><path d="M0,0 L143,0 L143,41 L48,41 L48,103 L129,103 L129,144 L48,144 L48,215 L144,215 L144,256 L0,256 Z " transform="translate(2011,522)" style="fill: #003D57;"/><path d="M0,0 L60,0 L61,1 L61,313 L60,314 L1,314 L0,313 L0,68 L-11,77 L-18,84 L-28,92 L-41,104 L-44,105 L-47,109 L-49,109 L-49,111 L-58,118 L-63,119 L-63,55 L-52,45 L-46,40 L-44,40 L-43,37 L-31,28 L-25,21 L-20,18 L-11,9 L-1,1 Z " transform="translate(2727,2284)" style="fill: #3E3E3E;"/><path d="M0,0 L51,0 L47,17 L23,108 L3,183 L-16,254 L-17,256 L-67,256 L-70,248 L-94,157 L-120,59 L-135,3 L-135,1 L-84,1 L-78,27 L-45,183 L-43,192 L-43,198 L-41,198 L-40,188 L-5,22 Z " transform="translate(1932,521)" style="fill: #003D57;"/><path d="M0,0 L53,0 L74,58 L92,107 L94,104 L113,52 L132,1 L133,0 L185,0 L184,5 L165,50 L146,95 L130,133 L117,164 L116,256 L68,256 L67,161 L44,107 L25,62 L8,22 L0,3 Z " transform="translate(1873,827)" style="fill: #000000;"/><path d="M0,0 L157,0 L157,41 L102,41 L102,256 L54,256 L54,41 L0,41 Z " transform="translate(2660,521)" style="fill: #003D57;"/><path d="M0,0 L49,0 L49,215 L131,215 L131,256 L0,256 Z " transform="translate(1766,827)" style="fill: #000000;"/><path d="M0,0 L49,0 L49,256 L0,256 Z " transform="translate(2583,522)" style="fill: #003D57;"/><path d="M0,0 L48,0 L48,256 L0,256 Z " transform="translate(1719,522)" style="fill: #003D57;"/><path d="M0,0 L51,0 L51,3 L37,18 L30,26 L19,38 L10,48 L-29,48 L-27,43 L-12,19 Z " transform="translate(2919,457)" style="fill: #003D57;"/></svg>