<?xml version="1.0" encoding="UTF-8"?>
<svg version="1.1" xmlns="http://www.w3.org/2000/svg" width="620" height="620">
<path d="M0 0 C6.5656935 1.77110835 12.79259143 3.37507551 19.625 3.5 C20.31062012 3.51369629 20.99624023 3.52739258 21.70263672 3.54150391 C36.15695304 3.7901481 49.51675943 2.77475949 63.625 -0.5 C60.32221706 22.61948058 41.18320609 46.21568505 22.9831543 59.9753418 C22.32871338 60.457854 21.67427246 60.94036621 21 61.4375 C19.94969604 62.21444214 19.94969604 62.21444214 18.87817383 63.00708008 C-1.08855724 77.61273137 -22.94775964 86.59832653 -46.5234375 93.65234375 C-72.69438463 101.49652908 -95.00379172 109.95228178 -108.6484375 135.09765625 C-110.71045427 139.16104223 -112.25419626 143.0926289 -113.375 147.5 C-113.57738281 148.26699219 -113.77976562 149.03398438 -113.98828125 149.82421875 C-114.47224883 151.71070461 -114.92700787 153.60464869 -115.375 155.5 C-121.02160533 153.94262982 -125.65770903 151.19765911 -130.625 148.1875 C-131.49672852 147.6620459 -132.36845703 147.1365918 -133.26660156 146.59521484 C-141.60432042 141.49224163 -149.53685004 135.88184867 -157.34960938 130.01269531 C-158.77800095 128.94587827 -160.21800159 127.89451932 -161.66601562 126.85449219 C-162.40013672 126.32243164 -163.13425781 125.79037109 -163.890625 125.2421875 C-164.55868164 124.76378418 -165.22673828 124.28538086 -165.91503906 123.79248047 C-166.63771973 123.15270264 -166.63771973 123.15270264 -167.375 122.5 C-167.375 121.84 -167.375 121.18 -167.375 120.5 C-167.94347656 120.23832031 -168.51195312 119.97664062 -169.09765625 119.70703125 C-175.26239184 116.43961565 -180.59285391 111.5212534 -185.375 106.5 C-186.13425781 105.76136719 -186.89351562 105.02273438 -187.67578125 104.26171875 C-188.50464844 103.45347656 -189.33351562 102.64523437 -190.1875 101.8125 C-190.97769531 101.04550781 -191.76789063 100.27851562 -192.58203125 99.48828125 C-194.375 97.5 -194.375 97.5 -194.375 95.5 C-195.365 95.17 -196.355 94.84 -197.375 94.5 C-198.8125 93.109375 -198.8125 93.109375 -200.375 91.25 C-200.98472656 90.52941406 -201.59445313 89.80882812 -202.22265625 89.06640625 C-202.93292969 88.21949219 -203.64320313 87.37257813 -204.375 86.5 C-205.24746384 85.48721685 -206.12123553 84.47555933 -206.99609375 83.46484375 C-216.29862746 72.67357853 -224.38376423 61.20014761 -232.18652344 49.29394531 C-233.30433864 47.60665975 -234.45201836 45.93926812 -235.6015625 44.2734375 C-236.24867188 43.31695312 -236.89578125 42.36046875 -237.5625 41.375 C-238.13355469 40.54742187 -238.70460937 39.71984375 -239.29296875 38.8671875 C-240.6701854 35.85421534 -240.51544364 34.58849758 -239.375 31.5 C-229.15440454 17.68235032 -210.58506357 9.3405314 -194 6.5625 C-175.63701223 3.87206623 -157.82822154 7.98329996 -139.98999023 12.11254883 C-113.04361222 18.34470871 -84.65180275 22.51726876 -57.375 15.5 C-56.71822266 15.33371094 -56.06144531 15.16742188 -55.38476562 14.99609375 C-42.76473995 11.71026257 -28.80723151 6.72808452 -19.34375 -2.56640625 C-13.84589925 -5.17352198 -5.56284451 -1.56930889 0 0 Z " fill="#0A569D" transform="translate(280.375,428.5)"/>
<path d="M0 0 C3.24811116 1.90714784 5.49401609 4.31944121 7.8671875 7.1875 C8.34357666 7.76056885 8.81996582 8.3336377 9.31079102 8.92407227 C19.27218566 21.3193972 25.92945447 36.46141345 26.5546875 52.5 C26.59464844 53.42554688 26.63460937 54.35109375 26.67578125 55.3046875 C26.99370936 70.30341364 24.48628602 84.39095229 21.1171875 98.9375 C20.80094139 100.31258734 20.48502265 101.68775 20.16943359 103.06298828 C20.0152597 103.73473083 19.86108582 104.40647339 19.70223999 105.09857178 C18.98398413 108.2318349 18.26858962 111.36574223 17.5546875 114.5 C17.35101563 115.38768066 17.14734375 116.27536133 16.9375 117.18994141 C14.42875922 128.54440567 14.27919111 139.85821501 14.2421875 151.4375 C14.23833038 152.19252808 14.23447327 152.94755615 14.23049927 153.72546387 C14.17278503 176.64768643 18.95011502 200.60245349 33.7421875 218.8125 C36.58506454 222.72791701 36.58506454 222.72791701 36.4609375 225.8828125 C35.63549377 228.81672664 34.59796354 231.63617271 33.5546875 234.5 C30.19033174 246.03997552 29.15380369 257.25792795 29.1171875 269.25 C29.10727783 270.5277832 29.09736816 271.80556641 29.0871582 273.12207031 C29.15908687 281.17601132 30.13773503 288.54678038 31.91381836 296.36425781 C32.5546875 299.5 32.5546875 299.5 32.5546875 303.5 C14.25972102 300.88643336 -7.07016623 286.77062893 -18.8828125 272.6875 C-20.65229013 270.59165205 -22.41472866 268.53192748 -24.3125 266.55078125 C-34.61877587 255.68573138 -41.82464611 241.8380935 -48.4453125 228.5 C-49.19361328 226.99953125 -49.19361328 226.99953125 -49.95703125 225.46875 C-56.19528799 211.93258744 -59.91313174 197.2150662 -64.20703125 182.97363281 C-68.11034065 170.12228232 -73.3864844 156.66122518 -82.4453125 146.5 C-82.95320313 145.9121875 -83.46109375 145.324375 -83.984375 144.71875 C-93.64638718 134.27828186 -107.47473935 127.53043037 -121.4453125 125.5 C-122.4453125 122.5 -122.4453125 122.5 -120.92578125 119.234375 C-120.17379653 117.89922537 -119.40849296 116.57152388 -118.6328125 115.25 C-118.02191772 114.18906128 -118.02191772 114.18906128 -117.39868164 113.10668945 C-113.06969716 105.68663357 -108.34525525 98.55235095 -103.4453125 91.5 C-102.81238281 90.58089844 -102.17945312 89.66179687 -101.52734375 88.71484375 C-93.68223466 77.62463624 -85.03560971 66.58630249 -75.1875 57.203125 C-72.62369319 54.69680264 -70.31524399 51.98664187 -67.98828125 49.26171875 C-66.52524969 47.59127006 -65.10439698 45.97726701 -63.4453125 44.5 C-62.7853125 44.5 -62.1253125 44.5 -61.4453125 44.5 C-61.4453125 43.84 -61.4453125 43.18 -61.4453125 42.5 C-59.72579276 40.96148234 -57.94343753 39.49268241 -56.1328125 38.0625 C-52.28064248 35.04764431 -52.28064248 35.04764431 -48.71484375 31.71484375 C-47.4453125 30.5 -47.4453125 30.5 -45.4453125 30.5 C-45.4453125 29.84 -45.4453125 29.18 -45.4453125 28.5 C-43.92333984 27.13061523 -43.92333984 27.13061523 -41.78125 25.55859375 C-40.99548584 24.97916016 -40.20972168 24.39972656 -39.40014648 23.80273438 C-38.54880127 23.18720703 -37.69745605 22.57167969 -36.8203125 21.9375 C-35.95672119 21.30779297 -35.09312988 20.67808594 -34.20336914 20.02929688 C-27.11301648 14.89845747 -19.88241482 10.11062783 -12.4453125 5.5 C-11.48625 4.85675781 -10.5271875 4.21351562 -9.5390625 3.55078125 C-8.6625 2.97714844 -7.7859375 2.40351562 -6.8828125 1.8125 C-6.13902344 1.31363281 -5.39523438 0.81476562 -4.62890625 0.30078125 C-2.4453125 -0.5 -2.4453125 -0.5 0 0 Z " fill="#0A569D" transform="translate(158.4453125,40.5)"/>
<path d="M0 0 C0.66 0 1.32 0 2 0 C18.62047063 34.60327492 18.23106548 70.78000579 6.08447266 106.70800781 C2.03493288 117.9625729 -3.14150137 128.47259477 -8.88867188 138.93994141 C-11.78554603 144.30985005 -14.43641755 149.80974826 -17.140625 155.27832031 C-17.90250486 156.80467735 -18.6842081 158.32110394 -19.46875 159.8359375 C-27.96010551 176.24910637 -32.07422815 194.74938927 -26.72265625 212.984375 C-23.83471817 221.03938068 -20.36699151 228.64115473 -16 236 C-21.9212332 238.78694915 -27.89386439 240.4221662 -34.25 241.9375 C-35.33249023 242.19619873 -36.41498047 242.45489746 -37.53027344 242.72143555 C-60.2938619 247.97519869 -83.12403867 250.21855663 -106.4375 250.1875 C-107.27693146 250.18689575 -108.11636292 250.1862915 -108.98123169 250.18566895 C-169.48111759 250.0676611 -169.48111759 250.0676611 -191 238 C-191.62655444 214.46939976 -185.09043055 194.5201134 -169 177 C-158.51089304 166.52762207 -146.02143718 158.9783302 -133.5 151.20703125 C-121.85458039 143.95369166 -110.60620828 136.59564948 -100.5234375 127.21484375 C-99 126 -99 126 -97 126 C-97 125.34 -97 124.68 -97 124 C-95.01739574 122.31267723 -93.0167658 120.64633943 -91 119 C-90.67 118.34 -90.34 117.68 -90 117 C-89.34 117 -88.68 117 -88 117 C-87.74476563 116.43152344 -87.48953125 115.86304688 -87.2265625 115.27734375 C-85.85887366 112.73797243 -84.23827146 110.76353581 -82.375 108.5625 C-71.72003944 95.37891656 -60.47332537 76.67308635 -59.91015625 59.21484375 C-59.79349059 56.19553659 -59.57450627 54.60791461 -58 52 C-54.16411649 49.15717472 -49.75808654 47.25128291 -45.46484375 45.20703125 C-39.31552751 42.26413492 -34.2317174 38.37180805 -29 34 C-28.00484375 33.16855469 -27.0096875 32.33710938 -25.984375 31.48046875 C-16.042205 22.89542325 -7.97585473 12.66385786 -1.12109375 1.4765625 C-0.75113281 0.98929687 -0.38117188 0.50203125 0 0 Z " fill="#09559D" transform="translate(417,370)"/>
<path d="M0 0 C23.33624381 0.27240752 41.71769696 8.24834663 58.6875 24.0625 C68.6545845 34.27353413 76.03872284 47.0400594 83.375 59.1875 C91.12630242 71.7982589 99.5598272 83.48149554 109.7578125 94.26171875 C111.375 96.1875 111.375 96.1875 111.375 98.1875 C112.035 98.1875 112.695 98.1875 113.375 98.1875 C113.375 98.8475 113.375 99.5075 113.375 100.1875 C113.94992188 100.43628906 114.52484375 100.68507813 115.1171875 100.94140625 C117.70157735 102.36773906 119.40344985 104.04723614 121.5 106.125 C135.89741133 119.32795943 156.58626378 130.46506651 176.25 131.5 C178.9140625 131.92578125 178.9140625 131.92578125 181.375 133.1875 C184.31861131 137.32207772 186.33987707 141.67869292 188.43554688 146.28271484 C190.23301111 149.92715767 192.69478977 153.09355913 195.125 156.33203125 C196.375 158.1875 196.375 158.1875 196.375 160.1875 C197.035 160.1875 197.695 160.1875 198.375 160.1875 C200.03125 161.796875 200.03125 161.796875 201.875 163.9375 C202.4834375 164.63359375 203.091875 165.3296875 203.71875 166.046875 C205.25476963 168.03210792 206.3473966 169.90622045 207.375 172.1875 C208.035 172.1875 208.695 172.1875 209.375 172.1875 C209.375 172.8475 209.375 173.5075 209.375 174.1875 C209.9525 174.455625 210.53 174.72375 211.125 175 C213.43050043 176.21679189 215.39556192 177.49083879 217.375 179.1875 C217.375 179.8475 217.375 180.5075 217.375 181.1875 C218.46941406 181.59162109 218.46941406 181.59162109 219.5859375 182.00390625 C222.30368564 183.15723634 224.5577105 184.47582513 227 186.125 C227.75539062 186.62902344 228.51078125 187.13304687 229.2890625 187.65234375 C231.17972861 189.04378903 232.77289629 190.47824923 234.375 192.1875 C230.58197158 195.55908082 226.13482863 196.9913576 221.4375 198.6875 C220.59082764 198.99574707 219.74415527 199.30399414 218.87182617 199.62158203 C195.89294566 207.80918353 171.11820962 208.56321068 147.375 203.1875 C146.15425781 202.92066406 144.93351563 202.65382813 143.67578125 202.37890625 C120.79902545 196.81428997 100.39712637 185.83526077 79.79736328 174.80761719 C61.39545964 164.98843551 42.0078617 159.1497509 21.0625 164.4375 C19.48380443 164.97546314 17.9186625 165.5560017 16.375 166.1875 C15.61703125 166.48914063 14.8590625 166.79078125 14.078125 167.1015625 C8.38487609 169.51628531 2.88325415 172.38162524 -2.625 175.1875 C-5.04981258 168.2460216 -6.97128914 161.27305376 -8.6875 154.125 C-8.95135498 153.0304248 -9.21520996 151.93584961 -9.48706055 150.80810547 C-11.25786081 143.25735541 -12.54557649 135.81601977 -13.30078125 128.1015625 C-13.52874734 125.1272826 -13.52874734 125.1272826 -14.625 122.1875 C-16.21180158 110.67974985 -15.81113439 98.88196364 -15.81030273 87.29614258 C-15.81248827 83.89326442 -15.83069526 80.49071168 -15.84960938 77.08789062 C-15.88021843 65.26091754 -15.46530758 53.8756594 -13.625 42.1875 C-13.39364582 40.37055722 -13.1677174 38.55290852 -12.94921875 36.734375 C-8.1808491 0.06033075 -8.1808491 0.06033075 0 0 Z " fill="#09569D" transform="translate(15.625,225.8125)"/>
<path d="M0 0 C4.97093824 0.41153737 9.44508386 0.79600832 14 3 C14.68071071 27.10220134 9.10264614 46.7028505 -7.75 64.72265625 C-18.04780495 75.14560813 -30.39647909 82.73774912 -42.83203125 90.34765625 C-55.95362495 98.40552126 -69.43769198 107.1471851 -80.1875 118.26171875 C-82 120 -82 120 -84 120 C-84.24621094 120.56976563 -84.49242187 121.13953125 -84.74609375 121.7265625 C-86.20685319 124.37504223 -87.95944549 126.20147276 -90.0625 128.375 C-103.59127971 143.18499641 -115.03076822 163.82591136 -116.5 184.0625 C-117.06484236 187.95755877 -117.72550114 188.7919357 -120.9375 191.2265625 C-129.13693195 196 -129.13693195 196 -133 196 C-134.63528195 166.86775497 -119.66372473 138.39295868 -100.796875 117.08203125 C-99.86703205 116.05247066 -98.93481061 115.02505222 -98 114 C-97.15953125 113.07574219 -96.3190625 112.15148437 -95.453125 111.19921875 C-87.74428502 103.12829689 -78.98015368 96.58048547 -70 90 C-69.11570312 89.34257813 -68.23140625 88.68515625 -67.3203125 88.0078125 C-61.3848625 83.71539365 -55.11005694 79.98750933 -48.84008789 76.21118164 C-42.84081634 72.57714665 -37.09442662 68.68297677 -31.40625 64.58203125 C-29 63 -29 63 -27 63 C-27 62.34 -27 61.68 -27 61 C-25.53125 59.58984375 -25.53125 59.58984375 -23.5 57.9375 C-10.08358011 46.41739387 -1.91086988 31.71161265 -0.53515625 13.88671875 C-0.25318963 9.25929989 -0.09882079 4.63469517 0 0 Z " fill="#1E63A5" transform="translate(379,8)"/>
<path d="M0 0 C1.23282715 0.00563965 2.4656543 0.0112793 3.73583984 0.01708984 C34.68994778 0.42861609 64.53002387 13.79957583 88.12109375 33.55859375 C90.1418854 35.22342944 92.21302508 36.71323082 94.375 38.1875 C95.32375 38.88875 96.2725 39.59 97.25 40.3125 C97.25 40.9725 97.25 41.6325 97.25 42.3125 C97.82492187 42.55871094 98.39984375 42.80492187 98.9921875 43.05859375 C101.60639827 44.51043053 103.31336208 46.21537549 105.375 48.375 C108.02905 51.22821933 108.02905 51.22821933 111.25 53.3125 C111.25 53.9725 111.25 54.6325 111.25 55.3125 C111.79914063 55.53808594 112.34828125 55.76367188 112.9140625 55.99609375 C115.95885611 57.71197242 118.12156044 59.93671846 120.625 62.375 C129.11223626 70.39050228 139.14801358 77.46277441 150.25 81.3125 C151.07886719 81.60898437 151.90773438 81.90546875 152.76171875 82.2109375 C165.10878338 85.9649962 179.68455557 85.87823401 191.9375 81.87109375 C194.25 81.3125 194.25 81.3125 198.25 82.3125 C198.25 86.6025 198.25 90.8925 198.25 95.3125 C180.36377972 102.7369688 160.02027999 102.19984567 142.09399414 95.05541992 C129.45062428 89.65376389 119.26406429 81.67272504 109.25 72.3125 C107.8590344 71.09856638 106.46347441 69.88986884 105.0625 68.6875 C102.55279002 66.5084105 100.18683038 64.26227472 97.875 61.875 C94.2822306 58.19053579 90.28623949 55.11793353 86.19140625 52.01171875 C85.55074219 51.45097656 84.91007812 50.89023437 84.25 50.3125 C84.25 49.6525 84.25 48.9925 84.25 48.3125 C83.569375 48.10625 82.88875 47.9 82.1875 47.6875 C79.55902809 46.45715145 78.19421447 45.47850297 76.10546875 43.5703125 C72.20951548 40.17085727 68.04853795 37.47299578 63.625 34.8125 C62.83375732 34.33474121 62.04251465 33.85698242 61.22729492 33.36474609 C43.13601227 22.59608185 21.95842687 14.28267083 0.55859375 15.56640625 C-15.88424035 16.50800562 -15.88424035 16.50800562 -20.2421875 13.1953125 C-25.75 7.12440096 -25.75 7.12440096 -25.75 2.3125 C-17.11529311 0.5928428 -8.7967127 -0.04232095 0 0 Z " fill="#F59B35" transform="translate(421.75,217.6875)"/>
<path d="M0 0 C3.21524305 1.40844718 5.32183868 3.10344786 7.75 5.625 C8.36359375 6.25664063 8.9771875 6.88828125 9.609375 7.5390625 C10.06828125 8.02117187 10.5271875 8.50328125 11 9 C8.07799973 21.33733447 -3.43694294 32.77408756 -13.37109375 40.0390625 C-15 41 -15 41 -17 41 C-17 41.66 -17 42.32 -17 43 C-19.46926974 44.2732655 -21.94802253 45.51728244 -24.4375 46.75 C-25.10587891 47.09804687 -25.77425781 47.44609375 -26.46289062 47.8046875 C-41.84005507 55.3193199 -58.66722206 55.83388897 -75.4375 56.625 C-79.66576937 56.83897537 -83.89354535 57.06130169 -88.12109375 57.2890625 C-89.64854973 57.37120247 -89.64854973 57.37120247 -91.2068634 57.45500183 C-97.49214566 57.81022144 -103.74914106 58.28431505 -110.0078125 58.96484375 C-110.70116196 59.03865265 -111.39451141 59.11246155 -112.10887146 59.18850708 C-119.59407913 60.0639827 -126.75397152 62.0038056 -134 64 C-134.96164062 64.22429687 -135.92328125 64.44859375 -136.9140625 64.6796875 C-155.74957256 69.1802076 -176.75181179 80.94262098 -188.734375 96.40625 C-195.14124197 104.5949642 -195.14124197 104.5949642 -198.93603516 105.421875 C-203.40126783 105.6562814 -207.63755943 104.96550642 -212 104 C-211.49639464 99.42627261 -209.77220736 97.08542837 -206.8125 93.625 C-205.99136719 92.66078125 -205.17023438 91.6965625 -204.32421875 90.703125 C-203.55722656 89.81109375 -202.79023438 88.9190625 -202 88 C-201.49082031 87.35546875 -200.98164063 86.7109375 -200.45703125 86.046875 C-196.05020911 80.51573167 -190.56030094 76.31969616 -185 72 C-184.1440625 71.31679687 -183.288125 70.63359375 -182.40625 69.9296875 C-153.53933889 47.757813 -115.98372769 42.48776372 -80.6875 41.5625 C-57.32937713 40.83654033 -32.44783478 39.28778797 -15.34765625 21.2578125 C-14 20 -14 20 -12 20 C-11.62875 19.21302734 -11.62875 19.21302734 -11.25 18.41015625 C-9.64994027 15.32504107 -7.83199298 12.38793797 -6 9.4375 C-5.46632813 8.5722168 -5.46632813 8.5722168 -4.921875 7.68945312 C-3.31955888 5.09764702 -1.69043344 2.53565016 0 0 Z " fill="#1D62A5" transform="translate(520,83)"/>
<path d="M0 0 C4.63617621 0.49553333 7.00276821 2.3113643 10.5 5.3125 C11.4178125 6.09238281 12.335625 6.87226563 13.28125 7.67578125 C14.1784375 8.44277344 15.075625 9.20976562 16 10 C17.40765625 11.07314453 17.40765625 11.07314453 18.84375 12.16796875 C19.91109375 13.07482422 19.91109375 13.07482422 21 14 C21 14.66 21 15.32 21 16 C21.66 16 22.32 16 23 16 C41.84410103 33.77457097 52.86877086 60.72428378 58.25 85.5625 C58.40114258 86.25641846 58.55228516 86.95033691 58.70800781 87.6652832 C61.90112477 103.54257072 62.4859172 119.64627608 63.02905273 135.7824707 C63.89602996 160.79420065 67.54709034 182.54573672 86.28125 200.78515625 C91.72652808 205.2211802 97.87931455 208.588867 104 212 C103.67 213.32 103.34 214.64 103 216 C102.34 216 101.68 216 101 216 C100.731875 216.598125 100.46375 217.19625 100.1875 217.8125 C98.94041405 220.1097636 98.16882981 221.52829405 96 223 C90.74666256 222.71706916 87.29392903 220.56007113 83.1875 217.5 C82.57511475 217.05076172 81.96272949 216.60152344 81.33178711 216.13867188 C63.09186296 202.4857322 53.08699938 183.87960437 49.42675781 161.49414062 C47.85355712 149.36914228 47.35672725 137.25660385 46.89550781 125.04614258 C45.52313033 89.52485853 37.93407465 54.62191971 13 28 C12.32710938 27.27039063 11.65421875 26.54078125 10.9609375 25.7890625 C8.32319604 23.03512098 6.2601205 21.13405964 2.82421875 19.36328125 C0 17 0 17 -0.48266602 15.08764648 C-0.59106913 12.78145346 -0.52399637 10.55371318 -0.375 8.25 C-0.34792969 7.45722656 -0.32085937 6.66445313 -0.29296875 5.84765625 C-0.22247273 3.89726634 -0.11485499 1.94828099 0 0 Z " fill="#2064A6" transform="translate(432,308)"/>
<path d="M0 0 C26.95223482 -2.18040551 53.56503768 11.7982117 74 28 C75.40572266 29.05960937 75.40572266 29.05960937 76.83984375 30.140625 C77.55269531 30.75421875 78.26554687 31.3678125 79 32 C79 32.66 79 33.32 79 34 C79.56332031 34.23847656 80.12664062 34.47695313 80.70703125 34.72265625 C96.522098 43.53275306 108.79700104 65.48342024 118.00390625 80.7109375 C132.15714685 104.03193278 145.50984662 121.8621336 172.1796875 131.1015625 C177.11253368 132.2616388 181.88649559 132.4592801 186.9375 132.625 C187.90751953 132.66367187 188.87753906 132.70234375 189.87695312 132.7421875 C192.25101398 132.83574655 194.62547989 132.91892923 197 133 C196.01 137.62 195.02 142.24 194 147 C170.96569821 148.01323908 152.53610216 143.79622133 134.5625 128.3828125 C121.89328568 116.60198821 113.08230532 101.82019501 104.0390625 87.23046875 C98.7695034 78.75114024 93.50401622 70.60077189 87 63 C86.19820313 62.00484375 85.39640625 61.0096875 84.5703125 59.984375 C79.80192975 54.071325 74.89691957 48.81120513 69 44 C68.14148438 43.23171875 67.28296875 42.4634375 66.3984375 41.671875 C50.81549753 27.97904904 30.19518994 17.3620693 9.234375 15.79296875 C5.63866281 14.51686809 4.85215079 11.87366814 3.1875 8.5625 C2.87619141 7.96373047 2.56488281 7.36496094 2.24414062 6.74804688 C0 2.34361264 0 2.34361264 0 0 Z " fill="#1D62A5" transform="translate(415,246)"/>
<path d="M0 0 C7.88171065 7.75250227 7.88171065 7.75250227 8.125 12.375 C3.86220456 22.3215227 -9.67604296 29.80566529 -19.1875 33.875 C-29.78671267 37.93010775 -39.62717065 40.17810097 -51 40.1875 C-51.74894531 40.19974609 -52.49789062 40.21199219 -53.26953125 40.22460938 C-67.63404163 40.26034199 -81.3361212 36.91334033 -95.16601562 33.45898438 C-110.30508403 29.69814986 -125.01710964 27.63956094 -140.63354492 27.68432617 C-142.93260935 27.68749326 -145.23038922 27.66388081 -147.52929688 27.63867188 C-160.61683896 27.58190432 -173.35063581 29.13737561 -185.6875 33.75 C-186.38609131 34.00458984 -187.08468262 34.25917969 -187.80444336 34.52148438 C-196.29559065 37.72079452 -204.34845068 41.69604339 -211.375 47.5 C-214.12757839 49.64471733 -214.71932315 49.98960456 -218.375 50.125 C-223.03605813 48.67846472 -227.52231592 46.93702631 -232 45 C-227.375 40.125 -227.375 40.125 -224 39 C-224 38.34 -224 37.68 -224 37 C-221.67760744 35.33068498 -219.3708828 33.80549737 -216.9375 32.3125 C-216.21159668 31.86624268 -215.48569336 31.41998535 -214.73779297 30.96020508 C-171.00852594 4.54894276 -122.92092087 10.78496569 -75.51879883 22.38793945 C-55.39467264 27.16803088 -35.59970967 25.89938892 -17.5 15.4375 C-10.72095986 11.14275481 -5.41577987 5.90417685 0 0 Z " fill="#F69C37" transform="translate(571,145)"/>
<path d="M0 0 C3.28540074 1.72475251 6.61214803 3.36612735 9.93554688 5.01611328 C13.94977985 7.0129444 17.95612368 9.02093415 21.93554688 11.08642578 C41.40827605 21.13020454 61.30320225 28.49511851 83.29882812 21.93017578 C84.16894531 21.62853516 85.0390625 21.32689453 85.93554688 21.01611328 C86.81597656 20.71447266 87.69640625 20.41283203 88.60351562 20.10205078 C93.59508636 18.2443709 97.90454795 15.96093715 102.24414062 12.87158203 C102.80230469 12.58927734 103.36046875 12.30697266 103.93554688 12.01611328 C104.92554688 12.34611328 105.91554688 12.67611328 106.93554688 13.01611328 C107.91992188 15.41455078 107.91992188 15.41455078 108.68554688 18.39111328 C109.08 19.85677734 109.08 19.85677734 109.48242188 21.35205078 C109.93554688 24.01611328 109.93554688 24.01611328 108.93554688 27.01611328 C106.55313769 28.4755262 104.25109367 29.7366544 101.74804688 30.95361328 C101.02987793 31.30625244 100.31170898 31.6588916 99.57177734 32.0222168 C89.82571901 36.66355451 79.76656792 39.56870449 68.93554688 40.01611328 C68.25878906 40.06767578 67.58203125 40.11923828 66.88476562 40.17236328 C46.37651223 41.09928999 27.36408355 31.5819954 9.93554688 22.01611328 C-24.04178837 3.5153653 -62.1384821 -11.58734617 -101.25976562 -1.14794922 C-105.54791633 0.16403118 -109.70908869 1.64446866 -113.80273438 3.47705078 C-117.70942534 4.4081792 -120.24103806 2.52142046 -123.52148438 0.50830078 C-124.29878906 -0.02537109 -125.07609375 -0.55904297 -125.87695312 -1.10888672 C-126.66714844 -1.64771484 -127.45734375 -2.18654297 -128.27148438 -2.74169922 C-128.86316406 -3.15162109 -129.45484375 -3.56154297 -130.06445312 -3.98388672 C-129.06445312 -6.98388672 -129.06445312 -6.98388672 -127.33398438 -8.15966797 C-86.16711569 -27.20507145 -39.10102254 -20.71163301 0 0 Z " fill="#1F64A5" transform="translate(500.064453125,206.98388671875)"/>
<path d="M0 0 C4.24269043 3.78343012 6.46038764 7.33701483 8.625 12.5625 C9.0727478 13.63564453 9.0727478 13.63564453 9.52954102 14.73046875 C10.37778658 16.81157246 11.19559331 18.9016162 12 21 C12.36738281 21.94746094 12.73476562 22.89492188 13.11328125 23.87109375 C17.76841042 38.71897021 16.57096132 57.59599354 11 72 C10.55672363 73.16015625 10.55672363 73.16015625 10.10449219 74.34375 C5.82962224 85.30365397 0.71744988 95.65226701 -5.04418945 105.89892578 C-23.21780886 138.22395033 -33.86603899 174.93300236 -25.56640625 211.99365234 C-24.64105947 215.27145398 -23.19896796 218.26564171 -21.8125 221.375 C-20.11892446 225.65140313 -19.6864554 227.18315759 -21.35546875 231.53125 C-23.37778285 234.68443921 -25.29911456 237.40372632 -28 240 C-28.99 240 -29.98 240 -31 240 C-39.57084731 222.47191473 -43.60474578 204.57651781 -43.375 185.125 C-43.37067963 184.42655975 -43.36635925 183.72811951 -43.36190796 183.0085144 C-43.28512006 172.39951666 -42.69641126 162.30917075 -40 152 C-39.82839355 151.32582031 -39.65678711 150.65164062 -39.47998047 149.95703125 C-35.45244165 134.37956208 -29.70687886 119.50695065 -21.90234375 105.44140625 C-19.6680753 101.39953663 -17.60469563 97.29166332 -15.56640625 93.1484375 C-14.41065114 90.82539856 -13.23248142 88.52365769 -12.02734375 86.2265625 C-1.78423014 66.5380631 3.84276139 46.3541471 -2.8125 24.30859375 C-4.86643125 18.84000179 -7.66981275 14.0671549 -10.92578125 9.2265625 C-12 7 -12 7 -11 3 C-5.555 1.515 -5.555 1.515 0 0 Z " fill="#1D62A4" transform="translate(231,9)"/>
<path d="M0 0 C3.67817783 0.56042289 6.21380426 1.5142096 9.3125 3.5625 C10.35857422 4.24505859 10.35857422 4.24505859 11.42578125 4.94140625 C11.94527344 5.29074219 12.46476563 5.64007813 13 6 C12.07186779 24.25326681 1.40186276 39.95450082 -11.62109375 52.09375 C-24.91017774 63.86223046 -42.39514719 69.8192048 -59.13671875 74.82815552 C-62.98221744 75.98242381 -66.81520458 77.17683135 -70.6484375 78.37109375 C-71.38898376 78.6015892 -72.12953003 78.83208466 -72.89251709 79.06956482 C-94.2682287 85.75607745 -117.28484696 95.0738446 -133.28515625 111.3203125 C-135 113 -135 113 -137 113 C-137 113.66 -137 114.32 -137 115 C-138.13758969 116.17206211 -139.28183697 117.33817582 -140.453125 118.4765625 C-148.75446137 126.65212105 -155.34070618 136.08192269 -159.1875 147.125 C-160.71521227 150.75662051 -161.42303397 151.74835236 -165.08984375 153.34765625 C-169.43141057 154.3790782 -173.53733798 155 -178 155 C-176.97889605 139.68344071 -165.01484958 122.34462214 -155 111 C-154.34 111 -153.68 111 -153 111 C-152.690625 110.18982422 -152.690625 110.18982422 -152.375 109.36328125 C-150.45865798 106.0695684 -147.79631693 103.72078912 -145 101.1875 C-144.41621582 100.65487549 -143.83243164 100.12225098 -143.23095703 99.57348633 C-138.43032784 95.25922113 -133.42246465 91.50401593 -128 88 C-127.23300781 87.46375 -126.46601563 86.9275 -125.67578125 86.375 C-103.84715031 71.57128169 -77.84310152 64.47992127 -53.02880859 56.37646484 C-51.4189406 55.84734508 -49.80907716 55.31821144 -48.19921875 54.7890625 C-47.46363235 54.55108948 -46.72804596 54.31311646 -45.97016907 54.06793213 C-28.20903822 48.21753336 -15.16642673 36.68485506 -6.6875 20.125 C-3.47037732 13.62619699 -1.30158806 7.15873432 0 0 Z " fill="#F69B37" transform="translate(454,36)"/>
<path d="M0 0 C5.67607927 0.52679951 10.0777796 2.08145271 15.1875 4.5625 C16.30668823 5.10148926 16.30668823 5.10148926 17.44848633 5.65136719 C53.75421864 23.53288714 76.25460618 57.6742038 89 95 C91.43829501 102.46566613 93.7625037 109.96957631 96.01928711 117.49194336 C102.73240879 139.69517306 111.78034183 159.3999202 133 171 C139.84437483 174.30840625 146.527145 176.62997658 154 178 C154.68359375 179.671875 154.68359375 179.671875 155 182 C153.78515625 184.578125 153.78515625 184.578125 152.0625 187.25 C151.49660156 188.14203125 150.93070313 189.0340625 150.34765625 189.953125 C149.90292969 190.62859375 149.45820312 191.3040625 149 192 C135.75159545 190.87725385 123.53945033 183.78080226 113 176 C112.13375 175.38125 111.2675 174.7625 110.375 174.125 C91.79034147 157.49662131 85.04565327 133.93826931 78.08251953 110.90161133 C74.30768782 98.48586843 69.98617232 86.33030027 64.0625 74.75 C63.72968018 74.09161133 63.39686035 73.43322266 63.05395508 72.75488281 C59.65346567 66.13919482 55.89119235 59.69540908 51.30078125 53.828125 C50 52 50 52 50 50 C49.34 50 48.68 50 48 50 C44 45.52941176 44 45.52941176 44 43 C43.4225 42.773125 42.845 42.54625 42.25 42.3125 C40 41 40 41 38.27734375 38.74609375 C35.59266155 35.5088183 32.69756097 33.2124268 29.3125 30.75 C28.66837158 30.27546387 28.02424316 29.80092773 27.3605957 29.31201172 C21.70922609 25.26672118 15.74847567 22.02840151 9.46020508 19.08105469 C6.41879865 17.59848992 4.33457554 16.56812966 2.58984375 13.60546875 C1.95543627 10.80315226 1.3529963 8.02133519 0.875 5.1875 C0.70742188 4.21167969 0.53984375 3.23585938 0.3671875 2.23046875 C0.24601562 1.49441406 0.12484375 0.75835937 0 0 Z " fill="#F69C37" transform="translate(428,276)"/>
<path d="M0 0 C5.601262 1.86708733 8.66948052 8.27197965 12 13 C12.62648438 13.88429688 13.25296875 14.76859375 13.8984375 15.6796875 C28.02350641 36.70750503 33.45639005 62.21879279 33.375 87.25 C33.3737915 87.9475238 33.37258301 88.64504761 33.37133789 89.3637085 C33.29306689 106.18672312 30.50345927 122.0295635 26.98828125 138.43359375 C26.81058197 139.26612671 26.63288269 140.09865967 26.44979858 140.9564209 C25.56475209 145.09409152 24.66494332 149.2272018 23.73046875 153.35400391 C18.89945733 175.0645398 18.30549271 195.22758996 30.4375 214.875 C35.23595396 222.46660162 35.23595396 222.46660162 42 228 C42 228.66 42 229.32 42 230 C42.99 230.33 43.98 230.66 45 231 C43.57016548 234.58227359 41.96608666 235.99910749 38.625 237.875 C37.85414063 238.32617188 37.08328125 238.77734375 36.2890625 239.2421875 C34 240 34 240 31.9140625 239.3203125 C30.00006834 238.00004714 28.38519089 236.65170797 26.75 235 C26.22921875 234.484375 25.7084375 233.96875 25.171875 233.4375 C24 232 24 232 24 230 C23.34 230 22.68 230 22 230 C20.45483137 227.77787144 19.05517626 225.57895087 17.6875 223.25 C17.28523193 222.5698584 16.88296387 221.8897168 16.46850586 221.18896484 C1.17067792 194.81339943 4.50148365 168.7601877 11 140.25 C19.20620493 103.92198989 22.61551906 68.57003685 6.5625 34 C6.02387329 32.83428467 6.02387329 32.83428467 5.47436523 31.64501953 C3.1835673 26.89800834 0.56449983 22.90177076 -2.84179688 18.87304688 C-4.64604813 15.95521052 -4.25843708 13.52421654 -3.6328125 10.25390625 C-2.64064641 6.72008011 -1.41675623 3.38789533 0 0 Z " fill="#F69C38" transform="translate(429,340)"/>
<path d="M0 0 C4.62 0 9.24 0 14 0 C20.94940315 20.84820944 19.92702179 42.20906987 10.375 62.125 C3.16451761 76.24857274 -7.81542627 87.48250854 -18.6796875 98.8515625 C-34.61978989 115.58594848 -47.06688561 133.13819712 -57 154 C-57.41121094 154.79664063 -57.82242188 155.59328125 -58.24609375 156.4140625 C-61.89101479 163.76063487 -63.40134222 172.0037433 -65 180 C-65.21011719 181.04800781 -65.42023438 182.09601563 -65.63671875 183.17578125 C-65.96738783 186.65669558 -65.9655683 189.89007807 -65.8515625 193.37890625 C-65.79935547 195.13170898 -65.79935547 195.13170898 -65.74609375 196.91992188 C-65.66520529 199.35309891 -65.56093553 201.78560838 -65.43359375 204.21679688 C-65.23156981 212.92787659 -65.23156981 212.92787659 -67.49926758 216.09179688 C-69.26182798 217.59803083 -71.02495752 218.79432622 -73 220 C-74.35053546 221.31590635 -75.69306167 222.64078414 -77 224 C-77.66 223.67 -78.32 223.34 -79 223 C-84.1237048 201.05030166 -81.5053553 176.98945887 -74 156 C-73.6184375 154.89011719 -73.236875 153.78023437 -72.84375 152.63671875 C-66.36731769 134.7171307 -55.66798705 117.23695793 -43 103 C-42.34 103 -41.68 103 -41 103 C-40.77183594 102.4534375 -40.54367187 101.906875 -40.30859375 101.34375 C-38.60840578 98.29863722 -36.44710264 96.04540081 -34.0625 93.5 C-33.57595947 92.97591553 -33.08941895 92.45183105 -32.58813477 91.91186523 C-30.59022182 89.76034084 -28.58236463 87.61834006 -26.56933594 85.48095703 C-10.03353569 67.9051328 3.15758076 50.44141815 4.375 25.4375 C4.17812293 20.07000922 2.87929024 14.78626327 1.75390625 9.55078125 C1.08164439 6.38453241 0.53213156 3.19278934 0 0 Z " fill="#F69B37" transform="translate(299,0)"/>
<path d="M0 0 C0.33 0 0.66 0 1 0 C1.48362696 2.16567544 1.96167317 4.33259741 2.4375 6.5 C2.70433594 7.7065625 2.97117187 8.913125 3.24609375 10.15625 C4.65260102 17.32725082 5.19462893 24.21138022 5.1875 31.5 C5.18669434 32.36496094 5.18588867 33.22992188 5.18505859 34.12109375 C4.98680267 55.29949131 4.98680267 55.29949131 1 62 C0.67 60.02 0.34 58.04 0 56 C0.66 56 1.32 56 2 56 C1.979375 54.700625 1.95875 53.40125 1.9375 52.0625 C1.92637633 48.09691278 2.11419643 44.18226568 2.40869141 40.22802734 C3.17486535 29.75211885 2.70379609 19.47032031 2 9 C1.34 9 0.68 9 0 9 C0 6.03 0 3.06 0 0 Z " fill="#93B0D2" transform="translate(427,393)"/>
<path d="M0 0 C0.66 0.33 1.32 0.66 2 1 C-14.25714425 18.45102828 -14.25714425 18.45102828 -21 25 C-21.99 24.67 -22.98 24.34 -24 24 C-21.7169864 21.49197571 -19.4222145 18.99501771 -17.125 16.5 C-16.47402344 15.78457031 -15.82304688 15.06914063 -15.15234375 14.33203125 C-14.52714844 13.65527344 -13.90195313 12.97851562 -13.2578125 12.28125 C-12.6817627 11.65283203 -12.10571289 11.02441406 -11.51220703 10.37695312 C-10 9 -10 9 -8 9 C-8 8.34 -8 7.68 -8 7 C-6.25 5.2734375 -6.25 5.2734375 -4 3.375 C-3.2575 2.74335937 -2.515 2.11171875 -1.75 1.4609375 C-0.88375 0.73777344 -0.88375 0.73777344 0 0 Z " fill="#467CB3" transform="translate(105,76)"/>
<path d="M0 0 C-12.00565673 8.00377116 -31.03326245 6.15951858 -45 6 C-44.67 5.34 -44.34 4.68 -44 4 C-43.31599121 3.98541748 -42.63198242 3.97083496 -41.92724609 3.95581055 C-24.63505993 3.64653416 -24.63505993 3.64653416 -7.671875 0.62109375 C-5.01573228 0.00365706 -2.71572251 -0.11398105 0 0 Z " fill="#5584B9" transform="translate(486,133)"/>
<path d="M0 0 C0.99 0.33 1.98 0.66 3 1 C-2.27101414 7.41069287 -8.09128152 13.18590512 -14 19 C-14.99 18.67 -15.98 18.34 -17 18 C-11.51481106 11.80376805 -5.92437965 5.77909513 0 0 Z " fill="#5889BB" transform="translate(292,111)"/>
<path d="M0 0 C1.26302406 3.73335053 0.86162903 6.98748798 0.5 10.875 C-0.12199401 18.35839441 0.25083628 25.51988838 1 33 C-1 32 -1 32 -1.6328125 30.171875 C-3.7723609 19.64393842 -4.0852303 10.04285782 0 0 Z " fill="#749BC5" transform="translate(388,549)"/>
<path d="M0 0 C1.67542976 0.28604898 3.34385343 0.61781233 5 1 C-5.1101582 7.06609492 -21.0769659 4.54340919 -32 2 C-28.52852728 0.92942289 -25.35873916 0.89944833 -21.73828125 0.9375 C-20.53751953 0.94523437 -19.33675781 0.95296875 -18.09960938 0.9609375 C-16.84986328 0.97382813 -15.60011719 0.98671875 -14.3125 1 C-11.82946935 1.02537589 -9.34638972 1.04645406 -6.86328125 1.0625 C-5.21259644 1.07990234 -5.21259644 1.07990234 -3.52856445 1.09765625 C-1.06268967 1.28912001 -1.06268967 1.28912001 0 0 Z " fill="#FBCA99" transform="translate(607,314)"/>
<path d="M0 0 C7.21751464 0.04754621 14.2499868 1.11057493 21.375 2.1875 C21.375 2.5175 21.375 2.8475 21.375 3.1875 C12.98495285 3.32355482 4.73119957 2.94225351 -3.625 2.1875 C-3.955 3.5075 -4.285 4.8275 -4.625 6.1875 C-4.955 6.1875 -5.285 6.1875 -5.625 6.1875 C-5.667721 4.52138095 -5.66563832 2.85367115 -5.625 1.1875 C-4.00097866 -0.43652134 -2.24505513 0.01655645 0 0 Z " fill="#6A93C1" transform="translate(15.625,225.8125)"/>
<path d="M0 0 C0.33 0 0.66 0 1 0 C1.27118138 19.4949284 1.27118138 19.4949284 -2 28 C-2.33 28 -2.66 28 -3 28 C-3.15856416 21.45262159 -2.61020183 15.38367188 -1.5 8.9375 C-1.35691406 8.07189453 -1.21382813 7.20628906 -1.06640625 6.31445312 C-0.71736324 4.2085603 -0.35960461 2.10411505 0 0 Z " fill="#749BC5" transform="translate(4,253)"/>
<path d="M0 0 C0.33 0 0.66 0 1 0 C1 11.88 1 23.76 1 36 C-2.74377744 32.25622256 -1.58649918 25.88366256 -1.75 20.8125 C-1.80542969 19.59240234 -1.86085937 18.37230469 -1.91796875 17.11523438 C-2.13777852 10.98387403 -2.21871262 5.76011931 0 0 Z " fill="#9CB6D5" transform="translate(202,174)"/>
<path d="M0 0 C0.33 0 0.66 0 1 0 C1 6.93 1 13.86 1 21 C2.98 21 4.96 21 7 21 C7 21.66 7 22.32 7 23 C7.99 23.33 8.98 23.66 10 24 C5.88425629 23.5251065 2.63616656 22.9789756 -1 21 C-1.18451025 6.21867882 -1.18451025 6.21867882 0 0 Z " fill="#99B4D4" transform="translate(227,587)"/>
<path d="M0 0 C0.81210938 0.78310547 0.81210938 0.78310547 1.640625 1.58203125 C1.310625 2.24203125 0.980625 2.90203125 0.640625 3.58203125 C-0.225625 3.41703125 -1.091875 3.25203125 -1.984375 3.08203125 C-5.17162699 2.60984577 -8.14422527 2.50548007 -11.359375 2.58203125 C-11.359375 4.56203125 -11.359375 6.54203125 -11.359375 8.58203125 C-12.921875 7.33203125 -12.921875 7.33203125 -14.359375 5.58203125 C-13.94921875 3.47265625 -13.94921875 3.47265625 -13.359375 1.58203125 C-11.61703204 0.99624353 -9.86502222 0.43914956 -8.109375 -0.10546875 C-6.64757812 -0.57533203 -6.64757812 -0.57533203 -5.15625 -1.0546875 C-2.359375 -1.41796875 -2.359375 -1.41796875 0 0 Z " fill="#749BC5" transform="translate(233.359375,10.41796875)"/>
<path d="M0 0 C0.33 0.99 0.66 1.98 1 3 C-1.64 5.64 -4.28 8.28 -7 11 C-7.99 10.67 -8.98 10.34 -10 10 C-8.90033225 8.70450101 -7.79508199 7.41373929 -6.6875 6.125 C-6.07261719 5.40570312 -5.45773438 4.68640625 -4.82421875 3.9453125 C-3 2 -3 2 0 0 Z " fill="#5686BA" transform="translate(254,542)"/>
<path d="M0 0 C0.33 0 0.66 0 1 0 C1.38297872 18.34042553 1.38297872 18.34042553 -1 27 C-3 24 -3 24 -3 21 C-2.34 21 -1.68 21 -1 21 C-1.01160156 20.40574219 -1.02320313 19.81148438 -1.03515625 19.19921875 C-1.10546296 12.74104487 -0.68350916 6.42010387 0 0 Z " fill="#7197C4" transform="translate(430,428)"/>
<path d="M0 0 C0 4.29 0 8.58 0 13 C-1.32 13.33 -2.64 13.66 -4 14 C-3.34 13.67 -2.68 13.34 -2 13 C-2 9.04 -2 5.08 -2 1 C-3.32 0.67 -4.64 0.34 -6 0 C-4 -1 -4 -1 0 0 Z " fill="#FAC693" transform="translate(620,300)"/>
<path d="M0 0 C0.66 0.33 1.32 0.66 2 1 C0.5484451 2.67257355 -0.91144409 4.33791758 -2.375 6 C-3.18710937 6.928125 -3.99921875 7.85625 -4.8359375 8.8125 C-5.55007812 9.534375 -6.26421875 10.25625 -7 11 C-7.66 11 -8.32 11 -9 11 C-9 11.66 -9 12.32 -9 13 C-8.34 13.33 -7.68 13.66 -7 14 C-7.99 14 -8.98 14 -10 14 C-9.54261927 9.31808451 -7.80889606 7.36895826 -4.4375 4.1875 C-3.61121094 3.39730469 -2.78492188 2.60710937 -1.93359375 1.79296875 C-1.29550781 1.20128906 -0.65742187 0.60960937 0 0 Z " fill="#789DC7" transform="translate(50,451)"/>
<path d="M0 0 C1 2 1 2 0.44140625 3.9453125 C0.15136719 4.66460937 -0.13867188 5.38390625 -0.4375 6.125 C-0.72496094 6.84945313 -1.01242187 7.57390625 -1.30859375 8.3203125 C-1.53675781 8.87460937 -1.76492188 9.42890625 -2 10 C-3 7 -3 7 -2 3 C-5.63 3.33 -9.26 3.66 -13 4 C-9.99559979 1.99706653 -8.29006055 1.50728374 -4.8125 0.875 C-3.91144531 0.70742188 -3.01039063 0.53984375 -2.08203125 0.3671875 C-1.39496094 0.24601562 -0.70789063 0.12484375 0 0 Z " fill="#85A6CC" transform="translate(343,428)"/>
<path d="M0 0 C-3.37148985 2.2476599 -5.9237222 2.79798837 -9.875 3.625 C-11.08929688 3.88539063 -12.30359375 4.14578125 -13.5546875 4.4140625 C-16.47090842 4.91001844 -19.05617097 5.12312593 -22 5 C-18.62851015 2.7523401 -16.0762778 2.20201163 -12.125 1.375 C-10.91070312 1.11460937 -9.69640625 0.85421875 -8.4453125 0.5859375 C-5.52909158 0.08998156 -2.94382903 -0.12312593 0 0 Z " fill="#89A9CE" transform="translate(486,133)"/>
<path d="M0 0 C0.66 0.33 1.32 0.66 2 1 C0.64023099 2.63776623 -0.73854764 4.25976012 -2.125 5.875 C-2.89070313 6.77992187 -3.65640625 7.68484375 -4.4453125 8.6171875 C-7.22694207 11.21167379 -9.34709892 12.07883364 -13 13 C-11.625 11 -11.625 11 -10 9 C-9.34 9 -8.68 9 -8 9 C-8 8.34 -8 7.68 -8 7 C-6.25 5.2734375 -6.25 5.2734375 -4 3.375 C-3.2575 2.74335937 -2.515 2.11171875 -1.75 1.4609375 C-1.1725 0.97882813 -0.595 0.49671875 0 0 Z " fill="#7A9FC8" transform="translate(105,76)"/>
<path d="M0 0 C4.05606165 0.46800711 7.46588679 0.87953208 11 3 C10.34 3.66 9.68 4.32 9 5 C9 4.34 9 3.68 9 3 C6.03 2.505 6.03 2.505 3 2 C3 4.97 3 7.94 3 11 C2.67 11 2.34 11 2 11 C1.34 7.37 0.68 3.74 0 0 Z " fill="#FAC692" transform="translate(428,276)"/>
<path d="M0 0 C0.66 0.33 1.32 0.66 2 1 C1.01 2.32 0.02 3.64 -1 5 C1.475 6.98 1.475 6.98 4 9 C-0.455 8.01 -0.455 8.01 -5 7 C-5 6.01 -5 5.02 -5 4 C-2.5 1.8125 -2.5 1.8125 0 0 Z " fill="#F9BE81" transform="translate(345,184)"/>
<path d="M0 0 C0.99 0.66 1.98 1.32 3 2 C2.67 2.66 2.34 3.32 2 4 C1.40703125 4.12246094 0.8140625 4.24492187 0.203125 4.37109375 C-2.78438974 5.22391268 -4.12312607 6.82928237 -6.25 9.0625 C-6.95640625 9.79597656 -7.6628125 10.52945313 -8.390625 11.28515625 C-9.18726563 12.13400391 -9.18726563 12.13400391 -10 13 C-10.66 12.67 -11.32 12.34 -12 12 C-8.04 8.04 -4.08 4.08 0 0 Z " fill="#FACB9B" transform="translate(571,145)"/>
<path d="M0 0 C2.68092691 2.68092691 2.38670257 4.39167363 2.625 8.125 C2.69976562 9.22070312 2.77453125 10.31640625 2.8515625 11.4453125 C2.90054687 12.28835938 2.94953125 13.13140625 3 14 C3.66 14 4.32 14 5 14 C4.67 15.98 4.34 17.96 4 20 C2.25971266 16.89234404 1.48685934 14.0636951 0.875 10.5625 C0.70742188 9.63566406 0.53984375 8.70882813 0.3671875 7.75390625 C0.01726157 5.12946175 -0.06716891 2.64357647 0 0 Z " fill="#9AB5D5" transform="translate(3,356)"/>
<path d="M0 0 C3.63 0 7.26 0 11 0 C11 0.33 11 0.66 11 1 C8.36 1 5.72 1 3 1 C3 1.99 3 2.98 3 4 C3.66 4 4.32 4 5 4 C5 5.65 5 7.3 5 9 C2.28404014 5.8459821 1.03153759 4.12615036 0 0 Z " fill="#99B4D4" transform="translate(415,246)"/>
<path d="M0 0 C0 0.66 0 1.32 0 2 C-3.02734375 2.24414062 -3.02734375 2.24414062 -6.0546875 2.48828125 C-8.39519216 2.87393036 -8.39519216 2.87393036 -10 6 C-10.66 5.34 -11.32 4.68 -12 4 C-12 3.01 -12 2.02 -12 1 C-7.95858806 0.36605303 -4.0934693 -0.12404452 0 0 Z " fill="#F8B774" transform="translate(408,219)"/>
<path d="M0 0 C0.33 0 0.66 0 1 0 C1 1.65 1 3.3 1 5 C5.455 4.505 5.455 4.505 10 4 C7.09907498 5.93395001 6.10325263 6.30131941 2.8125 6.625 C1.554375 6.74875 0.29625 6.8725 -1 7 C-0.67 4.69 -0.34 2.38 0 0 Z " fill="#FAC590" transform="translate(277,184)"/>
<path d="M0 0 C0.33 0.99 0.66 1.98 1 3 C-0.2065625 3.6496875 -0.2065625 3.6496875 -1.4375 4.3125 C-4.27846354 5.80474002 -4.27846354 5.80474002 -5 9 C-7.0625 9.6875 -7.0625 9.6875 -9 10 C-9 9.34 -9 8.68 -9 8 C-7.52999567 6.72599625 -6.05484219 5.4564992 -4.53515625 4.2421875 C-2.90933658 2.92663876 -1.43797979 1.51786755 0 0 Z " fill="#759CC6" transform="translate(329,160)"/>
<path d="M0 0 C1.25127906 3.54667178 0.72285053 5.72253438 -0.4375 9.25 C-0.72496094 10.14203125 -1.01242188 11.0340625 -1.30859375 11.953125 C-1.53675781 12.62859375 -1.76492187 13.3040625 -2 14 C-2.66 13.67 -3.32 13.34 -4 13 C-3.71682074 11.39431334 -3.42312209 9.79047953 -3.125 8.1875 C-2.96257812 7.29417969 -2.80015625 6.40085937 -2.6328125 5.48046875 C-2 3 -2 3 0 0 Z " fill="#86A7CC" transform="translate(167,570)"/>
<path d="M0 0 C2.2477975 2.05233685 3.0022242 3.00667261 4 6 C4.03954234 8.33299825 4.04401732 10.66708189 4 13 C1.12420019 8.68630028 0 5.19265239 0 0 Z " fill="#7299C4" transform="translate(93,216)"/>
<path d="M0 0 C0.66 0 1.32 0 2 0 C2 2.31 2 4.62 2 7 C3.32 6.67 4.64 6.34 6 6 C6 6.66 6 7.32 6 8 C4.02 8.99 4.02 8.99 2 10 C0.39644899 6.49223216 -0.22036864 3.85645121 0 0 Z " fill="#F9BE82" transform="translate(219,214)"/>
<path d="M0 0 C1.25127906 3.54667178 0.72285053 5.72253438 -0.4375 9.25 C-0.72496094 10.14203125 -1.01242187 11.0340625 -1.30859375 11.953125 C-1.53675781 12.62859375 -1.76492188 13.3040625 -2 14 C-2.33 14 -2.66 14 -3 14 C-3.34615998 8.34605369 -2.43425238 4.96993194 0 0 Z " fill="#82A4CB" transform="translate(427,456)"/>
<path d="M0 0 C1.76462683 3.08809695 2 4.23312136 2 8 C-2.455 7.01 -2.455 7.01 -7 6 C-3 5 -3 5 0 6 C0 4.02 0 2.04 0 0 Z " fill="#9CB6D6" transform="translate(189,336)"/>
<path d="M0 0 C4.97093824 0.41153737 9.44508386 0.79600832 14 3 C14 3.33 14 3.66 14 4 C11.69 4 9.38 4 7 4 C7 3.34 7 2.68 7 2 C4.69 1.67 2.38 1.34 0 1 C0 0.67 0 0.34 0 0 Z " fill="#88A8CD" transform="translate(436,249)"/>
<path d="M0 0 C0.66 0 1.32 0 2 0 C2.66 1.98 3.32 3.96 4 6 C3.34 6 2.68 6 2 6 C2 5.01 2 4.02 2 3 C1.01 3 0.02 3 -1 3 C-1 3.99 -1 4.98 -1 6 C-1.66 6 -2.32 6 -3 6 C-1.125 1.125 -1.125 1.125 0 0 Z " fill="#82A4CB" transform="translate(417,370)"/>
<path d="M0 0 C2.4375 0.375 2.4375 0.375 5 1 C5.33 1.66 5.66 2.32 6 3 C4.824375 3.433125 4.824375 3.433125 3.625 3.875 C0.90328368 4.84912254 0.90328368 4.84912254 -1 7 C-0.67 4.69 -0.34 2.38 0 0 Z " fill="#F9BF82" transform="translate(454,36)"/>
<path d="M0 0 C0.33 0.99 0.66 1.98 1 3 C2.98 3 4.96 3 7 3 C7 3.66 7 4.32 7 5 C7.99 5.33 8.98 5.66 10 6 C6.53058454 5.54177532 3.32604951 5.10868317 0 4 C0 2.68 0 1.36 0 0 Z " fill="#628EBE" transform="translate(227,605)"/>
<path d="M0 0 C7.57142857 3 7.57142857 3 10 6 C9.01 6.495 9.01 6.495 8 7 C8 6.34 8 5.68 8 5 C6.35 4.67 4.7 4.34 3 4 C3 3.34 3 2.68 3 2 C2.01 2 1.02 2 0 2 C0 1.34 0 0.68 0 0 Z " fill="#7A9FC8" transform="translate(465,259)"/>
<path d="M0 0 C-2.94017338 1.52453435 -5.85472185 2.95157395 -9 4 C-9.99 3.67 -10.98 3.34 -12 3 C-7.89542386 0.01485372 -5.02254631 -0.2954439 0 0 Z " fill="#86A7CD" transform="translate(228,523)"/>
<path d="M0 0 C3.3 0 6.6 0 10 0 C5.90909091 2.72727273 5.90909091 2.72727273 3 3 C2.01 2.01 1.02 1.02 0 0 Z " fill="#7299C4" transform="translate(379,208)"/>
<path d="M0 0 C4.95 0.99 4.95 0.99 10 2 C8.02 2.99 8.02 2.99 6 4 C6 3.34 6 2.68 6 2 C4.02 2 2.04 2 0 2 C0 1.34 0 0.68 0 0 Z " fill="#749AC5" transform="translate(458,192)"/>
<path d="M0 0 C0.33 0 0.66 0 1 0 C1.1875 3.375 1.1875 3.375 1 7 C0.01 7.66 -0.98 8.32 -2 9 C-1.125 2.25 -1.125 2.25 0 0 Z " fill="#6792C0" transform="translate(379,25)"/>
</svg>
