<?xml version="1.0" encoding="UTF-8"?>
<!-- Generator: visioncortex VTracer -->
<svg id="svg" version="1.1" xmlns="http://www.w3.org/2000/svg" style="display: block;" viewBox="0 0 403 507"><path d="M0,0 L13,1 L34,7 L43,12 L54,19 L61,25 L66,30 L73,38 L82,52 L89,68 L92,78 L93,90 L93,130 L91,147 L87,162 L84,172 L83,181 L83,194 L85,207 L90,221 L97,235 L105,247 L112,257 L116,265 L116,277 L108,286 L98,291 L91,294 L81,300 L77,301 L77,308 L82,315 L83,318 L83,328 L78,338 L71,342 L62,343 L68,352 L69,359 L66,367 L59,374 L47,380 L39,393 L36,400 L34,416 L30,424 L23,431 L17,434 L12,435 L1,435 L-18,426 L-30,424 L-42,425 L-51,428 L-53,432 L-57,439 L-58,443 L-58,450 L-55,461 L-53,465 L-54,469 L-59,468 L-66,462 L-69,457 L-71,447 L-71,436 L-69,426 L-62,417 L-50,410 L-41,407 L-50,399 L-55,394 L-61,387 L-66,382 L-76,371 L-82,362 L-86,364 L-93,372 L-103,383 L-111,390 L-124,402 L-131,406 L-135,407 L-135,403 L-130,398 L-120,388 L-114,383 L-109,378 L-100,368 L-89,353 L-92,348 L-98,340 L-107,326 L-115,310 L-121,295 L-127,275 L-152,278 L-174,278 L-198,275 L-216,271 L-231,266 L-231,263 L-223,263 L-209,266 L-192,268 L-161,268 L-136,264 L-130,262 L-136,230 L-138,202 L-138,188 L-136,165 L-132,164 L-131,172 L-130,187 L-126,226 L-120,253 L-118,259 L-108,257 L-89,249 L-72,240 L-63,234 L-50,224 L-36,212 L-27,203 L-15,187 L-13,187 L-11,181 L-4,171 L4,155 L14,130 L20,104 L22,91 L22,82 L16,85 L9,84 L7,82 L7,72 L12,66 L17,63 L24,64 L27,68 L29,84 L29,106 L25,133 L21,147 L14,165 L8,175 L4,183 L-2,192 L-8,204 L-12,211 L-18,240 L-24,261 L-31,277 L-37,290 L-47,309 L-51,316 L-64,336 L-69,342 L-72,347 L-70,351 L-66,357 L-60,365 L-53,373 L-51,377 L-47,379 L-41,386 L-33,393 L-20,405 L-13,409 L-13,411 L-8,413 L3,418 L8,419 L15,416 L17,413 L21,395 L27,380 L36,368 L50,360 L53,359 L48,354 L40,349 L35,346 L28,337 L27,332 L30,330 L45,328 L65,327 L66,322 L61,313 L60,310 L60,302 L65,292 L71,287 L90,277 L99,272 L101,272 L96,262 L89,252 L81,239 L73,223 L69,210 L67,201 L66,191 L66,180 L69,164 L73,151 L76,136 L77,125 L77,94 L75,81 L71,68 L60,47 L51,36 L40,25 L34,21 L24,15 L7,7 L-2,5 L-3,1 Z M19,69 L13,74 L12,79 L14,80 L22,73 L22,70 Z M23,80 Z M-32,229 L-37,234 L-45,241 L-61,252 L-78,261 L-102,270 L-114,272 L-111,282 L-107,292 L-99,308 L-93,319 L-87,330 L-80,340 L-78,340 L-69,327 L-60,311 L-52,295 L-44,275 L-39,259 L-31,233 Z " transform="translate(260,23)" style="fill: #ED9E55;"/><path d="M0,0 L5,0 L10,5 L10,10 L-2,14 L3,30 L10,48 L16,64 L21,79 L22,85 L17,87 L10,87 L1,64 L1,59 L-11,63 L-15,63 L-12,71 L-12,78 L-15,86 L-23,93 L-29,96 L-34,97 L-43,97 L-53,94 L-67,86 L-79,76 L-78,71 L-76,69 L-70,70 L-62,77 L-49,83 L-42,84 L-34,82 L-29,78 L-27,73 L-27,66 L-30,61 L-36,60 L-43,62 L-51,69 L-56,68 L-64,62 L-63,58 L-54,51 L-48,48 L-46,48 L-44,42 L-45,35 L-47,33 L-55,33 L-66,42 L-68,46 L-74,45 L-79,41 L-81,40 L-80,34 L-77,31 L-75,31 L-73,27 L-65,22 L-61,21 L-51,21 L-42,24 L-37,29 L-31,36 L-29,46 L-30,51 L-17,52 L-9,48 L-6,44 L-9,37 L-12,28 L-15,20 L-27,23 L-32,22 L-37,17 L-36,13 L-9,3 Z M-16,62 Z " transform="translate(190,64)" style="fill: #F0BB53;"/><path d="M0,0 L7,2 L9,5 L9,10 L17,14 L17,18 L8,25 L2,30 L-1,29 L-2,25 L8,16 L6,14 L-1,20 L-8,20 L-12,16 L-12,9 L-6,2 Z M0,5 L-8,12 L-7,14 L-1,13 L3,9 L2,5 Z " transform="translate(237,84)" style="fill: #EAC39B;"/><path d="M0,0 L7,0 L11,4 L12,9 L8,17 L1,22 L-5,22 L-10,17 L-10,11 L-4,3 Z M2,6 L-3,11 L-4,16 L0,17 L7,8 L6,6 Z " transform="translate(296,68)" style="fill: #EAB990;"/><path d="M0,0 L7,3 L8,5 L8,12 L4,18 L-2,22 L-10,22 L-13,18 L-13,11 L-9,5 L-4,1 Z M0,6 L-7,12 L-8,16 L-5,18 L0,13 L3,8 Z " transform="translate(278,48)" style="fill: #EAB68E;"/><path d="M0,0 L9,0 L12,3 L12,11 L7,18 L0,21 L-6,20 L-9,16 L-8,9 L-5,4 Z M2,5 L-4,12 L-3,15 L2,14 L7,8 L7,5 Z " transform="translate(255,67)" style="fill: #EAB88F;"/><path d="M0,0 L8,0 L12,4 L12,10 L5,18 L3,19 L-6,19 L-9,16 L-9,9 L-2,1 Z M3,5 L-3,9 L-4,13 L0,14 L6,10 L7,6 Z " transform="translate(251,105)" style="fill: #EABA92;"/><path d="M0,0 L6,0 L10,4 L9,11 L4,17 L2,18 L-5,18 L-8,15 L-8,9 L-2,1 Z M3,5 L-1,7 L-3,10 L-3,13 L1,12 L5,7 Z " transform="translate(253,31)" style="fill: #EBC19F;"/><path d="M0,0 L6,0 L10,5 L9,10 L3,17 L1,18 L-5,18 L-8,14 L-7,6 L-2,1 Z M2,5 L-3,9 L-4,12 L0,12 L4,8 L4,5 Z " transform="translate(236,48)" style="fill: #EABF9C;"/><path d="M0,0 L5,0 L9,4 L8,10 L1,16 L-6,16 L-9,11 L-7,4 L-2,1 Z M0,5 L-4,9 L-4,11 L1,10 L3,8 L3,5 Z " transform="translate(218,65)" style="fill: #EBC29F;"/><path d="M0,0 L8,3 L7,8 L-2,17 L-5,21 L-9,20 L-9,16 L-2,8 L-2,5 L-2,1 Z " transform="translate(288,59)" style="fill: #E8D1A5;"/><path d="M0,0 L7,1 L8,2 L8,7 L-5,20 L-9,19 L-9,15 L-3,9 L-1,9 L-1,1 Z " transform="translate(268,77)" style="fill: #E9D3A8;"/><path d="M0,0 L8,1 L9,5 L-3,18 L-8,17 L-7,13 L-2,7 L0,5 L-1,1 Z " transform="translate(265,41)" style="fill: #E9D3A9;"/><path d="M0,0 L8,1 L9,5 L-4,18 L-8,17 L-9,15 L-4,9 L0,5 L-1,1 Z " transform="translate(247,58)" style="fill: #E9D4AB;"/><path d="M0,0 L6,0 L9,4 L8,10 L6,12 L0,12 L-3,10 L-4,5 L-2,1 Z " transform="translate(65,140)" style="fill: #F2C87B;"/><path d="M0,0 L6,2 L7,3 L7,10 L3,13 L-3,12 L-5,10 L-5,4 L-2,1 Z " transform="translate(76,120)" style="fill: #F1CA79;"/><path d="M0,0 L6,1 L8,4 L7,11 L1,13 L-4,10 L-4,3 Z " transform="translate(46,109)" style="fill: #E8A975;"/><path d="M0,0 L6,0 L9,2 L8,6 L3,10 L1,10 L0,13 L-4,16 L-8,16 L-8,11 L0,5 Z " transform="translate(227,76)" style="fill: #E8D3AB;"/><path d="M0,0 L6,1 L8,3 L8,10 L4,12 L-3,11 L-4,10 L-4,3 Z " transform="translate(56,179)" style="fill: #E8AA76;"/><path d="M0,0 L6,1 L8,4 L1,13 L-1,15 L-5,15 L-4,9 L-1,6 Z " transform="translate(243,23)" style="fill: #EADBB8;"/><path d="M0,0 L6,0 L8,1 L7,6 L2,11 L-1,14 L-6,13 L-5,9 L0,4 Z " transform="translate(226,40)" style="fill: #ECDBBA;"/><path d="M0,0 L6,0 L8,1 L7,5 L-2,12 L-6,12 L-6,8 L0,3 Z " transform="translate(209,57)" style="fill: #EDDBBD;"/><path d="M0,0 L5,1 L7,7 L4,10 L-1,10 L-3,8 L-3,2 Z " transform="translate(94,154)" style="fill: #EAB78E;"/></svg>