<?xml version="1.0" encoding="UTF-8"?>
<!-- Generator: visioncortex VTracer -->
<svg id="svg" version="1.1" xmlns="http://www.w3.org/2000/svg" style="display: block;" viewBox="0 0 2880 2836"><path d="M0,0 L13,0 L21,4 L37,12 L47,19 L55,19 L63,35 L67,49 L78,58 L84,62 L88,74 L102,89 L111,96 L115,101 L120,105 L121,110 L117,118 L115,121 L113,121 L112,126 L109,132 L105,135 L103,135 L103,143 L96,153 L89,157 L84,156 L80,152 L70,150 L63,150 L57,153 L48,170 L45,172 L42,168 L32,187 L27,193 L20,202 L17,201 L16,199 L9,205 L3,209 L-1,213 L-4,213 L-6,218 L-15,229 L-18,232 L-19,241 L-14,252 L0,270 L11,284 L24,300 L36,316 L47,330 L53,334 L74,342 L83,347 L90,355 L96,359 L99,363 L98,425 L-562,425 L-563,376 L-569,367 L-574,355 L-582,344 L-585,341 L-584,336 L-575,316 L-568,293 L-564,275 L-562,273 L-527,269 L-509,265 L-501,261 L-492,252 L-481,238 L-472,226 L-458,201 L-446,176 L-442,164 L-469,170 L-488,177 L-507,187 L-524,197 L-543,207 L-559,213 L-575,215 L-593,214 L-628,205 L-638,199 L-644,191 L-647,182 L-647,164 L-630,170 L-617,177 L-610,184 L-605,193 L-605,195 L-596,197 L-590,198 L-573,198 L-561,195 L-545,187 L-522,171 L-505,159 L-484,145 L-469,136 L-453,128 L-438,123 L-420,118 L-393,110 L-375,106 L-368,105 L-334,105 L-298,110 L-272,112 L-233,112 L-209,110 L-196,107 L-194,106 L-196,100 L-188,92 L-177,84 L-167,75 L-166,73 L-175,71 L-174,68 L-150,55 L-132,47 L-134,44 L-133,40 L-122,35 L-108,29 L-106,25 L-108,21 L-88,15 L-77,13 L-62,11 L-49,7 L-16,2 Z M-393,263 L-401,267 L-413,278 L-427,289 L-443,297 L-479,309 L-501,314 L-519,314 L-535,313 L-540,316 L-543,322 L-544,328 L-542,341 L-539,347 L-535,351 L-523,356 L-512,363 L-510,365 L-508,374 L-300,374 L-305,365 L-314,357 L-329,350 L-334,348 L-337,348 L-337,327 L-339,316 L-346,306 L-366,286 L-374,279 L-387,267 L-391,263 Z M-280,264 L-301,267 L-300,301 L-297,321 L-294,331 L-288,338 L-274,348 L-261,352 L-249,356 L-241,363 L-240,365 L-238,365 L-235,374 L-192,374 L-196,366 L-206,356 L-216,334 L-214,329 L-206,316 L-201,305 L-199,296 L-200,284 L-202,281 L-226,271 L-240,266 L-250,264 Z M-87,279 L-95,283 L-112,287 L-135,290 L-144,301 L-151,310 L-175,334 L-174,342 L-170,348 L-161,352 L-149,357 L-138,365 L-136,374 L55,374 L50,369 L42,362 L26,356 L14,351 L11,350 L9,346 L-4,338 L-13,334 L-16,334 L-18,329 L-27,316 L-36,306 L-46,299 L-82,281 Z " transform="translate(794,148)" style="fill: #000000;"/><path d="M0,0 L769,0 L769,114 L0,114 Z " transform="translate(201,2420)" style="fill: #1A171B;"/><path d="M0,0 L769,0 L769,114 L0,114 Z " transform="translate(201,1978)" style="fill: #1A171B;"/><path d="M0,0 L770,0 L770,112 L0,112 Z " transform="translate(201,2198)" style="fill: #1A171B;"/><path d="M0,0 L769,0 L769,112 L0,112 Z " transform="translate(1948,2198)" style="fill: #1A171B;"/><path d="M0,0 L604,0 L631,2 L663,7 L686,13 L703,19 L719,27 L733,36 L745,47 L752,55 L761,70 L767,88 L769,101 L769,114 L0,114 Z " transform="translate(1073,1978)" style="fill: #19171B;"/><path d="M0,0 L601,0 L601,114 L-168,114 L-168,104 L-166,90 L-161,74 L-154,60 L-146,50 L-140,43 L-124,31 L-108,22 L-87,14 L-65,8 L-35,3 L-16,1 Z " transform="translate(2116,1978)" style="fill: #1A171A;"/><path d="M0,0 L769,0 L769,14 L766,29 L762,41 L754,56 L742,70 L728,81 L713,90 L691,99 L665,106 L642,110 L612,113 L593,114 L0,114 Z " transform="translate(1948,2420)" style="fill: #1A171B;"/><path d="M0,0 L53,0 L54,228 L57,257 L63,285 L73,315 L81,333 L92,354 L106,375 L116,388 L128,402 L145,419 L156,428 L169,438 L184,448 L200,457 L216,465 L241,475 L265,482 L291,487 L309,489 L354,489 L378,486 L402,481 L428,473 L449,464 L469,454 L488,442 L507,428 L517,419 L525,412 L537,400 L546,389 L558,374 L572,352 L585,327 L595,301 L602,276 L606,256 L608,240 L609,226 L610,0 L662,0 L662,230 L659,261 L654,288 L647,313 L637,341 L622,372 L608,395 L595,413 L586,424 L574,438 L555,457 L544,466 L532,476 L515,488 L497,499 L477,510 L449,522 L421,531 L395,537 L369,541 L357,542 L305,542 L278,539 L249,533 L225,526 L201,517 L176,505 L158,495 L137,481 L124,471 L111,460 L98,448 L87,437 L80,429 L67,413 L55,396 L42,375 L31,354 L21,330 L12,303 L5,273 L1,243 L0,227 Z " transform="translate(231,827)" style="fill: #000000;"/><path d="M0,0 L53,0 L54,226 L57,248 L62,267 L70,287 L79,304 L91,321 L101,332 L107,339 L115,346 L128,356 L141,364 L157,372 L172,378 L190,383 L208,386 L220,387 L238,387 L258,385 L277,381 L297,374 L316,365 L330,356 L343,346 L356,334 L365,324 L376,309 L387,290 L395,270 L401,249 L404,228 L405,0 L457,0 L457,219 L455,244 L450,270 L440,300 L430,321 L419,339 L407,355 L395,369 L382,382 L371,391 L356,402 L343,410 L324,420 L301,429 L279,435 L254,439 L241,440 L216,440 L195,438 L170,433 L147,426 L129,418 L108,407 L91,395 L81,387 L69,376 L56,363 L45,349 L35,335 L25,317 L16,298 L7,271 L2,246 L0,226 Z " transform="translate(333,827)" style="fill: #003D57;"/><path d="M0,0 L53,0 L54,220 L58,236 L66,252 L74,262 L83,270 L97,278 L109,282 L121,284 L131,284 L147,281 L160,276 L172,268 L183,257 L191,244 L196,231 L198,221 L199,0 L252,0 L252,218 L250,235 L245,254 L237,272 L227,287 L216,300 L204,311 L189,321 L170,330 L152,335 L139,337 L113,337 L96,334 L75,327 L60,319 L46,309 L33,297 L22,283 L14,269 L7,253 L2,234 L0,213 Z " transform="translate(436,827)" style="fill: #000000;"/><path d="M0,0 L661,0 L661,52 L0,52 Z " transform="translate(232,624)" style="fill: #003D57;"/><path d="M0,0 L661,0 L661,51 L0,51 Z " transform="translate(232,726)" style="fill: #000000;"/><path d="M0,0 L49,0 L68,41 L84,77 L102,116 L118,152 L122,160 L123,0 L171,0 L171,256 L123,256 L115,240 L99,205 L83,169 L64,128 L50,97 L49,256 L0,256 Z " transform="translate(1244,522)" style="fill: #003D57;"/><path d="M0,0 L48,0 L56,16 L72,51 L88,87 L107,128 L121,159 L122,0 L170,0 L170,256 L122,256 L103,215 L87,179 L68,138 L55,109 L49,96 L48,256 L0,256 Z " transform="translate(2022,827)" style="fill: #000000;"/><path d="M0,0 L94,0 L108,3 L121,8 L134,17 L141,24 L148,35 L153,47 L156,60 L157,76 L155,94 L150,108 L143,118 L134,127 L126,132 L139,140 L147,148 L155,164 L158,177 L159,186 L160,224 L163,240 L167,248 L169,250 L169,255 L118,255 L114,249 L111,236 L110,224 L109,183 L106,171 L100,161 L92,156 L89,155 L48,154 L48,255 L0,255 Z M48,41 L48,114 L81,114 L93,111 L100,106 L106,96 L108,88 L108,68 L104,55 L98,47 L90,42 L87,41 Z " transform="translate(1932,522)" style="fill: #003D57;"/><path d="M0,0 L86,0 L102,4 L116,11 L126,19 L136,29 L146,44 L153,60 L158,79 L160,97 L160,159 L158,177 L153,196 L144,215 L135,227 L123,239 L109,248 L96,253 L87,255 L76,256 L0,256 Z M48,41 L48,215 L77,215 L87,211 L95,205 L102,195 L107,183 L110,171 L111,164 L111,91 L108,75 L103,62 L96,52 L88,45 L79,41 Z " transform="translate(1045,827)" style="fill: #000000;"/><path d="M0,0 L20,1 L39,6 L52,13 L62,21 L69,28 L76,38 L82,50 L87,66 L89,78 L90,94 L90,170 L88,193 L83,212 L75,228 L66,239 L59,246 L45,255 L32,260 L17,263 L-8,263 L-23,260 L-36,255 L-46,249 L-56,240 L-64,231 L-72,217 L-77,202 L-80,185 L-80,79 L-77,62 L-71,45 L-63,32 L-54,22 L-45,14 L-33,7 L-17,2 Z M0,41 L-13,45 L-22,53 L-29,67 L-32,82 L-32,182 L-29,197 L-22,211 L-14,218 L-5,222 L8,223 L20,220 L28,214 L34,207 L39,195 L42,176 L42,88 L39,69 L34,57 L25,47 L17,43 L9,41 Z " transform="translate(1892,823)" style="fill: #000000;"/><path d="M0,0 L48,0 L49,186 L52,198 L57,207 L66,215 L72,217 L87,217 L95,214 L102,208 L108,196 L110,186 L111,0 L160,0 L160,182 L158,198 L153,214 L146,227 L135,239 L125,247 L109,255 L97,258 L89,259 L71,259 L57,257 L43,252 L31,245 L19,234 L10,221 L5,210 L1,196 L0,189 Z " transform="translate(1045,522)" style="fill: #003D57;"/><path d="M0,0 L27,0 L44,4 L58,11 L68,19 L75,26 L84,40 L89,53 L91,63 L91,79 L44,79 L41,62 L36,52 L34,48 L30,46 L22,42 L17,41 L8,41 L-2,44 L-11,52 L-15,61 L-16,65 L-16,77 L-12,87 L-5,94 L8,102 L27,111 L45,119 L60,128 L73,139 L81,149 L88,164 L91,178 L91,206 L87,221 L81,233 L70,245 L59,253 L46,259 L34,262 L27,263 L1,263 L-17,259 L-31,253 L-43,245 L-55,234 L-64,220 L-69,205 L-71,192 L-71,179 L-24,179 L-23,180 L-21,198 L-16,210 L-11,215 L-3,220 L6,222 L21,222 L30,219 L37,213 L41,205 L43,196 L42,182 L38,172 L32,165 L21,158 L9,152 L-15,142 L-34,131 L-45,122 L-52,115 L-58,105 L-63,92 L-65,79 L-65,64 L-62,48 L-57,36 L-48,24 L-41,17 L-27,8 L-11,2 Z " transform="translate(2194,518)" style="fill: #003D57;"/><path d="M0,0 L144,0 L144,41 L49,41 L49,103 L130,103 L130,144 L49,144 L49,215 L144,215 L144,256 L0,256 Z " transform="translate(2589,522)" style="fill: #003D57;"/><path d="M0,0 L143,0 L143,41 L48,41 L48,103 L129,103 L129,144 L48,144 L48,215 L144,215 L144,256 L0,256 Z " transform="translate(1245,827)" style="fill: #000000;"/><path d="M0,0 L143,0 L143,41 L48,41 L48,103 L129,103 L129,144 L48,144 L48,215 L144,215 L144,256 L0,256 Z " transform="translate(1753,522)" style="fill: #003D57;"/><path d="M0,0 L200,0 L200,114 L90,115 L0,115 Z " transform="translate(1073,2420)" style="fill: #1A171B;"/><path d="M0,0 L200,0 L200,112 L0,112 Z " transform="translate(1073,2198)" style="fill: #1A171B;"/><path d="M0,0 L196,0 L196,114 L0,114 Z " transform="translate(1646,2420)" style="fill: #1A171B;"/><path d="M0,0 L197,0 L197,112 L0,112 Z " transform="translate(1646,2198)" style="fill: #1A171B;"/><path d="M0,0 L51,0 L47,17 L23,108 L3,183 L-16,254 L-17,256 L-67,256 L-70,248 L-94,157 L-120,59 L-135,3 L-135,1 L-84,1 L-78,27 L-45,183 L-43,192 L-43,198 L-41,198 L-40,188 L-5,22 Z " transform="translate(1674,521)" style="fill: #003D57;"/><path d="M0,0 L53,0 L74,58 L92,107 L94,104 L113,52 L132,1 L133,0 L185,0 L184,5 L165,50 L146,95 L130,133 L117,164 L116,256 L68,256 L67,161 L44,107 L25,62 L8,22 L0,3 Z " transform="translate(1615,827)" style="fill: #000000;"/><path d="M0,0 L157,0 L157,41 L102,41 L102,256 L54,256 L54,41 L0,41 Z " transform="translate(2402,521)" style="fill: #003D57;"/><path d="M0,0 L49,0 L49,215 L131,215 L131,256 L0,256 Z " transform="translate(1508,827)" style="fill: #000000;"/><path d="M0,0 L49,0 L49,256 L0,256 Z " transform="translate(2325,522)" style="fill: #003D57;"/><path d="M0,0 L48,0 L48,256 L0,256 Z " transform="translate(1461,522)" style="fill: #003D57;"/><path d="M0,0 L20,0 L26,9 L42,37 L57,63 L72,89 L86,113 L97,132 L98,0 L114,0 L114,154 L92,154 L79,132 L64,106 L50,82 L35,56 L21,32 L17,25 L16,154 L0,154 Z " transform="translate(1591,2657)" style="fill: #1A171B;"/><path d="M0,0 L20,0 L26,9 L39,32 L53,56 L68,82 L83,108 L97,132 L98,0 L114,0 L114,154 L92,154 L79,132 L64,106 L50,82 L35,56 L21,32 L17,25 L16,154 L0,154 Z " transform="translate(2593,2657)" style="fill: #1A171B;"/><path d="M0,0 L14,0 L30,3 L46,11 L57,21 L66,35 L71,47 L75,67 L75,92 L72,110 L66,126 L59,137 L52,145 L42,152 L31,157 L16,160 L-2,160 L-16,157 L-28,152 L-37,145 L-45,137 L-53,123 L-58,109 L-61,90 L-61,70 L-59,56 L-54,40 L-48,28 L-38,16 L-25,7 L-12,2 Z M4,14 L-10,17 L-20,22 L-28,29 L-35,39 L-40,50 L-44,66 L-45,74 L-45,86 L-43,100 L-38,115 L-32,126 L-24,135 L-13,142 L-4,145 L2,146 L12,146 L25,143 L34,138 L44,129 L52,116 L57,101 L59,89 L59,71 L56,55 L50,40 L42,29 L34,22 L22,16 L11,14 Z " transform="translate(2490,2654)" style="fill: #1A171B;"/><path d="M0,0 L52,0 L68,3 L79,7 L90,13 L99,21 L106,31 L112,44 L115,56 L116,64 L116,90 L113,105 L108,117 L101,128 L93,136 L79,145 L65,150 L52,153 L44,154 L0,154 Z M17,14 L17,140 L42,140 L62,136 L78,128 L87,120 L95,107 L99,93 L100,86 L100,66 L97,51 L92,39 L84,29 L73,21 L59,16 L48,14 Z " transform="translate(1909,2657)" style="fill: #1A171B;"/><path d="M0,0 L77,0 L77,14 L17,14 L17,68 L74,68 L74,82 L17,82 L17,140 L79,140 L79,154 L0,154 Z " transform="translate(2057,2657)" style="fill: #1A161B;"/><path d="M0,0 L76,0 L76,14 L16,14 L16,68 L73,68 L73,82 L16,82 L16,140 L79,140 L79,154 L0,154 Z " transform="translate(1483,2657)" style="fill: #1A171A;"/><path d="M0,0 L14,0 L32,3 L37,5 L36,16 L35,20 L19,16 L3,15 L-11,18 L-20,24 L-24,30 L-25,33 L-25,46 L-19,55 L-6,64 L18,77 L30,86 L37,93 L43,105 L44,110 L44,124 L41,134 L35,144 L27,151 L15,157 L1,160 L-17,160 L-33,157 L-42,154 L-41,137 L-37,138 L-24,143 L-13,145 L-1,145 L11,142 L20,136 L24,130 L27,120 L27,112 L24,105 L17,97 L1,87 L-17,77 L-28,69 L-33,64 L-39,57 L-42,49 L-43,39 L-41,28 L-36,18 L-28,10 L-14,3 Z " transform="translate(1776,2654)" style="fill: #1A171B;"/><path d="M0,0 L18,0 L25,10 L41,36 L53,55 L64,73 L68,68 L82,46 L98,21 L109,4 L112,0 L130,0 L123,12 L110,32 L99,49 L83,74 L74,88 L73,154 L56,154 L55,88 L45,72 L32,52 L16,27 L3,7 L0,2 Z " transform="translate(2286,2657)" style="fill: #1A171B;"/><path d="M0,0 L16,0 L16,140 L78,140 L78,154 L0,154 Z " transform="translate(2227,2657)" style="fill: #1A171B;"/><path d="M0,0 L51,0 L51,3 L37,18 L30,26 L19,38 L10,48 L-29,48 L-27,43 L-12,19 Z " transform="translate(2661,457)" style="fill: #003D57;"/></svg>